<?xml version="1.0" encoding="utf-8"?>
<!-- Generator: Adobe Illustrator 19.1.0, SVG Export Plug-In . SVG Version: 6.00 Build 0)  -->
<svg version="1.1" xmlns="http://www.w3.org/2000/svg" xmlns:xlink="http://www.w3.org/1999/xlink" x="0px" y="0px"
	 viewBox="0 0 3402 3402" enable-background="new 0 0 3402 3402" xml:space="preserve">
<g id="Background">
</g>
<g id="Guides">
</g>
<g id="Foreground">
	<g>
		<path fill-rule="evenodd" clip-rule="evenodd" fill="#E85C0D" d="M3204.5,2345.6l-282.2-314.2c156.9-35.4,264.9-167.6,264.9-328.8
			c0-158.1-104.6-292.6-256.7-332.4l273-303.9l-542.2-27.1L2844,523.8L2332.7,708l-26.9-546.6l-402.5,367.3L1671,34.1l-232.4,494.7
			l-402.4-367.3L1009.4,708L498.1,523.8l182.7,515.4l-542.2,27.1l272.7,303.6c-152.8,38.8-257.9,171.2-257.9,329.6
			c0,163.9,107.2,300.1,267,333.3l-280.9,312.7l542.2,27.1l-182.7,515.4l511.3-184.2l26.9,546.6l402.4-367.3l232.4,494.7
			l232.3-494.7l402.5,367.3l26.9-546.6l511.3,184.2l-182.7-515.4L3204.5,2345.6z M2795.3,2836.3l-489-176.1l-25.7,522.7
			l-384.9-351.3l-222.2,473.1l-222.2-473.1l-384.8,351.3l-25.7-522.7l-488.9,176.1l174.7-492.9L208,2317.5l250.4-278.7
			c0,0,0.1,0,0.1,0l23.8-26.2c-0.1,0-0.2,0-0.3,0l0.4-0.4l-0.4,0.2c-12.7-1.5-25.1-3.6-37.3-6.3l-0.2,0.2
			c-146.7-33.4-255.3-157.7-255.3-305.7c0-145,104.3-267,246.6-303.2l0,0c5.8-1.5,11.7-2.8,17.6-4c1.2-0.2,2.4-0.5,3.6-0.7
			c0.7-0.1,1.3-0.3,2-0.4c4.8-0.9,9.7-1.7,14.6-2.4l-25.4-27.2c0,0,0,0,0,0L207,1094.1l518.5-25.9L550.8,575.3l488.9,176.1
			l25.7-522.7L1450.3,580l222.2-473.1L1894.7,580l384.9-351.3l25.7,522.7l489-176.1l-174.7,492.9l518.5,25.9l-266.4,296.6
			c0.1,0,0.2,0,0.2,0l0,0c158.5,24.7,279.2,153.7,279.2,309.6c0,146.9-107.4,270.2-252.5,304.6l-0.1-0.1
			c-11.2,2.7-22.7,4.9-34.3,6.5l0,0c-0.3,0-0.5,0.1-0.8,0.1l20.3,21.6l255.4,284.3l-518.5,25.9L2795.3,2836.3z"/>
		<polygon fill-rule="evenodd" clip-rule="evenodd" fill="#E85C0D" points="1858.1,666.4 1673.5,276.5 1487.7,668.8 1672.1,1291.6 
					"/>
		<polygon fill-rule="evenodd" clip-rule="evenodd" fill="#E85C0D" points="1449.5,677.2 1127.1,385.3 1105.7,816 1514.1,1323.1 		
			"/>
		<polygon fill-rule="evenodd" clip-rule="evenodd" fill="#E85C0D" points="2241.2,814.7 2219.9,385.3 1895.8,678.7 1830.2,1323.1 
					"/>
		<polygon fill-rule="evenodd" clip-rule="evenodd" fill="#E85C0D" points="2250.5,1384.9 2787.1,1384.9 2992.6,1157.9 2553,1136.1 
					"/>
		<polygon fill-rule="evenodd" clip-rule="evenodd" fill="#E85C0D" points="2239.6,2015 2553.9,2272.4 2992.6,2250.7 2779.2,2015 		
			"/>
		<polygon fill-rule="evenodd" clip-rule="evenodd" fill="#E85C0D" points="1352.9,1385.4 1076.7,842.2 663.8,694.7 808.2,1098.9 		
			"/>
		<polygon fill-rule="evenodd" clip-rule="evenodd" fill="#E85C0D" points="2538.3,1099.8 2683.1,694.7 2269.4,842.5 1992.7,1385.4 
					"/>
		<polygon fill-rule="evenodd" clip-rule="evenodd" fill="#E85C0D" points="1488.4,2741.2 1673.5,3132.1 1859.4,2739.3 
			1672.1,2117.7 		"/>
		<polygon fill-rule="evenodd" clip-rule="evenodd" fill="#E85C0D" points="1105.8,2595.5 1127.1,3023.3 1449.8,2731.1 
			1514.1,2086.3 		"/>
		<polygon fill-rule="evenodd" clip-rule="evenodd" fill="#E85C0D" points="808.7,2308.4 663.8,2713.9 1078.1,2565.9 1362.6,2013 		
			"/>
		<polygon fill-rule="evenodd" clip-rule="evenodd" fill="#E85C0D" points="1097,1386.5 794.3,1136.1 354.4,1157.9 561.3,1386.5 		
			"/>
		<polygon fill-rule="evenodd" clip-rule="evenodd" fill="#E85C0D" points="1104.4,2016.1 566.1,2016.8 354.4,2250.7 793.1,2272.4 
					"/>
		<polygon fill-rule="evenodd" clip-rule="evenodd" fill="#E85C0D" points="1978.1,2013 2269.1,2566 2683.1,2713.9 2538.2,2308.4 		
			"/>
		<polygon fill-rule="evenodd" clip-rule="evenodd" fill="#E85C0D" points="1897.7,2731.6 2219.9,3023.3 2241.1,2594.3 
			1830.2,2086.3 		"/>
		<path fill-rule="evenodd" clip-rule="evenodd" fill="#E85C0D" d="M2836.6,1952.5c139.2,0,252.3-112.8,252.3-252
			c0-139.2-112.8-252-252-252l-2330.4,0c-139.2,0-252,112.8-252,252s113.1,252,252.3,252L2836.6,1952.5z M2711.5,1760.9
			c-9.1-12.3-21.4-13.7-63-19.1l-25.1-3.4c-33.1-5.4-71-11.8-98.3-33.4c-23-18.2-34.7-45.6-34.7-73.6c0-77,70-108.9,149-108.9
			c57.1,0,120.2,17.2,159.2,65.7l-65.7,48.1c-14.4-15.2-42.2-45.1-93.5-45.1c-27.2,0-52.9,9.8-52.9,29.9c0,6.9,3.7,13.7,9.1,18.2
			c9.1,7.4,26.7,10.3,64.6,15.7c56.6,7.8,62,8.8,77.4,13.2c17.1,4.9,74.2,21.1,74.2,95.7c0,85.8-84.4,116.7-164,116.7
			c-52.9,0-129.2-14.7-170.4-68.7l71.6-52c15,18.1,41.1,48.6,102.5,48.6c11.8,0,35.2-1,49.7-10.3c9.1-5.9,14.4-14.2,14.4-23.5
			C2715.8,1769.3,2714.2,1764.4,2711.5,1760.9z M2080.1,1526.6h97.2v198c0,31.9,0.5,53,19.8,67.7c6.4,4.9,19.8,12.3,41.1,12.3
			c19.8,0,34.7-5.9,43.8-13.7c17.6-14.7,18.2-34.3,18.2-70.6v-191.8h97.2v209c0,46.1-3.2,82.9-47.5,114.3
			c-37.4,26.5-81.2,28.9-108.4,28.9c-26.2,0-48.6-2.4-68.4-8.3c-88.7-25.5-92.9-93.2-92.9-137.8V1526.6z M1661.8,1528.4h164.5
			c49.1,0,93.5,0.5,123.9,27c17.6,15.2,27.8,38.7,27.8,64.8c0,15.7-4.8,31.9-15,45.1c-18.7,23.1-41.7,25.5-55,27
			c10.7,0.5,21.9,1.5,37.9,10.8c37.9,21.6,43.3,58.4,43.3,78c0,13.7-2.7,28-9.1,41.2c-25.1,51.5-84.9,52-122.3,52.5h-196V1528.4z
			 M1181.6,1527.6h84l103.5,143.6l104.6-143.7h84v347.4h-94.9v-195.7l-93.1,124.3l-93.2-124.2V1875h-94.9V1527.6z M968.4,1526.8
			h97.9v347.5h-97.9V1526.8z M534.2,1528.4h92.4l137.3,207v-207h90.8v346.3h-94l-136.2-207.5v207.5h-90.3V1528.4z"/>
	</g>
	<path fill-rule="evenodd" clip-rule="evenodd" fill="#E85C0D" d="M1837.5,1731c12.8,0,28.8,0.5,41.1,8.3c8,4.9,15,14.2,15,28
		c0,10.8-4.8,21.1-12.3,27c-11.2,9.3-28.3,9.8-41.7,9.8h-82.8V1731H1837.5z"/>
	<path fill-rule="evenodd" clip-rule="evenodd" fill="#E85C0D" d="M1833.2,1601c17.1,0,50.2,0.5,50.2,31.9
		c0,28.5-31.5,28.9-48.1,29.4h-78.5V1601H1833.2z"/>
</g>
</svg>
