<?xml version="1.0" encoding="utf-8"?>
<!-- Generator: Adobe Illustrator 19.1.0, SVG Export Plug-In . SVG Version: 6.00 Build 0)  -->
<svg version="1.1" id="Layer_1" xmlns="http://www.w3.org/2000/svg" xmlns:xlink="http://www.w3.org/1999/xlink" x="0px" y="0px"
	 viewBox="-397 274.3 46.5 47" style="enable-background:new -397 274.3 46.5 47;" xml:space="preserve">
<style type="text/css">
	.st0{display:none;}
	.st1{display:inline;}
	.st2{clip-path:url(#SVGID_2_);fill:#E94C38;}
	.st3{clip-path:url(#SVGID_4_);fill:#A33524;}
	.st4{clip-path:url(#SVGID_6_);fill:#FFFFFF;}
	.st5{clip-path:url(#SVGID_8_);fill:#FFFFFF;}
	.st6{clip-path:url(#SVGID_10_);fill:none;stroke:#FFFFFF;stroke-width:3;stroke-miterlimit:10;}
	.st7{clip-path:url(#SVGID_12_);fill:#FFFFFF;}
	.st8{clip-path:url(#SVGID_14_);fill:#FFFFFF;}
	.st9{clip-path:url(#SVGID_16_);fill:#9CC21C;}
	.st10{clip-path:url(#SVGID_18_);fill:#6D882B;}
	.st11{clip-path:url(#SVGID_20_);fill:#FFFFFF;}
	.st12{clip-path:url(#SVGID_22_);fill:#FFFFFF;}
	.st13{clip-path:url(#SVGID_24_);fill:none;stroke:#FFFFFF;stroke-width:3;stroke-miterlimit:10;}
	.st14{clip-path:url(#SVGID_26_);fill:#FFFFFF;}
	.st15{clip-path:url(#SVGID_28_);fill:#FFFFFF;}
	.st16{clip-path:url(#SVGID_30_);}
	.st17{fill:#5781A1;}
	.st18{fill:#3A5167;}
	.st19{fill:#FFFFFF;}
</style>
<g id="Layer_2" class="st0">
	<g class="st1">
		<g>
			<g>
				<defs>
					<circle id="SVGID_1_" cx="-770.2" cy="573.1" r="22.7"/>
				</defs>
				<clipPath id="SVGID_2_">
					<use xlink:href="#SVGID_1_"  style="overflow:visible;"/>
				</clipPath>
				<circle class="st2" cx="-770.2" cy="573.1" r="22.7"/>
			</g>
		</g>
		<g>
			<g>
				<defs>
					<circle id="SVGID_3_" cx="-770.2" cy="573.1" r="22.7"/>
				</defs>
				<clipPath id="SVGID_4_">
					<use xlink:href="#SVGID_3_"  style="overflow:visible;"/>
				</clipPath>
				<polygon class="st3" points="-740,581.8 -753.7,568.6 -754,568.2 -758.8,567 -761.7,566.8 -761.3,567.7 -768.2,561 
					-773.5,573.1 -771.5,577.6 -782,578.9 -764.1,597.4 -752.1,595.8 -743.4,585.3 -743.7,585 				"/>
			</g>
		</g>
		<g>
			<g>
				<defs>
					<circle id="SVGID_5_" cx="-770.2" cy="573.1" r="22.7"/>
				</defs>
				<clipPath id="SVGID_6_">
					<use xlink:href="#SVGID_5_"  style="overflow:visible;"/>
				</clipPath>
				<path class="st4" d="M-779.2,567.3c0,0,1.3,0,4.7-2.3s5.8-4.2,6.3-4s0.4-0.1,0.4,3.1s0,9,0,9h-11.4V567.3z"/>
			</g>
		</g>
		<g>
			<g>
				<defs>
					<circle id="SVGID_7_" cx="-770.2" cy="573.1" r="22.7"/>
				</defs>
				<clipPath id="SVGID_8_">
					<use xlink:href="#SVGID_7_"  style="overflow:visible;"/>
				</clipPath>
				<path class="st5" d="M-779.2,578.9c0,0,1.3,0,4.7,2.3s5.8,4.2,6.3,4c0.6-0.3,0.4,0.1,0.4-3.1s0-9,0-9h-11.4V578.9z"/>
			</g>
		</g>
		<g>
			<g>
				<defs>
					<circle id="SVGID_9_" cx="-770.2" cy="573.1" r="22.7"/>
				</defs>
				<clipPath id="SVGID_10_">
					<use xlink:href="#SVGID_9_"  style="overflow:visible;"/>
				</clipPath>
				<circle class="st6" cx="-760.8" cy="573.6" r="7.2"/>
			</g>
		</g>
		<g>
			<g>
				<defs>
					<circle id="SVGID_11_" cx="-770.2" cy="573.1" r="22.7"/>
				</defs>
				<clipPath id="SVGID_12_">
					<use xlink:href="#SVGID_11_"  style="overflow:visible;"/>
				</clipPath>
				<polygon class="st7" points="-757.4,568.6 -766.5,577.6 -765,579.2 -755.3,569.9 				"/>
			</g>
		</g>
		<g>
			<g>
				<defs>
					<circle id="SVGID_13_" cx="-770.2" cy="573.1" r="22.7"/>
				</defs>
				<clipPath id="SVGID_14_">
					<use xlink:href="#SVGID_13_"  style="overflow:visible;"/>
				</clipPath>
				<path class="st8" d="M-779.4,578.9h-2.6c-1.6,0-3-1.3-3-3v-5.6c0-1.6,1.3-3,3-3h2.6c1.6,0,3,1.3,3,3v5.6
					C-776.4,577.6-777.8,578.9-779.4,578.9z"/>
			</g>
		</g>
	</g>
</g>
<g id="Layer_4" class="st0">
	<g class="st1">
		<g>
			<g>
				<defs>
					<circle id="SVGID_15_" cx="-770.2" cy="573.1" r="22.7"/>
				</defs>
				<clipPath id="SVGID_16_">
					<use xlink:href="#SVGID_15_"  style="overflow:visible;"/>
				</clipPath>
				<circle class="st9" cx="-770.2" cy="573.1" r="22.7"/>
			</g>
		</g>
		<g>
			<g>
				<defs>
					<circle id="SVGID_17_" cx="-770.2" cy="573.1" r="22.7"/>
				</defs>
				<clipPath id="SVGID_18_">
					<use xlink:href="#SVGID_17_"  style="overflow:visible;"/>
				</clipPath>
				<polygon class="st10" points="-740,581.8 -753.7,568.5 -754,568.2 -758.8,567 -761.7,566.7 -761.3,567.7 -768.2,560.9 
					-773.5,573.1 -771.5,577.6 -782,578.9 -764.1,597.4 -752.1,595.7 -743.4,585.2 -743.7,585 				"/>
			</g>
		</g>
		<g>
			<g>
				<defs>
					<circle id="SVGID_19_" cx="-770.2" cy="573.1" r="22.7"/>
				</defs>
				<clipPath id="SVGID_20_">
					<use xlink:href="#SVGID_19_"  style="overflow:visible;"/>
				</clipPath>
				<path class="st11" d="M-779.2,567.3c0,0,1.3,0,4.7-2.3s5.8-4.2,6.3-4s0.4-0.1,0.4,3.1s0,9,0,9h-11.4V567.3z"/>
			</g>
		</g>
		<g>
			<g>
				<defs>
					<circle id="SVGID_21_" cx="-770.2" cy="573.1" r="22.7"/>
				</defs>
				<clipPath id="SVGID_22_">
					<use xlink:href="#SVGID_21_"  style="overflow:visible;"/>
				</clipPath>
				<path class="st12" d="M-779.2,578.9c0,0,1.3,0,4.7,2.3s5.8,4.2,6.3,4c0.6-0.3,0.4,0.1,0.4-3.1c0-3.3,0-9,0-9h-11.4V578.9z"/>
			</g>
		</g>
		<g>
			<g>
				<defs>
					<circle id="SVGID_23_" cx="-770.2" cy="573.1" r="22.7"/>
				</defs>
				<clipPath id="SVGID_24_">
					<use xlink:href="#SVGID_23_"  style="overflow:visible;"/>
				</clipPath>
				<circle class="st13" cx="-760.8" cy="573.6" r="7.2"/>
			</g>
		</g>
		<g>
			<g>
				<defs>
					<circle id="SVGID_25_" cx="-770.2" cy="573.1" r="22.7"/>
				</defs>
				<clipPath id="SVGID_26_">
					<use xlink:href="#SVGID_25_"  style="overflow:visible;"/>
				</clipPath>
				<polygon class="st14" points="-757.4,568.5 -766.5,577.6 -765,579.1 -755.3,569.8 				"/>
			</g>
		</g>
		<g>
			<g>
				<defs>
					<circle id="SVGID_27_" cx="-770.2" cy="573.1" r="22.7"/>
				</defs>
				<clipPath id="SVGID_28_">
					<use xlink:href="#SVGID_27_"  style="overflow:visible;"/>
				</clipPath>
				<path class="st15" d="M-779.4,578.9h-2.6c-1.6,0-3-1.3-3-3v-5.6c0-1.6,1.3-3,3-3h2.6c1.6,0,3,1.3,3,3v5.6
					C-776.4,577.5-777.8,578.9-779.4,578.9z"/>
			</g>
		</g>
	</g>
</g>
<g>
	<defs>
		<circle id="SVGID_29_" cx="-373.8" cy="297.8" r="22.7"/>
	</defs>
	<clipPath id="SVGID_30_">
		<use xlink:href="#SVGID_29_"  style="overflow:visible;"/>
	</clipPath>
	<g class="st16">
		<ellipse class="st17" cx="-371.1" cy="299.3" rx="38" ry="33.1"/>
		<polygon class="st18" points="-382.2,306.9 -362,323.4 -348.3,315.5 -349.4,303.3 -365.3,289 -371.7,290.3 -375.5,292.8 
			-378.9,290.1 -383.1,290.4 -383.1,294.7 		"/>
		<path class="st19" d="M-363.8,292.8c0-3.1-2.5-5.7-5.7-5.7c-2.5,0-4.6,1.7-5.4,3.9c-0.7-2.3-2.8-3.9-5.4-3.9
			c-3.1,0-5.7,2.5-5.7,5.7c0,1.6,0.7,3.1,1.8,4.1c-0.2,0.3-0.3,0.7-0.3,1.1v6.3c0,1.4,1.2,2.6,2.6,2.6h14c1.4,0,2.6-1.2,2.6-2.6V298
			c0-0.5-0.1-0.9-0.4-1.3C-364.4,295.7-363.8,294.3-363.8,292.8z M-374.8,294.7c0-0.1,0-0.1,0.1-0.2
			C-374.8,294.6-374.8,294.6-374.8,294.7C-374.8,294.7-374.8,294.7-374.8,294.7z M-369.4,290.7c1.1,0,2.1,0.9,2.1,2.1
			s-0.9,2.1-2.1,2.1c-1.1,0-2.1-0.9-2.1-2.1S-370.6,290.7-369.4,290.7z M-380.2,290.7c1.1,0,2.1,0.9,2.1,2.1s-0.9,2.1-2.1,2.1
			c-1.1,0-2.1-0.9-2.1-2.1S-381.3,290.7-380.2,290.7z"/>
		<path class="st19" d="M-366.5,299.3v4c0,0.2,0.1,0.4,0.3,0.5l5.8,2.3c0.3,0.1,0.7-0.1,0.7-0.5v-8.6c0-0.4-0.4-0.6-0.7-0.5
			l-5.8,2.2C-366.4,298.9-366.5,299.1-366.5,299.3z"/>
	</g>
</g>
</svg>
