<?xml version="1.0" encoding="utf-8"?>
<!-- Generator: Adobe Illustrator 19.1.0, SVG Export Plug-In . SVG Version: 6.00 Build 0)  -->
<svg version="1.1" id="Layer_1" xmlns="http://www.w3.org/2000/svg" xmlns:xlink="http://www.w3.org/1999/xlink" x="0px" y="0px"
	 viewBox="-376 277 46.5 47" style="enable-background:new -376 277 46.5 47;" xml:space="preserve">
<style type="text/css">
	.st0{display:none;}
	.st1{display:inline;}
	.st2{clip-path:url(#SVGID_2_);fill:#E94C38;}
	.st3{clip-path:url(#SVGID_4_);fill:#A33524;}
	.st4{clip-path:url(#SVGID_6_);fill:#FFFFFF;}
	.st5{clip-path:url(#SVGID_8_);fill:#FFFFFF;}
	.st6{clip-path:url(#SVGID_10_);fill:none;stroke:#FFFFFF;stroke-width:3;stroke-miterlimit:10;}
	.st7{clip-path:url(#SVGID_12_);fill:#FFFFFF;}
	.st8{clip-path:url(#SVGID_14_);fill:#FFFFFF;}
	.st9{clip-path:url(#SVGID_19_);}
	.st10{clip-path:url(#SVGID_20_);}
	.st11{fill:#373538;}
	.st12{fill:#242325;}
	.st13{fill:#FFFFFF;}
	.st14{fill:none;stroke:#FFFFFF;stroke-width:2;stroke-miterlimit:10;}
	.st15{clip-path:url(#SVGID_22_);fill:#9CC21C;}
	.st16{clip-path:url(#SVGID_24_);fill:#6D882B;}
	.st17{clip-path:url(#SVGID_26_);fill:#6D882B;}
	.st18{clip-path:url(#SVGID_28_);fill:#FFFFFF;}
	.st19{clip-path:url(#SVGID_30_);fill:#FFFFFF;}
	.st20{clip-path:url(#SVGID_32_);fill:none;stroke:#FFFFFF;stroke-width:3;stroke-miterlimit:10;}
	.st21{clip-path:url(#SVGID_34_);fill:#FFFFFF;}
	.st22{clip-path:url(#SVGID_36_);fill:#FFFFFF;}
</style>
<g id="Layer_4">
	<g>
		<g>
			<g>
				<defs>
					<circle id="SVGID_21_" cx="-352.8" cy="300.5" r="22.7"/>
				</defs>
				<clipPath id="SVGID_2_">
					<use xlink:href="#SVGID_21_"  style="overflow:visible;"/>
				</clipPath>
				<circle style="clip-path:url(#SVGID_2_);fill:#9CC21C;" cx="-352.8" cy="300.5" r="22.7"/>
			</g>
		</g>
		<g class="st0">
			<g class="st1">
				<defs>
					<circle id="SVGID_23_" cx="-352.8" cy="300.3" r="22.7"/>
				</defs>
				<clipPath id="SVGID_4_">
					<use xlink:href="#SVGID_23_"  style="overflow:visible;"/>
				</clipPath>
				<polygon style="clip-path:url(#SVGID_4_);fill:#6D882B;" points="-322.5,309 -336.2,295.7 -336.5,295.4 -341.3,294.2 
					-344.2,293.9 -343.8,294.9 -350.8,288.1 -356,300.3 -354,304.8 -364.5,306.1 -346.6,324.6 -334.6,322.9 -325.9,312.4 
					-326.2,312.2 				"/>
			</g>
		</g>
		<g>
			<defs>
				<circle id="SVGID_25_" cx="-352.8" cy="300.5" r="22.7"/>
			</defs>
			<clipPath id="SVGID_6_">
				<use xlink:href="#SVGID_25_"  style="overflow:visible;"/>
			</clipPath>
			<polygon style="clip-path:url(#SVGID_6_);fill:#6D882B;" points="-350.5,288.8 -330.6,305.7 -333.6,319.3 -347.7,324 
				-364.7,306.2 			"/>
		</g>
		<g>
			<g>
				<defs>
					<circle id="SVGID_27_" cx="-352.8" cy="300.5" r="22.7"/>
				</defs>
				<clipPath id="SVGID_8_">
					<use xlink:href="#SVGID_27_"  style="overflow:visible;"/>
				</clipPath>
				<path class="st5" d="M-361.8,294.7c0,0,1.3,0,4.7-2.3c3.4-2.3,5.8-4.2,6.3-4s0.4-0.1,0.4,3.1s0,9,0,9h-11.4V294.7z"/>
			</g>
		</g>
		<g>
			<g>
				<defs>
					<circle id="SVGID_29_" cx="-352.8" cy="300.5" r="22.7"/>
				</defs>
				<clipPath id="SVGID_10_">
					<use xlink:href="#SVGID_29_"  style="overflow:visible;"/>
				</clipPath>
				<path style="clip-path:url(#SVGID_10_);fill:#FFFFFF;" d="M-361.8,306.3c0,0,1.3,0,4.7,2.3c3.4,2.3,5.8,4.2,6.3,4
					c0.6-0.3,0.4,0.1,0.4-3.1c0-3.3,0-9,0-9h-11.4V306.3z"/>
			</g>
		</g>
		<g class="st0">
			<g class="st1">
				<defs>
					<circle id="SVGID_31_" cx="-352.8" cy="300.5" r="22.7"/>
				</defs>
				<clipPath id="SVGID_12_">
					<use xlink:href="#SVGID_31_"  style="overflow:visible;"/>
				</clipPath>
				
					<circle style="clip-path:url(#SVGID_12_);fill:none;stroke:#FFFFFF;stroke-width:3;stroke-miterlimit:10;" cx="-343.3" cy="301" r="7.2"/>
			</g>
		</g>
		<g class="st0">
			<g class="st1">
				<defs>
					<circle id="SVGID_33_" cx="-352.8" cy="300.5" r="22.7"/>
				</defs>
				<clipPath id="SVGID_14_">
					<use xlink:href="#SVGID_33_"  style="overflow:visible;"/>
				</clipPath>
				<polygon class="st8" points="-339.9,295.9 -349,305 -347.5,306.5 -337.8,297.2 				"/>
			</g>
		</g>
		<g>
			<g>
				<defs>
					<circle id="SVGID_35_" cx="-352.8" cy="300.5" r="22.7"/>
				</defs>
				<clipPath id="SVGID_16_">
					<use xlink:href="#SVGID_35_"  style="overflow:visible;"/>
				</clipPath>
				<path style="clip-path:url(#SVGID_16_);fill:#FFFFFF;" d="M-361.9,306.3h-2.6c-1.6,0-3-1.3-3-3v-5.6c0-1.6,1.3-3,3-3h2.6
					c1.6,0,3,1.3,3,3v5.6C-358.9,304.9-360.3,306.3-361.9,306.3z"/>
			</g>
		</g>
	</g>
</g>
<g>
	<path class="st13" d="M-338.6,307.5l-1-0.9c-0.1-0.1-0.1-0.3,0-0.5c2.9-3.4,2.7-8.5-0.4-11.7c-0.3-0.3-0.3-0.7,0-1l0.4-0.4
		c0.3-0.3,0.8-0.3,1.1,0c3.8,4,4,10.2,0.5,14.4C-338.3,307.7-338.5,307.7-338.6,307.5z"/>
</g>
<g>
	<path class="st13" d="M-342.5,306.7l-0.9-0.8c-0.2-0.1-0.2-0.4,0-0.5c2.3-2.8,2.2-7-0.5-9.7c-0.1-0.1-0.2-0.4,0-0.5l0.8-0.9
		c0.1-0.2,0.4-0.2,0.6,0c3.4,3.4,3.6,8.8,0.6,12.5C-342.1,306.9-342.3,306.9-342.5,306.7z"/>
</g>
<g>
	<path class="st13" d="M-346.3,305.6l-0.9-0.8c-0.2-0.1-0.2-0.4,0-0.5c1.7-2.2,1.6-5.4-0.3-7.4c-0.1-0.2-0.2-0.4,0-0.6l0.8-0.9
		c0.2-0.2,0.4-0.2,0.6,0c2.7,2.8,2.9,7.2,0.5,10.2C-345.9,305.7-346.1,305.8-346.3,305.6z"/>
</g>
</svg>
