<?xml version="1.0" encoding="utf-8"?>
<!-- Generator: Adobe Illustrator 19.1.0, SVG Export Plug-In . SVG Version: 6.00 Build 0)  -->
<svg version="1.1" xmlns="http://www.w3.org/2000/svg" xmlns:xlink="http://www.w3.org/1999/xlink" x="0px" y="0px"
	 viewBox="-396.5 275.3 46.5 47" style="enable-background:new -396.5 275.3 46.5 47;" xml:space="preserve">
<style type="text/css">
	.st0{clip-path:url(#SVGID_2_);fill:#E94C38;}
	.st1{clip-path:url(#SVGID_4_);fill:#A33524;}
	.st2{clip-path:url(#SVGID_6_);fill:#FFFFFF;}
	.st3{clip-path:url(#SVGID_8_);fill:#FFFFFF;}
	.st4{clip-path:url(#SVGID_10_);fill:none;stroke:#FFFFFF;stroke-width:3;stroke-miterlimit:10;}
	.st5{clip-path:url(#SVGID_12_);fill:#FFFFFF;}
	.st6{clip-path:url(#SVGID_14_);fill:#FFFFFF;}
	.st7{display:none;}
	.st8{display:inline;}
	.st9{clip-path:url(#SVGID_17_);}
	.st10{clip-path:url(#SVGID_18_);}
	.st11{fill:#373538;}
	.st12{fill:#242325;}
	.st13{fill:#FFFFFF;}
	.st14{fill:none;stroke:#FFFFFF;stroke-width:2;stroke-miterlimit:10;}
</style>
<g id="Layer_2">
	<g>
		<g>
			<defs>
				<circle id="SVGID_1_" cx="-373.2" cy="298.8" r="22.7"/>
			</defs>
			<clipPath id="SVGID_2_">
				<use xlink:href="#SVGID_1_"  style="overflow:visible;"/>
			</clipPath>
			<circle class="st0" cx="-373.2" cy="298.8" r="22.7"/>
		</g>
		<g>
			<defs>
				<circle id="SVGID_3_" cx="-373.2" cy="298.8" r="22.7"/>
			</defs>
			<clipPath id="SVGID_4_">
				<use xlink:href="#SVGID_3_"  style="overflow:visible;"/>
			</clipPath>
			<polygon class="st1" points="-343,307.5 -356.7,294.3 -357,293.9 -361.8,292.7 -364.7,292.5 -364.3,293.4 -371.2,286.7 
				-376.5,298.8 -374.5,303.3 -385,304.6 -367.1,323.1 -355.1,321.5 -346.4,311 -346.7,310.7 			"/>
		</g>
		<g>
			<defs>
				<circle id="SVGID_5_" cx="-373.2" cy="298.8" r="22.7"/>
			</defs>
			<clipPath id="SVGID_6_">
				<use xlink:href="#SVGID_5_"  style="overflow:visible;"/>
			</clipPath>
			<path class="st2" d="M-382.2,293c0,0,1.3,0,4.7-2.3c3.4-2.3,5.8-4.2,6.3-4c0.5,0.2,0.4-0.1,0.4,3.1s0,9,0,9h-11.4V293z"/>
		</g>
		<g>
			<defs>
				<circle id="SVGID_7_" cx="-373.2" cy="298.8" r="22.7"/>
			</defs>
			<clipPath id="SVGID_8_">
				<use xlink:href="#SVGID_7_"  style="overflow:visible;"/>
			</clipPath>
			<path class="st3" d="M-382.2,304.6c0,0,1.3,0,4.7,2.3c3.4,2.3,5.8,4.2,6.3,4c0.6-0.3,0.4,0.1,0.4-3.1s0-9,0-9h-11.4V304.6z"/>
		</g>
		<g>
			<defs>
				<circle id="SVGID_9_" cx="-373.2" cy="298.8" r="22.7"/>
			</defs>
			<clipPath id="SVGID_10_">
				<use xlink:href="#SVGID_9_"  style="overflow:visible;"/>
			</clipPath>
			<circle class="st4" cx="-363.8" cy="299.3" r="7.2"/>
		</g>
		<g>
			<defs>
				<circle id="SVGID_11_" cx="-373.2" cy="298.8" r="22.7"/>
			</defs>
			<clipPath id="SVGID_12_">
				<use xlink:href="#SVGID_11_"  style="overflow:visible;"/>
			</clipPath>
			<polygon class="st5" points="-360.4,294.3 -369.5,303.3 -368,304.9 -358.3,295.6 			"/>
		</g>
		<g>
			<defs>
				<circle id="SVGID_13_" cx="-373.2" cy="298.8" r="22.7"/>
			</defs>
			<clipPath id="SVGID_14_">
				<use xlink:href="#SVGID_13_"  style="overflow:visible;"/>
			</clipPath>
			<path class="st6" d="M-382.4,304.6h-2.6c-1.6,0-3-1.3-3-3V296c0-1.6,1.3-3,3-3h2.6c1.6,0,3,1.3,3,3v5.6
				C-379.4,303.3-380.8,304.6-382.4,304.6z"/>
		</g>
	</g>
</g>
<g id="Layer_3" class="st7">
	<g class="st8">
		<defs>
			<circle id="SVGID_15_" cx="-323.2" cy="298" r="22.7"/>
		</defs>
		<defs>
			<circle id="SVGID_16_" cx="-323.2" cy="298" r="22.7"/>
		</defs>
		<clipPath id="SVGID_17_">
			<use xlink:href="#SVGID_15_"  style="overflow:visible;"/>
		</clipPath>
		<clipPath id="SVGID_18_" class="st9">
			<use xlink:href="#SVGID_16_"  style="overflow:visible;"/>
		</clipPath>
		<g class="st10">
			<circle class="st11" cx="-323.2" cy="298" r="22.5"/>
			<polygon class="st12" points="-300.6,301.2 -314,289.1 -321.4,285.9 -327.3,286.5 -332.9,290.6 -334.9,296.1 -334.2,303 
				-330.7,307.5 -330.8,308.3 -315.3,320.5 -303.2,314.5 -298.4,303.8 			"/>
			<path class="st13" d="M-320.9,294.1l5.9,3.5c0.2,0.1,0.2,0.5,0,0.6l-5.8,3.6l-5.8,3.6c-0.2,0.1-0.4,0-0.4-0.3l-0.1-7.1l-0.1-7.1
				c0-0.2,0.3-0.4,0.4-0.3L-320.9,294.1z"/>
			<circle class="st14" cx="-323.2" cy="298" r="12.2"/>
		</g>
	</g>
</g>
</svg>
