<?xml version="1.0" encoding="utf-8"?>
<!-- Generator: Adobe Illustrator 19.1.0, SVG Export Plug-In . SVG Version: 6.00 Build 0)  -->
<svg version="1.1" id="Layer_1" xmlns="http://www.w3.org/2000/svg" xmlns:xlink="http://www.w3.org/1999/xlink" x="0px" y="0px"
	 viewBox="-328 84.6 512 512" style="enable-background:new -328 84.6 512 512;" xml:space="preserve">
<style type="text/css">
	.st0{fill:#E2C17F;}
	.st1{fill:#242325;}
	.st2{fill:#373538;}
	.st3{fill:#FFFFFF;}
	.st4{fill:#85BF61;}
	.st5{display:none;}
	.st6{display:inline;fill:#373538;}
	.st7{display:inline;fill:#FFFFFF;}
	.st8{clip-path:url(#SVGID_5_);}
	.st9{clip-path:url(#SVGID_6_);}
	.st10{fill:none;stroke:#FFFFFF;stroke-width:2;stroke-miterlimit:10;}
	.st11{fill:#A9905F;}
</style>
<g id="Layer_1_1_">
	<circle class="st0" cx="-72" cy="340.6" r="256"/>
	<rect x="-237.8" y="229.5" class="st1" width="331.3" height="220.4"/>
	<rect x="-237.8" y="413.2" class="st2" width="331.3" height="36.6"/>
	<rect x="-237.8" y="428.7" class="st3" width="331.3" height="5.7"/>
	<circle class="st4" cx="-163.5" cy="431.8" r="8.8"/>
</g>
<g id="Layer_2" class="st5">
	<circle class="st6" cx="-72.2" cy="328.6" r="36.6"/>
	<path class="st7" d="M-69.2,322.5l11,6.2c0.4,0.2,0.4,0.8,0,1l-10.9,6.4l-10.9,6.4c-0.4,0.2-0.8,0-0.8-0.5l-0.1-12.6l-0.1-12.6
		c0-0.4,0.5-0.7,0.8-0.5L-69.2,322.5z"/>
</g>
<g id="Layer_3">
	<g>
		<g>
			<defs>
				<circle id="SVGID_1_" cx="-72.6" cy="330.2" r="35.1"/>
			</defs>
			<clipPath id="SVGID_2_">
				<use xlink:href="#SVGID_1_"  style="overflow:visible;"/>
			</clipPath>
		</g>
		<g>
			<defs>
				<circle id="SVGID_3_" cx="-72.6" cy="330.2" r="35.1"/>
			</defs>
			<defs>
				<circle id="SVGID_4_" cx="-72.6" cy="330.2" r="35.1"/>
			</defs>
			<clipPath id="SVGID_5_">
				<use xlink:href="#SVGID_3_"  style="overflow:visible;"/>
			</clipPath>
			<clipPath id="SVGID_6_" class="st8">
				<use xlink:href="#SVGID_4_"  style="overflow:visible;"/>
			</clipPath>
			<g class="st9">
				<circle class="st2" cx="-72.6" cy="330.2" r="34.8"/>
				<polygon class="st1" points="-37.8,335.2 -58.4,316.5 -69.8,311.6 -78.9,312.5 -87.6,318.8 -90.7,327.3 -89.6,337.9 -84.3,345 
					-84.4,346.2 -60.4,365.1 -41.7,355.7 -34.3,339.2 				"/>
				<path class="st3" d="M-69.2,324.2l9.1,5.4c0.3,0.2,0.3,0.7,0,0.9l-9,5.6l-9,5.6c-0.3,0.2-0.7,0-0.7-0.4l-0.1-11l-0.1-11
					c0-0.3,0.4-0.6,0.7-0.4L-69.2,324.2z"/>
				<circle class="st10" cx="-72.6" cy="330.2" r="18.8"/>
			</g>
		</g>
	</g>
</g>
<g>
	<path class="st11" d="M-182.3,500.3l-2.5-9.9h0l-2.4,9.9h-3.2l-3.9-14.5h3.2l2.3,9.9h0l2.5-9.9h3l2.5,10h0l2.4-10h3.1l-3.9,14.5
		H-182.3z"/>
	<path class="st11" d="M-167,485.8l5.4,14.5h-3.3l-1.1-3.2h-5.4l-1.1,3.2h-3.2l5.5-14.5H-167z M-166.8,494.7l-1.8-5.3h0l-1.9,5.3
		H-166.8z"/>
	<path class="st11" d="M-163.3,488.5v-2.7h11.9v2.7h-4.4v11.9h-3.2v-11.9H-163.3z"/>
	<path class="st11" d="M-140.4,489.7c-0.2-0.3-0.4-0.6-0.7-0.8c-0.3-0.2-0.6-0.4-1-0.5c-0.4-0.1-0.7-0.2-1.1-0.2
		c-0.7,0-1.3,0.1-1.8,0.4c-0.5,0.3-0.9,0.7-1.2,1.1s-0.5,1-0.7,1.6c-0.1,0.6-0.2,1.2-0.2,1.9c0,0.6,0.1,1.2,0.2,1.8
		c0.1,0.6,0.4,1.1,0.7,1.6s0.7,0.8,1.2,1.1c0.5,0.3,1.1,0.4,1.8,0.4c1,0,1.7-0.3,2.3-0.9c0.5-0.6,0.9-1.4,1-2.4h3.1
		c-0.1,0.9-0.3,1.7-0.6,2.5c-0.3,0.7-0.8,1.4-1.3,1.9c-0.6,0.5-1.2,0.9-2,1.2c-0.7,0.3-1.6,0.4-2.5,0.4c-1.1,0-2.1-0.2-3-0.6
		c-0.9-0.4-1.6-0.9-2.2-1.6c-0.6-0.7-1.1-1.5-1.4-2.4c-0.3-0.9-0.5-1.9-0.5-3c0-1.1,0.2-2.1,0.5-3c0.3-0.9,0.8-1.7,1.4-2.4
		c0.6-0.7,1.4-1.2,2.2-1.6c0.9-0.4,1.9-0.6,3-0.6c0.8,0,1.6,0.1,2.3,0.3c0.7,0.2,1.4,0.6,1.9,1c0.6,0.4,1,1,1.4,1.6
		c0.4,0.7,0.6,1.4,0.7,2.2h-3.1C-140.1,490.3-140.2,490-140.4,489.7z"/>
	<path class="st11" d="M-131.4,485.8v5.6h5.9v-5.6h3.2v14.5h-3.2v-6.3h-5.9v6.3h-3.2v-14.5H-131.4z"/>
	<path class="st11" d="M-110.7,500.3l-4.7-14.5h3.3l3.2,10.2h0l3.3-10.2h3.3l-4.8,14.5H-110.7z"/>
	<path class="st11" d="M-97.8,485.8v14.5h-3.2v-14.5H-97.8z"/>
	<path class="st11" d="M-88.7,485.8c0.9,0,1.8,0.1,2.6,0.4c0.8,0.3,1.5,0.7,2.1,1.3c0.6,0.6,1.1,1.3,1.4,2.2
		c0.3,0.9,0.5,1.9,0.5,3.2c0,1.1-0.1,2-0.4,2.9s-0.7,1.7-1.2,2.3c-0.6,0.7-1.2,1.2-2.1,1.5c-0.8,0.4-1.8,0.6-2.9,0.6H-95v-14.5
		H-88.7z M-89,497.6c0.5,0,0.9-0.1,1.3-0.2c0.4-0.1,0.8-0.4,1.2-0.7c0.3-0.3,0.6-0.8,0.8-1.4c0.2-0.6,0.3-1.2,0.3-2
		c0-0.7-0.1-1.4-0.2-2c-0.1-0.6-0.4-1.1-0.7-1.5c-0.3-0.4-0.8-0.7-1.3-1c-0.5-0.2-1.2-0.3-2-0.3h-2.3v9.2H-89z"/>
	<path class="st11" d="M-69,485.8v2.7h-7.7v3.1h7v2.5h-7v3.6h7.8v2.7h-11v-14.5H-69z"/>
	<path class="st11" d="M-66.9,490.1c0.3-0.9,0.8-1.7,1.4-2.4c0.6-0.7,1.4-1.2,2.2-1.6c0.9-0.4,1.9-0.6,3-0.6c1.1,0,2.1,0.2,3,0.6
		c0.9,0.4,1.6,0.9,2.2,1.6c0.6,0.7,1.1,1.5,1.4,2.4c0.3,0.9,0.5,1.9,0.5,3c0,1.1-0.2,2-0.5,3c-0.3,0.9-0.8,1.7-1.4,2.4
		c-0.6,0.7-1.4,1.2-2.2,1.6c-0.9,0.4-1.9,0.6-3,0.6c-1.1,0-2.1-0.2-3-0.6c-0.9-0.4-1.6-0.9-2.2-1.6c-0.6-0.7-1.1-1.5-1.4-2.4
		c-0.3-0.9-0.5-1.9-0.5-3C-67.3,492-67.2,491-66.9,490.1z M-63.9,494.9c0.1,0.6,0.4,1.1,0.7,1.6c0.3,0.5,0.7,0.8,1.2,1.1
		c0.5,0.3,1.1,0.4,1.8,0.4s1.3-0.1,1.8-0.4c0.5-0.3,0.9-0.6,1.2-1.1c0.3-0.5,0.5-1,0.7-1.6s0.2-1.2,0.2-1.8c0-0.6-0.1-1.3-0.2-1.9
		c-0.1-0.6-0.4-1.1-0.7-1.6c-0.3-0.5-0.7-0.8-1.2-1.1c-0.5-0.3-1.1-0.4-1.8-0.4s-1.3,0.1-1.8,0.4s-0.9,0.7-1.2,1.1
		c-0.3,0.5-0.5,1-0.7,1.6c-0.1,0.6-0.2,1.2-0.2,1.9C-64.1,493.7-64.1,494.3-63.9,494.9z"/>
	<path class="st11" d="M-45.3,490.1c0.3-0.9,0.8-1.7,1.4-2.4c0.6-0.7,1.4-1.2,2.2-1.6c0.9-0.4,1.9-0.6,3-0.6c1.1,0,2.1,0.2,3,0.6
		c0.9,0.4,1.6,0.9,2.2,1.6c0.6,0.7,1.1,1.5,1.4,2.4c0.3,0.9,0.5,1.9,0.5,3c0,1.1-0.2,2-0.5,3c-0.3,0.9-0.8,1.7-1.4,2.4
		c-0.6,0.7-1.4,1.2-2.2,1.6c-0.9,0.4-1.9,0.6-3,0.6c-1.1,0-2.1-0.2-3-0.6c-0.9-0.4-1.6-0.9-2.2-1.6c-0.6-0.7-1.1-1.5-1.4-2.4
		c-0.3-0.9-0.5-1.9-0.5-3C-45.8,492-45.7,491-45.3,490.1z M-42.4,494.9c0.1,0.6,0.4,1.1,0.7,1.6c0.3,0.5,0.7,0.8,1.2,1.1
		c0.5,0.3,1.1,0.4,1.8,0.4s1.3-0.1,1.8-0.4c0.5-0.3,0.9-0.6,1.2-1.1c0.3-0.5,0.5-1,0.7-1.6c0.1-0.6,0.2-1.2,0.2-1.8
		c0-0.6-0.1-1.3-0.2-1.9c-0.1-0.6-0.4-1.1-0.7-1.6c-0.3-0.5-0.7-0.8-1.2-1.1c-0.5-0.3-1.1-0.4-1.8-0.4s-1.3,0.1-1.8,0.4
		c-0.5,0.3-0.9,0.7-1.2,1.1c-0.3,0.5-0.5,1-0.7,1.6c-0.1,0.6-0.2,1.2-0.2,1.9C-42.6,493.7-42.6,494.3-42.4,494.9z"/>
	<path class="st11" d="M-19.1,485.8v2.7h-7v3.4h6.1v2.5h-6.1v6h-3.2v-14.5H-19.1z"/>
	<path class="st11" d="M-3,500.2c-0.7,0.3-1.4,0.4-2.1,0.4c-1.1,0-2.1-0.2-3-0.6c-0.9-0.4-1.6-0.9-2.2-1.6c-0.6-0.7-1.1-1.5-1.4-2.4
		c-0.3-0.9-0.5-1.9-0.5-3c0-1.1,0.2-2.1,0.5-3c0.3-0.9,0.8-1.7,1.4-2.4c0.6-0.7,1.4-1.2,2.2-1.6c0.9-0.4,1.9-0.6,3-0.6
		c0.7,0,1.5,0.1,2.2,0.3c0.7,0.2,1.3,0.6,1.9,1c0.6,0.4,1,1,1.4,1.6c0.4,0.6,0.6,1.4,0.7,2.2H-2c-0.2-0.8-0.6-1.4-1.1-1.8
		c-0.5-0.4-1.2-0.6-2-0.6c-0.7,0-1.3,0.1-1.8,0.4s-0.9,0.7-1.2,1.1c-0.3,0.5-0.5,1-0.7,1.6c-0.1,0.6-0.2,1.2-0.2,1.9
		c0,0.6,0.1,1.2,0.2,1.8c0.1,0.6,0.4,1.1,0.7,1.6c0.3,0.5,0.7,0.8,1.2,1.1c0.5,0.3,1.1,0.4,1.8,0.4c1.1,0,1.9-0.3,2.5-0.8
		c0.6-0.5,0.9-1.3,1-2.3h-3.2v-2.4h6.1v7.9h-2l-0.3-1.6C-1.7,499.4-2.3,499.9-3,500.2z"/>
	<path class="st11" d="M11.1,485.8l5.4,14.5h-3.3l-1.1-3.2H6.7l-1.1,3.2H2.3l5.5-14.5H11.1z M11.3,494.7l-1.8-5.3h0l-1.9,5.3H11.3z"
		/>
	<path class="st11" d="M22.3,485.8l3.4,10h0l3.2-10h4.5v14.5h-3V490h0l-3.6,10.3h-2.5l-3.6-10.2h0v10.2h-3v-14.5H22.3z"/>
	<path class="st11" d="M47.1,485.8v2.7h-7.7v3.1h7v2.5h-7v3.6h7.8v2.7h-11v-14.5H47.1z"/>
</g>
</svg>
