<?xml version="1.0" encoding="utf-8"?>
<!-- Generator: Adobe Illustrator 19.1.0, SVG Export Plug-In . SVG Version: 6.00 Build 0)  -->
<svg version="1.1" id="Layer_1" xmlns="http://www.w3.org/2000/svg" xmlns:xlink="http://www.w3.org/1999/xlink" x="0px" y="0px"
	 viewBox="0 0 383.9 236.5" enable-background="new 0 0 383.9 236.5" xml:space="preserve">
<path fill="#3A698B" stroke="#FFD802" stroke-miterlimit="10" d="M20.6,23.5L55.1,6.3c0.1-0.1,0.2,0,0.2,0.2L35.6,82.8
	c0,0.2,0.2,0.2,0.3,0.1l20.1-42c0.3-0.6,1.1-0.3,1,0.3l-7.9,41c0,0.2,0.2,0.2,0.3,0.1l42.5-67.9c0-0.1,0.1-0.1,0.2-0.1l28,7.6
	c0.1,0,0.1,0.1,0.1,0.2L21,154.9c-0.1,0.1-0.3,0-0.2-0.1L40,89.4c0-0.2-0.2-0.3-0.3-0.1l-39,59.4c-0.1,0.1-0.3,0.1-0.3-0.1l20-125.1
	C20.6,23.5,20.6,23.5,20.6,23.5z"/>
<path fill="#3A698B" stroke="#FFD802" stroke-miterlimit="10" d="M163.8,0.5l-26.9,8.3c0,0,0,0-0.1,0l-34.3,71.4c0,0-0.1,0.1-0.1,0
	L89.7,79c-0.1,0-0.1-0.1-0.1-0.1l31.3-67.2c0-0.1,0-0.1-0.1-0.1l-24.2,5.9c0,0-0.1,0-0.1,0.1l-30.8,99.3c0,0,0,0,0,0l-8.6,20.5
	c0,0.1,0,0.1,0.1,0.1l10.1,2.4c0,0,0.1,0,0.1-0.1l17.7-52.4c0,0,0.1-0.1,0.1-0.1l15.2,1.4c0.1,0,0.1,0.1,0.1,0.1l-20.3,53.8
	c0,0,0,0.1,0.1,0.1l20,6.4c0,0,0.1,0,0.1,0L163.9,0.6C163.9,0.6,163.8,0.5,163.8,0.5z"/>
<polygon fill="none" stroke="#FFD802" stroke-miterlimit="10" points="152.9,92.4 125.1,132 137.1,135.4 "/>
<path fill="#3A698B" stroke="#FFD802" stroke-miterlimit="10" d="M76.6,169v2.3c0,0,0,0.1,0.1,0.1l27.7,6.9c0,0,0.1,0,0.1-0.1
	l12.9-27c0,0,0-0.1,0.1-0.1l9.8-1.9c0.1,0,0.1,0.1,0.1,0.1L114.1,179c0,0.1,0,0.1,0,0.1l42.3,21.7c0.1,0,0.1,0,0.1-0.1l19.4-156.2
	c0-0.1-0.1-0.2-0.2-0.1L76.6,169C76.6,169,76.6,169,76.6,169z M137,135.3l-11.8-3.3c-0.1,0-0.1-0.1-0.1-0.2L152.5,93
	c0.1-0.1,0.2,0,0.2,0.1l-15.5,42.1C137.1,135.3,137,135.3,137,135.3z"/>
<path fill="#3A698B" stroke="#FFD802" stroke-miterlimit="10" d="M213.7,25.4l-57.4,155.8c0,0,0,0,0,0l27.4,11.9c0,0,0,0,0.1,0
	l23.9-97.6c0,0,0.1,0,0.1,0l-8.7,71.7c0,0,0,0.1,0.1,0l39.6-50.3c0,0,0.1,0,0.1,0l-39.7,82c0,0,0,0,0,0.1l38.4,13.8c0,0,0,0,0,0
	L300,28.8c0,0,0-0.1-0.1,0l-78.5,76.5c0,0-0.1,0-0.1,0L213.7,25.4C213.8,25.4,213.7,25.4,213.7,25.4z"/>
<path fill="#3A698B" stroke="#FFD802" stroke-miterlimit="10" d="M328.4,34.9L383,46.2l-92.7,136.1c-0.3,0.4-0.8,0.6-1.2,0.5
	l-13.7-2.9l-1.7-2L328.4,34.9z"/>
<ellipse fill="#3A698B" stroke="#FFD802" stroke-miterlimit="10" cx="272.3" cy="216.3" rx="17.3" ry="19.7"/>
</svg>
