<?xml version="1.0" encoding="utf-8"?>
<!-- Generator: Adobe Illustrator 24.0.1, SVG Export Plug-In . SVG Version: 6.00 Build 0)  -->
<svg version="1.1" id="Layer_1" xmlns="http://www.w3.org/2000/svg" xmlns:xlink="http://www.w3.org/1999/xlink" x="0px" y="0px"
	 viewBox="0 0 1920 553.9" style="enable-background:new 0 0 1920 553.9;" xml:space="preserve">
<style type="text/css">
	.st0{fill:#14133B;}
</style>
<g>
	<g>
		<g>
			<g>
				<polygon class="st0" points="1000.3,189 963.9,189 963.9,202.3 974.7,202.3 974.7,245 989.6,245 989.6,202.3 1000.3,202.3 				
					"/>
				<polygon class="st0" points="918,148.4 918,135.8 885.9,135.8 885.9,135.8 885.9,195.4 900.8,195.4 900.8,174.6 917,174.6 
					917,162 900.8,162 900.8,148.4 				"/>
				<polygon class="st0" points="1019.6,158.2 1019.6,135.8 1004.6,135.8 1004.6,170.9 1034.1,170.9 1034.1,158.2 				"/>
				<polygon class="st0" points="1034.1,192.6 1034.1,180 1004.6,180 1004.6,180 1004.6,245 1004.7,245 1034.1,245 1034.1,232.4 
					1019.6,232.4 1019.6,218.2 1033.1,218.2 1033.1,205.6 1019.6,205.6 1019.6,192.6 				"/>
				<polygon class="st0" points="985.5,167.4 985.5,135.8 970.6,135.8 970.6,180 1000.3,180 1000.3,167.4 				"/>
				<path class="st0" d="M950.5,135.8v33.6c0,1.6-0.1,2.9-0.4,3.9c-0.3,1-0.9,1.8-1.8,2.5c-0.9,0.6-2.3,0.9-4.2,0.9
					s-3.4-0.3-4.3-0.8c-0.9-0.5-1.5-1.3-1.8-2.3s-0.4-2.3-0.4-4.1v-33.7h-14.9v34.8c0,6.4,1.8,11.1,5.4,14c3.6,2.9,9,4.4,16.1,4.4
					c6.8,0,12-1.5,15.8-4.4c3.7-2.9,5.6-7.5,5.6-13.8v-35L950.5,135.8L950.5,135.8z"/>
			</g>
			<path class="st0" d="M954.5,196.9h-19.1l-13.9,45.5l-4.8-9.9c3.3-2.9,5.1-7.2,5.1-12.7c0-11.2-5.7-16.7-17.9-16.7h-18.1v42h13.8
				v-7.9h2.4c0.9,0,1.8,0,2.7-0.1l3.4,8h27.4l2.1-7.8h15.1l2.2,7.8h14.8L954.5,196.9z M904.3,226.1h-4.6V214h4.1
				c3.9,0,5.2,2.9,5.2,5.7C909,222.8,908.2,226.1,904.3,226.1z M940.4,226.1l4.7-17.4l4.9,17.4H940.4z"/>
		</g>
	</g>
	
		<image style="overflow:visible;enable-background:new    ;" width="1476" height="453" xlink:href="../../../../Library/Mobile Documents/com~apple~CloudDocs/Backup/Grafik/CubeIO/yousee.png"  transform="matrix(0.1928 0 0 0.1928 817.7077 257.49)">
	</image>
	
		<image style="overflow:visible;enable-background:new    ;" width="2560" height="1707" xlink:href="../../../../Library/Mobile Documents/com~apple~CloudDocs/Backup/Grafik/CubeIO/xTelmore.png.pagespeed.ic.Qc-a9jlvM0.png"  transform="matrix(0.1308 0 0 0.1308 792.5793 267.6503)">
	</image>
</g>
</svg>
