<?xml version="1.0" encoding="utf-8"?>
<!-- Generator: Adobe Illustrator 24.0.1, SVG Export Plug-In . SVG Version: 6.00 Build 0)  -->
<svg version="1.1" id="Layer_1" xmlns="http://www.w3.org/2000/svg" xmlns:xlink="http://www.w3.org/1999/xlink" x="0px" y="0px"
	 viewBox="0 0 1920 553.9" style="enable-background:new 0 0 1920 553.9;" xml:space="preserve">
<style type="text/css">
	.st0{fill:url(#SVGID_1_);}
</style>
<linearGradient id="SVGID_1_" gradientUnits="userSpaceOnUse" x1="806.8776" y1="384.2198" x2="1075.8585" y2="236.5082">
	<stop  offset="4.870692e-02" style="stop-color:#40B1FB"/>
	<stop  offset="0.4624" style="stop-color:#727FE2"/>
	<stop  offset="1" style="stop-color:#A883E3"/>
</linearGradient>
<path class="st0" d="M1119.9,337c-4.6-7.4-13.2-10.1-25.7-8.1c-3.5,0.6-7.5,1.6-11.9,2.9c-4.4,1.3-30.1,8.2-36,11.2l-3.1,1.2
	c11.7-9.3,31.5-27.1,39.1-35.6c7.6-8.5,13.2-16.3,16.7-23.5c3.6-7.2,5.5-13.6,5.7-19.4s-1-10.8-3.7-15.1c-4-6.4-10.3-9.9-18.9-10.4
	c-8.6-0.5-18.9,2.9-30.8,10.3c-5,3.1-10.5,7.2-16.5,12.2c-6,5-11.7,10.2-17.1,15.5c-2,1.9-3.9,3.8-5.7,5.7
	c-11.3-50.1-25.5-111.1-30.4-121.4c-7.3-15.2-19.3-30.8-38.3-28c-18.3,2.7-32.7,15.6-35.7,61.9h9.6c-0.3-3.8-1-22.6,12.7-30.5
	c13.7-7.8,26.5-3.7,34.3,7.5c5.9,8.5,12.3,24.6,20.8,58.6L922,366.3l-32.7-137.8h-3.2h-0.1l-2.1,4.4l0,0.1l-86.7,185.2h37.9
	l56.7-126l21.8,91.9l-16,34.2h37.8l60.8-135.2c11.8,56,21.4,106.9,39.6,128.9c2.7,3.2,7.1,5.6,12.3,6.9c1.9,0.6,3.9,0.9,6,0.9
	c0.5,0,1,0,1.5,0c7.5,0.1,15.6-2,22-7.3c0.7-0.4,1.4-0.8,2.1-1.3c5.7-3.5,11.5-8.5,17.3-14.7c5.8-6.3,11-13.2,15.5-20.7
	c4.5-7.5,7.5-14.7,9-21.6C1123.4,347.2,1122.7,341.5,1119.9,337z M1031.2,296.9c4.1-4.2,8.9-8.7,14.3-13.4
	c5.4-4.7,10.5-8.4,15.1-11.3c8.4-5.2,15.3-8.2,20.5-8.8c5.3-0.6,9.2,1.1,11.8,5.4c2.2,3.5,2.2,7.8,0.1,13
	c-2.1,5.2-6.3,11.2-12.5,17.9c-6.3,6.7-14.8,14.5-25.7,23.4l-20.9,18c0,0-3.9,3.2-7.5,7.4c-0.1-0.2-0.1-0.5-0.2-0.7
	c-1.5-6.5-4.5-19.8-8.2-36.4C1022,306.9,1027.9,300.3,1031.2,296.9z M1101.1,356.2c-2.3,5.7-5.9,11.4-10.8,17.1
	c-4.9,5.7-10.1,10.3-15.5,13.6c-1.9,1.1-3.7,2.1-5.4,2.8c-1.3,0.3-2.7,0.6-4,0.7c-18.1,2.3-28.5-9.8-35-28.9c3.4-3,8.3-5.9,15.6-8
	c9.5-3.1,22.8-7.9,30-10.5c7.1-2.6,12.8-3.9,17-4.1c4.2-0.2,7.1,1.1,8.8,3.8C1103.6,346.1,1103.4,350.5,1101.1,356.2z"/>
</svg>
