<?xml version="1.0" encoding="utf-8"?>
<!-- Generator: Adobe Illustrator 24.0.1, SVG Export Plug-In . SVG Version: 6.00 Build 0)  -->
<svg version="1.1" id="Layer_1" xmlns="http://www.w3.org/2000/svg" xmlns:xlink="http://www.w3.org/1999/xlink" x="0px" y="0px"
	 viewBox="0 0 1920 553.9" style="enable-background:new 0 0 1920 553.9;" xml:space="preserve">
<style type="text/css">
	.st0{clip-path:url(#SVGID_2_);}
	.st1{clip-path:url(#SVGID_4_);enable-background:new    ;}
	.st2{clip-path:url(#SVGID_6_);}
	.st3{clip-path:url(#SVGID_8_);}
	.st4{clip-path:url(#SVGID_10_);fill:#32333F;}
</style>
<g>
	<defs>
		<rect id="SVGID_1_" x="724.5" y="227.4" width="471" height="99.2"/>
	</defs>
	<clipPath id="SVGID_2_">
		<use xlink:href="#SVGID_1_"  style="overflow:visible;"/>
	</clipPath>
	<g class="st0">
		<defs>
			<rect id="SVGID_3_" x="292.5" y="53.8" width="1328" height="2875.6"/>
		</defs>
		<clipPath id="SVGID_4_">
			<use xlink:href="#SVGID_3_"  style="overflow:visible;"/>
		</clipPath>
		<g class="st1">
			<g>
				<defs>
					<rect id="SVGID_5_" x="724.5" y="223.8" width="471" height="106.2"/>
				</defs>
				<clipPath id="SVGID_6_">
					<use xlink:href="#SVGID_5_"  style="overflow:visible;"/>
				</clipPath>
				<g class="st2">
					<defs>
						<path id="SVGID_7_" d="M968.3,275.5l16.8,28.6l7.8,4.5c4,2.3,9.1,0.9,11.5-3c2.3-3.9,0.9-9-3-11.2c0,0-0.1,0-0.1-0.1
							L968.3,275.5z M964.9,271.2l29.1,16.5h9c4.6,0,8.3-3.7,8.3-8.3c0-4.6-3.7-8.3-8.3-8.3H964.9z M959.9,269.1h33.6l7.8-4.5
							c3.9-2.2,5.4-7.2,3.1-11.2c0,0,0-0.1-0.1-0.1c-2.4-4-7.5-5.3-11.5-3L959.9,269.1z M954.4,269.8l29.1-16.5l4.5-7.7
							c2.3-3.9,0.9-9-3-11.2c0,0-0.1,0-0.1-0.1c-4-2.3-9.1-0.9-11.5,3L954.4,269.8z M950.1,273.1l16.8-28.6v-8.9
							c-0.1-4.6-4-8.3-8.6-8.2c-4.5,0.1-8.1,3.7-8.2,8.2V273.1z M947.9,276.7V245l-4.5-7.7c-2.4-4-7.5-5.3-11.5-3
							c-3.9,2.2-5.4,7.2-3.1,11.2c0,0,0,0.1,0.1,0.1l18.7,31.8L947.9,276.7z M946.3,279.5l-14.5-24.7l-7.8-4.5
							c-4-2.3-9.1-0.9-11.5,3c-2.3,3.9-1,8.9,3,11.2c0,0,0.1,0,0.1,0.1l29.5,16.8L946.3,279.5z M944.1,283.3l-21.2-12.1h-9
							c-4.6,0-8.3,3.7-8.3,8.3c0,4.6,3.7,8.3,8.3,8.3h27.6L944.1,283.3z M940.3,289.8h-16.8l-7.8,4.5c-4,2.2-5.4,7.2-3.1,11.2
							c0,0,0,0.1,0.1,0.1c2.4,4,7.5,5.3,11.5,3l7.8-4.5L940.3,289.8z M957.2,298.1l-7.9-13.4c-0.7-1.2-1.2-2.5-1.3-3.9l-19.1,32.6
							c-2.3,3.9-1,8.9,3,11.2c0,0,0.1,0,0.1,0.1c4,2.3,9.1,0.9,11.5-3L957.2,298.1z M954.3,272.3L954.3,272.3c4-2.3,9.1-0.9,11.5,3
							l22.3,38c2.3,3.9,0.9,8.9-3,11.2c0,0-0.1,0-0.1,0.1c-4,2.3-9.1,0.9-11.5-3l-22.3-38C948.9,279.7,950.2,274.7,954.3,272.3
							C954.2,272.4,954.2,272.3,954.3,272.3L954.3,272.3z M736.4,285.2c0-1.8,0.9-3.6,2.4-4.7c1.9-1.4,4.3-2.1,6.7-1.9
							c2.6,0,5.2,0.5,7.6,1.5c2.7,1.1,5.2,2.5,7.6,4.2l5.2-7.3c-2.8-2.2-5.9-3.9-9.2-5.1c-3.5-1.2-7.3-1.8-11-1.8
							c-2.6,0-5.2,0.4-7.6,1.1c-2.2,0.7-4.2,1.8-6,3.3c-1.6,1.4-3,3.1-3.9,5.1c-1,2-1.4,4.3-1.4,6.5c-0.1,2.2,0.4,4.5,1.2,6.5
							c0.8,1.8,2.1,3.3,3.6,4.6c1.8,1.4,3.7,2.4,5.8,3.1c2.6,0.9,5.2,1.7,7.9,2.3c2.6,0.6,4.7,1.2,6.4,1.8c1.4,0.4,2.6,1.1,3.8,1.8
							c0.8,0.5,1.5,1.3,1.9,2.2c0.4,0.8,0.5,1.7,0.5,2.7c0.1,2-1,4-2.7,5.1c-2.1,1.4-4.7,2-7.2,1.9c-3.2,0.1-6.4-0.6-9.4-1.8
							c-3-1.4-5.7-3.1-8.2-5.3l-5.9,6.9c3.2,2.9,6.9,5.1,10.9,6.6c4,1.4,8.1,2.2,12.4,2.2c2.7,0,5.4-0.3,8.1-1.1
							c2.3-0.7,4.4-1.7,6.3-3.2c1.7-1.4,3.1-3.2,4.1-5.2c1-2.2,1.5-4.6,1.5-7c0-2.1-0.3-4.1-1.2-6c-0.8-1.7-2-3.2-3.4-4.5
							c-1.7-1.4-3.6-2.5-5.6-3.3c-2.5-1-5.1-1.8-7.8-2.4c-2.7-0.6-4.9-1.2-6.6-1.8c-1.4-0.4-2.8-1.1-4.1-1.9c-0.9-0.5-1.6-1.3-2-2.2
							C736.6,287.1,736.4,286.1,736.4,285.2z M854.9,302.6v23.2h9.7v-54.9h-9.8v22.8h-26.8v-22.8h-9.7v54.9h9.7v-23.2L854.9,302.6
							L854.9,302.6z M1102.7,298.2c0-3.7-0.7-7.4-2.1-10.8c-1.4-3.3-3.5-6.3-6.1-8.7c-2.7-2.5-5.9-4.5-9.4-5.8
							c-3.8-1.4-7.9-2.1-12-2.1h-20.8v54.9h20.8c4.1,0,8.2-0.7,12-2.1c3.5-1.3,6.7-3.3,9.4-5.8c2.6-2.5,4.7-5.4,6.1-8.8
							C1102,305.6,1102.7,301.9,1102.7,298.2L1102.7,298.2z M1092.5,298.4c0,2.6-0.4,5.1-1.4,7.5c-1.8,4.5-5.4,8.1-10,9.8
							c-2.6,0.9-5.3,1.4-8,1.4h-11v-37.5h11c2.7,0,5.4,0.4,8,1.4c4.6,1.8,8.2,5.4,10,9.9C1092,293.3,1092.5,295.8,1092.5,298.4
							L1092.5,298.4z M1195.1,270.8h-41.3v54.9h41.7V317h-32v-14.7h28v-8.7h-28v-14.1h31.6L1195.1,270.8L1195.1,270.8z"/>
					</defs>
					<clipPath id="SVGID_8_">
						<use xlink:href="#SVGID_7_"  style="overflow:visible;"/>
					</clipPath>
					<g class="st3">
						<defs>
							<rect id="SVGID_9_" x="724.5" y="227.4" width="471" height="99.2"/>
						</defs>
						<clipPath id="SVGID_10_">
							<use xlink:href="#SVGID_9_"  style="overflow:visible;"/>
						</clipPath>
						<rect x="706.8" y="209.7" class="st4" width="506.4" height="134.6"/>
					</g>
				</g>
			</g>
		</g>
	</g>
</g>
</svg>
