<?xml version="1.0" encoding="utf-8"?>
<!-- Generator: Adobe Illustrator 23.1.1, SVG Export Plug-In . SVG Version: 6.00 Build 0)  -->
<svg version="1.1" id="Layer_1" xmlns="http://www.w3.org/2000/svg" xmlns:xlink="http://www.w3.org/1999/xlink" x="0px" y="0px"
	 viewBox="0 0 1920 821" style="enable-background:new 0 0 1920 821;" xml:space="preserve">
<style type="text/css">
	.st0{fill:#1F1948;}
	.st1{fill:#FFFFFF;}
</style>
<rect x="-3" y="808" class="st0" width="1926" height="272"/>
<path class="st1" d="M-157.5,791.6c0,0,316.9-137.4,460.3-93.8S728.9,781,824.1,781s368.6-34.3,451.8-27.7s140.4,21.1,290.8,14.5
	c64.9-2.8,291.8-89.5,391-73.8c108.1,17,52.7,26.3,52.7,26.3s-55.5,120.2-62.1,124.2s-154.6,63.4-154.6,63.4s-676.4,34-713.4,36.1
	s-623.5-8.4-654.6-9.7s-287.4-22.5-309.9-27.7C93.5,901.3-157.5,791.6-157.5,791.6z"/>
</svg>
