<?xml version="1.0" encoding="utf-8"?>
<!-- Generator: Adobe Illustrator 24.0.1, SVG Export Plug-In . SVG Version: 6.00 Build 0)  -->
<svg version="1.1" id="Layer_1" xmlns="http://www.w3.org/2000/svg" xmlns:xlink="http://www.w3.org/1999/xlink" x="0px" y="0px"
	 viewBox="0 0 1920 1080" style="enable-background:new 0 0 1920 1080;" xml:space="preserve">
<style type="text/css">
	.st0{fill:#1F1948;}
	.st1{enable-background:new    ;}
	.st2{fill:#FFFFFF;}
</style>
<rect y="0" class="st0" width="1920" height="1080"/>
<g>
	<g class="st1">
		<path class="st2" d="M878.4,225.2h21.8v77h-21.8V225.2z"/>
		<path class="st2" d="M932.5,223c2.3,2.3,3.5,5.2,3.5,8.9c0,1.7-0.2,3.4-0.7,5.1c-0.4,1.7-1.4,4.2-2.9,7.6l-7,16.1h-13.1l5.2-17.9
			c-2.1-1-3.6-2.4-4.8-4.2c-1.1-1.9-1.7-4.1-1.7-6.5c0-3.7,1.2-6.6,3.5-8.9c2.3-2.3,5.4-3.4,9-3.4
			C927.2,219.6,930.2,220.7,932.5,223z"/>
		<path class="st2" d="M1016.3,302.2l-0.2-40.8l-19.8,33.2h-9.7l-19.7-32.1v39.7h-20.1v-77h17.9l27.1,44.4l26.4-44.4h17.9l0.2,77
			H1016.3L1016.3,302.2z"/>
	</g>
	<g class="st1">
		<path class="st2" d="M752.1,325.2h21.8v59.7h36.7v17.3h-58.5V325.2z"/>
		<path class="st2" d="M928.9,385.3v16.8h-61.8v-15h-26.2l-7.8,15h-22.2l42-77h74.6v16.8h-38.8v13h34.2v16.3h-34.2v14.1L928.9,385.3
			L928.9,385.3z M867,371.1v-29.2h-2.5l-15.2,29.2H867z"/>
		<path class="st2" d="M974.6,381.7h-11.9v20.5h-21.8v-77h35.2c7,0,13,1.2,18.2,3.5c5.1,2.3,9.1,5.6,11.9,9.9
			c2.8,4.3,4.2,9.3,4.2,15.1c0,5.6-1.3,10.4-3.9,14.6c-2.6,4.1-6.3,7.4-11.2,9.7l16.6,24.2h-23.3L974.6,381.7z M985,345.3
			c-2.3-2-5.6-3-10.1-3h-12.1v22.5h12.1c4.5,0,7.8-1,10.1-2.9s3.4-4.7,3.4-8.3C988.4,350.1,987.2,347.3,985,345.3z"/>
		<path class="st2" d="M1052.1,374.2l-8.1,8.7v19.2h-21.6v-77h21.6v32l29.8-32h24l-31.5,34.1l33.1,42.9h-25.3L1052.1,374.2z"/>
		<path class="st2" d="M1166.9,385.3v16.8h-61.8v-77h60.4v16.8h-38.8v13h34.2v16.3h-34.2v14.1L1166.9,385.3L1166.9,385.3z"/>
	</g>
	<g class="st1">
		<path class="st2" d="M811.7,458.3c-2-2.1-3-5.1-3-9.1v-16h3v15.9c0,3.3,0.7,5.7,2.2,7.3c1.5,1.6,3.6,2.4,6.4,2.4
			c2.8,0,4.9-0.8,6.4-2.4s2.2-4,2.2-7.3v-15.9h2.9v16c0,4-1,7-3,9.1s-4.8,3.1-8.5,3.1S813.7,460.4,811.7,458.3z"/>
		<path class="st2" d="M840.6,433.2h3v28h-3V433.2z"/>
		<path class="st2" d="M860.3,427.5h2.6l-13.2,37.7h-2.6L860.3,427.5z"/>
		<path class="st2" d="M868.9,458.3c-2-2.1-3-5.1-3-9.1v-16h3v15.9c0,3.3,0.7,5.7,2.2,7.3c1.5,1.6,3.6,2.4,6.4,2.4
			c2.8,0,4.9-0.8,6.4-2.4s2.2-4,2.2-7.3v-15.9h2.9v16c0,4-1,7-3,9.1s-4.8,3.1-8.5,3.1C873.7,461.5,870.9,460.4,868.9,458.3z"/>
		<path class="st2" d="M914.9,461.2l-9-12.3l-9,12.3h-3.4l10.6-14.4l-10-13.6h3.4l8.4,11.4l8.4-11.4h3.2l-9.9,13.5l10.7,14.5H914.9z
			"/>
		<path class="st2" d="M934.1,433.2h11.4c3,0,5.6,0.6,7.8,1.8s4,2.8,5.3,5c1.3,2.1,1.9,4.5,1.9,7.3s-0.6,5.1-1.9,7.3
			c-1.3,2.1-3,3.8-5.3,5s-4.9,1.8-7.8,1.8h-11.4V433.2z M945.3,458.7c2.5,0,4.6-0.5,6.4-1.5s3.3-2.3,4.3-4s1.5-3.7,1.5-5.9
			s-0.5-4.2-1.5-5.9c-1-1.7-2.4-3.1-4.3-4c-1.8-1-4-1.5-6.4-1.5H937v22.9h8.3V458.7z"/>
		<path class="st2" d="M984.8,451.6h-17.6c0.2,2.2,1,4,2.5,5.3s3.4,2,5.8,2c1.3,0,2.5-0.2,3.6-0.7s2-1.2,2.8-2.1l1.6,1.8
			c-0.9,1.1-2.1,2-3.5,2.6s-2.9,0.9-4.6,0.9c-2.2,0-4.1-0.5-5.7-1.4c-1.7-0.9-3-2.2-3.9-3.8c-0.9-1.6-1.4-3.5-1.4-5.5
			s0.4-3.9,1.3-5.5c0.9-1.6,2.1-2.9,3.7-3.8c1.6-0.9,3.3-1.4,5.3-1.4c1.9,0,3.7,0.5,5.2,1.4s2.8,2.2,3.6,3.8s1.3,3.5,1.3,5.5
			L984.8,451.6z M969.6,444.4c-1.4,1.3-2.2,3-2.3,5.1h14.9c-0.2-2.1-1-3.8-2.3-5.1c-1.4-1.3-3.1-1.9-5.1-1.9
			C972.6,442.5,970.9,443.1,969.6,444.4z"/>
		<path class="st2" d="M991.4,460.7c-1.6-0.5-2.8-1.1-3.7-1.9l1.3-2.2c0.9,0.7,2,1.3,3.3,1.7c1.3,0.4,2.7,0.7,4.2,0.7
			c1.9,0,3.3-0.3,4.3-0.9c0.9-0.6,1.4-1.4,1.4-2.5c0-0.8-0.3-1.4-0.8-1.8s-1.1-0.8-1.9-1s-1.8-0.4-3.1-0.7c-1.7-0.3-3.1-0.6-4.1-1
			s-1.9-0.9-2.7-1.7c-0.7-0.8-1.1-1.9-1.1-3.3c0-1.8,0.7-3.2,2.2-4.3c1.5-1.1,3.5-1.7,6.1-1.7c1.4,0,2.7,0.2,4.1,0.5
			c1.4,0.4,2.5,0.8,3.4,1.4l-1.2,2.3c-1.7-1.2-3.8-1.8-6.2-1.8c-1.8,0-3.2,0.3-4.1,1c-0.9,0.6-1.4,1.5-1.4,2.5
			c0,0.8,0.3,1.4,0.8,1.9s1.2,0.8,1.9,1.1s1.8,0.5,3.2,0.7c1.7,0.3,3,0.6,4,1c1,0.3,1.9,0.9,2.6,1.6s1.1,1.8,1.1,3.2
			c0,1.8-0.8,3.3-2.3,4.4s-3.7,1.6-6.4,1.6C994.6,461.4,993,461.2,991.4,460.7z"/>
		<path class="st2" d="M1010.2,435c-0.4-0.4-0.6-0.9-0.6-1.4s0.2-1,0.6-1.4c0.4-0.4,0.9-0.6,1.5-0.6s1.1,0.2,1.5,0.6
			s0.6,0.8,0.6,1.4s-0.2,1.1-0.6,1.5c-0.4,0.4-0.9,0.6-1.5,0.6C1011.1,435.6,1010.6,435.4,1010.2,435z M1010.2,440.2h2.8v21h-2.8
			V440.2z"/>
		<path class="st2" d="M1040.5,440.2v18.5c0,3.6-0.9,6.2-2.6,7.9c-1.7,1.7-4.4,2.6-7.9,2.6c-1.9,0-3.8-0.3-5.5-0.9
			c-1.7-0.6-3.2-1.4-4.3-2.4l1.4-2.2c1,0.9,2.2,1.6,3.7,2.1s3,0.8,4.6,0.8c2.7,0,4.6-0.6,5.9-1.9c1.3-1.2,1.9-3.2,1.9-5.8v-2.7
			c-0.9,1.3-2,2.3-3.5,3c-1.4,0.7-3,1-4.7,1c-2,0-3.8-0.4-5.4-1.3s-2.9-2.1-3.8-3.6c-0.9-1.6-1.4-3.3-1.4-5.3s0.5-3.7,1.4-5.3
			c0.9-1.5,2.2-2.7,3.8-3.6s3.4-1.3,5.4-1.3c1.8,0,3.4,0.4,4.8,1.1s2.6,1.8,3.5,3.1v-4h2.7L1040.5,440.2L1040.5,440.2z
			 M1033.8,456.9c1.2-0.7,2.2-1.6,2.9-2.7c0.7-1.2,1-2.5,1-4s-0.3-2.8-1-4s-1.6-2.1-2.8-2.7c-1.2-0.7-2.6-1-4.1-1s-2.9,0.3-4.1,1
			c-1.2,0.6-2.2,1.5-2.8,2.7c-0.7,1.2-1,2.5-1,4s0.3,2.8,1,4s1.6,2.1,2.8,2.7c1.2,0.7,2.6,1,4.1,1
			C1031.2,457.9,1032.6,457.6,1033.8,456.9z"/>
		<path class="st2" d="M1065.4,442.3c1.6,1.5,2.3,3.8,2.3,6.7v12.2h-2.8v-11.9c0-2.2-0.5-3.9-1.6-5s-2.7-1.7-4.7-1.7
			c-2.3,0-4.1,0.7-5.4,2s-2,3.2-2,5.6v11h-2.8v-21h2.7v3.9c0.8-1.3,1.8-2.3,3.2-3c1.4-0.7,3-1.1,4.8-1.1
			C1061.8,440,1063.9,440.8,1065.4,442.3z"/>
		<path class="st2" d="M1093.9,451.6h-17.6c0.2,2.2,1,4,2.5,5.3s3.4,2,5.8,2c1.3,0,2.5-0.2,3.6-0.7s2-1.2,2.8-2.1l1.6,1.8
			c-0.9,1.1-2.1,2-3.5,2.6s-2.9,0.9-4.6,0.9c-2.2,0-4.1-0.5-5.7-1.4c-1.7-0.9-3-2.2-3.9-3.8c-0.9-1.6-1.4-3.5-1.4-5.5
			s0.4-3.9,1.3-5.5s2.1-2.9,3.7-3.8s3.3-1.4,5.3-1.4c1.9,0,3.7,0.5,5.2,1.4s2.8,2.2,3.6,3.8s1.3,3.5,1.3,5.5L1093.9,451.6z
			 M1078.6,444.4c-1.4,1.3-2.2,3-2.3,5.1h14.9c-0.2-2.1-1-3.8-2.3-5.1c-1.4-1.3-3.1-1.9-5.1-1.9
			C1081.7,442.5,1080,443.1,1078.6,444.4z"/>
		<path class="st2" d="M1105.4,441.1c1.3-0.7,3-1.1,4.9-1.1v2.8h-0.7c-2.2,0-3.9,0.7-5.2,2c-1.3,1.4-1.9,3.3-1.9,5.7v10.7h-2.8v-21
			h2.7v4.1C1103.1,442.9,1104.1,441.8,1105.4,441.1z"/>
	</g>
</g>
</svg>
