<?xml version="1.0" encoding="utf-8"?>
<!-- Generator: Adobe Illustrator 19.1.0, SVG Export Plug-In . SVG Version: 6.00 Build 0)  -->
<svg version="1.1" id="Layer_1" xmlns="http://www.w3.org/2000/svg" xmlns:xlink="http://www.w3.org/1999/xlink" x="0px" y="0px"
	 viewBox="0 0 200.1 54.3" enable-background="new 0 0 200.1 54.3" xml:space="preserve">
<path fill="#85BF61" d="M172.9,54.3H27.2C12.2,54.3,0,42.1,0,27.2v0C0,12.2,12.2,0,27.2,0h145.8c14.9,0,27.2,12.2,27.2,27.2v0
	C200.1,42.1,187.9,54.3,172.9,54.3z"/>
<g>
	<path fill="#EFEFEF" d="M71.3,12l3.4,8.6h-0.9l-1-2.7h-3.9l-1,2.7h-0.9l3.4-8.6H71.3z M72.4,17.2l-1.7-4.4l-1.7,4.4H72.4z"/>
	<path fill="#EFEFEF" d="M74.7,12l2.8,7.7h0l2.8-7.7h0.9L78,20.5h-0.9L73.9,12H74.7z"/>
	<path fill="#EFEFEF" d="M84.7,12l3.4,8.6h-0.9l-1-2.7h-3.9l-1,2.7h-0.9l3.4-8.6H84.7z M85.9,17.2l-1.7-4.4l-1.7,4.4H85.9z"/>
	<path fill="#EFEFEF" d="M89.7,12v8.6h-0.8V12H89.7z"/>
	<path fill="#EFEFEF" d="M92.3,12v7.9h4.8v0.7h-5.6V12H92.3z"/>
	<path fill="#EFEFEF" d="M101.4,12l3.4,8.6h-0.9l-1-2.7h-3.9l-1,2.7H97l3.4-8.6H101.4z M102.5,17.2l-1.7-4.4l-1.7,4.4H102.5z"/>
	<path fill="#EFEFEF" d="M109.1,12c0.4,0,0.7,0,1,0.1s0.6,0.2,0.9,0.3s0.5,0.4,0.6,0.6c0.2,0.3,0.2,0.6,0.2,1c0,0.2,0,0.4-0.1,0.7
		c-0.1,0.2-0.2,0.4-0.3,0.6c-0.1,0.2-0.3,0.3-0.5,0.4c-0.2,0.1-0.4,0.2-0.6,0.3v0c0.6,0.1,1,0.3,1.3,0.7s0.5,0.8,0.5,1.4
		c0,0.1,0,0.3,0,0.5c0,0.2-0.1,0.3-0.1,0.5c-0.1,0.2-0.2,0.4-0.3,0.5c-0.1,0.2-0.3,0.3-0.5,0.5c-0.2,0.1-0.5,0.2-0.8,0.3
		c-0.3,0.1-0.7,0.1-1.2,0.1h-3.6V12H109.1z M109.1,15.7c0.3,0,0.6,0,0.9-0.1c0.2-0.1,0.4-0.2,0.6-0.3s0.3-0.3,0.4-0.5
		s0.1-0.4,0.1-0.6c0-1.1-0.6-1.6-1.9-1.6h-2.8v3.1H109.1z M109.1,19.9c0.3,0,0.6,0,0.9-0.1c0.3-0.1,0.5-0.1,0.7-0.3
		c0.2-0.1,0.4-0.3,0.5-0.5c0.1-0.2,0.2-0.5,0.2-0.9c0-0.6-0.2-1-0.6-1.2c-0.4-0.3-0.9-0.4-1.7-0.4h-2.8v3.4H109.1z"/>
	<path fill="#EFEFEF" d="M114.3,12v7.9h4.8v0.7h-5.6V12H114.3z"/>
	<path fill="#EFEFEF" d="M125.9,12v0.7h-5.1v3.1h4.8v0.7h-4.8v3.4h5.2v0.7h-6V12H125.9z"/>
	<path fill="#EFEFEF" d="M130.2,14.6c0.2-0.5,0.4-1,0.8-1.4c0.3-0.4,0.8-0.7,1.3-1c0.5-0.2,1.1-0.4,1.8-0.4s1.3,0.1,1.8,0.4
		c0.5,0.2,0.9,0.6,1.3,1c0.3,0.4,0.6,0.9,0.8,1.4s0.3,1.1,0.3,1.7c0,0.6-0.1,1.2-0.3,1.7s-0.4,1-0.8,1.4s-0.8,0.7-1.3,1
		c-0.5,0.2-1.1,0.4-1.8,0.4s-1.3-0.1-1.8-0.4c-0.5-0.2-0.9-0.6-1.3-1s-0.6-0.9-0.8-1.4s-0.3-1.1-0.3-1.7
		C129.9,15.7,130,15.1,130.2,14.6z M130.9,17.6c0.1,0.5,0.3,0.9,0.6,1.2c0.3,0.4,0.6,0.6,1,0.9s0.9,0.3,1.5,0.3s1.1-0.1,1.5-0.3
		s0.7-0.5,1-0.9c0.3-0.4,0.5-0.8,0.6-1.2s0.2-0.9,0.2-1.4c0-0.5-0.1-0.9-0.2-1.4s-0.3-0.8-0.6-1.2c-0.3-0.4-0.6-0.6-1-0.9
		c-0.4-0.2-0.9-0.3-1.5-0.3s-1.1,0.1-1.5,0.3c-0.4,0.2-0.7,0.5-1,0.9c-0.3,0.4-0.5,0.8-0.6,1.2s-0.2,0.9-0.2,1.4
		C130.8,16.7,130.8,17.2,130.9,17.6z"/>
	<path fill="#EFEFEF" d="M140.2,12l5,7.2h0V12h0.8v8.6h-0.9l-5-7.2h0v7.2h-0.8V12H140.2z"/>
	<path fill="#EFEFEF" d="M156.9,12v0.7h-3v7.9h-0.8v-7.9h-3V12H156.9z"/>
	<path fill="#EFEFEF" d="M158.6,12v3.7h5.1V12h0.8v8.6h-0.8v-4.2h-5.1v4.2h-0.8V12H158.6z"/>
	<path fill="#EFEFEF" d="M172.1,12v0.7H167v3.1h4.8v0.7H167v3.4h5.2v0.7h-6V12H172.1z"/>
</g>
<g>
	<path fill="#EFEFEF" d="M86.3,26l5.3,14.3h-3.3l-1.1-3.2H82l-1.1,3.2h-3.2L83.1,26H86.3z M86.5,34.8l-1.8-5.2h0l-1.9,5.2H86.5z"/>
	<path fill="#EFEFEF" d="M95.3,30v1.3h0c0.3-0.6,0.8-1,1.3-1.2c0.5-0.3,1.1-0.4,1.8-0.4c0.8,0,1.5,0.2,2.1,0.5
		c0.6,0.3,1.1,0.7,1.5,1.2c0.4,0.5,0.7,1.1,0.9,1.8c0.2,0.7,0.3,1.4,0.3,2.1c0,0.7-0.1,1.4-0.3,2c-0.2,0.6-0.5,1.2-0.8,1.7
		c-0.4,0.5-0.9,0.9-1.4,1.2s-1.2,0.4-2,0.4c-0.6,0-1.2-0.1-1.8-0.4s-1-0.6-1.3-1.2h0v4.9h-2.8V30H95.3z M99,38.2
		c0.3-0.2,0.6-0.4,0.8-0.7s0.3-0.6,0.4-1s0.1-0.8,0.1-1.2s0-0.8-0.1-1.2c-0.1-0.4-0.2-0.8-0.4-1.1c-0.2-0.3-0.5-0.6-0.8-0.8
		c-0.3-0.2-0.7-0.3-1.2-0.3c-0.5,0-0.9,0.1-1.2,0.3c-0.3,0.2-0.6,0.4-0.8,0.8c-0.2,0.3-0.3,0.7-0.4,1.1c-0.1,0.4-0.1,0.8-0.1,1.2
		c0,0.4,0,0.8,0.1,1.2c0.1,0.4,0.2,0.8,0.4,1c0.2,0.3,0.4,0.5,0.8,0.7c0.3,0.2,0.7,0.3,1.2,0.3C98.3,38.4,98.7,38.4,99,38.2z"/>
	<path fill="#EFEFEF" d="M107.5,30v1.3h0c0.3-0.6,0.8-1,1.3-1.2c0.5-0.3,1.1-0.4,1.8-0.4c0.8,0,1.5,0.2,2.1,0.5s1.1,0.7,1.5,1.2
		c0.4,0.5,0.7,1.1,0.9,1.8c0.2,0.7,0.3,1.4,0.3,2.1c0,0.7-0.1,1.4-0.3,2c-0.2,0.6-0.5,1.2-0.8,1.7c-0.4,0.5-0.9,0.9-1.4,1.2
		c-0.6,0.3-1.2,0.4-2,0.4c-0.6,0-1.2-0.1-1.8-0.4s-1-0.6-1.3-1.2h0v4.9h-2.8V30H107.5z M111.2,38.2c0.3-0.2,0.6-0.4,0.8-0.7
		s0.3-0.6,0.4-1s0.1-0.8,0.1-1.2s0-0.8-0.1-1.2c-0.1-0.4-0.2-0.8-0.4-1.1s-0.5-0.6-0.8-0.8c-0.3-0.2-0.7-0.3-1.2-0.3
		c-0.5,0-0.9,0.1-1.2,0.3c-0.3,0.2-0.6,0.4-0.8,0.8c-0.2,0.3-0.3,0.7-0.4,1.1c-0.1,0.4-0.1,0.8-0.1,1.2c0,0.4,0,0.8,0.1,1.2
		s0.2,0.8,0.4,1s0.5,0.5,0.8,0.7c0.3,0.2,0.7,0.3,1.2,0.3C110.5,38.4,110.9,38.4,111.2,38.2z"/>
	<path fill="#EFEFEF" d="M125.3,36.8c0.2,0.3,0.4,0.6,0.7,0.8c0.3,0.2,0.6,0.4,1,0.5s0.8,0.2,1.2,0.2c0.3,0,0.6,0,0.9-0.1
		c0.3,0,0.6-0.1,0.9-0.3c0.3-0.1,0.5-0.3,0.7-0.5c0.2-0.2,0.3-0.5,0.3-0.9c0-0.4-0.1-0.7-0.4-0.9c-0.2-0.2-0.6-0.4-1-0.6
		c-0.4-0.2-0.9-0.3-1.4-0.4s-1-0.3-1.5-0.4c-0.5-0.1-1.1-0.3-1.6-0.5c-0.5-0.2-1-0.4-1.4-0.8c-0.4-0.3-0.7-0.7-1-1.1
		c-0.2-0.5-0.4-1-0.4-1.7c0-0.7,0.2-1.4,0.5-1.9s0.7-1,1.2-1.3c0.5-0.4,1.1-0.6,1.7-0.8c0.6-0.2,1.3-0.3,1.9-0.3
		c0.7,0,1.5,0.1,2.2,0.2c0.7,0.2,1.3,0.4,1.8,0.8c0.5,0.4,1,0.8,1.3,1.4s0.5,1.3,0.5,2.1h-3c0-0.4-0.1-0.8-0.3-1.1s-0.4-0.5-0.6-0.7
		s-0.5-0.3-0.9-0.3c-0.3-0.1-0.7-0.1-1.1-0.1c-0.3,0-0.5,0-0.8,0.1c-0.3,0.1-0.5,0.1-0.7,0.3c-0.2,0.1-0.4,0.3-0.5,0.5
		c-0.1,0.2-0.2,0.5-0.2,0.8c0,0.3,0.1,0.5,0.2,0.7c0.1,0.2,0.3,0.3,0.6,0.5c0.3,0.1,0.7,0.3,1.3,0.4c0.6,0.1,1.3,0.3,2.2,0.6
		c0.3,0.1,0.6,0.2,1.1,0.3c0.5,0.1,0.9,0.4,1.4,0.7c0.5,0.3,0.9,0.7,1.2,1.2c0.3,0.5,0.5,1.2,0.5,2c0,0.7-0.1,1.3-0.4,1.8
		c-0.3,0.6-0.6,1-1.1,1.5c-0.5,0.4-1.1,0.7-1.9,1s-1.6,0.3-2.6,0.3c-0.8,0-1.5-0.1-2.3-0.3c-0.7-0.2-1.4-0.5-2-0.9s-1-0.9-1.3-1.6
		c-0.3-0.6-0.5-1.4-0.5-2.3h3C125.1,36,125.1,36.5,125.3,36.8z"/>
	<path fill="#EFEFEF" d="M141.3,30v1.9h-2.1V37c0,0.5,0.1,0.8,0.2,1c0.2,0.2,0.5,0.2,1,0.2c0.2,0,0.3,0,0.5,0c0.1,0,0.3,0,0.4-0.1
		v2.2c-0.2,0-0.5,0.1-0.8,0.1c-0.3,0-0.6,0-0.9,0c-0.4,0-0.9,0-1.2-0.1c-0.4-0.1-0.7-0.2-1-0.3c-0.3-0.2-0.5-0.4-0.7-0.7
		c-0.2-0.3-0.3-0.7-0.3-1.3v-6.1h-1.7V30h1.7v-3.1h2.8V30H141.3z"/>
	<path fill="#EFEFEF" d="M142.7,32.9c0.3-0.7,0.6-1.2,1.1-1.7c0.5-0.5,1-0.8,1.7-1.1c0.7-0.3,1.4-0.4,2.2-0.4c0.8,0,1.5,0.1,2.2,0.4
		c0.7,0.3,1.2,0.6,1.7,1.1s0.8,1,1.1,1.7c0.3,0.7,0.4,1.4,0.4,2.2c0,0.8-0.1,1.6-0.4,2.2s-0.6,1.2-1.1,1.7s-1,0.8-1.7,1.1
		s-1.4,0.4-2.2,0.4c-0.8,0-1.5-0.1-2.2-0.4s-1.2-0.6-1.7-1.1c-0.5-0.5-0.8-1-1.1-1.7c-0.3-0.7-0.4-1.4-0.4-2.2
		C142.3,34.3,142.4,33.6,142.7,32.9z M145.3,36.4c0.1,0.4,0.2,0.7,0.4,1.1s0.5,0.6,0.8,0.8s0.7,0.3,1.2,0.3c0.5,0,0.9-0.1,1.2-0.3
		c0.3-0.2,0.6-0.4,0.8-0.8s0.3-0.7,0.4-1.1c0.1-0.4,0.1-0.8,0.1-1.2c0-0.4,0-0.8-0.1-1.2c-0.1-0.4-0.2-0.8-0.4-1.1
		c-0.2-0.3-0.5-0.6-0.8-0.8c-0.3-0.2-0.7-0.3-1.2-0.3c-0.5,0-0.9,0.1-1.2,0.3c-0.3,0.2-0.6,0.4-0.8,0.8c-0.2,0.3-0.3,0.7-0.4,1.1
		c-0.1,0.4-0.1,0.8-0.1,1.2C145.2,35.6,145.2,36,145.3,36.4z"/>
	<path fill="#EFEFEF" d="M157.6,30v1.9h0c0.1-0.3,0.3-0.6,0.5-0.9s0.5-0.5,0.8-0.7c0.3-0.2,0.6-0.3,0.9-0.5s0.7-0.2,1-0.2
		c0.2,0,0.4,0,0.6,0.1v2.6c-0.1,0-0.3,0-0.5-0.1c-0.2,0-0.4,0-0.5,0c-0.5,0-1,0.1-1.3,0.3c-0.4,0.2-0.7,0.4-0.9,0.7s-0.4,0.6-0.5,1
		c-0.1,0.4-0.1,0.8-0.1,1.3v4.7h-2.8V30H157.6z"/>
	<path fill="#EFEFEF" d="M165.3,37.8c0.4,0.4,1,0.6,1.8,0.6c0.6,0,1.1-0.1,1.5-0.4c0.4-0.3,0.7-0.6,0.8-0.9h2.5
		c-0.4,1.2-1,2.1-1.8,2.7c-0.8,0.5-1.8,0.8-3,0.8c-0.8,0-1.5-0.1-2.2-0.4s-1.2-0.6-1.7-1.1c-0.5-0.5-0.8-1.1-1-1.7s-0.4-1.4-0.4-2.2
		c0-0.8,0.1-1.5,0.4-2.2c0.3-0.7,0.6-1.2,1.1-1.7s1-0.9,1.7-1.2s1.4-0.4,2.2-0.4c0.9,0,1.6,0.2,2.3,0.5c0.7,0.3,1.2,0.8,1.6,1.4
		c0.4,0.6,0.7,1.2,0.9,2c0.2,0.7,0.3,1.5,0.2,2.3h-7.5C164.7,36.7,164.9,37.4,165.3,37.8z M168.5,32.4c-0.3-0.4-0.9-0.6-1.5-0.6
		c-0.5,0-0.8,0.1-1.1,0.2c-0.3,0.2-0.5,0.3-0.7,0.6c-0.2,0.2-0.3,0.5-0.4,0.7s-0.1,0.5-0.1,0.7h4.6
		C169.1,33.3,168.9,32.8,168.5,32.4z"/>
</g>
<path fill-rule="evenodd" clip-rule="evenodd" fill="#EFEFEF" d="M49.3,20.1c-2-2.4-4.7-3.8-7.3-3.8c-3.4,0-4.9,1.6-7.2,1.6
	c-2.4,0-4.3-1.6-7.3-1.6c-2.9,0-6,1.8-8,4.8c-2.8,4.2-2.3,12.2,2.2,19.1c1.6,2.4,3.7,5.2,6.5,5.2c2.5,0,3.2-1.6,6.6-1.6
	c3.4,0,4,1.6,6.5,1.6c2.8,0,5-3.1,6.6-5.5c1.1-1.7,1.6-2.6,2.5-4.6C43.9,32.8,42.9,23.7,49.3,20.1z M39.4,13.6
	c1.2-1.6,2.2-3.9,1.8-6.2c-2,0.1-4.4,1.4-5.8,3.1c-1.3,1.5-2.3,3.8-1.9,6C35.8,16.6,38.1,15.3,39.4,13.6z"/>
</svg>
