<?xml version="1.0" encoding="utf-8"?>
<!-- Generator: Adobe Illustrator 19.1.0, SVG Export Plug-In . SVG Version: 6.00 Build 0)  -->
<svg version="1.1" id="Layer_3" xmlns="http://www.w3.org/2000/svg" xmlns:xlink="http://www.w3.org/1999/xlink" x="0px" y="0px"
	 viewBox="0 0 48.9 48.9" style="enable-background:new 0 0 48.9 48.9;" xml:space="preserve">
<style type="text/css">
	.st0{fill:#010202;}
	.st1{fill:#9D9D9D;}
</style>
<rect x="0" y="0" class="st0" width="48.9" height="48.9"/>
<g>
	<path class="st1" d="M26.5,19.9v-2.3c0-0.3,0-0.6,0-0.8c0-0.2,0.1-0.4,0.2-0.6c0.1-0.2,0.3-0.3,0.5-0.4c0.3-0.1,0.6-0.1,1-0.1h2.3
		v-4.5h-3.6c-2.1,0-3.6,0.5-4.5,1.5c-0.9,1-1.4,2.5-1.4,4.4v2.7h-2.7v4.5H21v13.2h5.4V24.4h3.6l0.5-4.5H26.5z M26.5,19.9"/>
</g>
</svg>
