<?xml version="1.0" encoding="utf-8"?>
<!-- Generator: Adobe Illustrator 19.1.0, SVG Export Plug-In . SVG Version: 6.00 Build 0)  -->
<svg version="1.1" id="Layer_1" xmlns="http://www.w3.org/2000/svg" xmlns:xlink="http://www.w3.org/1999/xlink" x="0px" y="0px"
	 viewBox="0 0 200.1 54.3" enable-background="new 0 0 200.1 54.3" xml:space="preserve">
<path fill="#85BF61" d="M172.9,54.3H27.2C12.2,54.3,0,42.1,0,27.2v0C0,12.2,12.2,0,27.2,0h145.8c14.9,0,27.2,12.2,27.2,27.2v0
	C200.1,42.1,187.9,54.3,172.9,54.3z"/>
<g>
	<defs>
		<path id="SVGID_1_" d="M34.4,17.2l14.2,8.1c1.3,0.7,1.3,2.6,0,3.3l-14.1,8.3l-14.1,8.3c-1.3,0.7-2.9-0.2-2.9-1.7l-0.1-16.3
			l-0.1-16.3c0-1.5,1.6-2.4,2.9-1.7L34.4,17.2z"/>
	</defs>
	<clipPath id="SVGID_2_">
		<use xlink:href="#SVGID_1_"  overflow="visible"/>
	</clipPath>
	<g clip-path="url(#SVGID_2_)">
		<polygon fill="#60C1C8" points="18.6,45 36.5,27.2 18.5,9.1 14.4,9.4 15.3,45.9 		"/>
		<path fill="#D34C91" d="M42.1,32.7l-5.6-5.6L18.6,45l-2.2,3.7c0,0,12,0,12.5-0.7C29.3,47.3,42.1,32.7,42.1,32.7z"/>
		<polygon fill="#B5D8B2" points="18.5,9.1 36.5,27.2 44.8,18.9 34.2,9.9 21.2,6.4 16.1,7.3 		"/>
		<polygon fill="#FABE80" points="42.1,32.7 48.8,32.4 51,25.1 48.3,21.8 43,20.6 36.5,27.2 		"/>
	</g>
</g>
<g>
	<path fill="#EFEFEF" d="M68,41c-0.7,0.3-1.4,0.4-2.1,0.4c-1.1,0-2.1-0.2-2.9-0.6c-0.9-0.4-1.6-0.9-2.2-1.6
		c-0.6-0.7-1.1-1.4-1.4-2.3C59.1,36,58.9,35,58.9,34c0-1.1,0.2-2.1,0.5-3c0.3-0.9,0.8-1.7,1.4-2.4c0.6-0.7,1.3-1.2,2.2-1.6
		c0.9-0.4,1.9-0.6,2.9-0.6c0.7,0,1.4,0.1,2.1,0.3c0.7,0.2,1.3,0.5,1.9,1c0.6,0.4,1,1,1.4,1.6c0.4,0.6,0.6,1.3,0.7,2.2h-3
		c-0.2-0.8-0.5-1.4-1.1-1.8c-0.5-0.4-1.2-0.6-1.9-0.6c-0.7,0-1.3,0.1-1.8,0.4c-0.5,0.3-0.9,0.6-1.2,1.1s-0.5,1-0.7,1.6
		c-0.1,0.6-0.2,1.2-0.2,1.8c0,0.6,0.1,1.2,0.2,1.8c0.1,0.6,0.4,1.1,0.7,1.5s0.7,0.8,1.2,1.1c0.5,0.3,1.1,0.4,1.8,0.4
		c1,0,1.8-0.3,2.4-0.8c0.6-0.5,0.9-1.3,1-2.3h-3.2v-2.3h6v7.7h-2l-0.3-1.6C69.3,40.2,68.7,40.7,68,41z"/>
	<path fill="#EFEFEF" d="M74.5,33.7c0.3-0.7,0.6-1.2,1.1-1.7c0.5-0.5,1-0.8,1.7-1.1c0.7-0.3,1.4-0.4,2.2-0.4c0.8,0,1.5,0.1,2.2,0.4
		c0.7,0.3,1.2,0.6,1.7,1.1c0.5,0.5,0.8,1,1.1,1.7c0.3,0.7,0.4,1.4,0.4,2.2c0,0.8-0.1,1.6-0.4,2.2c-0.3,0.7-0.6,1.2-1.1,1.7
		s-1,0.8-1.7,1.1s-1.4,0.4-2.2,0.4c-0.8,0-1.5-0.1-2.2-0.4s-1.2-0.6-1.7-1.1c-0.5-0.5-0.8-1-1.1-1.7c-0.3-0.7-0.4-1.4-0.4-2.2
		C74.1,35.1,74.2,34.4,74.5,33.7z M77.1,37.1c0.1,0.4,0.2,0.7,0.4,1.1s0.5,0.6,0.8,0.8c0.3,0.2,0.7,0.3,1.2,0.3s0.9-0.1,1.2-0.3
		c0.3-0.2,0.6-0.4,0.8-0.8s0.3-0.7,0.4-1.1c0.1-0.4,0.1-0.8,0.1-1.2c0-0.4,0-0.8-0.1-1.2c-0.1-0.4-0.2-0.8-0.4-1.1
		c-0.2-0.3-0.5-0.6-0.8-0.8c-0.3-0.2-0.7-0.3-1.2-0.3s-0.9,0.1-1.2,0.3c-0.3,0.2-0.6,0.4-0.8,0.8c-0.2,0.3-0.3,0.7-0.4,1.1
		c-0.1,0.4-0.1,0.8-0.1,1.2C76.9,36.3,77,36.7,77.1,37.1z"/>
	<path fill="#EFEFEF" d="M86.7,33.7c0.3-0.7,0.6-1.2,1.1-1.7c0.5-0.5,1-0.8,1.7-1.1c0.7-0.3,1.4-0.4,2.2-0.4c0.8,0,1.5,0.1,2.2,0.4
		c0.7,0.3,1.2,0.6,1.7,1.1c0.5,0.5,0.8,1,1.1,1.7c0.3,0.7,0.4,1.4,0.4,2.2c0,0.8-0.1,1.6-0.4,2.2c-0.3,0.7-0.6,1.2-1.1,1.7
		s-1,0.8-1.7,1.1s-1.4,0.4-2.2,0.4c-0.8,0-1.5-0.1-2.2-0.4s-1.2-0.6-1.7-1.1c-0.5-0.5-0.8-1-1.1-1.7c-0.3-0.7-0.4-1.4-0.4-2.2
		C86.3,35.1,86.4,34.4,86.7,33.7z M89.3,37.1c0.1,0.4,0.2,0.7,0.4,1.1s0.5,0.6,0.8,0.8c0.3,0.2,0.7,0.3,1.2,0.3s0.9-0.1,1.2-0.3
		c0.3-0.2,0.6-0.4,0.8-0.8s0.3-0.7,0.4-1.1c0.1-0.4,0.1-0.8,0.1-1.2c0-0.4,0-0.8-0.1-1.2c-0.1-0.4-0.2-0.8-0.4-1.1
		c-0.2-0.3-0.5-0.6-0.8-0.8c-0.3-0.2-0.7-0.3-1.2-0.3s-0.9,0.1-1.2,0.3c-0.3,0.2-0.6,0.4-0.8,0.8c-0.2,0.3-0.3,0.7-0.4,1.1
		c-0.1,0.4-0.1,0.8-0.1,1.2C89.2,36.3,89.2,36.7,89.3,37.1z"/>
	<path fill="#EFEFEF" d="M108.6,41.8c-0.1,0.5-0.4,1-0.7,1.5c-0.4,0.5-0.9,0.8-1.6,1.2c-0.7,0.3-1.7,0.5-2.8,0.5
		c-0.5,0-1-0.1-1.6-0.2s-1-0.3-1.4-0.6c-0.4-0.3-0.8-0.6-1.1-1s-0.4-0.9-0.5-1.5h2.8c0.1,0.5,0.4,0.9,0.8,1.1
		c0.4,0.2,0.8,0.3,1.3,0.3c0.8,0,1.4-0.2,1.8-0.7c0.4-0.5,0.5-1.1,0.5-1.8v-1.4h0c-0.3,0.5-0.7,1-1.3,1.2c-0.6,0.3-1.2,0.4-1.8,0.4
		c-0.8,0-1.4-0.1-2-0.4s-1-0.6-1.4-1.1c-0.4-0.5-0.6-1-0.8-1.7c-0.2-0.6-0.2-1.3-0.2-2c0-0.7,0.1-1.3,0.3-1.9s0.5-1.2,0.9-1.6
		c0.4-0.5,0.8-0.8,1.4-1.1c0.6-0.3,1.2-0.4,1.9-0.4c0.7,0,1.3,0.1,1.8,0.4c0.5,0.3,0.9,0.7,1.3,1.3h0v-1.4h2.7v9.7
		C108.8,40.8,108.7,41.3,108.6,41.8z M104.7,38.4c0.3-0.2,0.6-0.4,0.8-0.6c0.2-0.3,0.3-0.6,0.4-0.9c0.1-0.3,0.1-0.7,0.1-1.1
		c0-0.4,0-0.8-0.1-1.2c-0.1-0.4-0.2-0.7-0.4-1c-0.2-0.3-0.4-0.5-0.7-0.7c-0.3-0.2-0.7-0.3-1.2-0.3c-0.4,0-0.7,0.1-1,0.2
		c-0.3,0.2-0.5,0.4-0.7,0.7s-0.3,0.6-0.4,0.9c-0.1,0.4-0.1,0.7-0.1,1.1c0,0.4,0,0.7,0.1,1.1c0.1,0.4,0.2,0.7,0.4,1
		c0.2,0.3,0.4,0.5,0.7,0.7s0.7,0.3,1.1,0.3C104.1,38.6,104.4,38.6,104.7,38.4z"/>
	<path fill="#EFEFEF" d="M114,26.8v14.3h-2.8V26.8H114z"/>
	<path fill="#EFEFEF" d="M119.3,38.6c0.4,0.4,1,0.6,1.8,0.6c0.6,0,1.1-0.1,1.5-0.4c0.4-0.3,0.7-0.6,0.8-0.9h2.5
		c-0.4,1.2-1,2.1-1.8,2.7s-1.8,0.8-3,0.8c-0.8,0-1.5-0.1-2.2-0.4c-0.7-0.3-1.2-0.6-1.7-1.1c-0.5-0.5-0.8-1.1-1-1.7
		c-0.2-0.7-0.4-1.4-0.4-2.2c0-0.8,0.1-1.5,0.4-2.2c0.3-0.7,0.6-1.2,1.1-1.7c0.5-0.5,1-0.9,1.7-1.2c0.6-0.3,1.4-0.4,2.1-0.4
		c0.9,0,1.6,0.2,2.3,0.5c0.7,0.3,1.2,0.8,1.6,1.4c0.4,0.6,0.7,1.2,0.9,2c0.2,0.7,0.3,1.5,0.2,2.3h-7.5
		C118.6,37.5,118.9,38.2,119.3,38.6z M122.5,33.2c-0.3-0.4-0.9-0.6-1.6-0.6c-0.5,0-0.8,0.1-1.1,0.2c-0.3,0.2-0.5,0.3-0.7,0.6
		c-0.2,0.2-0.3,0.5-0.4,0.7s-0.1,0.5-0.1,0.7h4.6C123.1,34.1,122.8,33.5,122.5,33.2z"/>
	<path fill="#EFEFEF" d="M140,26.8c0.9,0,1.7,0.1,2.3,0.4c0.6,0.3,1.1,0.6,1.5,1c0.4,0.4,0.7,0.9,0.9,1.5c0.2,0.5,0.3,1.1,0.3,1.7
		c0,0.6-0.1,1.1-0.3,1.7c-0.2,0.6-0.5,1-0.9,1.5c-0.4,0.4-0.9,0.8-1.5,1c-0.6,0.3-1.4,0.4-2.3,0.4h-3.3v5.1h-3.1V26.8H140z
		 M139.2,33.5c0.4,0,0.7,0,1-0.1c0.3-0.1,0.6-0.2,0.9-0.3s0.5-0.4,0.6-0.6c0.2-0.3,0.2-0.6,0.2-1.1c0-0.5-0.1-0.8-0.2-1.1
		c-0.2-0.3-0.4-0.5-0.6-0.7s-0.5-0.3-0.9-0.3c-0.3-0.1-0.7-0.1-1-0.1h-2.4v4.3H139.2z"/>
	<path fill="#EFEFEF" d="M149.5,26.8v14.3h-2.8V26.8H149.5z"/>
	<path fill="#EFEFEF" d="M151.7,33.9c0-0.7,0.2-1.2,0.5-1.7c0.3-0.4,0.7-0.8,1.1-1.1c0.5-0.3,1-0.5,1.5-0.6s1.1-0.2,1.7-0.2
		c0.5,0,1,0,1.6,0.1s1,0.2,1.5,0.4c0.4,0.2,0.8,0.5,1.1,0.9c0.3,0.4,0.4,0.9,0.4,1.5v5.4c0,0.5,0,0.9,0.1,1.3s0.1,0.7,0.3,1h-2.9
		c-0.1-0.2-0.1-0.3-0.1-0.5c0-0.2-0.1-0.3-0.1-0.5c-0.5,0.5-1,0.8-1.6,1c-0.6,0.2-1.2,0.3-1.9,0.3c-0.5,0-1-0.1-1.4-0.2
		s-0.8-0.3-1.1-0.6c-0.3-0.3-0.6-0.6-0.8-1c-0.2-0.4-0.3-0.8-0.3-1.4c0-0.6,0.1-1.1,0.3-1.4c0.2-0.4,0.5-0.7,0.8-0.9
		s0.7-0.4,1.1-0.5c0.4-0.1,0.8-0.2,1.3-0.3c0.4-0.1,0.8-0.1,1.3-0.2c0.4,0,0.8-0.1,1.1-0.2s0.6-0.2,0.8-0.4c0.2-0.2,0.3-0.4,0.3-0.7
		c0-0.3,0-0.5-0.1-0.7c-0.1-0.2-0.2-0.3-0.4-0.4c-0.2-0.1-0.4-0.2-0.6-0.2c-0.2,0-0.5,0-0.7,0c-0.6,0-1,0.1-1.3,0.4
		c-0.3,0.2-0.5,0.6-0.6,1.2H151.7z M158.2,36c-0.1,0.1-0.3,0.2-0.5,0.2c-0.2,0.1-0.4,0.1-0.6,0.1c-0.2,0-0.4,0.1-0.7,0.1
		c-0.2,0-0.5,0.1-0.7,0.1c-0.2,0-0.4,0.1-0.6,0.2s-0.4,0.2-0.5,0.3c-0.2,0.1-0.3,0.3-0.4,0.4c-0.1,0.2-0.1,0.4-0.1,0.7
		c0,0.3,0,0.5,0.1,0.6c0.1,0.2,0.2,0.3,0.4,0.4c0.2,0.1,0.3,0.2,0.6,0.2c0.2,0,0.4,0.1,0.7,0.1c0.6,0,1-0.1,1.3-0.3
		c0.3-0.2,0.5-0.4,0.7-0.7c0.1-0.3,0.2-0.5,0.3-0.8c0-0.3,0-0.5,0-0.6V36z"/>
	<path fill="#EFEFEF" d="M167.1,44.2c-0.5,0.4-1.3,0.5-2.3,0.5c-0.3,0-0.6,0-0.9,0c-0.3,0-0.6,0-0.9-0.1v-2.3c0.3,0,0.5,0.1,0.8,0.1
		c0.3,0,0.6,0,0.8,0c0.4,0,0.6-0.2,0.8-0.4c0.2-0.3,0.3-0.5,0.3-0.8c0-0.2,0-0.4-0.1-0.6l-3.6-9.7h3l2.3,7.1h0l2.3-7.1h2.9
		l-4.3,11.6C168.1,43.2,167.6,43.8,167.1,44.2z"/>
</g>
<g>
	<path fill="#EFEFEF" d="M98.1,12.8l3.4,8.6h-0.9l-1-2.7h-3.9l-1,2.7h-0.9l3.4-8.6H98.1z M99.2,18l-1.7-4.4L95.9,18H99.2z"/>
	<path fill="#EFEFEF" d="M101.6,12.8l2.8,7.7h0l2.8-7.7h0.9l-3.2,8.6h-0.9l-3.2-8.6H101.6z"/>
	<path fill="#EFEFEF" d="M111.5,12.8l3.4,8.6H114l-1-2.7H109l-1,2.7h-0.9l3.4-8.6H111.5z M112.7,18l-1.7-4.4l-1.7,4.4H112.7z"/>
	<path fill="#EFEFEF" d="M116.5,12.8v8.6h-0.8v-8.6H116.5z"/>
	<path fill="#EFEFEF" d="M119.1,12.8v7.9h4.8v0.7h-5.6v-8.6H119.1z"/>
	<path fill="#EFEFEF" d="M128.2,12.8l3.4,8.6h-0.9l-1-2.7h-3.9l-1,2.7h-0.9l3.4-8.6H128.2z M129.3,18l-1.7-4.4L126,18H129.3z"/>
	<path fill="#EFEFEF" d="M135.9,12.8c0.4,0,0.7,0,1,0.1s0.6,0.2,0.9,0.3s0.5,0.4,0.6,0.6c0.2,0.3,0.2,0.6,0.2,1c0,0.2,0,0.4-0.1,0.7
		c-0.1,0.2-0.2,0.4-0.3,0.6c-0.1,0.2-0.3,0.3-0.5,0.4s-0.4,0.2-0.6,0.3v0c0.6,0.1,1,0.3,1.3,0.7s0.5,0.8,0.5,1.4c0,0.1,0,0.3,0,0.5
		s-0.1,0.3-0.1,0.5c-0.1,0.2-0.2,0.4-0.3,0.5s-0.3,0.3-0.5,0.5s-0.5,0.2-0.8,0.3c-0.3,0.1-0.7,0.1-1.2,0.1h-3.6v-8.6H135.9z
		 M135.9,16.5c0.3,0,0.6,0,0.9-0.1c0.2-0.1,0.4-0.2,0.6-0.3c0.2-0.1,0.3-0.3,0.4-0.5s0.1-0.4,0.1-0.6c0-1.1-0.6-1.6-1.9-1.6h-2.8
		v3.1H135.9z M135.9,20.6c0.3,0,0.6,0,0.9-0.1c0.3-0.1,0.5-0.1,0.7-0.3c0.2-0.1,0.4-0.3,0.5-0.5c0.1-0.2,0.2-0.5,0.2-0.9
		c0-0.6-0.2-1-0.6-1.2c-0.4-0.3-0.9-0.4-1.7-0.4h-2.8v3.4H135.9z"/>
	<path fill="#EFEFEF" d="M141.1,12.8v7.9h4.8v0.7h-5.6v-8.6H141.1z"/>
	<path fill="#EFEFEF" d="M152.7,12.8v0.7h-5.1v3.1h4.8v0.7h-4.8v3.4h5.2v0.7h-6v-8.6H152.7z"/>
	<path fill="#EFEFEF" d="M157,15.4c0.2-0.5,0.4-1,0.8-1.4c0.3-0.4,0.8-0.7,1.3-1c0.5-0.2,1.1-0.4,1.8-0.4c0.7,0,1.3,0.1,1.8,0.4
		c0.5,0.2,0.9,0.6,1.3,1c0.3,0.4,0.6,0.9,0.8,1.4s0.3,1.1,0.3,1.7c0,0.6-0.1,1.2-0.3,1.7s-0.4,1-0.8,1.4s-0.8,0.7-1.3,1
		c-0.5,0.2-1.1,0.4-1.8,0.4c-0.7,0-1.3-0.1-1.8-0.4c-0.5-0.2-0.9-0.6-1.3-1s-0.6-0.9-0.8-1.4s-0.3-1.1-0.3-1.7
		C156.8,16.5,156.8,15.9,157,15.4z M157.8,18.4c0.1,0.5,0.3,0.9,0.6,1.2c0.3,0.4,0.6,0.6,1,0.9c0.4,0.2,0.9,0.3,1.5,0.3
		c0.6,0,1.1-0.1,1.5-0.3c0.4-0.2,0.7-0.5,1-0.9c0.3-0.4,0.5-0.8,0.6-1.2s0.2-0.9,0.2-1.4c0-0.5-0.1-0.9-0.2-1.4
		c-0.1-0.4-0.3-0.8-0.6-1.2c-0.3-0.4-0.6-0.6-1-0.9c-0.4-0.2-0.9-0.3-1.5-0.3c-0.6,0-1.1,0.1-1.5,0.3c-0.4,0.2-0.7,0.5-1,0.9
		c-0.3,0.4-0.5,0.8-0.6,1.2c-0.1,0.4-0.2,0.9-0.2,1.4C157.6,17.5,157.6,18,157.8,18.4z"/>
	<path fill="#EFEFEF" d="M167,12.8l5,7.2h0v-7.2h0.8v8.6h-0.9l-5-7.2h0v7.2h-0.8v-8.6H167z"/>
</g>
</svg>
