<?xml version="1.0" encoding="utf-8"?>
<!-- Generator: Adobe Illustrator 19.1.0, SVG Export Plug-In . SVG Version: 6.00 Build 0)  -->
<svg version="1.1" id="Layer_3" xmlns="http://www.w3.org/2000/svg" xmlns:xlink="http://www.w3.org/1999/xlink" x="0px" y="0px"
	 viewBox="0 0 48.9 48.9" style="enable-background:new 0 0 48.9 48.9;" xml:space="preserve">
<style type="text/css">
	.st0{fill:#010202;}
	.st1{fill:#9D9D9D;}
</style>
<rect x="0" y="0" class="st0" width="48.9" height="48.9"/>
<g>
	<rect x="13.2" y="20.6" class="st1" width="4.9" height="14.8"/>
	<path class="st1" d="M34.4,21.9c-1-1.1-2.4-1.7-4.1-1.7c-0.6,0-1.2,0.1-1.7,0.2c-0.5,0.2-0.9,0.4-1.3,0.7c-0.4,0.3-0.6,0.5-0.8,0.8
		c-0.2,0.2-0.4,0.5-0.6,0.8v-2.1h-4.9l0,0.7c0,0.5,0,2,0,4.4c0,2.5,0,5.7,0,9.7h4.9v-8.3c0-0.5,0.1-0.9,0.2-1.2
		c0.2-0.5,0.5-0.9,1-1.3c0.4-0.3,0.9-0.5,1.6-0.5c0.9,0,1.5,0.3,1.9,0.9c0.4,0.6,0.6,1.4,0.6,2.5v7.9h4.9v-8.5
		C35.9,24.7,35.4,23.1,34.4,21.9L34.4,21.9z M34.4,21.9"/>
	<path class="st1" d="M15.7,13.5c-0.8,0-1.5,0.2-2,0.7c-0.5,0.5-0.8,1.1-0.8,1.8c0,0.7,0.2,1.3,0.7,1.8c0.5,0.5,1.2,0.7,2,0.7h0
		c0.8,0,1.5-0.2,2-0.7c0.5-0.5,0.8-1.1,0.8-1.8c0-0.7-0.3-1.3-0.8-1.8C17.2,13.7,16.6,13.5,15.7,13.5L15.7,13.5z M15.7,13.5"/>
</g>
</svg>
