<?xml version="1.0" encoding="utf-8"?>
<!-- Generator: Adobe Illustrator 19.1.0, SVG Export Plug-In . SVG Version: 6.00 Build 0)  -->
<svg version="1.1" id="Layer_2" xmlns="http://www.w3.org/2000/svg" xmlns:xlink="http://www.w3.org/1999/xlink" x="0px" y="0px"
	 viewBox="0 0 51.7 51.5" style="enable-background:new 0 0 51.7 51.5;" xml:space="preserve">
<style type="text/css">
	.st0{fill:#010202;}
	.st1{fill:#9D9D9D;}
</style>
<circle class="st0" cx="25.8" cy="25.8" r="24.4"/>
<g>
	<path class="st1" d="M17.2,22.6c0.3,0.2,1.1,0.8,2.4,1.7c1.4,0.9,2.4,1.7,3.1,2.2c0.1,0.1,0.2,0.2,0.5,0.4c0.3,0.2,0.5,0.3,0.6,0.5
		c0.2,0.1,0.4,0.2,0.6,0.4c0.2,0.1,0.5,0.3,0.7,0.3c0.2,0.1,0.4,0.1,0.6,0.1h0c0.2,0,0.4,0,0.6-0.1c0.2-0.1,0.4-0.2,0.7-0.3
		c0.2-0.1,0.4-0.3,0.6-0.4c0.2-0.1,0.4-0.3,0.6-0.5c0.3-0.2,0.4-0.3,0.5-0.4c0.7-0.5,2.6-1.8,5.6-3.9c0.6-0.4,1.1-0.9,1.5-1.5
		c0.4-0.6,0.6-1.2,0.6-1.8c0-0.5-0.2-1-0.6-1.3c-0.4-0.4-0.8-0.6-1.3-0.6H17c-0.6,0-1.1,0.2-1.4,0.6c-0.3,0.4-0.5,0.9-0.5,1.6
		c0,0.5,0.2,1,0.7,1.6C16.2,21.8,16.7,22.3,17.2,22.6L17.2,22.6z M17.2,22.6"/>
	<path class="st1" d="M35.3,23.9c-2.6,1.8-4.6,3.1-5.9,4.1c-0.5,0.3-0.8,0.6-1.1,0.8c-0.3,0.2-0.7,0.4-1.1,0.6
		c-0.5,0.2-0.9,0.3-1.3,0.3h0c-0.4,0-0.8-0.1-1.3-0.3c-0.5-0.2-0.8-0.4-1.1-0.6c-0.3-0.2-0.7-0.4-1.1-0.8c-1.1-0.8-3.1-2.2-5.9-4.1
		c-0.5-0.3-0.9-0.6-1.2-1v9.5c0,0.5,0.2,1,0.6,1.3c0.4,0.4,0.8,0.6,1.3,0.6h17.6c0.5,0,1-0.2,1.3-0.6c0.4-0.4,0.6-0.8,0.6-1.3v-9.5
		C36.2,23.2,35.8,23.6,35.3,23.9L35.3,23.9z M35.3,23.9"/>
</g>
</svg>
