<?xml version="1.0" encoding="utf-8"?>
<!-- Generator: Adobe Illustrator 19.1.0, SVG Export Plug-In . SVG Version: 6.00 Build 0)  -->
<svg version="1.1" id="Layer_1" xmlns="http://www.w3.org/2000/svg" xmlns:xlink="http://www.w3.org/1999/xlink" x="0px" y="0px"
	 viewBox="0 0 172.6 172.6" style="enable-background:new 0 0 172.6 172.6;" xml:space="preserve">
<style type="text/css">
	.st0{clip-path:url(#SVGID_2_);}
	.st1{clip-path:url(#SVGID_4_);fill-rule:evenodd;clip-rule:evenodd;fill:#FFFFFF;}
</style>
<g>
	<g>
		<defs>
			<rect id="SVGID_1_" x="0" y="0" width="172.6" height="172.6"/>
		</defs>
		<clipPath id="SVGID_2_">
			<use xlink:href="#SVGID_1_"  style="overflow:visible;"/>
		</clipPath>
		<g class="st0">
			<defs>
				<rect id="SVGID_3_" x="0" y="0" width="172.6" height="172.6"/>
			</defs>
			<clipPath id="SVGID_4_">
				<use xlink:href="#SVGID_3_"  style="overflow:visible;"/>
			</clipPath>
			<path class="st1" d="M162.6,119l-14.3-15.9c8-1.8,13.4-8.5,13.4-16.7c0-8-5.3-14.8-13-16.9l13.9-15.4L135,52.7l9.3-26.2
				l-25.9,9.3L117,8.2L96.6,26.8L84.8,1.7L73,26.8L52.6,8.2l-1.4,27.7l-25.9-9.3l9.3,26.2L7,54.1l13.8,15.4
				c-7.8,2-13.1,8.7-13.1,16.7c0,8.3,5.4,15.2,13.5,16.9L7.1,119l27.5,1.4l-9.3,26.2l25.9-9.3l1.4,27.7L73,146.3l11.8,25.1
				l11.8-25.1l20.4,18.6l1.4-27.7l25.9,9.3l-9.3-26.2L162.6,119z M141.8,143.9L117,135l-1.3,26.5l-19.5-17.8l-11.3,24l-11.3-24
				l-19.5,17.8L52.8,135L28,143.9l8.9-25l-26.3-1.3l12.7-14.1c0,0,0,0,0,0l1.2-1.3c0,0,0,0,0,0l0,0l0,0c-0.6-0.1-1.3-0.2-1.9-0.3
				l0,0c-7.4-1.7-13-8-13-15.5c0-7.4,5.3-13.5,12.5-15.4l0,0c0.3-0.1,0.6-0.1,0.9-0.2c0.1,0,0.1,0,0.2,0c0,0,0.1,0,0.1,0
				c0.2,0,0.5-0.1,0.7-0.1l-1.3-1.4c0,0,0,0,0,0L10.5,55.5l26.3-1.3l-8.9-25l24.8,8.9l1.3-26.5l19.5,17.8l11.3-24l11.3,24l19.5-17.8
				l1.3,26.5l24.8-8.9l-8.9,25l26.3,1.3l-13.5,15c0,0,0,0,0,0l0,0c8,1.3,14.2,7.8,14.2,15.7c0,7.5-5.5,13.7-12.8,15.5l0,0
				c-0.6,0.1-1.2,0.2-1.7,0.3l0,0c0,0,0,0,0,0l1,1.1l13,14.4l-26.3,1.3L141.8,143.9z"/>
			<polygon class="st1" points="94.3,33.8 84.9,14 75.5,33.9 84.8,65.5 			"/>
			<polygon class="st1" points="73.5,34.4 57.2,19.5 56.1,41.4 76.8,67.1 			"/>
			<polygon class="st1" points="113.7,41.3 112.6,19.5 96.2,34.4 92.9,67.1 			"/>
			<polygon class="st1" points="114.2,70.3 141.4,70.3 151.8,58.8 129.5,57.6 			"/>
			<polygon class="st1" points="113.6,102.2 129.6,115.3 151.8,114.2 141,102.2 			"/>
			<polygon class="st1" points="68.6,70.3 54.6,42.7 33.7,35.2 41,55.8 			"/>
			<polygon class="st1" points="128.8,55.8 136.1,35.2 115.1,42.7 101.1,70.3 			"/>
			<polygon class="st1" points="75.5,139.1 84.9,158.9 94.3,139 84.8,107.5 			"/>
			<polygon class="st1" points="56.1,131.7 57.2,153.4 73.6,138.6 76.8,105.9 			"/>
			<polygon class="st1" points="41,117.1 33.7,137.7 54.7,130.2 69.1,102.1 			"/>
			<polygon class="st1" points="55.7,70.3 40.3,57.6 18,58.8 28.5,70.3 			"/>
			<polygon class="st1" points="56,102.3 28.7,102.3 18,114.2 40.2,115.3 			"/>
			<polygon class="st1" points="100.4,102.1 115.1,130.2 136.1,137.7 128.8,117.1 			"/>
			<polygon class="st1" points="96.3,138.6 112.6,153.4 113.7,131.6 92.9,105.9 			"/>
			<path class="st1" d="M143.9,99.1c7.1,0,12.8-5.7,12.8-12.8c0-7.1-5.7-12.8-12.8-12.8l-118.2,0c-7.1,0-12.8,5.7-12.8,12.8
				c0,7.1,5.7,12.8,12.8,12.8L143.9,99.1z M137.6,89.3c-0.5-0.6-1.1-0.7-3.2-1l-1.3-0.2c-1.7-0.3-3.6-0.6-5-1.7
				c-1.2-0.9-1.8-2.3-1.8-3.7c0-3.9,3.5-5.5,7.6-5.5c2.9,0,6.1,0.9,8.1,3.3l-3.3,2.4c-0.7-0.8-2.1-2.3-4.7-2.3
				c-1.4,0-2.7,0.5-2.7,1.5c0,0.3,0.2,0.7,0.5,0.9c0.5,0.4,1.4,0.5,3.3,0.8c2.9,0.4,3.1,0.4,3.9,0.7c0.9,0.2,3.8,1.1,3.8,4.9
				c0,4.4-4.3,5.9-8.3,5.9c-2.7,0-6.6-0.7-8.6-3.5l3.6-2.6c0.8,0.9,2.1,2.5,5.2,2.5c0.6,0,1.8,0,2.5-0.5c0.5-0.3,0.7-0.7,0.7-1.2
				C137.8,89.8,137.7,89.5,137.6,89.3 M105.5,77.5h4.9v10c0,1.6,0,2.7,1,3.4c0.3,0.2,1,0.6,2.1,0.6c1,0,1.8-0.3,2.2-0.7
				c0.9-0.7,0.9-1.7,0.9-3.6v-9.7h4.9v10.6c0,2.3-0.2,4.2-2.4,5.8c-1.9,1.3-4.1,1.5-5.5,1.5c-1.3,0-2.5-0.1-3.5-0.4
				c-4.5-1.3-4.7-4.7-4.7-7V77.5z M84.3,77.6h8.3c2.5,0,4.7,0,6.3,1.4c0.9,0.8,1.4,2,1.4,3.3c0,0.8-0.2,1.6-0.8,2.3
				c-0.9,1.2-2.1,1.3-2.8,1.4c0.5,0,1.1,0.1,1.9,0.5c1.9,1.1,2.2,3,2.2,4c0,0.7-0.1,1.4-0.5,2.1c-1.3,2.6-4.3,2.6-6.2,2.7h-9.9V77.6
				z M60,77.5h4.3l5.3,7.3l5.3-7.3H79v17.6h-4.8v-9.9l-4.7,6.3l-4.7-6.3v9.9H60V77.5z M49.1,77.5h5v17.6h-5V77.5z M27.1,77.6h4.7
				l7,10.5V77.6h4.6v17.6h-4.8l-6.9-10.5v10.5h-4.6V77.6z"/>
			<path class="st1" d="M93.2,87.8c0.7,0,1.5,0,2.1,0.4c0.4,0.2,0.8,0.7,0.8,1.4c0,0.5-0.2,1.1-0.6,1.4c-0.6,0.5-1.4,0.5-2.1,0.5
				h-4.2v-3.7H93.2z"/>
			<path class="st1" d="M93,81.2c0.9,0,2.5,0,2.5,1.6c0,1.4-1.6,1.5-2.4,1.5h-4v-3.1H93z"/>
		</g>
	</g>
</g>
</svg>
