<?xml version="1.0" encoding="utf-8"?>
<!-- Generator: Adobe Illustrator 19.1.0, SVG Export Plug-In . SVG Version: 6.00 Build 0)  -->
<svg version="1.1" id="Layer_3" xmlns="http://www.w3.org/2000/svg" xmlns:xlink="http://www.w3.org/1999/xlink" x="0px" y="0px"
	 viewBox="0 0 51.7 51.5" style="enable-background:new 0 0 51.7 51.5;" xml:space="preserve">
<style type="text/css">
	.st0{fill:#010202;}
	.st1{fill:#9D9D9D;}
</style>
<circle class="st0" cx="25.8" cy="25.8" r="24.4"/>
<g>
	<path class="st1" d="M38.1,32.6c-0.1-0.2-0.5-0.5-1.3-0.9c-0.2-0.1-0.5-0.3-0.9-0.5c-0.4-0.2-0.8-0.4-1.1-0.6
		c-0.3-0.2-0.6-0.4-0.9-0.5c0,0-0.2-0.1-0.4-0.3c-0.2-0.2-0.5-0.3-0.6-0.4c-0.2-0.1-0.3-0.1-0.5-0.1c-0.2,0-0.5,0.2-0.9,0.5
		c-0.3,0.3-0.7,0.7-1,1.1c-0.3,0.4-0.6,0.8-0.9,1.1c-0.3,0.3-0.6,0.5-0.8,0.5c-0.1,0-0.2,0-0.4-0.1c-0.2-0.1-0.3-0.1-0.4-0.1
		c-0.1,0-0.2-0.1-0.4-0.2c-0.2-0.1-0.3-0.2-0.3-0.2c-1.6-0.9-3-1.9-4.1-3c-1.1-1.1-2.2-2.5-3-4.1c0,0-0.1-0.1-0.2-0.3
		c-0.1-0.2-0.2-0.3-0.2-0.4c0-0.1-0.1-0.2-0.1-0.4c-0.1-0.2-0.1-0.3-0.1-0.4c0-0.2,0.2-0.5,0.5-0.8c0.3-0.3,0.7-0.6,1.1-0.9
		c0.4-0.3,0.8-0.6,1.1-1c0.3-0.4,0.5-0.6,0.5-0.9c0-0.2,0-0.3-0.1-0.5c-0.1-0.2-0.2-0.4-0.4-0.6c-0.2-0.2-0.3-0.4-0.3-0.4
		c-0.2-0.3-0.4-0.6-0.5-0.9c-0.2-0.3-0.4-0.7-0.6-1.1c-0.2-0.4-0.4-0.7-0.5-0.9c-0.4-0.8-0.7-1.3-0.9-1.3c-0.1,0-0.2-0.1-0.4-0.1
		c-0.3,0-0.7,0.1-1.2,0.2c-0.5,0.1-0.9,0.2-1.2,0.4c-0.6,0.2-1.2,1-1.9,2.1c-0.6,1.1-0.9,2.2-0.9,3.3c0,0.3,0,0.6,0.1,0.9
		c0,0.3,0.1,0.6,0.2,1c0.1,0.4,0.2,0.6,0.3,0.8c0.1,0.2,0.2,0.5,0.4,1c0.2,0.5,0.3,0.8,0.3,0.9c0.4,1.1,0.9,2.2,1.5,3.1
		c0.9,1.5,2.2,3,3.8,4.6c1.6,1.6,3.1,2.8,4.6,3.8c0.9,0.6,1.9,1,3.1,1.5c0.1,0,0.4,0.1,0.9,0.3c0.5,0.2,0.8,0.3,1,0.4
		c0.2,0.1,0.5,0.1,0.8,0.3c0.4,0.1,0.7,0.2,1,0.2c0.3,0,0.6,0.1,0.9,0.1c1.1,0,2.2-0.3,3.3-0.9c1.2-0.7,1.9-1.3,2.1-1.9
		c0.1-0.3,0.3-0.7,0.4-1.2c0.1-0.5,0.2-0.9,0.2-1.2C38.2,32.8,38.1,32.7,38.1,32.6L38.1,32.6z M38.1,32.6"/>
</g>
</svg>
