<?xml version="1.0" encoding="utf-8"?>
<!-- Generator: Adobe Illustrator 19.1.0, SVG Export Plug-In . SVG Version: 6.00 Build 0)  -->
<svg version="1.1" id="Layer_1" xmlns="http://www.w3.org/2000/svg" xmlns:xlink="http://www.w3.org/1999/xlink" x="0px" y="0px"
	 viewBox="0 0 176.6 180.2" style="enable-background:new 0 0 176.6 180.2;" xml:space="preserve">
<style type="text/css">
	.st0{fill:#242325;}
	.st1{fill:#BE9494;}
	.st2{fill:#D7BEBD;}
	.st3{fill:#847978;}
	.st4{fill:#373538;}
	.st5{fill:#F1E9E9;}
</style>
<rect x="0" y="0" class="st0" width="176.6" height="180.2"/>
<g>
	<path class="st1" d="M50,126.3l-2.1-8.1H49l1,4.1c0.2,1,0.5,2,0.6,2.8h0c0.1-0.8,0.4-1.8,0.7-2.8l1.1-4.1h1.1l1,4.1
		c0.2,1,0.4,1.9,0.6,2.8h0c0.2-0.9,0.4-1.8,0.6-2.8l1.1-4.1h1.1l-2.3,8.1h-1.1l-1-4.2c-0.3-1-0.4-1.8-0.5-2.6h0
		c-0.1,0.8-0.3,1.6-0.6,2.6l-1.2,4.2H50z"/>
	<path class="st1" d="M59.4,123.8l-0.8,2.5h-1.1l2.7-8.1h1.3l2.8,8.1h-1.1l-0.9-2.5H59.4z M62.1,123l-0.8-2.3
		c-0.2-0.5-0.3-1-0.4-1.5h0c-0.1,0.5-0.3,1-0.4,1.5l-0.8,2.3H62.1z"/>
	<path class="st1" d="M66.1,119.1h-2.5v-0.9h6v0.9h-2.5v7.2h-1.1V119.1z"/>
	<path class="st1" d="M75.8,126c-0.4,0.2-1.2,0.4-2.1,0.4c-2.3,0-4-1.4-4-4.1c0-2.5,1.7-4.2,4.2-4.2c1,0,1.6,0.2,1.9,0.4l-0.3,0.9
		c-0.4-0.2-1-0.3-1.6-0.3c-1.9,0-3.2,1.2-3.2,3.3c0,2,1.1,3.3,3.1,3.3c0.6,0,1.3-0.1,1.7-0.3L75.8,126z"/>
	<path class="st1" d="M78.2,118.2v3.4h3.9v-3.4h1.1v8.1h-1.1v-3.8h-3.9v3.8h-1v-8.1H78.2z"/>
	<path class="st1" d="M88.8,123.8l-0.8,2.5h-1.1l2.7-8.1h1.3l2.8,8.1h-1.1l-0.9-2.5H88.8z M91.5,123l-0.8-2.3
		c-0.2-0.5-0.3-1-0.4-1.5h0c-0.1,0.5-0.3,1-0.4,1.5L89,123H91.5z"/>
	<path class="st1" d="M94.8,126.3v-8.1H96l2.6,4.1c0.6,0.9,1.1,1.8,1.5,2.6l0,0c-0.1-1.1-0.1-2.1-0.1-3.3v-3.4h1v8.1h-1.1l-2.6-4.1
		c-0.6-0.9-1.1-1.8-1.5-2.7l0,0c0.1,1,0.1,2,0.1,3.3v3.5H94.8z"/>
	<path class="st1" d="M104.3,119.1h-2.5v-0.9h6v0.9h-2.5v7.2h-1.1V119.1z"/>
	<path class="st1" d="M108.7,118.3c0.5-0.1,1.2-0.2,1.9-0.2c1,0,1.7,0.2,2.2,0.6c0.4,0.3,0.7,0.8,0.7,1.4c0,0.8-0.5,1.5-1.4,1.8v0
		c0.8,0.2,1.7,0.8,1.7,2c0,0.7-0.3,1.2-0.7,1.6c-0.6,0.5-1.5,0.8-2.8,0.8c-0.7,0-1.3,0-1.6-0.1V118.3z M109.7,121.6h0.9
		c1.1,0,1.8-0.6,1.8-1.4c0-0.9-0.7-1.3-1.8-1.3c-0.5,0-0.8,0-0.9,0.1V121.6z M109.7,125.5c0.2,0,0.5,0,0.9,0c1.1,0,2.1-0.4,2.1-1.6
		c0-1.1-0.9-1.6-2.1-1.6h-0.9V125.5z"/>
	<path class="st1" d="M122.1,122.2c0,2.8-1.7,4.3-3.8,4.3c-2.1,0-3.6-1.7-3.6-4.1c0-2.6,1.6-4.2,3.8-4.2
		C120.7,118.1,122.1,119.8,122.1,122.2z M115.8,122.3c0,1.7,0.9,3.3,2.6,3.3c1.7,0,2.6-1.5,2.6-3.4c0-1.6-0.8-3.3-2.6-3.3
		C116.7,118.9,115.8,120.5,115.8,122.3z"/>
	<path class="st1" d="M124.9,126.3v-3.4l-2.6-4.7h1.2l1.1,2.2c0.3,0.6,0.6,1.1,0.8,1.7h0c0.2-0.5,0.5-1.1,0.8-1.7l1.2-2.2h1.2
		l-2.7,4.6v3.4H124.9z"/>
	<path class="st1" d="M70.3,133.5h-2.5v-0.9h6v0.9h-2.5v7.2h-1.1V133.5z"/>
	<path class="st1" d="M74.7,132.7c0.5-0.1,1.3-0.2,2-0.2c1.1,0,1.8,0.2,2.3,0.7c0.4,0.4,0.6,0.9,0.6,1.5c0,1.1-0.7,1.8-1.5,2.1v0
		c0.6,0.2,1,0.8,1.2,1.6c0.3,1.1,0.5,1.9,0.6,2.2h-1.1c-0.1-0.2-0.3-0.9-0.5-1.9c-0.2-1.1-0.7-1.5-1.6-1.6h-1v3.5h-1V132.7z
		 M75.8,136.4h1.1c1.1,0,1.8-0.6,1.8-1.5c0-1-0.8-1.5-1.9-1.5c-0.5,0-0.9,0-1,0.1V136.4z"/>
	<path class="st1" d="M82.6,138.2l-0.8,2.5h-1.1l2.7-8.1h1.3l2.8,8.1h-1.1l-0.9-2.5H82.6z M85.2,137.4l-0.8-2.3
		c-0.2-0.5-0.3-1-0.4-1.5h0c-0.1,0.5-0.3,1-0.4,1.5l-0.8,2.3H85.2z"/>
	<path class="st1" d="M89.6,132.6v8.1h-1v-8.1H89.6z"/>
	<path class="st1" d="M91.5,132.6h1v7.2H96v0.9h-4.5V132.6z"/>
	<path class="st1" d="M101.3,136.9h-3.1v2.9h3.5v0.9h-4.5v-8.1h4.4v0.9h-3.3v2.6h3.1V136.9z"/>
	<path class="st1" d="M103,132.7c0.5-0.1,1.3-0.2,2-0.2c1.1,0,1.8,0.2,2.3,0.7c0.4,0.4,0.6,0.9,0.6,1.5c0,1.1-0.7,1.8-1.5,2.1v0
		c0.6,0.2,1,0.8,1.2,1.6c0.3,1.1,0.5,1.9,0.6,2.2h-1.1c-0.1-0.2-0.3-0.9-0.5-1.9c-0.2-1.1-0.7-1.5-1.6-1.6h-1v3.5h-1V132.7z
		 M104.1,136.4h1.1c1.1,0,1.8-0.6,1.8-1.5c0-1-0.8-1.5-1.9-1.5c-0.5,0-0.9,0-1,0.1V136.4z"/>
</g>
<g>
	<rect x="58.1" y="57.1" class="st1" width="63.2" height="42.5"/>
	<rect x="58.1" y="57.1" class="st2" width="63.2" height="9.9"/>
	<polygon class="st3" points="88.7,57.1 98.7,57.1 88.7,67 78.9,67 	"/>
	<polygon class="st3" points="108.2,57.1 118.1,57.1 108.2,67 98.4,67 	"/>
	<polygon class="st3" points="69,57.1 78.9,57.1 69,67 59.1,67 	"/>
	
		<rect x="55.4" y="38.8" transform="matrix(0.9577 -0.2877 0.2877 0.9577 -8.8925 26.8883)" class="st2" width="63.2" height="9.9"/>
	<polygon class="st3" points="84.7,39.2 94.2,36.4 87.6,48.7 78.2,51.5 	"/>
	<polygon class="st3" points="103.4,33.7 112.9,30.8 106.2,43.1 96.8,45.9 	"/>
	<polygon class="st3" points="65.8,44.9 75.3,42.1 68.6,54.4 59.2,57.2 	"/>
</g>
<rect y="155.5" class="st4" width="176.6" height="24.7"/>
<rect y="166" class="st5" width="176.6" height="3.8"/>
<circle class="st1" cx="50.5" cy="168.1" r="5.9"/>
</svg>
