<?xml version="1.0" encoding="utf-8"?>
<!-- Generator: Adobe Illustrator 19.1.0, SVG Export Plug-In . SVG Version: 6.00 Build 0)  -->
<svg version="1.1" id="Layer_1" xmlns="http://www.w3.org/2000/svg" xmlns:xlink="http://www.w3.org/1999/xlink" x="0px" y="0px"
	 viewBox="0 0 176.6 180.2" style="enable-background:new 0 0 176.6 180.2;" xml:space="preserve">
<style type="text/css">
	.st0{fill:#242325;}
	.st1{fill:#373538;}
	.st2{fill:#F1E9E9;}
	.st3{fill:#B8C4DE;}
	.st4{fill:#F1F3F9;}
	.st5{fill:#A6ADBD;}
	.st6{fill:#888C93;}
</style>
<rect x="-0.3" y="0" class="st0" width="176.6" height="180.2"/>
<rect y="155.5" class="st1" width="176.6" height="24.7"/>
<rect y="166" class="st2" width="176.6" height="3.8"/>
<circle class="st3" cx="50.5" cy="168.1" r="5.9"/>
<g>
	<path class="st1" d="M98.6,71.5H88.1h-0.2H77.4l-56.2,84.1h54h12.6h0.2h10.7h56L98.6,71.5z M88,115.8l0-2.3L88,115.8L88,115.8z"/>
	<polyline class="st3" points="77.7,71.5 61.7,94.6 114.2,94.6 98.7,71.5 77.7,71.5 	"/>
	<ellipse class="st4" cx="87.9" cy="94.9" rx="26.3" ry="3.7"/>
	<path class="st3" d="M93.3,77H83c-3,0-5.5-2.5-5.5-5.5V26.6c0-3,2.5-5.5,5.5-5.5h10.4c3,0,5.5,2.5,5.5,5.5v44.8
		C98.9,74.5,96.4,77,93.3,77z"/>
	<rect x="85.3" y="44.4" class="st5" width="6.3" height="6.5"/>
	<rect x="85.3" y="50.9" class="st6" width="6.3" height="6.5"/>
</g>
<g>
	<path class="st3" d="M49.8,125.9l-2.1-8.1h1.1l1,4.1c0.2,1,0.5,2,0.6,2.8h0c0.1-0.8,0.4-1.8,0.7-2.8l1.1-4.1h1.1l1,4.1
		c0.2,1,0.4,1.9,0.6,2.8h0c0.2-0.9,0.4-1.8,0.6-2.8l1.1-4.1h1.1l-2.3,8.1h-1.1l-1-4.2c-0.3-1-0.4-1.8-0.5-2.6h0
		c-0.1,0.8-0.3,1.6-0.6,2.6l-1.2,4.2H49.8z"/>
	<path class="st3" d="M59.3,123.4l-0.8,2.5h-1.1l2.7-8.1h1.3l2.8,8.1H63l-0.9-2.5H59.3z M61.9,122.6l-0.8-2.3
		c-0.2-0.5-0.3-1-0.4-1.5h0c-0.1,0.5-0.3,1-0.4,1.5l-0.8,2.3H61.9z"/>
	<path class="st3" d="M65.9,118.7h-2.5v-0.9h6v0.9H67v7.2h-1.1V118.7z"/>
	<path class="st3" d="M75.7,125.7c-0.4,0.2-1.2,0.4-2.1,0.4c-2.3,0-4-1.4-4-4.1c0-2.5,1.7-4.2,4.2-4.2c1,0,1.6,0.2,1.9,0.4l-0.3,0.9
		c-0.4-0.2-1-0.3-1.6-0.3c-1.9,0-3.2,1.2-3.2,3.3c0,2,1.1,3.3,3.1,3.3c0.6,0,1.3-0.1,1.7-0.3L75.7,125.7z"/>
	<path class="st3" d="M78.1,117.9v3.4H82v-3.4H83v8.1H82v-3.8h-3.9v3.8h-1v-8.1H78.1z"/>
	<path class="st3" d="M88.7,123.4l-0.8,2.5h-1.1l2.7-8.1h1.3l2.8,8.1h-1.1l-0.9-2.5H88.7z M91.3,122.6l-0.8-2.3
		c-0.2-0.5-0.3-1-0.4-1.5h0c-0.1,0.5-0.3,1-0.4,1.5l-0.8,2.3H91.3z"/>
	<path class="st3" d="M94.7,125.9v-8.1h1.1l2.6,4.1c0.6,0.9,1.1,1.8,1.5,2.6l0,0c-0.1-1.1-0.1-2.1-0.1-3.3v-3.4h1v8.1h-1.1l-2.6-4.1
		c-0.6-0.9-1.1-1.8-1.5-2.7l0,0c0.1,1,0.1,2,0.1,3.3v3.5H94.7z"/>
	<path class="st3" d="M104.2,118.7h-2.5v-0.9h6v0.9h-2.5v7.2h-1.1V118.7z"/>
	<path class="st3" d="M108.6,118c0.5-0.1,1.2-0.2,1.9-0.2c1,0,1.7,0.2,2.2,0.6c0.4,0.3,0.7,0.8,0.7,1.4c0,0.8-0.5,1.5-1.4,1.8v0
		c0.8,0.2,1.7,0.8,1.7,2c0,0.7-0.3,1.2-0.7,1.6c-0.6,0.5-1.5,0.8-2.8,0.8c-0.7,0-1.3,0-1.6-0.1V118z M109.6,121.3h0.9
		c1.1,0,1.8-0.6,1.8-1.4c0-0.9-0.7-1.3-1.8-1.3c-0.5,0-0.8,0-0.9,0.1V121.3z M109.6,125.2c0.2,0,0.5,0,0.9,0c1.1,0,2.1-0.4,2.1-1.6
		c0-1.1-0.9-1.6-2.1-1.6h-0.9V125.2z"/>
	<path class="st3" d="M122,121.8c0,2.8-1.7,4.3-3.8,4.3c-2.1,0-3.6-1.7-3.6-4.1c0-2.6,1.6-4.2,3.8-4.2
		C120.6,117.7,122,119.4,122,121.8z M115.7,121.9c0,1.7,0.9,3.3,2.6,3.3c1.7,0,2.6-1.5,2.6-3.4c0-1.6-0.8-3.3-2.6-3.3
		C116.6,118.6,115.7,120.2,115.7,121.9z"/>
	<path class="st3" d="M124.8,125.9v-3.4l-2.6-4.7h1.2l1.1,2.2c0.3,0.6,0.6,1.1,0.8,1.7h0c0.2-0.5,0.5-1.1,0.8-1.7l1.2-2.2h1.2
		l-2.7,4.6v3.4H124.8z"/>
	<path class="st3" d="M46.3,137.8l-0.8,2.5h-1.1l2.7-8.1h1.3l2.8,8.1h-1.1l-0.9-2.5H46.3z M49,137l-0.8-2.3c-0.2-0.5-0.3-1-0.4-1.5
		h0c-0.1,0.5-0.3,1-0.4,1.5l-0.8,2.3H49z"/>
	<path class="st3" d="M52.4,140.3v-8.1h1.1l2.6,4.1c0.6,0.9,1.1,1.8,1.5,2.6l0,0c-0.1-1.1-0.1-2.1-0.1-3.3v-3.4h1v8.1h-1.1l-2.6-4.1
		c-0.6-0.9-1.1-1.8-1.5-2.7l0,0c0.1,1,0.1,2,0.1,3.3v3.5H52.4z"/>
	<path class="st3" d="M61.3,132.3v8.1h-1v-8.1H61.3z"/>
	<path class="st3" d="M70,136.8c-0.1-1.1-0.1-2.5-0.1-3.5h0c-0.3,0.9-0.6,2-1,3.1l-1.4,3.9h-0.8l-1.3-3.9c-0.4-1.1-0.7-2.2-0.9-3.1
		h0c0,1-0.1,2.4-0.2,3.6l-0.2,3.5h-1l0.6-8.1h1.3l1.4,3.9c0.3,1,0.6,1.9,0.8,2.7h0c0.2-0.8,0.5-1.7,0.9-2.7l1.4-3.9h1.3l0.5,8.1h-1
		L70,136.8z"/>
	<path class="st3" d="M74,137.8l-0.8,2.5h-1.1l2.7-8.1h1.3l2.8,8.1h-1.1l-0.9-2.5H74z M76.6,137l-0.8-2.3c-0.2-0.5-0.3-1-0.4-1.5h0
		c-0.1,0.5-0.3,1-0.4,1.5l-0.8,2.3H76.6z"/>
	<path class="st3" d="M80.6,133.1h-2.5v-0.9h6v0.9h-2.5v7.2h-1.1V133.1z"/>
	<path class="st3" d="M89.2,136.6h-3.1v2.9h3.5v0.9h-4.5v-8.1h4.4v0.9h-3.3v2.6h3.1V136.6z"/>
	<path class="st3" d="M91,132.4c0.6-0.1,1.4-0.2,2.2-0.2c1.5,0,2.6,0.3,3.3,1c0.7,0.7,1.1,1.6,1.1,2.9c0,1.3-0.4,2.4-1.2,3.1
		c-0.8,0.8-2,1.2-3.6,1.2c-0.7,0-1.4,0-1.9-0.1V132.4z M92,139.5c0.3,0,0.6,0.1,1.1,0.1c2.2,0,3.4-1.2,3.4-3.4
		c0-1.9-1.1-3.1-3.3-3.1c-0.5,0-0.9,0-1.2,0.1V139.5z"/>
	<path class="st3" d="M102.5,132.3v8.1h-1v-8.1H102.5z"/>
	<path class="st3" d="M104.4,140.3v-8.1h1.1l2.6,4.1c0.6,0.9,1.1,1.8,1.5,2.6l0,0c-0.1-1.1-0.1-2.1-0.1-3.3v-3.4h1v8.1h-1.1
		l-2.6-4.1c-0.6-0.9-1.1-1.8-1.5-2.7l0,0c0.1,1,0.1,2,0.1,3.3v3.5H104.4z"/>
	<path class="st3" d="M113.8,133.1h-2.5v-0.9h6v0.9h-2.5v7.2h-1.1V133.1z"/>
	<path class="st3" d="M118.2,132.4c0.5-0.1,1.3-0.2,2-0.2c1.1,0,1.8,0.2,2.3,0.7c0.4,0.4,0.6,0.9,0.6,1.5c0,1.1-0.7,1.8-1.5,2.1v0
		c0.6,0.2,1,0.8,1.2,1.6c0.3,1.1,0.5,1.9,0.6,2.2h-1.1c-0.1-0.2-0.3-0.9-0.5-1.9c-0.2-1.1-0.7-1.5-1.6-1.6h-1v3.5h-1V132.4z
		 M119.3,136h1.1c1.1,0,1.8-0.6,1.8-1.5c0-1-0.8-1.5-1.9-1.5c-0.5,0-0.9,0-1,0.1V136z"/>
	<path class="st3" d="M131.6,136.2c0,2.8-1.7,4.3-3.8,4.3c-2.1,0-3.6-1.7-3.6-4.1c0-2.6,1.6-4.2,3.8-4.2
		C130.2,132.1,131.6,133.8,131.6,136.2z M125.4,136.3c0,1.7,0.9,3.3,2.6,3.3c1.7,0,2.6-1.5,2.6-3.4c0-1.6-0.8-3.3-2.6-3.3
		C126.2,133,125.4,134.6,125.4,136.3z"/>
</g>
</svg>
