<?xml version="1.0" encoding="utf-8"?>
<!-- Generator: Adobe Illustrator 19.1.0, SVG Export Plug-In . SVG Version: 6.00 Build 0)  -->
<svg version="1.1" id="Layer_1" xmlns="http://www.w3.org/2000/svg" xmlns:xlink="http://www.w3.org/1999/xlink" x="0px" y="0px"
	 viewBox="0 0 176.6 180.2" style="enable-background:new 0 0 176.6 180.2;" xml:space="preserve">
<style type="text/css">
	.st0{fill:#242325;}
	.st1{fill:#373538;}
	.st2{fill:#F9F2E6;}
	.st3{fill:#E1C07F;}
</style>
<rect x="0" y="0" class="st0" width="176.6" height="180.2"/>
<rect y="155.5" class="st1" width="176.6" height="24.7"/>
<rect y="166" class="st2" width="176.6" height="3.8"/>
<circle class="st3" cx="50.5" cy="168.1" r="5.9"/>
<g>
	<path class="st3" d="M29.5,125.3l-2.1-8.1h1.1l1,4.1c0.2,1,0.5,2,0.6,2.8h0c0.1-0.8,0.4-1.8,0.7-2.8l1.1-4.1h1.1l1,4.1
		c0.2,1,0.4,1.9,0.6,2.8h0c0.2-0.9,0.4-1.8,0.6-2.8l1.1-4.1h1.1l-2.3,8.1h-1.1l-1-4.2c-0.3-1-0.4-1.8-0.5-2.6h0
		c-0.1,0.8-0.3,1.6-0.6,2.6l-1.2,4.2H29.5z"/>
	<path class="st3" d="M38.9,122.8l-0.8,2.5H37l2.7-8.1H41l2.8,8.1h-1.1l-0.9-2.5H38.9z M41.6,121.9l-0.8-2.3c-0.2-0.5-0.3-1-0.4-1.5
		h0c-0.1,0.5-0.3,1-0.4,1.5l-0.8,2.3H41.6z"/>
	<path class="st3" d="M45.6,118.1h-2.5v-0.9h6v0.9h-2.5v7.2h-1.1V118.1z"/>
	<path class="st3" d="M55.3,125c-0.4,0.2-1.2,0.4-2.1,0.4c-2.3,0-4-1.4-4-4.1c0-2.5,1.7-4.2,4.2-4.2c1,0,1.6,0.2,1.9,0.4l-0.3,0.9
		c-0.4-0.2-1-0.3-1.6-0.3c-1.9,0-3.2,1.2-3.2,3.3c0,2,1.1,3.2,3.1,3.2c0.6,0,1.3-0.1,1.7-0.3L55.3,125z"/>
	<path class="st3" d="M57.7,117.2v3.4h3.9v-3.4h1.1v8.1h-1.1v-3.8h-3.9v3.8h-1v-8.1H57.7z"/>
	<path class="st3" d="M68.3,122.8l-0.8,2.5h-1.1l2.7-8.1h1.3l2.8,8.1H72l-0.9-2.5H68.3z M71,121.9l-0.8-2.3c-0.2-0.5-0.3-1-0.4-1.5
		h0c-0.1,0.5-0.3,1-0.4,1.5l-0.8,2.3H71z"/>
	<path class="st3" d="M74.3,125.3v-8.1h1.1l2.6,4.1c0.6,0.9,1.1,1.8,1.5,2.6l0,0c-0.1-1.1-0.1-2.1-0.1-3.3v-3.4h1v8.1h-1.1l-2.6-4.1
		c-0.6-0.9-1.1-1.8-1.5-2.7l0,0c0.1,1,0.1,2,0.1,3.3v3.5H74.3z"/>
	<path class="st3" d="M83.8,118.1h-2.5v-0.9h6v0.9h-2.5v7.2h-1.1V118.1z"/>
	<path class="st3" d="M88.2,117.3c0.5-0.1,1.2-0.2,1.9-0.2c1,0,1.7,0.2,2.2,0.6c0.4,0.3,0.7,0.8,0.7,1.4c0,0.8-0.5,1.5-1.4,1.8v0
		c0.8,0.2,1.7,0.8,1.7,2c0,0.7-0.3,1.2-0.7,1.6c-0.6,0.5-1.5,0.8-2.8,0.8c-0.7,0-1.3,0-1.6-0.1V117.3z M89.2,120.6h0.9
		c1.1,0,1.8-0.6,1.8-1.4c0-0.9-0.7-1.3-1.8-1.3c-0.5,0-0.8,0-0.9,0.1V120.6z M89.2,124.5c0.2,0,0.5,0,0.9,0c1.1,0,2.1-0.4,2.1-1.6
		c0-1.1-0.9-1.6-2.1-1.6h-0.9V124.5z"/>
	<path class="st3" d="M101.6,121.2c0,2.8-1.7,4.3-3.8,4.3c-2.1,0-3.6-1.7-3.6-4.1c0-2.6,1.6-4.2,3.8-4.2
		C100.2,117.1,101.6,118.8,101.6,121.2z M95.3,121.3c0,1.7,0.9,3.3,2.6,3.3c1.7,0,2.6-1.5,2.6-3.4c0-1.6-0.8-3.3-2.6-3.3
		C96.2,117.9,95.3,119.5,95.3,121.3z"/>
	<path class="st3" d="M104.4,125.3v-3.4l-2.6-4.7h1.2l1.1,2.2c0.3,0.6,0.6,1.1,0.8,1.7h0c0.2-0.5,0.5-1.1,0.8-1.7l1.2-2.2h1.2
		l-2.7,4.6v3.4H104.4z"/>
	<path class="st3" d="M111.7,117.3c0.5-0.1,1.3-0.2,2-0.2c1.1,0,1.8,0.2,2.3,0.7c0.4,0.4,0.6,0.9,0.6,1.5c0,1.1-0.7,1.8-1.5,2.1v0
		c0.6,0.2,1,0.8,1.2,1.6c0.3,1.1,0.5,1.9,0.6,2.2h-1.1c-0.1-0.2-0.3-0.9-0.5-1.9c-0.2-1.1-0.7-1.5-1.6-1.6h-1v3.5h-1V117.3z
		 M112.7,121h1.1c1.1,0,1.8-0.6,1.8-1.5c0-1-0.8-1.5-1.9-1.5c-0.5,0-0.9,0-1,0.1V121z"/>
	<path class="st3" d="M122.3,121.5h-3.1v2.9h3.5v0.9h-4.5v-8.1h4.4v0.9h-3.3v2.6h3.1V121.5z"/>
	<path class="st3" d="M123.9,124c0.5,0.3,1.2,0.5,1.9,0.5c1.1,0,1.7-0.6,1.7-1.4c0-0.8-0.4-1.2-1.5-1.6c-1.3-0.5-2.1-1.2-2.1-2.3
		c0-1.3,1-2.2,2.6-2.2c0.8,0,1.4,0.2,1.8,0.4l-0.3,0.9c-0.3-0.1-0.8-0.4-1.5-0.4c-1.1,0-1.5,0.7-1.5,1.2c0,0.8,0.5,1.1,1.6,1.6
		c1.4,0.5,2.1,1.2,2.1,2.4c0,1.2-0.9,2.3-2.8,2.3c-0.8,0-1.6-0.2-2.1-0.5L123.9,124z"/>
	<path class="st3" d="M135.6,125c-0.4,0.2-1.2,0.4-2.1,0.4c-2.3,0-4-1.4-4-4.1c0-2.5,1.7-4.2,4.2-4.2c1,0,1.6,0.2,1.9,0.4l-0.3,0.9
		c-0.4-0.2-1-0.3-1.6-0.3c-1.9,0-3.2,1.2-3.2,3.3c0,2,1.1,3.2,3.1,3.2c0.6,0,1.3-0.1,1.7-0.3L135.6,125z"/>
	<path class="st3" d="M137.9,117.2v4.8c0,1.8,0.8,2.6,1.9,2.6c1.2,0,2-0.8,2-2.6v-4.8h1.1v4.7c0,2.5-1.3,3.5-3.1,3.5
		c-1.7,0-2.9-0.9-2.9-3.5v-4.8H137.9z"/>
	<path class="st3" d="M148.9,121.5h-3.1v2.9h3.5v0.9h-4.5v-8.1h4.4v0.9h-3.3v2.6h3.1V121.5z"/>
	<path class="st3" d="M42.9,137.2l-0.8,2.5H41l2.7-8.1H45l2.8,8.1h-1.1l-0.9-2.5H42.9z M45.5,136.3l-0.8-2.3c-0.2-0.5-0.3-1-0.4-1.5
		h0c-0.1,0.5-0.3,1-0.4,1.5l-0.8,2.3H45.5z"/>
	<path class="st3" d="M57.6,139.3c-0.5,0.2-1.4,0.4-2.5,0.4c-1.2,0-2.2-0.3-3-1.1c-0.7-0.7-1.1-1.8-1.1-3c0-2.4,1.7-4.2,4.4-4.2
		c0.9,0,1.7,0.2,2,0.4l-0.3,0.9c-0.4-0.2-1-0.3-1.8-0.3c-2,0-3.2,1.2-3.2,3.2c0,2.1,1.2,3.3,3.1,3.3c0.7,0,1.2-0.1,1.4-0.2v-2.4
		h-1.6v-0.8h2.7V139.3z"/>
	<path class="st3" d="M60.3,131.6v8.1h-1v-8.1H60.3z"/>
	<path class="st3" d="M62.1,131.7c0.5-0.1,1.3-0.2,2-0.2c1.1,0,1.8,0.2,2.3,0.7c0.4,0.4,0.6,0.9,0.6,1.5c0,1.1-0.7,1.8-1.5,2.1v0
		c0.6,0.2,1,0.8,1.2,1.6c0.3,1.1,0.5,1.9,0.6,2.2h-1.1c-0.1-0.2-0.3-0.9-0.5-1.9c-0.2-1.1-0.7-1.5-1.6-1.6h-1v3.5h-1V131.7z
		 M63.1,135.4h1.1c1.1,0,1.8-0.6,1.8-1.5c0-1-0.8-1.5-1.9-1.5c-0.5,0-0.9,0-1,0.1V135.4z"/>
	<path class="st3" d="M68.5,131.6h1v7.2H73v0.9h-4.5V131.6z"/>
	<path class="st3" d="M78.1,137.2l-0.8,2.5h-1.1l2.7-8.1h1.3l2.8,8.1h-1.1l-0.9-2.5H78.1z M80.7,136.3l-0.8-2.3
		c-0.2-0.5-0.3-1-0.4-1.5h0c-0.1,0.5-0.3,1-0.4,1.5l-0.8,2.3H80.7z"/>
	<path class="st3" d="M84.7,132.5h-2.5v-0.9h6v0.9h-2.5v7.2h-1.1V132.5z"/>
	<path class="st3" d="M92.7,132.5h-2.5v-0.9h6v0.9h-2.5v7.2h-1.1V132.5z"/>
	<path class="st3" d="M98.2,131.6v3.4h3.9v-3.4h1.1v8.1h-1.1v-3.8h-3.9v3.8h-1v-8.1H98.2z"/>
	<path class="st3" d="M109.2,135.9H106v2.9h3.5v0.9H105v-8.1h4.4v0.9H106v2.6h3.1V135.9z"/>
	<path class="st3" d="M113.4,131.7c0.5-0.1,1.3-0.2,2-0.2c1.1,0,1.8,0.2,2.3,0.7c0.4,0.4,0.6,0.9,0.6,1.5c0,1.1-0.7,1.8-1.5,2.1v0
		c0.6,0.2,1,0.8,1.2,1.6c0.3,1.1,0.5,1.9,0.6,2.2h-1.1c-0.1-0.2-0.3-0.9-0.5-1.9c-0.2-1.1-0.7-1.5-1.6-1.6h-1v3.5h-1V131.7z
		 M114.5,135.4h1.1c1.1,0,1.8-0.6,1.8-1.5c0-1-0.8-1.5-1.9-1.5c-0.5,0-0.9,0-1,0.1V135.4z"/>
	<path class="st3" d="M120.9,131.6v8.1h-1v-8.1H120.9z"/>
	<path class="st3" d="M122.7,139.7v-8.1h1.1l2.6,4.1c0.6,0.9,1.1,1.8,1.5,2.6l0,0c-0.1-1.1-0.1-2.1-0.1-3.3v-3.4h1v8.1h-1.1
		l-2.6-4.1c-0.6-0.9-1.1-1.8-1.5-2.7l0,0c0.1,1,0.1,2,0.1,3.3v3.5H122.7z"/>
	<path class="st3" d="M130.6,131.6h1v3.9h0c0.2-0.3,0.4-0.6,0.6-0.9l2.5-3h1.3l-2.9,3.4l3.2,4.7h-1.2l-2.7-4l-0.8,0.9v3.1h-1V131.6z
		"/>
</g>
<path class="st3" d="M106.3,85.1c0.3,0,0.6,0,0.9,0h10.3c6.6,0,12-5.4,12-12v-1.6c0-6.6-5.4-12-12-12h-4.7
	c-5.2,0.1-9.7-1.7-13.1-3.5l-0.5,0.8c0.3,0.5,0.6,1.1,0.6,1.7c0,1.6-1.3,3-3,3s-3-1.3-3-3s1.3-3,3-3c0.1,0,0.2,0,0.3,0l0.4-0.8
	c-0.8-0.5-1.6-0.9-2.2-1.3c-0.9-0.5-2-1.1-3.3-1.7l-0.7,1.3c0.4,0.5,0.7,1.1,0.7,1.8c0,1.6-1.3,3-3,3c-1.6,0-3-1.3-3-3
	c0-1.6,1.3-3,3-3c0,0,0.1,0,0.1,0l0.6-1.2c-3.1-1.3-6.4-2.4-7.5-2.5c-0.2,0-0.5,0-0.8,0.1c-0.3,2.6-2.5,4.6-5.2,4.6H60.4
	c-2.7,0-4.9-2-5.2-4.7c-2.6,0.5-6.3,4-6.3,4c-2.1,1.7-2.1,16.4-1.1,24.3c1,7.9,6.7,8.5,6.7,8.5h13.3v6.2h-19c-0.9,0-1.7,0.7-1.7,1.7
	s0.7,1.7,1.7,1.7H120c0.2,0,0.3,0,0.5-0.1l0,0.1c7.2-1.1,7-7.5,7-7.5c-1.9-2.2-3.4,0-3.4,0c-0.1,2.7-4,4.1-4,4.1h-14.6v-6.2
	L106.3,85.1z M101.2,91.3H71.9v-6.2h29.3V91.3z"/>
</svg>
