<?xml version="1.0" encoding="utf-8"?>
<!-- Generator: Adobe Illustrator 19.1.0, SVG Export Plug-In . SVG Version: 6.00 Build 0)  -->
<svg version="1.1" id="Layer_3" xmlns="http://www.w3.org/2000/svg" xmlns:xlink="http://www.w3.org/1999/xlink" x="0px" y="0px"
	 viewBox="0 0 48.9 48.9" style="enable-background:new 0 0 48.9 48.9;" xml:space="preserve">
<style type="text/css">
	.st0{fill:#010202;}
	.st1{fill:#9D9D9D;}
</style>
<rect x="0" y="0" class="st0" width="48.9" height="48.9"/>
<g>
	<path class="st1" d="M38.5,15.7c-1.1,0.5-2.2,0.8-3.3,0.9c1.2-0.7,2.1-1.8,2.5-3.2c-1.1,0.7-2.4,1.1-3.7,1.4
		c-1.1-1.2-2.5-1.8-4.2-1.8c-1.6,0-2.9,0.6-4.1,1.7c-1.1,1.1-1.7,2.5-1.7,4.1c0,0.4,0,0.9,0.1,1.3c-2.4-0.1-4.6-0.7-6.6-1.8
		c-2.1-1.1-3.8-2.5-5.2-4.2c-0.5,0.9-0.8,1.9-0.8,2.9c0,1,0.2,1.9,0.7,2.7c0.5,0.8,1.1,1.5,1.9,2c-0.9,0-1.8-0.3-2.6-0.7v0.1
		c0,1.4,0.4,2.6,1.3,3.7c0.9,1.1,2,1.7,3.3,2c-0.5,0.1-1,0.2-1.5,0.2c-0.3,0-0.7,0-1.1-0.1c0.4,1.2,1,2.1,2,2.8
		c1,0.7,2.1,1.1,3.3,1.1c-2.1,1.6-4.5,2.5-7.1,2.5c-0.5,0-1,0-1.4-0.1c2.7,1.7,5.6,2.6,8.8,2.6c2,0,4-0.3,5.8-1
		c1.8-0.6,3.3-1.5,4.6-2.6c1.3-1.1,2.4-2.3,3.3-3.7c0.9-1.4,1.6-2.9,2.1-4.4c0.5-1.5,0.7-3.1,0.7-4.6c0-0.3,0-0.6,0-0.7
		C36.7,17.9,37.7,16.9,38.5,15.7L38.5,15.7z M38.5,15.7"/>
</g>
</svg>
