<?xml version="1.0" encoding="utf-8"?>
<!-- Generator: Adobe Illustrator 24.0.1, SVG Export Plug-In . SVG Version: 6.00 Build 0)  -->
<svg version="1.1" id="Layer_1" xmlns="http://www.w3.org/2000/svg" xmlns:xlink="http://www.w3.org/1999/xlink" x="0px" y="0px"
	 viewBox="0 0 1920 553.9" style="enable-background:new 0 0 1920 553.9;" xml:space="preserve">
<style type="text/css">
	.st0{fill:#FFFFFF;}
</style>
<g>
	<path class="st0" d="M1289.2,211.8c-0.4,0-0.7,0-1.1,0c-30.7,0-55.8,24.6-56.7,55.1h0V320c0,3,2.5,5.5,5.5,5.5h2.7
		c3,0,5.5-2.5,5.5-5.5v-51.5c0-23.8,19.3-43,43-43h0.6c2.8,0,5.1-2.1,5.4-4.8l0.3-2.7C1294.9,214.7,1292.5,211.9,1289.2,211.8z"/>
	<path class="st0" d="M1167,211.8c-32.7,0-59,27.8-56.5,61c1.9,25.5,21.1,47,46.3,51.5c18.4,3.3,36.6-2.5,49.5-14.9
		c2.4-2.3,2.3-6-0.3-8.2l-2.1-1.8c-2.1-1.8-5.2-1.8-7.2,0.1c-8,7.6-18.6,11.9-29.7,11.9c-20.9,0-38.4-15-42.2-34.9h94.7
		c2.1,0,3.8-1.6,3.9-3.7l0.2-2.7c0.1-1.2,0.1-2.5,0.1-3.7C1223.7,235.8,1198.8,211.8,1167,211.8z M1124.3,262.9
		c2.7-21.1,20.8-37.5,42.7-37.5c22.9,0,41,16.2,42.9,37.5H1124.3z"/>
	<path class="st0" d="M1049.7,211.9c-32.7-2.2-60,23.5-60.6,55.6h0v96.2c0,3,2.5,5.5,5.5,5.5h2.7c3,0,5.5-2.5,5.5-5.5v-58.3
		c10.4,12.1,25.8,19.8,43,19.8c32.5,0,58.7-27.5,56.6-60.4C1100.6,236.7,1077.8,213.8,1049.7,211.9z M1045.8,311.5
		c-23.7,0-43-19.3-43-43s19.3-43,43-43s43,19.3,43,43S1069.5,311.5,1045.8,311.5z"/>
	<path class="st0" d="M928.4,211.9c-32.7-2.2-60,23.5-60.6,55.6h0v96.2c0,3,2.5,5.5,5.5,5.5h2.7c3,0,5.5-2.5,5.5-5.5v-58.3
		c10.4,12.1,25.8,19.8,43,19.8c32.5,0,58.7-27.5,56.6-60.4C979.3,236.7,956.5,213.8,928.4,211.9z M924.5,311.5
		c-23.7,0-43-19.3-43-43s19.3-43,43-43c23.7,0,43,19.3,43,43S948.3,311.5,924.5,311.5z"/>
	<g>
		<ellipse class="st0" cx="804.3" cy="321.6" rx="39.1" ry="3.9"/>
	</g>
	<g>
		<path class="st0" d="M803.3,298.1c-31.3,0-56.7-25.4-56.7-56.7s25.4-56.7,56.7-56.7c31.3,0,56.7,25.4,56.7,56.7
			S834.6,298.1,803.3,298.1z M803.3,198.4c-23.7,0-43,19.3-43,43s19.3,43,43,43c23.7,0,43-19.3,43-43S827,198.4,803.3,198.4z"/>
	</g>
	<path class="st0" d="M738.8,272.7c-0.5-30.8-25.7-55.7-56.7-55.7c-17.2,0-32.6,7.7-43,19.8v-46.6c0-3-2.5-5.5-5.5-5.5h-2.7
		c-3,0-5.5,2.5-5.5,5.5V320c0,3,2.5,5.5,5.5,5.5h2.7c3,0,5.5-2.5,5.5-5.5v-46.3c0-24.3,20.2-43.9,44.7-43
		c23.3,0.9,41.4,20.7,41.4,44V320c0,3,2.5,5.5,5.5,5.5h2.7c3,0,5.5-2.5,5.5-5.5L738.8,272.7L738.8,272.7z"/>
</g>
</svg>
