<?xml version="1.0" encoding="utf-8"?>
<!-- Generator: Adobe Illustrator 24.0.1, SVG Export Plug-In . SVG Version: 6.00 Build 0)  -->
<svg version="1.1" id="Layer_1" xmlns="http://www.w3.org/2000/svg" xmlns:xlink="http://www.w3.org/1999/xlink" x="0px" y="0px"
	 viewBox="0 0 1920 553.9" style="enable-background:new 0 0 1920 553.9;" xml:space="preserve">
<style type="text/css">
	.st0{fill:#5B5A5A;}
</style>
<g>
	<path class="st0" d="M882,328.5c1,0.1,1.8-0.1,2.6-0.4s1.5-0.7,2.3-1c1.2-0.6,2.3-1.2,3.3-1.8c1-0.6,2-1.4,3-2.2
		c3.3-2.7,6.7-4.9,10.4-6.7c0.6-0.3,1.3-0.5,1.9-0.8c0.6-0.2,1.3-0.4,2.1-0.4c0.9,0,1.5,0.2,1.9,0.7s0.5,1.1,0.2,1.8
		c-0.3,0.7-0.6,1.3-0.9,1.9c-0.3,0.6-0.8,1.1-1.4,1.5c-2.2,1.5-4.4,3.1-6.6,4.6c-2.1,1.5-4.3,3.1-6.6,4.6c-1.8,1.2-3.7,2.4-5.6,3.4
		c-1.9,1.1-3.9,1.8-6.1,2.3c-0.9,0.3-1.8,0.5-2.8,0.6c-0.9,0.1-1.9,0.2-2.8,0.3c-1.1,0.1-2.1,0-3.1-0.2s-2-0.6-3-1
		c-0.2-0.1-0.4-0.2-0.6-0.4c-0.2-0.2-0.3-0.3-0.4-0.6c-0.4-0.9-0.7-1.7-1.1-2.5c-0.4-0.8-0.6-1.6-0.8-2.5c-0.9-3.8-1.5-7.7-1.8-11.5
		c-0.4-3.8-0.7-7.6-1-11.5c-0.3-3.7-0.6-7.3-0.9-10.9c-0.3-3.6-0.7-7.2-1.3-10.9c-0.4-2.6-0.7-5.1-0.9-7.7s-0.4-5.2-0.6-7.8
		c-0.3-3.4-0.5-6.8-0.6-10.2c-0.1-3.4-0.2-6.9-0.3-10.3c-0.1-2,0-3.9,0.1-5.9c0.1-1.9,0.3-3.9,0.5-5.8c0.1-1.1,0.3-2.1,0.7-3.2
		c0.3-1,0.7-2.1,1-3.2c0.2-0.5,0.6-0.9,1-1c0.5-0.1,0.9-0.2,1.4-0.2c1.7-0.1,3.1,0.4,4.3,1.5c1.2,1,2,2.3,2.5,3.9
		c0.4,1.3,0.7,2.6,1,3.8c0.3,1.3,0.5,2.6,0.6,3.9c0.1,0.9,0.2,1.7,0.3,2.5s0.1,1.6,0.2,2.4c0.1,1.4,0.2,2.9,0.2,4.4
		c0.1,1.5,0.1,2.9,0.2,4.4c0.1,1.4,0.1,2.9,0.1,4.3s0,2.9,0,4.3c0,0.3,0,0.6,0,1c0,0.3,0.1,0.6,0.2,0.9c0.3,1.1,0.4,2.1,0.4,3.2
		s0,2.1,0.1,3.2c0.1,0.9,0.2,1.8,0.3,2.8s0.2,1.9,0.3,2.8c0.1,0.5,0.1,1,0.1,1.5s0,1,0.1,1.5c0.2,1.7,0.3,3.4,0.5,5.1
		s0.5,3.4,0.9,5.1c0.3,0.9,0.4,1.8,0.4,2.7c0,0.9,0.1,1.8,0.2,2.7c0.2,1,0.3,2,0.5,3s0.3,2,0.5,3c0.3,1.5,0.5,3.1,0.8,4.7
		s0.4,3.2,0.5,4.8c0.1,2.2,0.3,4.4,0.6,6.6c0.3,2.1,0.5,4.3,0.8,6.5c0.1,0.4,0.1,0.7,0.2,1.1C881.8,327.7,881.9,328.1,882,328.5z"/>
	<path class="st0" d="M965.7,304.6c-1,2.2-2,4.5-3.1,6.6c-1,2.2-2.1,4.4-3.3,6.6c-1.1,2.1-2.3,4.1-3.6,6c-1.4,1.9-2.8,3.7-4.4,5.5
		c-2.3,2.8-5,4.9-8,6.3s-6.4,1.9-10.2,1.5c-4-0.4-7.4-1.7-10.2-3.8c-2.8-2.1-5.2-4.9-7-8.4c-1.3-2.6-2.3-5.2-3-7.8
		c-0.7-2.6-1.2-5.4-1.5-8.2c-0.3-2.2-0.4-4.3-0.4-6.5c0-2.1,0.1-4.3,0.2-6.5c0.1-2.2,0.3-4.5,0.7-6.6c0.4-2.2,0.9-4.4,1.5-6.6
		c0.9-3.2,2-6.3,3.3-9.3s3-5.8,5.2-8.4c1.3-1.6,2.7-3,4.2-4.3s3.2-2.4,5-3.3c1.5-0.8,3.1-1.5,4.8-2c1.6-0.5,3.3-0.8,5-0.9
		c1.9-0.1,3.8,0,5.7,0.3s3.7,1.1,5.4,2.3c0.4,0.3,0.9,0.6,1.3,0.9c0.5,0.3,0.9,0.6,1.4,0.8c1.7,1.1,3.1,2.3,4.3,3.8s2.3,3.1,3.3,4.8
		c1,1.7,1.7,3.5,1.9,5.4c0.3,1.9,0.2,3.9-0.2,5.9c-1.3,6.6-4.4,12.3-9.4,17c-1.4,1.4-2.9,2.7-4.4,4s-3.1,2.5-4.7,3.6
		c-2.3,1.5-4.8,2.8-7.3,3.8s-5.2,1.5-8.1,1.6c-0.1,0-0.3,0.1-0.7,0.2c0.4,2.3,0.9,4.5,1.7,6.5c0.7,2,1.8,3.9,3.3,5.6
		c1.2,1.4,2.6,2.4,4.1,3.1s3.2,1.1,5,1.2c0.7,0.1,1.4-0.1,2-0.4s1.1-0.7,1.7-1.2c1.2-1.1,2.3-2.2,3.4-3.5c1-1.3,1.9-2.6,2.8-4
		c1.2-1.9,2.3-3.8,3.4-5.7c1-1.9,1.9-3.9,2.7-5.9c0.4-1,0.9-1.8,1.5-2.4c0.6-0.7,1.4-1.1,2.4-1.2c0.6,0.1,1.2,0.2,1.7,0.5
		c0.4,0.3,0.7,0.6,0.9,1.1C966.2,303.3,966.1,303.9,965.7,304.6z M928.8,304.5c0.7-0.1,1.3-0.2,1.9-0.2c0.6-0.1,1.1-0.2,1.6-0.3
		c1.9-0.4,3.6-1.1,5.3-1.9s3.3-1.8,4.8-2.9c1.2-0.9,2.4-1.8,3.5-2.8c1.1-0.9,2.2-1.9,3.3-2.9c2.2-2,4-4.3,5.3-6.9s2.2-5.3,2.6-8.2
		c0.3-1.3,0.3-2.6,0-3.8c-0.3-1.2-0.9-2.3-1.8-3.4c-1.7-2-3.7-3.3-6-4c-2.3-0.6-4.7-0.3-7.1,0.8c-2.1,1-3.9,2.3-5.4,4
		c-1.5,1.6-2.8,3.5-3.8,5.5c-1.7,3.4-2.9,7.1-3.7,11c-0.4,2.1-0.7,4.2-0.9,6.2c-0.2,2.1-0.2,4.2-0.1,6.3c0.1,0.6,0.1,1.2,0.2,1.7
		S928.7,303.9,928.8,304.5z"/>
	<path class="st0" d="M1020.4,329.7c0.1,2.3,0,3.9-0.2,5c-0.3,1-0.6,1.7-1,2c-0.5,0.4-1,0.4-1.6,0.2c-0.4-0.2-0.8-0.4-1.2-0.5
		s-0.7-0.3-1.1-0.6c-0.8-0.5-1.6-0.9-2.4-1.4c-0.8-0.5-1.4-1.1-2-2c-1.2-1.9-2.2-3.8-3.1-5.8s-1.6-4-2.3-6.1c-1.1-3.5-2.1-7-3-10.6
		c-0.9-3.5-1.9-7-2.8-10.6c-0.8-3.2-1.4-6.4-1.8-9.6c-0.4-3.2-0.6-6.4-0.6-9.7c-0.1-1.4-0.1-2.8-0.3-4.2c-0.1-1.4-0.2-2.8-0.2-4.2
		c-0.1-3.3-0.1-6.6,0-10v-2c-0.2-0.1-0.3-0.1-0.4-0.1c-0.1,0-0.2,0-0.3,0c-3.2-0.1-6.4-0.2-9.6-0.2c-3.2,0-6.4-0.1-9.6-0.2
		c-0.7,0-1.4,0-2-0.1s-1.3-0.1-2-0.2c-0.5-0.1-0.8-0.4-0.9-0.9c-0.1-0.6,0.1-1.3,0.5-1.9c0.5-0.6,1-1,1.7-1
		c3.5-0.3,6.9-0.7,10.3-1.1c3.4-0.4,6.9-0.5,10.3-0.4c0.4,0,0.7,0,1,0s0.7,0,1,0c0.2-1.2,0.3-2.4,0.5-3.5s0.3-2.2,0.4-3.3
		c0.4-3.2,0.9-6.3,1.6-9.4c0.7-3,1.7-6,2.9-9s3.2-5.6,5.8-7.8c1.5-1.2,3.4-2.1,5.5-2.6c2.3-0.6,4.5-1,6.5-1.1c1.8-0.1,3.4,0.1,5,0.8
		c1.6,0.6,3.1,1.4,4.6,2.4c0.9,0.6,1.5,1.3,1.7,2.2s0.5,1.8,0.8,2.7c0.1,0.2,0.1,0.4,0.1,0.6c0,0.2,0,0.4,0.1,0.6
		c0.3,1.1,0.5,2.1,0.4,3.1c0,1-0.1,2-0.3,3c-0.2,1-0.3,2-0.5,3s-0.3,2-0.4,3c-1.8,0.4-2.9-0.3-3.5-2.1c-0.2-0.6-0.4-1.2-0.5-1.8
		s-0.2-1.2-0.3-1.8c-0.1-0.8-0.3-1.5-0.8-2.2c-0.5-0.6-1.1-1.2-1.8-1.6c-0.7-0.5-1.6-0.7-2.5-0.9c-0.9-0.1-1.8-0.1-2.6,0.2
		s-1.5,0.7-2,1.4s-1,1.3-1.2,2.1c-0.4,1.1-0.7,2.1-1,3.2c-0.3,1-0.5,2.1-0.6,3.2c-0.6,3-1,5.9-1.2,8.9c-0.1,1.1-0.2,2.3-0.2,3.4
		c0,1.2-0.1,2.4-0.1,3.6c1.2,0.1,2.3,0.2,3.4,0.2c1.1,0.1,2.2,0.1,3.2,0.2c2.5,0.2,5,0.4,7.4,0.6c2.5,0.2,4.9,0.4,7.4,0.7
		c1.2,0.1,2.1,0.4,2.5,0.8c0.5,0.4,0.9,1.3,1.3,2.6c-0.4,0.3-0.8,0.7-1.2,1c-0.4,0.3-0.8,0.7-1.2,1c-0.3,0.2-0.6,0.3-0.8,0.3
		c-1.7,0-3.3,0-4.9,0s-3.2,0-4.9-0.1c-1.8-0.1-3.5-0.1-5.3-0.2s-3.5-0.1-5.3-0.2c-0.3-0.1-0.5-0.1-0.8-0.1c-0.2,0-0.5,0-0.8,0
		c0,1,0,1.9,0,2.7c0,0.9,0,1.7,0,2.5c0.2,3.6,0.4,7.2,0.6,10.8c0.2,3.6,0.5,7.1,0.7,10.7c0.2,2.6,0.5,5.2,0.9,7.7
		c0.5,2.5,0.9,5.1,1.2,7.6c0.4,2.8,0.8,5.5,1.2,8.3s0.7,5.6,1,8.4c0.2,1.8,0.3,3.5,0.5,5.2C1020.2,326,1020.3,327.8,1020.4,329.7z"
		/>
	<path class="st0" d="M1058.8,325.3c0.2,1.4,0.3,2.7,0.4,3.9c0.1,1.1,0.2,2.1,0.2,3c0.1,1,0,1.6-0.1,2c-0.3,1-0.7,1.8-1.3,2.3
		c-0.6,0.5-1.4,0.7-2.4,0.6c-1.5-0.2-2.8-0.8-3.6-1.7c-0.9-0.9-1.6-2-2.2-3.2c-0.4-0.8-0.7-1.6-0.9-2.3c-0.2-0.7-0.3-1.4-0.5-2
		s-0.3-1.3-0.4-2c-0.3-2.8-0.5-5.6-0.8-8.4s-0.5-5.6-0.8-8.4c-0.2-2.5-0.4-5-0.6-7.4c-0.2-2.5-0.3-5-0.2-7.5c0.1-1.4,0.1-2.9,0-4.3
		c0-1.4,0-2.9,0-4.3c0.1-0.9,0.1-1.8,0.1-2.7c0-0.9,0.1-1.8,0.1-2.7c0-0.9,0-1.8,0-2.6c0-0.9,0-1.7,0-2.6c0.1-1.1,0.2-2.1,0.5-3.2
		c0.3-1.3,1.1-2.2,2.3-2.8c1.2-0.6,2.4-0.6,3.6,0c0.4,0.2,0.8,0.5,1.1,0.8c0.3,0.3,0.6,0.7,0.8,1.1c0.5,0.7,0.8,1.5,1.1,2.3
		c0.2,0.8,0.5,1.6,0.7,2.5c0.5,2,0.8,4,1,6s0.3,4,0.2,6c-0.1,1.4-0.1,2.7,0,4c0,1.3,0,2.7,0,4h0.1c0.1,1.6,0.2,3.2,0.2,4.8
		c0,1.6,0.1,3.2,0.2,4.8l1.2,16.8c0.1,0.6,0.1,1.1,0.1,1.6C1058.8,324.1,1058.8,324.7,1058.8,325.3z M1052.7,262.7
		c-0.3,0.2-0.7,0.3-1.1,0.3c-0.4,0.1-0.8,0-1.2-0.1c-0.4-0.1-0.8-0.4-1.1-0.9c-0.3-0.5-0.6-1.1-0.8-2c-0.2-0.9-0.1-1.7,0.1-2.3
		c0.2-0.6,0.5-1.1,0.9-1.6s1-0.9,1.6-1.2c0.2-0.1,0.5-0.1,1.1,0.2c0.6,0.2,1.1,0.5,1.7,0.7c0.6,0.3,1.2,0.9,1.7,1.8
		c0.5,1,0.8,1.8,0.8,2.6c0,0.4-0.1,0.7-0.4,0.9c-0.2,0.2-0.6,0.5-1,0.7s-0.8,0.4-1.2,0.5C1053.5,262.5,1053.1,262.6,1052.7,262.7z"
		/>
</g>
</svg>
