<?xml version="1.0" encoding="utf-8"?>
<!-- Generator: Adobe Illustrator 24.0.1, SVG Export Plug-In . SVG Version: 6.00 Build 0)  -->
<svg version="1.1" id="Layer_1" xmlns="http://www.w3.org/2000/svg" xmlns:xlink="http://www.w3.org/1999/xlink" x="0px" y="0px"
	 viewBox="0 0 1920 553.9" style="enable-background:new 0 0 1920 553.9;" xml:space="preserve">
<style type="text/css">
	.st0{clip-path:url(#SVGID_2_);fill:#7F001E;}
	.st1{clip-path:url(#SVGID_4_);fill:url(#SVGID_5_);}
	.st2{clip-path:url(#SVGID_7_);fill:url(#SVGID_8_);}
	.st3{filter:url(#Adobe_OpacityMaskFilter);}
	.st4{clip-path:url(#SVGID_10_);}
	.st5{clip-path:url(#SVGID_13_);fill:url(#SVGID_14_);}
	.st6{clip-path:url(#SVGID_10_);mask:url(#SVGID_11_);fill:url(#SVGID_15_);}
	.st7{clip-path:url(#SVGID_17_);fill:url(#SVGID_18_);}
	.st8{clip-path:url(#SVGID_20_);fill:url(#SVGID_21_);}
	.st9{clip-path:url(#SVGID_23_);fill:url(#SVGID_24_);}
	.st10{clip-path:url(#SVGID_26_);fill:url(#SVGID_27_);}
</style>
<g>
	<g>
		<defs>
			<path id="SVGID_1_" d="M960,126.5c-65.2,0-118,52.8-118,118c0,20.8,5.4,40.3,14.8,57.2C876.9,338,942.9,428,960,427.4
				c17.3-0.6,81.9-88.7,102.3-124.1c10-17.3,15.7-37.4,15.7-58.8C1078,179.3,1025.2,126.5,960,126.5z"/>
		</defs>
		<clipPath id="SVGID_2_">
			<use xlink:href="#SVGID_1_"  style="overflow:visible;"/>
		</clipPath>
		<rect x="770.3" y="100.6" class="st0" width="434.9" height="390.4"/>
	</g>
	<g>
		<defs>
			<path id="SVGID_3_" d="M952.1,196.2l43.8,23c-1.8-43.8-41.2-54.7-41.2-54.7C948,169.9,952.1,196.2,952.1,196.2"/>
		</defs>
		<clipPath id="SVGID_4_">
			<use xlink:href="#SVGID_3_"  style="overflow:visible;"/>
		</clipPath>
		
			<linearGradient id="SVGID_5_" gradientUnits="userSpaceOnUse" x1="809.4477" y1="427.3429" x2="810.4612" y2="427.3429" gradientTransform="matrix(-42.9651 31.0304 31.0304 42.9651 22528.1836 -43314.543)">
			<stop  offset="0" style="stop-color:#7F001E"/>
			<stop  offset="0.1002" style="stop-color:#7F001E"/>
			<stop  offset="1" style="stop-color:#FC003B"/>
		</linearGradient>
		<polygon class="st1" points="1021.8,200.4 964.4,241.8 922.1,183.2 979.5,141.7 		"/>
	</g>
	<g>
		<defs>
			<path id="SVGID_6_" d="M907.3,220.2c-4.3,8-12.1,13.7-21.1,15.5L866,240c-2.7,0.6-4.1,3.4-2.9,5.9l15.3,32.5
				c3,6.3,9.9,9.8,16.8,8.4l29.9-6.3c0,0,22.6-4.4,26.3,17.9c3.2,19.3-25.5,21.3-58.4,58.1c25.9,35.5,56.2,71.3,67,71
				c14-0.5,58.7-57.9,86.2-98.6c-0.2-52.7-14.3-104.3-61.3-128.2c-4.1-2.1-8.6-3.4-13.1-4c-3.4-0.4-7.9-0.8-13-0.8
				C941.7,195.8,918.3,199.9,907.3,220.2"/>
		</defs>
		<clipPath id="SVGID_7_">
			<use xlink:href="#SVGID_6_"  style="overflow:visible;"/>
		</clipPath>
		
			<linearGradient id="SVGID_8_" gradientUnits="userSpaceOnUse" x1="810.0565" y1="426.9044" x2="811.07" y2="426.9044" gradientTransform="matrix(67.7848 -174.8734 -174.8734 -67.7848 20643.1641 171050.1719)">
			<stop  offset="0" style="stop-color:#7F001E"/>
			<stop  offset="1" style="stop-color:#FC003B"/>
		</linearGradient>
		<polygon class="st2" points="783.8,397.5 886,133.7 1124.3,226.1 1022.1,489.9 		"/>
	</g>
	<g>
		<defs>
			<path id="SVGID_9_" d="M952.4,363.1c-3.1,3.7-6.4,7.2-9.9,10.5l-4.7,4.6c-5.5,5.4-10.1,11.4-13.8,18c15.6,18.4,29.4,31.5,36,31.3
				c7.3-0.3,23.1-16.1,40.3-37c27.4-54.8-23.8-55.6-23.8-55.6L952.4,363.1z"/>
		</defs>
		<clipPath id="SVGID_10_">
			<use xlink:href="#SVGID_9_"  style="overflow:visible;"/>
		</clipPath>
		<defs>
			<filter id="Adobe_OpacityMaskFilter" filterUnits="userSpaceOnUse" x="886.5" y="292.9" width="178.8" height="176.7">
				<feColorMatrix  type="matrix" values="1 0 0 0 0  0 1 0 0 0  0 0 1 0 0  0 0 0 1 0"/>
			</filter>
		</defs>
		<mask maskUnits="userSpaceOnUse" x="886.5" y="292.9" width="178.8" height="176.7" id="SVGID_11_">
			<g class="st3">
				<g>
					<defs>
						
							<rect id="SVGID_12_" x="911" y="314" transform="matrix(0.4535 -0.8913 0.8913 0.4535 193.526 1078.0914)" width="129.8" height="134.6"/>
					</defs>
					<clipPath id="SVGID_13_" class="st4">
						<use xlink:href="#SVGID_12_"  style="overflow:visible;"/>
					</clipPath>
					
						<linearGradient id="SVGID_14_" gradientUnits="userSpaceOnUse" x1="809.71" y1="426.6234" x2="810.7235" y2="426.6234" gradientTransform="matrix(-95.4201 -48.553 -48.553 95.4201 99003.8828 -987.1164)">
						<stop  offset="0" style="stop-color:#E6E6E6"/>
						<stop  offset="0.1194" style="stop-color:#E6E6E6"/>
						<stop  offset="0.1926" style="stop-color:#DEDEDE"/>
						<stop  offset="0.3024" style="stop-color:#CACACA"/>
						<stop  offset="0.4351" style="stop-color:#A8A8A8"/>
						<stop  offset="0.5858" style="stop-color:#797979"/>
						<stop  offset="0.7493" style="stop-color:#3E3E3E"/>
						<stop  offset="0.8916" style="stop-color:#050505"/>
						<stop  offset="1" style="stop-color:#050505"/>
					</linearGradient>
					<polygon class="st5" points="1028.5,541.9 815.1,433.2 923.2,220.6 1136.7,329.2 					"/>
				</g>
			</g>
		</mask>
		
			<linearGradient id="SVGID_15_" gradientUnits="userSpaceOnUse" x1="809.71" y1="426.6234" x2="810.7235" y2="426.6234" gradientTransform="matrix(-95.4201 -48.553 -48.553 95.4201 99003.8828 -987.1164)">
			<stop  offset="0" style="stop-color:#7F001E"/>
			<stop  offset="0.1194" style="stop-color:#7F001E"/>
			<stop  offset="0.229" style="stop-color:#860020"/>
			<stop  offset="0.3926" style="stop-color:#9B0024"/>
			<stop  offset="0.5898" style="stop-color:#BC002C"/>
			<stop  offset="0.8115" style="stop-color:#EA0037"/>
			<stop  offset="0.8916" style="stop-color:#FC003B"/>
			<stop  offset="1" style="stop-color:#FC003B"/>
		</linearGradient>
		<polygon class="st6" points="1006.4,469.6 886.5,408.6 945.3,292.9 1065.3,353.9 		"/>
	</g>
	<g>
		<defs>
			<path id="SVGID_16_" d="M960,126.5c-65.2,0-118,52.8-118,118c0,20.8,5.4,40.3,14.8,57.2C876.9,338,942.9,428,960,427.4
				c17.3-0.6,81.9-88.7,102.3-124.1c10-17.3,15.7-37.4,15.7-58.8C1078,179.3,1025.2,126.5,960,126.5z"/>
		</defs>
		<clipPath id="SVGID_17_">
			<use xlink:href="#SVGID_16_"  style="overflow:visible;"/>
		</clipPath>
		
			<linearGradient id="SVGID_18_" gradientUnits="userSpaceOnUse" x1="810.1913" y1="427.0381" x2="811.2048" y2="427.0381" gradientTransform="matrix(167.457 0 0 -167.457 -134827.75 71878.7969)">
			<stop  offset="0" style="stop-color:#7F001E"/>
			<stop  offset="0.1915" style="stop-color:#83001F"/>
			<stop  offset="0.3689" style="stop-color:#8E0021"/>
			<stop  offset="0.5409" style="stop-color:#A10026"/>
			<stop  offset="0.7093" style="stop-color:#BB002C"/>
			<stop  offset="0.8738" style="stop-color:#DD0034"/>
			<stop  offset="1" style="stop-color:#FC003B"/>
		</linearGradient>
		<path class="st7" d="M845.5,484.3c0-0.1-0.5-3.9-0.5-10.5c0-26.7,8.5-99.7,92.6-156.8c4.3-2.9,8.7-5.6,13.2-8
			c13.6-7.3,52.4-30.6,60.1-56.7l2.9,0.9c-8.5,27.9-47.8,50.9-61.5,58.5c-4.4,2.4-8.8,5-12.9,7.8C856.1,376,848,447.6,848,473.8l0,0
			c0,6.5,0.5,10.1,0.5,10.1L845.5,484.3L845.5,484.3z"/>
	</g>
	<g>
		<defs>
			<path id="SVGID_19_" d="M907.3,220.2c-4.3,8-12.1,13.7-21.1,15.5L866,240c-2.7,0.6-4.1,3.4-2.9,5.9l15.3,32.5
				c3,6.3,9.9,9.8,16.8,8.4l29.9-6.3c0,0,22.6-4.4,26.3,17.9c0.7,4.3-1.2,8.5-3.3,11.7c11.6-6.7,69-36.9,72.5-78.8
				c-8.9-12.5-20.6-23-35.6-30.7c-4.1-2.1-8.6-3.4-13.1-4c-3.4-0.4-7.9-0.8-13-0.8C941.7,195.8,918.3,199.9,907.3,220.2"/>
		</defs>
		<clipPath id="SVGID_20_">
			<use xlink:href="#SVGID_19_"  style="overflow:visible;"/>
		</clipPath>
		
			<linearGradient id="SVGID_21_" gradientUnits="userSpaceOnUse" x1="809.7526" y1="426.9709" x2="810.7662" y2="426.9709" gradientTransform="matrix(-115.1063 -52.3837 -52.3837 115.1063 116617.9062 -6429.5093)">
			<stop  offset="0" style="stop-color:#7F001E"/>
			<stop  offset="1" style="stop-color:#FC003B"/>
		</linearGradient>
		<polygon class="st8" points="993.3,369.8 818.9,290.4 889.1,136 1063.6,215.4 		"/>
	</g>
	<g>
		<defs>
			<path id="SVGID_22_" d="M973.2,208.6l13.9,5.1c4.6,1.7,8.8,4,12.7,6.9l12.7,9.5c10.6-58.7-9.1-67.5-9.1-67.5
				C978.7,168.4,973.2,208.6,973.2,208.6"/>
		</defs>
		<clipPath id="SVGID_23_">
			<use xlink:href="#SVGID_22_"  style="overflow:visible;"/>
		</clipPath>
		
			<linearGradient id="SVGID_24_" gradientUnits="userSpaceOnUse" x1="809.7847" y1="427.4594" x2="810.7982" y2="427.4594" gradientTransform="matrix(-24.6086 63.9824 63.9824 24.6086 -6409.3984 -62172.6758)">
			<stop  offset="0" style="stop-color:#7F001E"/>
			<stop  offset="0.5803" style="stop-color:#F7003A"/>
			<stop  offset="0.7611" style="stop-color:#F5003A"/>
			<stop  offset="0.8269" style="stop-color:#EE0038"/>
			<stop  offset="0.8738" style="stop-color:#E20035"/>
			<stop  offset="0.9118" style="stop-color:#D20031"/>
			<stop  offset="0.9444" style="stop-color:#BB002C"/>
			<stop  offset="0.9728" style="stop-color:#A10026"/>
			<stop  offset="0.9983" style="stop-color:#81001F"/>
			<stop  offset="1" style="stop-color:#7F001E"/>
		</linearGradient>
		<polygon class="st9" points="1045.8,171.3 1016.8,246.9 950.6,221.4 979.7,145.9 		"/>
	</g>
	<g>
		<defs>
			<path id="SVGID_25_" d="M978.7,211.4l9.2,3.1c3.3,1.1,6.4,2.8,9.2,4.9l10,7.5c7.6-42.3-6.6-48.6-6.6-48.6
				C982.6,182.5,978.7,211.4,978.7,211.4"/>
		</defs>
		<clipPath id="SVGID_26_">
			<use xlink:href="#SVGID_25_"  style="overflow:visible;"/>
		</clipPath>
		
			<radialGradient id="SVGID_27_" cx="811.1627" cy="427.1066" r="1.0136" gradientTransform="matrix(29.2969 0 0 -29.2969 -22768.4141 12720.5791)" gradientUnits="userSpaceOnUse">
			<stop  offset="0" style="stop-color:#C2002C"/>
			<stop  offset="0.1954" style="stop-color:#C2002C"/>
			<stop  offset="1" style="stop-color:#C2002C"/>
		</radialGradient>
		<rect x="978.7" y="178.3" class="st10" width="36" height="48.6"/>
	</g>
</g>
</svg>
