<?xml version="1.0" encoding="utf-8"?>
<!-- Generator: Adobe Illustrator 19.1.0, SVG Export Plug-In . SVG Version: 6.00 Build 0)  -->
<svg version="1.1" xmlns="http://www.w3.org/2000/svg" xmlns:xlink="http://www.w3.org/1999/xlink" x="0px" y="0px"
	 viewBox="0 0 939.4 569.8" enable-background="new 0 0 939.4 569.8" xml:space="preserve">
<g id="Layer_3" display="none">
</g>
<g id="hvid_nedenunder" display="none">
	<path display="inline" fill="#B8C4DE" d="M481,392.7h28.3c16.5,0,30-13.5,30-30v-40.6c0-16.5-13.5-30-30-30H481
		c-16.5,0-30,13.5-30,30v40.6C451,379.2,464.5,392.7,481,392.7z"/>
	<path display="inline" fill="#B8C4DE" d="M509.2,462.2h-9.5c-16.5,0-30-13.5-30-30v-45.8c0-16.5,13.5-30,30-30h9.5
		c16.5,0,30,13.5,30,30v45.8C539.2,448.7,525.7,462.2,509.2,462.2z"/>
	<path display="inline" fill="#B8C4DE" d="M560.6,456.3L560.6,456.3c-4.4,0-8-3.6-8-8v-16.6c0-4.4,3.6-8,8-8l0,0c4.4,0,8,3.6,8,8
		v16.6C568.7,452.7,565,456.3,560.6,456.3z"/>
	<path display="inline" fill="#B8C4DE" d="M492.5,45.9h-9.2c-10.1,0-18.3-8.3-18.3-18.3v0c0-10.1,8.3-18.3,18.3-18.3h9.2
		c10.1,0,18.3,8.3,18.3,18.3v0C510.8,37.6,502.6,45.9,492.5,45.9z"/>
	<path display="inline" fill="#B8C4DE" d="M780.2,239h-211c-16.5,0-30-13.5-30-30v-36.1c0-16.5,13.5-30,30-30h211
		c16.5,0,30,13.5,30,30V209C810.2,225.5,796.7,239,780.2,239z"/>
	<path display="inline" fill="#B8C4DE" d="M573.2,253.1h-48.1c-16.5,0-30-13.5-30-30v-7.6c0-16.5,13.5-30,30-30h48.1
		c16.5,0,30,13.5,30,30v7.6C603.2,239.6,589.7,253.1,573.2,253.1z"/>
	<path display="inline" fill="#B8C4DE" d="M763.9,273.4H585.3c-15.3,0-27.8-12.5-27.8-27.8v0c0-15.3,12.5-27.8,27.8-27.8h178.5
		c15.3,0,27.8,12.5,27.8,27.8v0C791.7,260.9,779.2,273.4,763.9,273.4z"/>
	<path display="inline" fill="#B8C4DE" d="M741.5,291.8H588.8c-12.6,0-22.8-10.3-22.8-22.8v0c0-12.6,10.3-22.8,22.8-22.8h152.7
		c12.6,0,22.8,10.3,22.8,22.8v0C764.3,281.5,754,291.8,741.5,291.8z"/>
	<path display="inline" fill="#B8C4DE" d="M676.9,352.7h-32.9c-16.5,0-30-13.5-30-30v-23.8c0-16.5,13.5-30,30-30h32.9
		c16.5,0,30,13.5,30,30v23.8C706.9,339.2,693.4,352.7,676.9,352.7z"/>
	<path display="inline" fill="#B8C4DE" d="M823.7,413.2h-18.1c-7.7,0-13.9-6.3-13.9-13.9v0c0-7.7,6.3-13.9,13.9-13.9h18.1
		c7.7,0,13.9,6.3,13.9,13.9v0C837.7,406.9,831.4,413.2,823.7,413.2z"/>
	<path display="inline" fill="#B8C4DE" d="M822.5,517.3h-1.3c-4.6,0-8.4-3.8-8.4-8.4v0c0-4.6,3.8-8.4,8.4-8.4h1.3
		c4.6,0,8.4,3.8,8.4,8.4v0C830.9,513.5,827.1,517.3,822.5,517.3z"/>
	<path display="inline" fill="#B8C4DE" d="M896.3,523.6h-6.3c-6.3,0-11.4-5.1-11.4-11.4l0,0c0-6.3,5.1-11.4,11.4-11.4h6.3
		c6.3,0,11.4,5.1,11.4,11.4l0,0C907.7,518.5,902.5,523.6,896.3,523.6z"/>
	<path display="inline" fill="#B8C4DE" d="M918,500.9L918,500.9c-4.1,0-7.4-3.3-7.4-7.4V491c0-4.1,3.3-7.4,7.4-7.4l0,0
		c4.1,0,7.4,3.3,7.4,7.4v2.5C925.4,497.6,922.1,500.9,918,500.9z"/>
	<path display="inline" fill="#B8C4DE" d="M806.8,292.1L806.8,292.1c-4.3,0-7.9-3.6-7.9-7.9v-7.4c0-4.3,3.6-7.9,7.9-7.9l0,0
		c4.3,0,7.9,3.6,7.9,7.9v7.4C814.7,288.6,811.1,292.1,806.8,292.1z"/>
	<path display="inline" fill="#B8C4DE" d="M812.9,262.2L812.9,262.2c-3.4,0-6.2-2.8-6.2-6.2v-4.3c0-3.4,2.8-6.2,6.2-6.2l0,0
		c3.4,0,6.2,2.8,6.2,6.2v4.3C819.1,259.4,816.3,262.2,812.9,262.2z"/>
	<path display="inline" fill="#B8C4DE" d="M817.7,242.4L817.7,242.4c-2.6,0-4.8-2.1-4.8-4.8v-21.2c0-2.6,2.1-4.8,4.8-4.8l0,0
		c2.6,0,4.8,2.1,4.8,4.8v21.2C822.5,240.2,820.3,242.4,817.7,242.4z"/>
	<path display="inline" fill="#B8C4DE" d="M787.7,185.4H612.5c-16.5,0-30-13.5-30-30V148c0-16.5,13.5-30,30-30h175.2
		c16.5,0,30,13.5,30,30v7.5C817.7,171.9,804.2,185.4,787.7,185.4z"/>
	<path display="inline" fill="#B8C4DE" d="M881.9,182.9H716.7c-16.5,0-30-13.5-30-30v-34.5c0-16.5,13.5-30,30-30h165.2
		c16.5,0,30,13.5,30,30v34.5C911.9,169.4,898.4,182.9,881.9,182.9z"/>
	<path display="inline" fill="#B8C4DE" d="M873.7,217.8L873.7,217.8c-5.2,0-9.5-4.3-9.5-9.5v-31.9c0-5.2,4.3-9.5,9.5-9.5h0
		c5.2,0,9.5,4.3,9.5,9.5v31.9C883.2,213.5,878.9,217.8,873.7,217.8z"/>
	<path display="inline" fill="#B8C4DE" d="M711.6,118.4h-38.7c-14.6,0-26.6-12-26.6-26.6v0c0-14.6,12-26.6,26.6-26.6h38.7
		c14.6,0,26.6,12,26.6,26.6v0C738.1,106.4,726.2,118.4,711.6,118.4z"/>
	<path display="inline" fill="#B8C4DE" d="M626.5,373.1h-85.1c-15.4,0-27.9-12.6-27.9-27.9v0c0-15.4,12.6-27.9,27.9-27.9h85.1
		c15.4,0,27.9,12.6,27.9,27.9v0C654.5,360.5,641.9,373.1,626.5,373.1z"/>
	<path display="inline" fill="#B8C4DE" d="M566.1,270.6h-34.9c-5.4,0-9.8-4.4-9.8-9.8v-0.2c0-5.4,4.4-9.8,9.8-9.8h34.9
		c5.4,0,9.8,4.4,9.8,9.8v0.2C575.9,266.2,571.5,270.6,566.1,270.6z"/>
	<path display="inline" fill="#B8C4DE" d="M474,390L474,390c-15.5,0-28.2-12.7-28.2-28.2v-8.6c0-15.5,12.7-28.2,28.2-28.2h0
		c15.5,0,28.2,12.7,28.2,28.2v8.6C502.1,377.3,489.5,390,474,390z"/>
	<path display="inline" fill="#B8C4DE" d="M465.7,396.7h-23.6c-13.1,0-23.8-10.7-23.8-23.8v0c0-13.1,10.7-23.8,23.8-23.8h23.6
		c13.1,0,23.8,10.7,23.8,23.8v0C489.5,386,478.8,396.7,465.7,396.7z"/>
</g>
<g id="sort_copy" display="none">
	<path display="inline" fill="#B8C4DE" d="M401.2,163.9h-10.1c-5.8,0-10.5-4.7-10.5-10.5v0c0-5.8,4.7-10.5,10.5-10.5h10.1
		c5.8,0,10.5,4.7,10.5,10.5v0C411.7,159.2,407,163.9,401.2,163.9z"/>
	<path display="inline" fill="#B8C4DE" d="M482.8,188h-12.2c-5.2,0-9.5-4.3-9.5-9.5v0c0-5.2,4.3-9.5,9.5-9.5h12.2
		c5.2,0,9.5,4.3,9.5,9.5v0C492.3,183.7,488,188,482.8,188z"/>
	<path display="inline" fill="#B8C4DE" d="M487.4,172.8h-3.1c-7.8,0-14.1-6.4-14.1-14.1v0c0-7.8,6.4-14.1,14.1-14.1h3.1
		c7.8,0,14.1,6.4,14.1,14.1v0C501.6,166.4,495.2,172.8,487.4,172.8z"/>
	<path display="inline" fill="#B8C4DE" d="M525.7,153.4h-24.4c-7.4,0-13.5-6.1-13.5-13.5v0c0-7.4,6.1-13.5,13.5-13.5h24.4
		c7.4,0,13.5,6.1,13.5,13.5v0C539.2,147.3,533.2,153.4,525.7,153.4z"/>
	<path display="inline" fill="#B8C4DE" d="M528.3,190.9L528.3,190.9c-8.1,0-14.7-6.6-14.7-14.7v-27.1c0-8.1,6.6-14.7,14.7-14.7h0
		c8.1,0,14.7,6.6,14.7,14.7v27.1C543,184.3,536.4,190.9,528.3,190.9z"/>
</g>
<g id="rød_copy" display="none">
	<path display="inline" fill="#B8C4DE" d="M63.6,179.8H42.1c-16.5,0-30-13.5-30-30v-6.6c0-16.5,13.5-30,30-30h21.5
		c16.5,0,30,13.5,30,30v6.6C93.6,166.3,80.1,179.8,63.6,179.8z"/>
	<path display="inline" fill="#B8C4DE" d="M213.6,209.9H112.2c-16.5,0-30-13.5-30-30v-22.6c0-16.5,13.5-30,30-30h101.5
		c16.5,0,30,13.5,30,30v22.6C243.6,196.4,230.1,209.9,213.6,209.9z"/>
	<path display="inline" fill="#B8C4DE" d="M256.3,270.6H139.9c-16.5,0-30-13.5-30-30v-21.5c0-16.5,13.5-30,30-30h116.4
		c16.5,0,30,13.5,30,30v21.5C286.3,257.1,272.8,270.6,256.3,270.6z"/>
	<path display="inline" fill="#B8C4DE" d="M238,171.5h17.6c10.7,0,19.5-8.8,19.5-19.5v0c0-10.7-8.8-19.5-19.5-19.5H238
		c-10.7,0-19.5,8.8-19.5,19.5v0C218.6,162.8,227.3,171.5,238,171.5z"/>
	<path display="inline" fill="#B8C4DE" d="M227.5,138.7h-11c-15.5,0-28.2-12.7-28.2-28.2v0c0-15.5,12.7-28.2,28.2-28.2h11
		c15.5,0,28.2,12.7,28.2,28.2v0C255.7,126,243,138.7,227.5,138.7z"/>
	<path display="inline" fill="#B8C4DE" d="M168.6,113.2h-10.4c-7.3,0-13.2-5.9-13.2-13.2v0c0-7.3,5.9-13.2,13.2-13.2h10.4
		c7.3,0,13.2,5.9,13.2,13.2v0C181.8,107.2,175.9,113.2,168.6,113.2z"/>
	<path display="inline" fill="#B8C4DE" d="M183.3,82.3h-9.9c-2.7,0-4.9-2.2-4.9-4.9v0c0-2.7,2.2-4.9,4.9-4.9h9.9
		c2.7,0,4.9,2.2,4.9,4.9v0C188.2,80,186,82.3,183.3,82.3z"/>
	<path display="inline" fill="#B8C4DE" d="M126.1,106.5h-0.5c-5.4,0-9.9-4.4-9.9-9.9v0c0-5.4,4.4-9.9,9.9-9.9h0.5
		c5.4,0,9.9,4.4,9.9,9.9v0C136,102.1,131.6,106.5,126.1,106.5z"/>
	<path display="inline" fill="#B8C4DE" d="M168.5,334.2L168.5,334.2c-10.8,0-19.7-8.9-19.7-19.7v-35.3c0-10.8,8.9-19.7,19.7-19.7h0
		c10.8,0,19.7,8.9,19.7,19.7v35.3C188.2,325.4,179.3,334.2,168.5,334.2z"/>
	<path display="inline" fill="#B8C4DE" d="M216.2,341.6h-25.6c-6.7,0-12.2-5.5-12.2-12.2v0c0-6.7,5.5-12.2,12.2-12.2h25.6
		c6.7,0,12.2,5.5,12.2,12.2v0C228.4,336.1,222.9,341.6,216.2,341.6z"/>
	<path display="inline" fill="#B8C4DE" d="M228.4,356.4L228.4,356.4c-5.4,0-9.9-4.4-9.9-9.9v-2.5c0-5.4,4.4-9.9,9.9-9.9h0
		c5.4,0,9.9,4.4,9.9,9.9v2.5C238.3,352,233.9,356.4,228.4,356.4z"/>
	<path display="inline" fill="#B8C4DE" d="M307.6,437.1h-39.3c-16.5,0-30-13.5-30-30v-20.6c0-16.5,13.5-30,30-30h39.3
		c16.5,0,30,13.5,30,30v20.6C337.6,423.6,324.1,437.1,307.6,437.1z"/>
	<path display="inline" fill="#B8C4DE" d="M291,469.7h-11.2c-12.7,0-23-10.4-23-23v0c0-12.7,10.4-23,23-23H291c12.7,0,23,10.4,23,23
		v0C314,459.3,303.7,469.7,291,469.7z"/>
	<path display="inline" fill="#B8C4DE" d="M269.4,440.8L269.4,440.8c-6.9,0-12.6,5.7-12.6,12.6v87.7c0,6.9,5.7,12.6,12.6,12.6h0
		c6.9,0,12.6-5.7,12.6-12.6v-87.7C282,446.5,276.3,440.8,269.4,440.8z"/>
	<path display="inline" fill="#B8C4DE" d="M279.8,557.9L279.8,557.9c7.6,0,13.9-6.3,13.9-13.9l0,0c0-7.6-6.3-13.9-13.9-13.9l0,0
		c-7.6,0-13.9,6.3-13.9,13.9l0,0C265.9,551.7,272.2,557.9,279.8,557.9z"/>
	<path display="inline" fill="#B8C4DE" d="M434.3,280.5h-4.1c-8.6,0-15.6-7-15.6-15.6v0c0-8.6,7-15.6,15.6-15.6h4.1
		c8.6,0,15.6,7,15.6,15.6v0C449.9,273.5,442.9,280.5,434.3,280.5z"/>
	<path display="inline" fill="#B8C4DE" d="M459.3,255.7h-12.8c-7.8,0-14.2-6.4-14.2-14.2v0c0-7.8,6.4-14.2,14.2-14.2h12.8
		c7.8,0,14.2,6.4,14.2,14.2v0C473.4,249.3,467.1,255.7,459.3,255.7z"/>
	<path display="inline" fill="#B8C4DE" d="M485.9,273.4L485.9,273.4c-2.9,0-5.3-2.4-5.3-5.3v-19.3c0-2.9,2.4-5.3,5.3-5.3l0,0
		c2.9,0,5.3,2.4,5.3,5.3v19.3C491.2,271,488.8,273.4,485.9,273.4z"/>
	<path display="inline" fill="#B8C4DE" d="M438.3,227.4L438.3,227.4c-4.5,0-8.2-3.7-8.2-8.2V189c0-4.5,3.7-8.2,8.2-8.2h0
		c4.5,0,8.2,3.7,8.2,8.2v30.2C446.4,223.7,442.8,227.4,438.3,227.4z"/>
	<path display="inline" fill="#B8C4DE" d="M421.6,213.7h-0.8c-2.6,0-4.8-2.2-4.8-4.8v0c0-2.6,2.2-4.8,4.8-4.8h0.8
		c2.6,0,4.8,2.2,4.8,4.8v0C426.4,211.5,424.2,213.7,421.6,213.7z"/>
	<path display="inline" fill="#B8C4DE" d="M724,332.6h-47.2c-13.6,0-24.7-11.1-24.7-24.7v0c0-13.6,11.1-24.7,24.7-24.7H724
		c13.6,0,24.7,11.1,24.7,24.7v0C748.7,321.5,737.6,332.6,724,332.6z"/>
	<path display="inline" fill="#B8C4DE" d="M712.6,374.4L712.6,374.4c-10.1,0-18.3-8.3-18.3-18.3v-25c0-10.1,8.3-18.3,18.3-18.3h0
		c10.1,0,18.3,8.3,18.3,18.3v25C731,366.1,722.7,374.4,712.6,374.4z"/>
	<path display="inline" fill="#B8C4DE" d="M715.6,390L715.6,390c-4.1,0-7.4-3.3-7.4-7.4v-12.7c0-4.1,3.3-7.4,7.4-7.4h0
		c4.1,0,7.4,3.3,7.4,7.4v12.7C723,386.6,719.6,390,715.6,390z"/>
	<path display="inline" fill="#B8C4DE" d="M758.2,365.5L758.2,365.5c-5.2,0-9.5-4.3-9.5-9.5v-13.9c0-5.2,4.3-9.5,9.5-9.5h0
		c5.2,0,9.5,4.3,9.5,9.5V356C767.7,361.2,763.4,365.5,758.2,365.5z"/>
	<path display="inline" fill="#B8C4DE" d="M756.5,390h-4.6c-4.3,0-7.8-3.5-7.8-7.8v0c0-4.3,3.5-7.8,7.8-7.8h4.6
		c4.3,0,7.8,3.5,7.8,7.8v0C764.3,386.5,760.8,390,756.5,390z"/>
	<path display="inline" fill="#B8C4DE" d="M749.3,404.7h-21.5c-2.7,0-4.8-2.2-4.8-4.8l0,0c0-2.7,2.2-4.8,4.8-4.8h21.5
		c2.7,0,4.8,2.2,4.8,4.8l0,0C754.2,402.5,752,404.7,749.3,404.7z"/>
	<path display="inline" fill="#B8C4DE" d="M199.6,53.4H197c-2.1,0-3.8-1.7-3.8-3.8v0c0-2.1,1.7-3.8,3.8-3.8h2.7
		c2.1,0,3.8,1.7,3.8,3.8v0C203.4,51.7,201.7,53.4,199.6,53.4z"/>
	<path display="inline" fill="#B8C4DE" d="M164.7,53.4h-5.8c-2.1,0-3.8-1.7-3.8-3.8v0c0-2.1,1.7-3.8,3.8-3.8h5.8
		c2.1,0,3.8,1.7,3.8,3.8v0C168.5,51.7,166.8,53.4,164.7,53.4z"/>
	<path display="inline" fill="#B8C4DE" d="M221.5,68.8H207c-2,0-3.6-1.6-3.6-3.6v0c0-2,1.6-3.6,3.6-3.6h14.5c2,0,3.6,1.6,3.6,3.6v0
		C225.1,67.2,223.5,68.8,221.5,68.8z"/>
	<path display="inline" fill="#B8C4DE" d="M500.2,253.1h-17.6c-9.7,0-17.7-7.9-17.7-17.7v0c0-9.7,7.9-17.7,17.7-17.7h17.6
		c9.7,0,17.7,7.9,17.7,17.7v0C517.8,245.1,509.9,253.1,500.2,253.1z"/>
	<path display="inline" fill="#B8C4DE" d="M506.8,268.9h4.9c6.4,0,11.7-5.3,11.7-11.7v0c0-6.4-5.3-11.7-11.7-11.7h-4.9
		c-6.4,0-11.7,5.3-11.7,11.7v0C495.1,263.7,500.4,268.9,506.8,268.9z"/>
	<path display="inline" fill="#B8C4DE" d="M438.6,356.4h-10.3c-10.8,0-19.6-8.8-19.6-19.6v0c0-10.8,8.8-19.6,19.6-19.6h10.3
		c10.8,0,19.6,8.8,19.6,19.6v0C458.2,347.6,449.4,356.4,438.6,356.4z"/>
	<path display="inline" fill="#B8C4DE" d="M487.3,338.8H435c-14.4,0-26.3-11.8-26.3-26.3v0c0-14.4,11.8-26.3,26.3-26.3h52.3
		c14.4,0,26.3,11.8,26.3,26.3v0C513.6,326.9,501.7,338.8,487.3,338.8z"/>
	<path display="inline" fill="#B8C4DE" d="M516.6,342.4h-4.3c-13.7,0-24.8-11.2-24.8-24.8v-3c0-13.7,11.2-24.8,24.8-24.8h4.3
		c13.7,0,24.8,11.2,24.8,24.8v3C541.5,331.2,530.3,342.4,516.6,342.4z"/>
	<path display="inline" fill="#B8C4DE" d="M568,313.4h-26.5c-15.4,0-27.9,12.6-27.9,27.9v3.8c0,15.4,12.6,27.9,27.9,27.9H568
		c15.4,0,27.9-12.6,27.9-27.9v-3.8C595.9,326,583.4,313.4,568,313.4z"/>
	<path display="inline" fill="#B8C4DE" d="M636.2,338.8H589c-7.7,0-14-6.3-14-14V322c0-7.7,6.3-14,14-14h47.1c7.7,0,14,6.3,14,14
		v2.8C650.2,332.4,643.9,338.8,636.2,338.8z"/>
	<path display="inline" fill="#B8C4DE" d="M633.5,374.4h-51.8c-11.5,0-21-9.4-21-21v0c0-11.5,9.4-21,21-21h51.8c11.5,0,21,9.4,21,21
		v0C654.5,364.9,645,374.4,633.5,374.4z"/>
	<path display="inline" fill="#B8C4DE" d="M677.5,353.1h-34.3c-16.5,0-30-13.5-30-30v-19.4c0-16.5,13.5-30,30-30h34.3
		c16.5,0,30,13.5,30,30v19.4C707.5,339.6,694,353.1,677.5,353.1z"/>
	<path display="inline" fill="#B8C4DE" d="M809.8,413.2h-4.2c-7.7,0-13.9-6.3-13.9-13.9v0c0-7.7,6.3-13.9,13.9-13.9h4.2
		c7.7,0,13.9,6.3,13.9,13.9v0C823.7,406.9,817.5,413.2,809.8,413.2z"/>
</g>
<g id="grøn_copy" display="none">
	<path display="inline" fill="#B8C4DE" d="M317.8,432.1h-23.7c-15.9,0-28.9-13-28.9-28.9v0c0-15.9,13-28.9,28.9-28.9h23.7
		c15.9,0,28.9,13,28.9,28.9v0C346.7,419.1,333.7,432.1,317.8,432.1z"/>
	<path display="inline" fill="#B8C4DE" d="M339.7,471h-29.9c-16.5,0-30-13.5-30-30v-7.8c0-16.5,13.5-30,30-30h29.9
		c16.5,0,30,13.5,30,30v7.8C369.7,457.5,356.2,471,339.7,471z"/>
	<path display="inline" fill="#B8C4DE" d="M293.9,506.5L293.9,506.5c-6.6,0-12-5.4-12-12v-29.1c0-6.6,5.4-12,12-12h0
		c6.6,0,12,5.4,12,12v29.1C305.9,501.1,300.5,506.5,293.9,506.5z"/>
	<path display="inline" fill="#B8C4DE" d="M517.4,239h-6.9c-3.3,0-6-2.7-6-6v0c0-3.3,2.7-6,6-6h6.9c3.3,0,6,2.7,6,6v0
		C523.4,236.3,520.7,239,517.4,239z"/>
	<path display="inline" fill="#B8C4DE" d="M529.1,255.7h-11.4c-5.6,0-10.2-4.6-10.2-10.2v0c0-5.6,4.6-10.2,10.2-10.2h11.4
		c5.6,0,10.2,4.6,10.2,10.2v0C539.2,251.2,534.7,255.7,529.1,255.7z"/>
	<path display="inline" fill="#B8C4DE" d="M543,265.1L543,265.1c-6.6,0-12-5.4-12-12v0c0-6.6,5.4-12,12-12l0,0c6.6,0,12,5.4,12,12v0
		C555,259.7,549.6,265.1,543,265.1z"/>
	<path display="inline" fill="#B8C4DE" d="M608.3,280.5h-32.5c-8.3,0-15.1,6.8-15.1,15.1v0.1c0,8.3,6.8,15.1,15.1,15.1h32.5
		c8.3,0,15.1-6.8,15.1-15.1v-0.1C623.4,287.3,616.6,280.5,608.3,280.5z"/>
</g>
<g id="lilla_copy" display="none">
	<path display="inline" fill="#B8C4DE" d="M746.2,446.9v27.4c0,11.8,9.7,21.5,21.5,21.5h62.4c11.8,0,21.5-9.7,21.5-21.5v-27.4
		c0-11.8-9.7-21.5-21.5-21.5h-62.4C755.8,425.4,746.2,435.1,746.2,446.9z"/>
</g>
<g id="lilla">
	<path fill="#6C5388" d="M746.2,446.9v27.4c0,11.8,9.7,21.5,21.5,21.5h62.4c11.8,0,21.5-9.7,21.5-21.5v-27.4
		c0-11.8-9.7-21.5-21.5-21.5h-62.4C755.8,425.4,746.2,435.1,746.2,446.9z"/>
</g>
<g id="sort" display="none">
	<path display="inline" fill="#212121" d="M401.2,163.9h-10.1c-5.8,0-10.5-4.7-10.5-10.5v0c0-5.8,4.7-10.5,10.5-10.5h10.1
		c5.8,0,10.5,4.7,10.5,10.5v0C411.7,159.2,407,163.9,401.2,163.9z"/>
	<path display="inline" fill="#212121" d="M482.8,188h-12.2c-5.2,0-9.5-4.3-9.5-9.5v0c0-5.2,4.3-9.5,9.5-9.5h12.2
		c5.2,0,9.5,4.3,9.5,9.5v0C492.3,183.7,488,188,482.8,188z"/>
	<path display="inline" fill="#212121" d="M487.4,172.8h-3.1c-7.8,0-14.1-6.4-14.1-14.1v0c0-7.8,6.4-14.1,14.1-14.1h3.1
		c7.8,0,14.1,6.4,14.1,14.1v0C501.6,166.4,495.2,172.8,487.4,172.8z"/>
	<path display="inline" fill="#212121" d="M525.7,153.4h-24.4c-7.4,0-13.5-6.1-13.5-13.5v0c0-7.4,6.1-13.5,13.5-13.5h24.4
		c7.4,0,13.5,6.1,13.5,13.5v0C539.2,147.3,533.2,153.4,525.7,153.4z"/>
	<path display="inline" fill="#212121" d="M528.3,190.9L528.3,190.9c-8.1,0-14.7-6.6-14.7-14.7v-27.1c0-8.1,6.6-14.7,14.7-14.7h0
		c8.1,0,14.7,6.6,14.7,14.7v27.1C543,184.3,536.4,190.9,528.3,190.9z"/>
</g>
<g id="rød" display="none">
	<path display="inline" fill="#BE9494" d="M63.6,179.8H42.1c-16.5,0-30-13.5-30-30v-6.6c0-16.5,13.5-30,30-30h21.5
		c16.5,0,30,13.5,30,30v6.6C93.6,166.3,80.1,179.8,63.6,179.8z"/>
	<path display="inline" fill="#BE9494" d="M213.6,209.9H112.2c-16.5,0-30-13.5-30-30v-22.6c0-16.5,13.5-30,30-30h101.5
		c16.5,0,30,13.5,30,30v22.6C243.6,196.4,230.1,209.9,213.6,209.9z"/>
	<path display="inline" fill="#BE9494" d="M256.3,270.6H139.9c-16.5,0-30-13.5-30-30v-21.5c0-16.5,13.5-30,30-30h116.4
		c16.5,0,30,13.5,30,30v21.5C286.3,257.1,272.8,270.6,256.3,270.6z"/>
	<path display="inline" fill="#BE9494" d="M238,171.5h17.6c10.7,0,19.5-8.8,19.5-19.5v0c0-10.7-8.8-19.5-19.5-19.5H238
		c-10.7,0-19.5,8.8-19.5,19.5v0C218.6,162.8,227.3,171.5,238,171.5z"/>
	<path display="inline" fill="#BE9494" d="M227.5,138.7h-11c-15.5,0-28.2-12.7-28.2-28.2v0c0-15.5,12.7-28.2,28.2-28.2h11
		c15.5,0,28.2,12.7,28.2,28.2v0C255.7,126,243,138.7,227.5,138.7z"/>
	<path display="inline" fill="#BE9494" d="M168.6,113.2h-10.4c-7.3,0-13.2-5.9-13.2-13.2v0c0-7.3,5.9-13.2,13.2-13.2h10.4
		c7.3,0,13.2,5.9,13.2,13.2v0C181.8,107.2,175.9,113.2,168.6,113.2z"/>
	<path display="inline" fill="#BE9494" d="M183.3,82.3h-9.9c-2.7,0-4.9-2.2-4.9-4.9v0c0-2.7,2.2-4.9,4.9-4.9h9.9
		c2.7,0,4.9,2.2,4.9,4.9v0C188.2,80,186,82.3,183.3,82.3z"/>
	<path display="inline" fill="#BE9494" d="M126.1,106.5h-0.5c-5.4,0-9.9-4.4-9.9-9.9v0c0-5.4,4.4-9.9,9.9-9.9h0.5
		c5.4,0,9.9,4.4,9.9,9.9v0C136,102.1,131.6,106.5,126.1,106.5z"/>
	<path display="inline" fill="#BE9494" d="M168.5,334.2L168.5,334.2c-10.8,0-19.7-8.9-19.7-19.7v-35.3c0-10.8,8.9-19.7,19.7-19.7h0
		c10.8,0,19.7,8.9,19.7,19.7v35.3C188.2,325.4,179.3,334.2,168.5,334.2z"/>
	<path display="inline" fill="#BE9494" d="M216.2,341.6h-25.6c-6.7,0-12.2-5.5-12.2-12.2v0c0-6.7,5.5-12.2,12.2-12.2h25.6
		c6.7,0,12.2,5.5,12.2,12.2v0C228.4,336.1,222.9,341.6,216.2,341.6z"/>
	<path display="inline" fill="#BE9494" d="M228.4,356.4L228.4,356.4c-5.4,0-9.9-4.4-9.9-9.9v-2.5c0-5.4,4.4-9.9,9.9-9.9h0
		c5.4,0,9.9,4.4,9.9,9.9v2.5C238.3,352,233.9,356.4,228.4,356.4z"/>
	<path display="inline" fill="#BE9494" d="M307.6,437.1h-39.3c-16.5,0-30-13.5-30-30v-20.6c0-16.5,13.5-30,30-30h39.3
		c16.5,0,30,13.5,30,30v20.6C337.6,423.6,324.1,437.1,307.6,437.1z"/>
	<path display="inline" fill="#BE9494" d="M291,469.7h-11.2c-12.7,0-23-10.4-23-23v0c0-12.7,10.4-23,23-23H291c12.7,0,23,10.4,23,23
		v0C314,459.3,303.7,469.7,291,469.7z"/>
	<path display="inline" fill="#BE9494" d="M269.4,440.8L269.4,440.8c-6.9,0-12.6,5.7-12.6,12.6v87.7c0,6.9,5.7,12.6,12.6,12.6h0
		c6.9,0,12.6-5.7,12.6-12.6v-87.7C282,446.5,276.3,440.8,269.4,440.8z"/>
	<path display="inline" fill="#BE9494" d="M279.8,557.9L279.8,557.9c7.6,0,13.9-6.3,13.9-13.9l0,0c0-7.6-6.3-13.9-13.9-13.9l0,0
		c-7.6,0-13.9,6.3-13.9,13.9l0,0C265.9,551.7,272.2,557.9,279.8,557.9z"/>
	<path display="inline" fill="#BE9494" d="M434.3,280.5h-4.1c-8.6,0-15.6-7-15.6-15.6v0c0-8.6,7-15.6,15.6-15.6h4.1
		c8.6,0,15.6,7,15.6,15.6v0C449.9,273.5,442.9,280.5,434.3,280.5z"/>
	<path display="inline" fill="#BE9494" d="M459.3,255.7h-12.8c-7.8,0-14.2-6.4-14.2-14.2v0c0-7.8,6.4-14.2,14.2-14.2h12.8
		c7.8,0,14.2,6.4,14.2,14.2v0C473.4,249.3,467.1,255.7,459.3,255.7z"/>
	<path display="inline" fill="#BE9494" d="M485.9,273.4L485.9,273.4c-2.9,0-5.3-2.4-5.3-5.3v-19.3c0-2.9,2.4-5.3,5.3-5.3l0,0
		c2.9,0,5.3,2.4,5.3,5.3v19.3C491.2,271,488.8,273.4,485.9,273.4z"/>
	<path display="inline" fill="#BE9494" d="M438.3,227.4L438.3,227.4c-4.5,0-8.2-3.7-8.2-8.2V189c0-4.5,3.7-8.2,8.2-8.2h0
		c4.5,0,8.2,3.7,8.2,8.2v30.2C446.4,223.7,442.8,227.4,438.3,227.4z"/>
	<path display="inline" fill="#BE9494" d="M421.6,213.7h-0.8c-2.6,0-4.8-2.2-4.8-4.8v0c0-2.6,2.2-4.8,4.8-4.8h0.8
		c2.6,0,4.8,2.2,4.8,4.8v0C426.4,211.5,424.2,213.7,421.6,213.7z"/>
	<path display="inline" fill="#BE9494" d="M724,332.6h-47.2c-13.6,0-24.7-11.1-24.7-24.7v0c0-13.6,11.1-24.7,24.7-24.7H724
		c13.6,0,24.7,11.1,24.7,24.7v0C748.7,321.5,737.6,332.6,724,332.6z"/>
	<path display="inline" fill="#BE9494" d="M712.6,374.4L712.6,374.4c-10.1,0-18.3-8.3-18.3-18.3v-25c0-10.1,8.3-18.3,18.3-18.3h0
		c10.1,0,18.3,8.3,18.3,18.3v25C731,366.1,722.7,374.4,712.6,374.4z"/>
	<path display="inline" fill="#BE9494" d="M715.6,390L715.6,390c-4.1,0-7.4-3.3-7.4-7.4v-12.7c0-4.1,3.3-7.4,7.4-7.4h0
		c4.1,0,7.4,3.3,7.4,7.4v12.7C723,386.6,719.6,390,715.6,390z"/>
	<path display="inline" fill="#BE9494" d="M758.2,365.5L758.2,365.5c-5.2,0-9.5-4.3-9.5-9.5v-13.9c0-5.2,4.3-9.5,9.5-9.5h0
		c5.2,0,9.5,4.3,9.5,9.5V356C767.7,361.2,763.4,365.5,758.2,365.5z"/>
	<path display="inline" fill="#BE9494" d="M756.5,390h-4.6c-4.3,0-7.8-3.5-7.8-7.8v0c0-4.3,3.5-7.8,7.8-7.8h4.6
		c4.3,0,7.8,3.5,7.8,7.8v0C764.3,386.5,760.8,390,756.5,390z"/>
	<path display="inline" fill="#BE9494" d="M749.3,404.7h-21.5c-2.7,0-4.8-2.2-4.8-4.8l0,0c0-2.7,2.2-4.8,4.8-4.8h21.5
		c2.7,0,4.8,2.2,4.8,4.8l0,0C754.2,402.5,752,404.7,749.3,404.7z"/>
	<path display="inline" fill="#BE9494" d="M199.6,53.4H197c-2.1,0-3.8-1.7-3.8-3.8v0c0-2.1,1.7-3.8,3.8-3.8h2.7
		c2.1,0,3.8,1.7,3.8,3.8v0C203.4,51.7,201.7,53.4,199.6,53.4z"/>
	<path display="inline" fill="#BE9494" d="M164.7,53.4h-5.8c-2.1,0-3.8-1.7-3.8-3.8v0c0-2.1,1.7-3.8,3.8-3.8h5.8
		c2.1,0,3.8,1.7,3.8,3.8v0C168.5,51.7,166.8,53.4,164.7,53.4z"/>
	<path display="inline" fill="#BE9494" d="M221.5,68.8H207c-2,0-3.6-1.6-3.6-3.6v0c0-2,1.6-3.6,3.6-3.6h14.5c2,0,3.6,1.6,3.6,3.6v0
		C225.1,67.2,223.5,68.8,221.5,68.8z"/>
	<path display="inline" fill="#BE9494" d="M500.2,253.1h-17.6c-9.7,0-17.7-7.9-17.7-17.7v0c0-9.7,7.9-17.7,17.7-17.7h17.6
		c9.7,0,17.7,7.9,17.7,17.7v0C517.8,245.1,509.9,253.1,500.2,253.1z"/>
	<path display="inline" fill="#BE9494" d="M506.8,268.9h4.9c6.4,0,11.7-5.3,11.7-11.7v0c0-6.4-5.3-11.7-11.7-11.7h-4.9
		c-6.4,0-11.7,5.3-11.7,11.7v0C495.1,263.7,500.4,268.9,506.8,268.9z"/>
	<path display="inline" fill="#BE9494" d="M438.6,356.4h-10.3c-10.8,0-19.6-8.8-19.6-19.6v0c0-10.8,8.8-19.6,19.6-19.6h10.3
		c10.8,0,19.6,8.8,19.6,19.6v0C458.2,347.6,449.4,356.4,438.6,356.4z"/>
	<path display="inline" fill="#BE9494" d="M487.3,338.8H435c-14.4,0-26.3-11.8-26.3-26.3v0c0-14.4,11.8-26.3,26.3-26.3h52.3
		c14.4,0,26.3,11.8,26.3,26.3v0C513.6,326.9,501.7,338.8,487.3,338.8z"/>
	<path display="inline" fill="#BE9494" d="M516.6,342.4h-4.3c-13.7,0-24.8-11.2-24.8-24.8v-3c0-13.7,11.2-24.8,24.8-24.8h4.3
		c13.7,0,24.8,11.2,24.8,24.8v3C541.5,331.2,530.3,342.4,516.6,342.4z"/>
	<path display="inline" fill="#BE9494" d="M568,313.4h-26.5c-15.4,0-27.9,12.6-27.9,27.9v3.8c0,15.4,12.6,27.9,27.9,27.9H568
		c15.4,0,27.9-12.6,27.9-27.9v-3.8C595.9,326,583.4,313.4,568,313.4z"/>
	<path display="inline" fill="#BE9494" d="M636.2,338.8H589c-7.7,0-14-6.3-14-14V322c0-7.7,6.3-14,14-14h47.1c7.7,0,14,6.3,14,14
		v2.8C650.2,332.4,643.9,338.8,636.2,338.8z"/>
	<path display="inline" fill="#BE9494" d="M633.5,374.4h-51.8c-11.5,0-21-9.4-21-21v0c0-11.5,9.4-21,21-21h51.8c11.5,0,21,9.4,21,21
		v0C654.5,364.9,645,374.4,633.5,374.4z"/>
	<path display="inline" fill="#BE9494" d="M677.5,353.1h-34.3c-16.5,0-30-13.5-30-30v-19.4c0-16.5,13.5-30,30-30h34.3
		c16.5,0,30,13.5,30,30v19.4C707.5,339.6,694,353.1,677.5,353.1z"/>
	<path display="inline" fill="#BE9494" d="M809.8,413.2h-4.2c-7.7,0-13.9-6.3-13.9-13.9v0c0-7.7,6.3-13.9,13.9-13.9h4.2
		c7.7,0,13.9,6.3,13.9,13.9v0C823.7,406.9,817.5,413.2,809.8,413.2z"/>
</g>
<g id="grøn" display="none">
	<path display="inline" fill="#538D73" d="M317.8,432.1h-23.7c-15.9,0-28.9-13-28.9-28.9v0c0-15.9,13-28.9,28.9-28.9h23.7
		c15.9,0,28.9,13,28.9,28.9v0C346.7,419.1,333.7,432.1,317.8,432.1z"/>
	<path display="inline" fill="#538D73" d="M339.7,471h-29.9c-16.5,0-30-13.5-30-30v-7.8c0-16.5,13.5-30,30-30h29.9
		c16.5,0,30,13.5,30,30v7.8C369.7,457.5,356.2,471,339.7,471z"/>
	<path display="inline" fill="#538D73" d="M293.9,506.5L293.9,506.5c-6.6,0-12-5.4-12-12v-29.1c0-6.6,5.4-12,12-12h0
		c6.6,0,12,5.4,12,12v29.1C305.9,501.1,300.5,506.5,293.9,506.5z"/>
	<path display="inline" fill="#538D73" d="M517.4,239h-6.9c-3.3,0-6-2.7-6-6v0c0-3.3,2.7-6,6-6h6.9c3.3,0,6,2.7,6,6v0
		C523.4,236.3,520.7,239,517.4,239z"/>
	<path display="inline" fill="#538D73" d="M529.1,255.7h-11.4c-5.6,0-10.2-4.6-10.2-10.2v0c0-5.6,4.6-10.2,10.2-10.2h11.4
		c5.6,0,10.2,4.6,10.2,10.2v0C539.2,251.2,534.7,255.7,529.1,255.7z"/>
	<path display="inline" fill="#538D73" d="M543,265.1L543,265.1c-6.6,0-12-5.4-12-12v0c0-6.6,5.4-12,12-12l0,0c6.6,0,12,5.4,12,12v0
		C555,259.7,549.6,265.1,543,265.1z"/>
	<path display="inline" fill="#538D73" d="M608.3,280.5h-32.5c-8.3,0-15.1,6.8-15.1,15.1v0.1c0,8.3,6.8,15.1,15.1,15.1h32.5
		c8.3,0,15.1-6.8,15.1-15.1v-0.1C623.4,287.3,616.6,280.5,608.3,280.5z"/>
</g>
<g id="hvis_ovenpå" display="none">
	<path display="inline" fill="#B8C4DE" d="M331.6,385.3L331.6,385.3c-6.7,0-12.2-5.5-12.2-12.2v0c0-6.7,5.5-12.2,12.2-12.2h0
		c6.7,0,12.2,5.5,12.2,12.2v0C343.9,379.8,338.4,385.3,331.6,385.3z"/>
	<path display="inline" fill="#B8C4DE" d="M326.7,376.3L326.7,376.3c-4,0-7.3-3.3-7.3-7.3v-5c0-4,3.3-7.3,7.3-7.3h0
		c4,0,7.3,3.3,7.3,7.3v5C333.9,373,330.7,376.3,326.7,376.3z"/>
	<path display="inline" fill="#B8C4DE" d="M248,201.1h-40.9c-4.8,0-8.8-4-8.8-8.8v0c0-4.8,4-8.8,8.8-8.8H248c4.8,0,8.8,4,8.8,8.8v0
		C256.8,197.1,252.9,201.1,248,201.1z"/>
	<path display="inline" fill="#B8C4DE" d="M517.8,163.9L517.8,163.9c-3.8,0-7-3.1-7-7v-5.5c0-3.8,3.1-7,7-7h0c3.8,0,7,3.1,7,7v5.5
		C524.8,160.8,521.6,163.9,517.8,163.9z"/>
	<path display="inline" fill="#B8C4DE" d="M492.3,258.4L492.3,258.4c-3.5,0-6.4-2.9-6.4-6.4v-2.2c0-3.5,2.9-6.4,6.4-6.4l0,0
		c3.5,0,6.4,2.9,6.4,6.4v2.2C498.7,255.5,495.8,258.4,492.3,258.4z"/>
	<path display="inline" fill="#B8C4DE" d="M480.7,221.4L480.7,221.4c-4,0-7.2-3.2-7.2-7.2v-10.4c0-4,3.2-7.2,7.2-7.2h0
		c4,0,7.2,3.2,7.2,7.2v10.4C487.9,218.1,484.6,221.4,480.7,221.4z"/>
	<path display="inline" fill="#B8C4DE" d="M418.2,342.4L418.2,342.4c-5.2,0-9.5-4.3-9.5-9.5v-15.6c0-5.2,4.3-9.5,9.5-9.5l0,0
		c5.2,0,9.5,4.3,9.5,9.5v15.6C427.8,338.1,423.5,342.4,418.2,342.4z"/>
	<path display="inline" fill="#B8C4DE" d="M568.3,376.3L568.3,376.3c-4.2,0-7.6-3.4-7.6-7.6v-36.3c0-4.2,3.4-7.6,7.6-7.6h0
		c4.2,0,7.6,3.4,7.6,7.6v36.3C575.9,372.8,572.5,376.3,568.3,376.3z"/>
	<path display="inline" fill="#B8C4DE" d="M624.6,356.7L624.6,356.7c-3.9,0-7.2-3.2-7.2-7.2v-10c0-3.9,3.2-7.2,7.2-7.2l0,0
		c3.9,0,7.2,3.2,7.2,7.2v10C631.7,353.5,628.5,356.7,624.6,356.7z"/>
	<path display="inline" fill="#B8C4DE" d="M624.7,345.2h15.7c3.1,0,5.6,2.5,5.6,5.6l0,0c0,3.1-2.5,5.6-5.6,5.6h-15.7
		c-3.1,0-5.6-2.5-5.6-5.6l0,0C619.1,347.7,621.6,345.2,624.7,345.2z"/>
	<path display="inline" fill="#B8C4DE" d="M690.7,317.2L690.7,317.2c-8.9,0-16.1-7.3-16.1-16.1v-22.8c0-8.9,7.3-16.1,16.1-16.1l0,0
		c8.9,0,16.1,7.3,16.1,16.1v22.8C706.9,310,699.6,317.2,690.7,317.2z"/>
</g>
</svg>
