<?xml version="1.0" encoding="utf-8"?>
<!-- Generator: Adobe Illustrator 24.0.1, SVG Export Plug-In . SVG Version: 6.00 Build 0)  -->
<svg version="1.1" id="Layer_1" xmlns="http://www.w3.org/2000/svg" xmlns:xlink="http://www.w3.org/1999/xlink" x="0px" y="0px"
	 viewBox="0 0 1920 553.9" style="enable-background:new 0 0 1920 553.9;" xml:space="preserve">
<style type="text/css">
	.st0{clip-path:url(#SVGID_2_);enable-background:new    ;}
	.st1{clip-path:url(#SVGID_4_);}
	.st2{clip-path:url(#SVGID_6_);}
	.st3{fill:#1D1D1B;}
	.st4{font-family:'AvenirNext-Regular';}
	.st5{font-size:29.323px;}
	.st6{letter-spacing:-1;}
	.st7{clip-path:url(#SVGID_2_);fill:#1D1D1B;}
</style>
<g>
	<defs>
		<rect id="SVGID_1_" x="677.8" y="201.9" width="564.4" height="150.1"/>
	</defs>
	<clipPath id="SVGID_2_">
		<use xlink:href="#SVGID_1_"  style="overflow:visible;"/>
	</clipPath>
	<g class="st0">
		<g>
			<defs>
				<rect id="SVGID_3_" x="915.8" y="311.7" width="324.5" height="40.4"/>
			</defs>
			<clipPath id="SVGID_4_">
				<use xlink:href="#SVGID_3_"  style="overflow:visible;"/>
			</clipPath>
			<g class="st1">
				<defs>
					<rect id="SVGID_5_" x="915.8" y="311.7" width="324.5" height="40.4"/>
				</defs>
				<clipPath id="SVGID_6_">
					<use xlink:href="#SVGID_5_"  style="overflow:visible;"/>
				</clipPath>
				<g class="st2">
					<text transform="matrix(1 0 0 1.088 915.7979 338.8977)"><tspan x="0" y="0" class="st3 st4 st5">MUSEUM&amp;</tspan><tspan x="148.1" y="0" class="st3 st4 st5">S</tspan><tspan x="164.1" y="0" class="st3 st4 st5 st6">TA</tspan><tspan x="197.9" y="0" class="st3 st4 st5">TUE</tspan><tspan x="252.8" y="0" class="st3 st4 st5 st6">P</tspan><tspan x="268.1" y="0" class="st3 st4 st5">ARK</tspan></text>
				</g>
			</g>
		</g>
	</g>
	<path class="st7" d="M785.9,259.4H825v-18.3h-39.1v-17.7h41.3v-19h-63.3v94.1h65.7V279h-43.7V259.4z M889.4,261.3h17.9v17.2
		c-2,0.9-4.2,1.5-6.6,1.8c-2.4,0.4-5,0.6-7.6,0.6c-4.6,0-8.7-0.7-12.4-2.2c-3.7-1.5-6.6-3.5-9-6.1c-2.4-2.6-4.2-5.7-5.5-9.4
		c-1.3-3.7-1.8-7.6-1.8-12c0-4.2,0.7-8.1,2-11.8c1.3-3.5,3.3-6.6,5.7-9.2c2.4-2.6,5.4-4.6,8.9-6.1c3.3-1.5,7-2.2,11.1-2.2
		c4.6,0,8.7,0.7,12.4,2.4c3.7,1.7,6.6,3.7,8.9,6.3l14.4-16.4c-4.1-3.9-9.2-6.8-15.5-9c-6.5-2.2-13.3-3.3-20.7-3.3
		c-7.2,0-13.8,1.1-20.1,3.5c-6.3,2.2-11.6,5.5-16.2,10c-4.6,4.2-8.3,9.4-10.9,15.7c-2.6,6.1-3.9,12.9-3.9,20.5
		c0,7.4,1.3,14.2,3.9,20.3c2.6,6.1,6.1,11.3,10.7,15.7c4.6,4.4,10,7.7,16.4,10.1c6.3,2.4,13.3,3.5,20.8,3.5c7.2,0,14-0.7,20.1-2.2
		c6.1-1.5,11.6-3.5,16-5.9V243h-38.7v18.3H889.4z M677.8,223.8h26.6v74.7H727v-74.7h26.6v-19.4h-75.8V223.8z M948.6,298.4h37.6
		L948,236.9L948.6,298.4z M1030.6,259.4h39.1v-18.3h-39.1v-17.7h41.3v-19h-63.3v94.1h65.7V279h-43.7V259.4z M952.3,204.5l37.6,61.4
		l-0.2-61.4H952.3z M1156.1,248.9c3.5-4.4,5.2-9.8,5.2-16c0-5.3-1.1-10-3.1-13.5c-2-3.7-4.8-6.6-8.1-8.9c-3.3-2.2-7.2-3.9-11.6-4.8
		c-4.2-0.9-8.7-1.5-13.3-1.5h-35.8v94.1h22.1v-37.3h7.7l20.5,37.3h26.6l-24.5-40.2C1147.8,256.3,1152.6,253.2,1156.1,248.9
		 M1137.3,239.1c-1.1,1.5-2.4,2.6-3.9,3.5c-1.7,0.7-3.3,1.3-5.4,1.7c-2,0.4-3.9,0.6-5.7,0.6h-10.9v-22.1h12.2c1.7,0,3.5,0.2,5.3,0.4
		s3.5,0.7,5,1.5c1.5,0.7,2.6,1.8,3.7,3.1c0.9,1.3,1.5,3.1,1.5,5.3C1138.7,235.6,1138.2,237.5,1137.3,239.1 M1231.9,250.2
		c-2.8-2.2-5.9-3.9-9.4-5.2c-3.5-1.3-6.8-2.4-10-3.5c-2.2-0.7-4.2-1.5-5.9-2c-1.8-0.7-3.3-1.5-4.6-2.2c-1.3-0.7-2.2-1.7-3-2.8
		c-0.7-1.1-0.9-2.4-0.9-4.1c0-1.8,0.4-3.3,1.3-4.6c0.9-1.1,1.8-2.2,3.1-3c1.3-0.7,2.6-1.3,4.2-1.5c1.5-0.2,3.1-0.4,4.6-0.4
		c3,0,5.9,0.7,9,2.2c3.1,1.5,5.7,3.5,7.6,5.9l14.4-15.3c-4.2-3.9-9-6.6-14.6-8.7c-5.5-2-10.9-3-16.2-3c-4.4,0-8.9,0.6-13.1,1.7
		c-4.4,1.1-8.3,2.8-11.6,5.2c-3.5,2.4-6.3,5.5-8.3,9.2c-2.2,3.7-3.1,8.1-3.1,13.5c0,4.2,0.7,7.9,2,10.9c1.3,3,3.1,5.5,5.5,7.6
		c2.2,2,4.8,3.9,7.7,5.2c3,1.3,5.9,2.4,8.9,3.5c3.1,0.9,5.9,1.8,8.3,2.8c2.4,0.9,4.4,1.8,6.1,2.8c1.7,1.1,2.9,2.2,3.9,3.3
		c0.9,1.3,1.3,2.8,1.3,4.4c0,1.8-0.4,3.5-1.1,4.8c-0.7,1.3-1.7,2.4-2.8,3.1c-1.1,0.7-2.6,1.3-4.2,1.7c-1.7,0.4-3.3,0.6-5,0.6
		c-3.7,0-7.4-0.9-11.3-2.8c-3.7-1.8-6.8-4.2-9-7.2l-14.9,15.1c4.2,4.4,9.4,7.7,15.7,10c6.3,2.4,12.7,3.5,19.6,3.5
		c4.6,0,9-0.6,13.5-1.8c4.4-1.3,8.1-3.1,11.6-5.7c3.3-2.6,6.1-5.9,8.1-9.8c2-3.9,3-8.7,3-14c0-4.6-0.9-8.7-2.8-11.8
		C1237,255,1234.6,252.4,1231.9,250.2"/>
</g>
</svg>
