<?xml version="1.0" encoding="utf-8"?>
<!-- Generator: Adobe Illustrator 24.0.1, SVG Export Plug-In . SVG Version: 6.00 Build 0)  -->
<svg version="1.1" id="Layer_1" xmlns="http://www.w3.org/2000/svg" xmlns:xlink="http://www.w3.org/1999/xlink" x="0px" y="0px"
	 viewBox="0 0 1920 553.9" style="enable-background:new 0 0 1920 553.9;" xml:space="preserve">
<style type="text/css">
	.st0{clip-path:url(#SVGID_2_);fill:#FFFFFF;}
</style>
<g>
	<defs>
		<rect id="SVGID_1_" x="741.5" y="206.5" width="437" height="141"/>
	</defs>
	<clipPath id="SVGID_2_">
		<use xlink:href="#SVGID_1_"  style="overflow:visible;"/>
	</clipPath>
	<path class="st0" d="M819.3,308.8c-1.3,0-2.3-1-2.3-2.3v-3.3c0-2.4,1-4.8,2.7-6.5c0.5-0.6,1.2-1,1.8-1.4
		c5.9-3.4,10.4-8.2,13.2-14.1c2.4-4.9,3.5-10.3,3.2-15.8c-0.3-5.4-1.9-10.6-4.6-15.2c-2.8-4.7-6.8-8.6-11.5-11.3
		c-4.9-2.8-10.5-4.4-16.2-4.4c-4.7,0-9.4,1-13.6,2.9c-5.3,2.4-9.9,6.3-13.3,11.1c-2.8,4-4.7,8.7-5.4,13.5c-0.7,4.4-0.4,9.1,0.7,13.4
		c1.4,5.3,4.2,10.2,8,14.2c2.1,2.2,4.4,4,7,5.5c0.3,0.2,0.7,0.4,1,0.6c2.3,1.7,3.7,4.4,3.8,7.2l0,3.6c0,1.3-1,2.3-2.3,2.3
		c-1.3,0-2.3-1-2.3-2.3v-3.3c-0.1-1.5-0.8-2.9-1.9-3.7c-0.2-0.1-0.4-0.2-0.6-0.4c-2.9-1.7-5.6-3.8-8-6.3c-4.4-4.6-7.6-10.2-9.2-16.3
		c-1.3-4.9-1.6-10.2-0.8-15.3c0.9-5.5,3-10.9,6.2-15.5c3.8-5.5,9.1-9.9,15.2-12.7c4.8-2.2,10.1-3.3,15.3-3.3c6.7,0,13.1,1.8,18.7,5
		c5.4,3.1,9.9,7.6,13.2,12.9c3.2,5.2,5,11.2,5.3,17.4c0.3,6.2-1,12.5-3.7,18c-3.3,6.7-8.4,12.2-14.9,16c-0.4,0.3-0.8,0.5-1,0.8
		c-0.8,0.8-1.3,2.1-1.3,3.2v3.3C821.6,307.8,820.5,308.8,819.3,308.8"/>
	<path class="st0" d="M789.6,326.7c-0.7,0-1.5-0.4-1.9-1.1c-0.6-1-0.3-2.4,0.8-3l29.9-17.6c1-0.6,2.4-0.3,3,0.8c0.6,1,0.3,2.4-0.8,3
		l-29.9,17.6C790.3,326.6,790,326.7,789.6,326.7"/>
	<path class="st0" d="M789.6,337.1c-0.7,0-1.5-0.4-1.9-1.1c-0.6-1-0.3-2.4,0.8-3l29.9-17.6c1-0.6,2.4-0.3,3,0.8c0.6,1,0.3,2.4-0.8,3
		l-29.9,17.6C790.3,337,790,337.1,789.6,337.1"/>
	<path class="st0" d="M789.6,347.4c-0.7,0-1.5-0.4-1.9-1.1c-0.6-1-0.3-2.4,0.8-3l29.9-17.6c1-0.6,2.4-0.3,3,0.8c0.6,1,0.3,2.4-0.8,3
		l-29.9,17.6C790.3,347.3,790,347.4,789.6,347.4"/>
	<path class="st0" d="M806.2,227.4c-1.3,0-2.3-1-2.3-2.3v-16.3c0-1.3,1-2.3,2.3-2.3s2.3,1,2.3,2.3V225
		C808.5,226.3,807.5,227.4,806.2,227.4"/>
	<path class="st0" d="M774,239.4c-0.6,0-1.2-0.2-1.6-0.7l-11.6-11.4c-0.9-0.9-0.9-2.4,0-3.3c0.9-0.9,2.4-0.9,3.3,0l11.6,11.4
		c0.9,0.9,0.9,2.4,0,3.3C775.2,239.2,774.6,239.4,774,239.4"/>
	<path class="st0" d="M743.8,271.2c-1.3,0-2.3-1-2.3-2.3c0-1.3,1-2.3,2.3-2.4l16.3-0.4h0.1c1.3,0,2.3,1,2.3,2.3c0,1.3-1,2.3-2.3,2.4
		L743.8,271.2L743.8,271.2z"/>
	<path class="st0" d="M761.7,314.6c-0.6,0-1.1-0.2-1.6-0.6c-0.9-0.9-1-2.3-0.1-3.3l11.1-11.9c0.9-0.9,2.3-1,3.3-0.1
		c0.9,0.9,1,2.3,0.1,3.3l-11.1,11.9C763,314.4,762.3,314.6,761.7,314.6"/>
	<path class="st0" d="M848.3,313.4c-0.6,0-1.1-0.2-1.5-0.6l-12.1-10.9c-1-0.9-1-2.3-0.2-3.3c0.9-1,2.3-1,3.3-0.2l12.1,10.9
		c1,0.9,1,2.3,0.2,3.3C849.6,313.1,848.9,313.4,848.3,313.4"/>
	<path class="st0" d="M848.7,270.5c-1.2,0-2.2-0.9-2.3-2.2c-0.1-1.3,0.9-2.4,2.2-2.5l16.2-1.1c1.3,0,2.4,0.9,2.5,2.2
		c0.1,1.3-0.9,2.4-2.2,2.5l-16.2,1.1C848.8,270.5,848.8,270.5,848.7,270.5"/>
	<path class="st0" d="M834.6,239.2c-0.5,0-1.1-0.2-1.5-0.6c-1-0.8-1.1-2.3-0.3-3.3l10.6-12.3c0.8-1,2.3-1.1,3.3-0.2
		c1,0.8,1.1,2.3,0.2,3.3l-10.6,12.3C835.9,238.9,835.2,239.2,834.6,239.2"/>
	<path class="st0" d="M964.3,342.6c-18.6,0-33.7-15.1-33.7-33.7c0-15.8,11.2-29.7,26.6-33l1.9-0.4V269h3.5c1.3,0,2.4-1.1,2.4-2.4
		c0-1.3-1.1-2.4-2.4-2.4h-3.5v-4.3h3.5c1.3,0,2.4-1.1,2.4-2.4c0-1.3-1.1-2.4-2.4-2.4h-3.5v-9.2h11.7v29.9l1.8,0.5
		c15,3.8,25.4,17.2,25.4,32.6C998.1,327.5,982.9,342.6,964.3,342.6 M956.3,236.6h17.4c1.2,0,2.2,1,2.2,2.2c0,1.2-1,2.2-2.2,2.2
		h-17.4c-1.2,0-2.2-1-2.2-2.2C954.1,237.6,955.1,236.6,956.3,236.6 M975.7,272.1v-26.9c2.8-0.8,4.8-3.4,4.8-6.5c0-3.7-3-6.8-6.8-6.8
		h-17.4c-3.7,0-6.8,3-6.8,6.8c0,3.1,2,5.6,4.8,6.5v26.4c-16.6,4.5-28.5,19.8-28.5,37.2c0,21.3,17.3,38.5,38.5,38.5
		s38.5-17.3,38.5-38.5C1002.9,291.9,991.8,277,975.7,272.1"/>
	<path class="st0" d="M964.3,335.8c-13.9,0-25.3-10.7-26.5-24.3l9.2,0v-2.2c0-2.1,1.7-3.8,3.8-3.8c2.1,0,3.8,1.7,3.8,3.8l0,2.2h36
		C989.6,325.1,978.2,335.8,964.3,335.8 M958.9,307c-1-3.5-4.2-6.1-8-6.1c-3.8,0-7,2.6-8,6.1h-9.6v2.2c0,17.1,13.9,31,31,31
		c17.1,0,31-13.9,31-31V307H958.9z"/>
	<path class="st0" d="M983.3,219.8c0.1,0,0.1,0,0.2,0c1.6,0.1,2.7,1.4,2.7,3c0,0.8-0.4,1.4-0.9,1.9c-0.6,0.5-1.3,0.7-2,0.7
		c-1.6-0.1-2.7-1.4-2.7-3C980.6,221,981.8,219.8,983.3,219.8 M982.9,230.1c0.1,0,0.3,0,0.4,0c1.8,0,3.6-0.7,4.9-1.9
		c1.5-1.3,2.4-3.1,2.5-5.1c0.2-4.1-2.9-7.6-7-7.8c-4-0.3-7.6,2.9-7.8,7C975.7,226.3,978.8,229.8,982.9,230.1"/>
	<path class="st0" d="M938.3,234.2C938.3,234.2,938.3,234.3,938.3,234.2c0.9,0,1.4,0.7,1.4,1.5c0,0.4-0.2,0.7-0.5,1
		c-0.3,0.2-0.7,0.3-1,0.4h0c-0.4,0-0.7-0.2-1-0.5c-0.2-0.3-0.4-0.6-0.4-1C936.9,234.8,937.6,234.2,938.3,234.2 M938,241.6
		c0.1,0,0.2,0,0.4,0c1.5,0,2.9-0.5,4-1.5c1.2-1.1,1.9-2.5,2-4.1c0.2-3.3-2.3-6.2-5.7-6.3c-3.3-0.2-6.2,2.3-6.3,5.7
		c-0.1,1.6,0.4,3.1,1.5,4.3C934.9,240.8,936.3,241.6,938,241.6"/>
	<path class="st0" d="M957.2,211.3c0.5-0.2,0.9-0.2,1.4-0.2c0.6,0,1.2,0.1,1.8,0.4c1,0.5,1.8,1.3,2.1,2.4c0.8,2.2-0.4,4.6-2.6,5.3
		c-1.1,0.4-2.2,0.3-3.2-0.2c-1-0.5-1.8-1.3-2.1-2.4C953.9,214.5,955,212.1,957.2,211.3 M954.8,223.2c1.2,0.6,2.5,0.9,3.8,0.9
		c1,0,2-0.2,2.9-0.5v0c4.6-1.6,7-6.6,5.4-11.2c-0.8-2.2-2.4-4-4.5-5c-2.1-1-4.5-1.2-6.7-0.4c-4.6,1.6-7,6.6-5.4,11.2
		C951,220.4,952.6,222.2,954.8,223.2"/>
	<path class="st0" d="M1076.7,321.8l9.9,7.4l-10.4,3.5L1076.7,321.8z M1150.5,220.3c0.5-0.7,1.4-1.1,2.4-1.2
		c1.2-0.1,2.4,0.3,3.4,1.1l6,4.5c1,0.8,1.7,1.8,2,3c0.2,1,0.1,1.9-0.5,2.6l-6,8l-13.3-10L1150.5,220.3z M1141.6,232.1l4.7,3.6
		l-63.6,84.6l-4.7-3.6L1141.6,232.1z M1086.5,323.2l63.6-84.6l4.7,3.6l-63.6,84.6L1086.5,323.2z M1093.6,331.5l65.8-87.5
		c0.3-0.2,0.7-0.4,0.9-0.7c0.2-0.3,0.4-0.7,0.4-1l6.8-9.1c1.4-1.8,1.9-4.2,1.3-6.6c-0.5-2.2-1.8-4.3-3.8-5.8l-5.9-4.5
		c-2-1.5-4.3-2.2-6.6-2.1c-2.4,0.2-4.6,1.3-5.9,3.1l-74,98.3l-0.4,0.6l-1.1,23.3l22.1-7.5L1093.6,331.5
		C1093.6,331.5,1093.6,331.5,1093.6,331.5C1093.6,331.5,1093.6,331.5,1093.6,331.5"/>
	<path class="st0" d="M1146,327.6c-3.3-4.4-2.6-8.9-2.2-10.5l5.9-4.6c2.1,0.1,7.9,0.7,10.7,4.3c1.9,2.6,1.9,5.7,2,8.3
		c0,2.3,0.1,4.5,1.3,6.2c0.6,0.7,1.2,1.3,1.9,1.8C1160.6,335.1,1152.4,336.1,1146,327.6 M1126.7,301.6l10.2-13.6
		c9.4,13.4,10.7,20.1,9.2,21.2l-4.8,3.6C1140.5,313.5,1136.3,312.6,1126.7,301.6 M1171.9,330.6c-0.6-0.1-3.3-0.6-4.3-2
		c-0.3-0.4-0.4-2.2-0.4-3.4c-0.1-3.1-0.1-7.3-3-11.1c-3.5-4.5-9.5-5.7-12.9-6c0.1-5.4-4.1-13.9-12.5-25.4l-1.9-2.6l-16.4,21.8
		l1.2,1.5c7.2,8.6,12.7,13.3,17,14.4c-0.4,3-0.3,8,3.4,12.9c5,6.6,11.1,8.7,16.7,8.7c5.7,0,11-2.2,14.1-4.3l5.5-3.7L1171.9,330.6z"
		/>
	<path class="st0" d="M1108.4,254l-7.9,10.7c-17.2-26.6-23.7-39.6-25.3-44.4C1078.5,222.4,1087.1,229.7,1108.4,254 M1100.2,273
		l14.3-19.3l-1.3-1.5c-36.3-41.4-39.6-38.9-41.9-37c-2.2,1.7-5.8,4.6,27,54.9L1100.2,273z"/>
</g>
</svg>
