<?xml version="1.0" encoding="utf-8"?>
<!-- Generator: Adobe Illustrator 24.0.1, SVG Export Plug-In . SVG Version: 6.00 Build 0)  -->
<svg version="1.1" id="Layer_1" xmlns="http://www.w3.org/2000/svg" xmlns:xlink="http://www.w3.org/1999/xlink" x="0px" y="0px"
	 viewBox="0 0 1920 553.9" style="enable-background:new 0 0 1920 553.9;" xml:space="preserve">
<style type="text/css">
	.st0{clip-path:url(#SVGID_2_);fill:none;stroke:#FFFFFF;stroke-width:4.6744;stroke-miterlimit:10;}
	.st1{clip-path:url(#SVGID_2_);fill:#FFFFFF;}
	.st2{clip-path:url(#SVGID_2_);fill:none;stroke:#FFFFFF;stroke-width:1.5581;stroke-miterlimit:10;}
</style>
<g>
	<defs>
		<rect id="SVGID_1_" x="848.7" y="165.7" width="222.5" height="222.5"/>
	</defs>
	<clipPath id="SVGID_2_">
		<use xlink:href="#SVGID_1_"  style="overflow:visible;"/>
	</clipPath>
	<path class="st0" d="M1054.4,257.8c-7.6-37.2-37.1-66.7-74.3-74.5"/>
	<path class="st0" d="M941.5,183.1c-37.7,7.5-67.5,37.1-75.3,74.6"/>
	<path class="st0" d="M980.1,371.4c37.4-7.8,66.8-37.4,74.5-74.9"/>
	<path class="st0" d="M866.2,296.4c7.6,37.9,37.4,67.6,75.3,75.3"/>
	<path class="st1" d="M951.9,187.4c0,0,3.9,1.4,4.2,6.5l11.4,0.3c0,0,0.8-4.2-4.5-6.9H951.9z"/>
	<path class="st1" d="M936.5,190.2c0,0,4.1,0.6,5.3,5.6l11.2-1.7c0,0,0.2-4.2-5.6-5.9L936.5,190.2z"/>
	<path class="st1" d="M921.8,195.5c0,0,4.1,0,6.1,4.7l10.8-3.6c0,0-0.6-4.2-6.5-4.8L921.8,195.5z"/>
	<path class="st1" d="M908.3,203.2c0,0,4.1-0.8,6.9,3.6l10-5.3c0,0-1.4-4.1-7.3-3.7L908.3,203.2z"/>
	<path class="st1" d="M896.3,213.4c0,0,3.7-1.4,7.3,2.3l8.9-7c0,0-2-3.7-7.8-2.3L896.3,213.4z"/>
	<path class="st1" d="M886.3,225.4c0,0,3.4-2,7.6,0.9l7.5-8.4c0,0-2.6-3.3-8.1-0.9L886.3,225.4z"/>
	<path class="st1" d="M878.5,238.9c0,0,3.1-2.6,7.6-0.3l5.9-9.7c0,0-3.1-2.8-8.1,0.5L878.5,238.9z"/>
	<path class="st1" d="M873.2,253.6c0,0,2.5-3.1,7.5-1.7l4.2-10.6c0,0-3.6-2.2-7.9,1.9L873.2,253.6z"/>
	<path class="st1" d="M870.4,269c0,0,2-3.6,7.2-3l2.3-11.1c0,0-3.9-1.6-7.5,3.3L870.4,269z"/>
	<path class="st1" d="M870.4,284.6c0,0,1.4-3.9,6.5-4.2l0.3-11.4c0,0-4.2-0.8-6.9,4.5V284.6z"/>
	<path class="st1" d="M873.2,300c0,0,0.6-4.1,5.6-5.3l-1.7-11.2c0,0-4.2-0.2-5.9,5.6L873.2,300z"/>
	<path class="st1" d="M878.5,314.8c0,0,0-4.1,4.7-6.1l-3.6-10.8c0,0-4.2,0.6-4.8,6.5L878.5,314.8z"/>
	<path class="st1" d="M886.5,328.2c0,0-0.8-4.1,3.6-6.9l-5.3-10c0,0-4.1,1.4-3.7,7.3L886.5,328.2z"/>
	<path class="st1" d="M896.4,340.2c0,0-1.4-3.7,2.3-7.3l-7-8.9c0,0-3.7,2-2.3,7.8L896.4,340.2z"/>
	<path class="st1" d="M908.4,350.3c0,0-2-3.4,0.9-7.6l-8.4-7.5c0,0-3.3,2.6-0.9,8.1L908.4,350.3z"/>
	<path class="st1" d="M922,358.1c0,0-2.6-3.1-0.3-7.6l-9.7-5.9c0,0-2.8,3.1,0.5,8.1L922,358.1z"/>
	<path class="st1" d="M936.6,363.4c0,0-3.1-2.5-1.7-7.5l-10.6-4.2c0,0-2.2,3.6,1.9,7.9L936.6,363.4z"/>
	<path class="st1" d="M952.1,366.1c0,0-3.6-2-3-7.2l-11.1-2.3c0,0-1.6,3.9,3.3,7.5L952.1,366.1z"/>
	<path class="st1" d="M967.8,366.1c0,0-3.9-1.4-4.2-6.5l-11.4-0.3c0,0-0.8,4.2,4.5,6.9H967.8z"/>
	<path class="st1" d="M983.1,363.4c0,0-4.1-0.6-5.3-5.6l-11.2,1.7c0,0-0.2,4.2,5.6,5.9L983.1,363.4z"/>
	<path class="st1" d="M997.9,358c0,0-4.1,0-6.1-4.7l-10.8,3.6c0,0,0.6,4.2,6.5,4.8L997.9,358z"/>
	<path class="st1" d="M1011.4,350.2c0,0-4.1,0.8-6.9-3.6l-10,5.3c0,0,1.4,4,7.3,3.7L1011.4,350.2z"/>
	<path class="st1" d="M1023.3,340.1c0,0-3.7,1.4-7.3-2.3l-8.9,7c0,0,2,3.7,7.8,2.3L1023.3,340.1z"/>
	<path class="st1" d="M1033.4,328.1c0,0-3.4,2-7.6-0.9l-7.5,8.4c0,0,2.6,3.3,8.1,0.9L1033.4,328.1z"/>
	<path class="st1" d="M1041.2,314.5c0,0-3.1,2.6-7.6,0.3l-5.9,9.7c0,0,3.1,2.8,8.1-0.5L1041.2,314.5z"/>
	<path class="st1" d="M1046.5,299.9c0,0-2.5,3.1-7.5,1.7l-4.2,10.6c0,0,3.6,2.2,7.9-1.9L1046.5,299.9z"/>
	<path class="st1" d="M1049.1,284.4c0,0-2,3.6-7.2,3l-2.3,11.1c0,0,3.9,1.6,7.5-3.3L1049.1,284.4z"/>
	<path class="st1" d="M1049.1,268.8c0,0-1.4,3.9-6.5,4.2l-0.3,11.4c0,0,4.2,0.8,6.9-4.5V268.8z"/>
	<path class="st1" d="M1046.5,253.4c0,0-0.6,4.1-5.6,5.3l1.7,11.2c0,0,4.2,0.2,5.9-5.6L1046.5,253.4z"/>
	<path class="st1" d="M1041,238.8c0,0,0,4.1-4.7,6.1l3.6,10.8c0,0,4.2-0.6,4.8-6.5L1041,238.8z"/>
	<path class="st1" d="M1033.2,225.2c0,0,0.8,4.1-3.6,6.9l5.3,10c0,0,4.1-1.4,3.7-7.3L1033.2,225.2z"/>
	<path class="st1" d="M1023.1,213.2c0,0,1.4,3.7-2.3,7.3l7,8.9c0,0,3.7-2,2.3-7.8L1023.1,213.2z"/>
	<path class="st1" d="M1011.3,203.2c0,0,2,3.4-0.9,7.6l8.4,7.5c0,0,3.3-2.6,0.9-8.1L1011.3,203.2z"/>
	<path class="st1" d="M997.7,195.5c0,0,2.6,3.1,0.3,7.6l9.7,5.9c0,0,2.8-3.1-0.5-8.1L997.7,195.5z"/>
	<path class="st1" d="M982.9,190c0,0,3.1,2.5,1.7,7.5l10.6,4.2c0,0,2.2-3.6-1.9-7.9L982.9,190z"/>
	<path class="st1" d="M967.5,187.4c0,0,3.6,2,3,7.2l11.1,2.3c0,0,1.6-3.9-3.3-7.5L967.5,187.4z"/>
	<polygon class="st1" points="955,174.4 960.2,165.7 965.1,174.6 970.3,183.3 960.2,183.3 950,183.1 	"/>
	<polygon class="st1" points="857.5,281.9 848.7,276.8 857.6,271.8 866.4,266.8 866.4,276.9 866.4,287.1 	"/>
	<polygon class="st1" points="965,379.5 959.8,388.2 954.9,379.5 949.9,370.6 960,370.7 970.1,370.7 	"/>
	<polygon class="st1" points="1062.5,272 1071.3,277.1 1062.5,282.1 1053.6,287.2 1053.8,277.1 1053.8,267 	"/>
	<path class="st1" d="M918.2,303.9c-1.4,1.4-3.1,2-5.1,2c-2,0-3.7-0.6-5.1-2c-1.4-1.4-2-3.1-2-5.3v-47.7c0-2,0.6-3.7,2-5.1
		s3.1-2.2,5.1-2.2c2,0,3.7,0.8,5.1,2.2s2,3.1,2,5.1v4.8h-1.4v-4.8c0-1.6-0.6-3-1.7-4.2c-1.1-1.1-2.5-1.7-4.1-1.7
		c-1.6,0-3,0.6-4.1,1.7s-1.7,2.5-1.7,4.2v47.8c0,1.6,0.6,3,1.7,4.2c1.1,1.1,2.5,1.7,4.1,1.7c1.6,0,3-0.6,4.1-1.7
		c1.1-1.1,1.7-2.5,1.7-4.2v-23.4h-6.1V274h7.5v24.8C920.4,300.8,919.6,302.5,918.2,303.9"/>
	<path class="st2" d="M918.2,303.9c-1.4,1.4-3.1,2-5.1,2c-2,0-3.7-0.6-5.1-2c-1.4-1.4-2-3.1-2-5.3v-47.7c0-2,0.6-3.7,2-5.1
		s3.1-2.2,5.1-2.2c2,0,3.7,0.8,5.1,2.2s2,3.1,2,5.1v4.8h-1.4v-4.8c0-1.6-0.6-3-1.7-4.2c-1.1-1.1-2.5-1.7-4.1-1.7
		c-1.6,0-3,0.6-4.1,1.7s-1.7,2.5-1.7,4.2v47.8c0,1.6,0.6,3,1.7,4.2c1.1,1.1,2.5,1.7,4.1,1.7c1.6,0,3-0.6,4.1-1.7
		c1.1-1.1,1.7-2.5,1.7-4.2v-23.4h-6.1V274h7.5v24.8C920.4,300.8,919.6,302.5,918.2,303.9z"/>
	<path class="st1" d="M939.3,303.9c-1.4,1.4-3.1,2-5.1,2s-3.7-0.6-5.1-2c-1.4-1.4-2-3.1-2-5.3v-31.8c0-2,0.6-3.7,2-5.1
		c1.4-1.4,3.1-2.2,5.1-2.2s3.7,0.8,5.1,2.2c1.4,1.4,2,3.1,2,5.1v31.8C941.3,300.8,940.7,302.5,939.3,303.9 M930.2,302.8
		c1.1,1.1,2.5,1.7,4.1,1.7c1.6,0,3-0.6,4.1-1.7s1.7-2.5,1.7-4.2v-31.8c0-1.6-0.6-3-1.7-4.1c-1.1-1.2-2.5-1.7-4.1-1.7
		c-1.6,0-3,0.6-4.1,1.7c-1.1,1.2-1.7,2.5-1.7,4.1v31.8C928.5,300.3,929,301.7,930.2,302.8"/>
	<path class="st2" d="M939.3,303.9c-1.4,1.4-3.1,2-5.1,2s-3.7-0.6-5.1-2c-1.4-1.4-2-3.1-2-5.3v-31.8c0-2,0.6-3.7,2-5.1
		c1.4-1.4,3.1-2.2,5.1-2.2s3.7,0.8,5.1,2.2c1.4,1.4,2,3.1,2,5.1v31.8C941.3,300.8,940.7,302.5,939.3,303.9z M930.2,302.8
		c1.1,1.1,2.5,1.7,4.1,1.7c1.6,0,3-0.6,4.1-1.7s1.7-2.5,1.7-4.2v-31.8c0-1.6-0.6-3-1.7-4.1c-1.1-1.2-2.5-1.7-4.1-1.7
		c-1.6,0-3,0.6-4.1,1.7c-1.1,1.2-1.7,2.5-1.7,4.1v31.8C928.5,300.3,929,301.7,930.2,302.8z"/>
	<path class="st1" d="M954.5,243.4c0.9,0,1.9,0.2,2.8,0.6s1.6,0.9,2.3,1.6c0.6,0.6,1.1,1.4,1.6,2.3c0.5,0.9,0.6,1.9,0.6,2.8v16.7
		c0,1.4-0.3,2.8-1.1,3.9c-0.8,1.1-1.7,2-3,2.6c1.2,0.6,2.2,1.6,3,2.6c0.8,1.1,1.1,2.5,1.1,3.9v17.9c0,2.2-0.8,3.9-2.2,5.3
		c-1.4,1.4-3.1,2-5,2h-6.5v-62.3H954.5z M958.6,271.7c1.1-1.1,1.7-2.5,1.7-4.2v-16.5c0-1.6-0.6-3-1.7-4.2c-1.1-1.1-2.5-1.7-4.1-1.7
		h-5.1v28.4h5.1C956.1,273.4,957.5,272.9,958.6,271.7 M949.6,304.5h5.1c1.6,0,3-0.6,4.1-1.7c1.1-1.1,1.7-2.5,1.7-4.2v-17.9
		c0-1.6-0.6-3-1.7-4.2c-1.1-1.1-2.5-1.7-4.1-1.7h-5.1V304.5z"/>
	<path class="st2" d="M954.5,243.4c0.9,0,1.9,0.2,2.8,0.6s1.6,0.9,2.3,1.6c0.6,0.6,1.1,1.4,1.6,2.3c0.5,0.9,0.6,1.9,0.6,2.8v16.7
		c0,1.4-0.3,2.8-1.1,3.9c-0.8,1.1-1.7,2-3,2.6c1.2,0.6,2.2,1.6,3,2.6c0.8,1.1,1.1,2.5,1.1,3.9v17.9c0,2.2-0.8,3.9-2.2,5.3
		c-1.4,1.4-3.1,2-5,2h-6.5v-62.3H954.5z M958.6,271.7c1.1-1.1,1.7-2.5,1.7-4.2v-16.5c0-1.6-0.6-3-1.7-4.2c-1.1-1.1-2.5-1.7-4.1-1.7
		h-5.1v28.4h5.1C956.1,273.4,957.5,272.9,958.6,271.7z M949.6,304.5h5.1c1.6,0,3-0.6,4.1-1.7c1.1-1.1,1.7-2.5,1.7-4.2v-17.9
		c0-1.6-0.6-3-1.7-4.2c-1.1-1.1-2.5-1.7-4.1-1.7h-5.1V304.5z"/>
	<path class="st1" d="M980.6,303.9c-1.4,1.4-3.1,2-5.1,2c-2,0-3.7-0.6-5.1-2c-1.4-1.4-2-3.1-2-5.3v-31.8c0-2,0.6-3.7,2-5.1
		c1.4-1.4,3.1-2.2,5.1-2.2c2,0,3.7,0.8,5.1,2.2c1.4,1.4,2,3.1,2,5.1v31.8C982.7,300.8,982,302.5,980.6,303.9 M971.5,302.8
		c1.1,1.1,2.5,1.7,4.1,1.7s3-0.6,4-1.7c1.1-1.1,1.7-2.5,1.7-4.2v-31.8c0-1.6-0.6-3-1.7-4.1c-1.1-1.2-2.5-1.7-4-1.7s-3,0.6-4.1,1.7
		c-1.1,1.2-1.7,2.5-1.7,4.1v31.8C969.8,300.3,970.4,301.7,971.5,302.8"/>
	<path class="st2" d="M980.6,303.9c-1.4,1.4-3.1,2-5.1,2c-2,0-3.7-0.6-5.1-2c-1.4-1.4-2-3.1-2-5.3v-31.8c0-2,0.6-3.7,2-5.1
		c1.4-1.4,3.1-2.2,5.1-2.2c2,0,3.7,0.8,5.1,2.2c1.4,1.4,2,3.1,2,5.1v31.8C982.7,300.8,982,302.5,980.6,303.9z M971.5,302.8
		c1.1,1.1,2.5,1.7,4.1,1.7s3-0.6,4-1.7c1.1-1.1,1.7-2.5,1.7-4.2v-31.8c0-1.6-0.6-3-1.7-4.1c-1.1-1.2-2.5-1.7-4-1.7s-3,0.6-4.1,1.7
		c-1.1,1.2-1.7,2.5-1.7,4.1v31.8C969.8,300.3,970.4,301.7,971.5,302.8z"/>
	<path class="st1" d="M1002.2,306.1v-3c-1.4,1.9-3.3,3-5.8,3c-2,0-3.7-0.8-5.1-2.2c-1.4-1.4-2-3.1-2-5.1v-13.1c0-2,0.6-3.7,2-5.1
		c1.4-1.4,3.1-2.2,5.1-2.2c1.2,0,2.3,0.3,3.3,0.8c0.9,0.5,1.7,1.2,2.5,2.2V267c0-1.6-0.6-3-1.7-4.1c-1.1-1.2-2.5-1.7-4.1-1.7
		c-1.6,0-3,0.6-4.1,1.7c-1.1,1.2-1.7,2.5-1.7,4.1v4.8h-1.4V267c0-2,0.6-3.7,2-5.1c1.4-1.4,3.1-2.2,5.1-2.2c2,0,3.7,0.8,5.1,2.2
		c1.4,1.4,2,3.1,2,5.1v39.1H1002.2z M992.6,302.8c1.1,1.1,2.5,1.7,4.1,1.7c1.6,0,3-0.6,4-1.7c1.1-1.1,1.7-2.5,1.7-4.2v-13.1
		c0-1.6-0.6-3-1.7-4c-1.1-1.2-2.5-1.7-4-1.7c-1.6,0-3,0.6-4.1,1.7c-1.1,1.2-1.7,2.5-1.7,4v13.1C990.9,300.3,991.5,301.7,992.6,302.8
		"/>
	<path class="st2" d="M1002.2,306.1v-3c-1.4,1.9-3.3,3-5.8,3c-2,0-3.7-0.8-5.1-2.2c-1.4-1.4-2-3.1-2-5.1v-13.1c0-2,0.6-3.7,2-5.1
		c1.4-1.4,3.1-2.2,5.1-2.2c1.2,0,2.3,0.3,3.3,0.8c0.9,0.5,1.7,1.2,2.5,2.2V267c0-1.6-0.6-3-1.7-4.1c-1.1-1.2-2.5-1.7-4.1-1.7
		c-1.6,0-3,0.6-4.1,1.7c-1.1,1.2-1.7,2.5-1.7,4.1v4.8h-1.4V267c0-2,0.6-3.7,2-5.1c1.4-1.4,3.1-2.2,5.1-2.2c2,0,3.7,0.8,5.1,2.2
		c1.4,1.4,2,3.1,2,5.1v39.1H1002.2z M992.6,302.8c1.1,1.1,2.5,1.7,4.1,1.7c1.6,0,3-0.6,4-1.7c1.1-1.1,1.7-2.5,1.7-4.2v-13.1
		c0-1.6-0.6-3-1.7-4c-1.1-1.2-2.5-1.7-4-1.7c-1.6,0-3,0.6-4.1,1.7c-1.1,1.2-1.7,2.5-1.7,4v13.1C990.9,300.3,991.5,301.7,992.6,302.8
		z"/>
	<path class="st1" d="M1019.4,305.9c-1.9,0-3.6-0.6-5-2c-1.4-1.4-2.2-3.1-2.2-5.3v-37.6h-3.9v-1.4h4.1v-11.4h1.4v11.4h6.1v1.4h-6.1
		v37.7c0,1.6,0.6,3,1.9,4.2c1.2,1.1,2.6,1.7,4.4,1.7v0.9L1019.4,305.9z"/>
	<path class="st2" d="M1019.4,305.9c-1.9,0-3.6-0.6-5-2c-1.4-1.4-2.2-3.1-2.2-5.3v-37.6h-3.9v-1.4h4.1v-11.4h1.4v11.4h6.1v1.4h-6.1
		v37.7c0,1.6,0.6,3,1.9,4.2c1.2,1.1,2.6,1.7,4.4,1.7v0.9L1019.4,305.9z"/>
</g>
</svg>
