<?xml version="1.0" encoding="utf-8"?>
<!-- Generator: Adobe Illustrator 24.0.1, SVG Export Plug-In . SVG Version: 6.00 Build 0)  -->
<svg version="1.1" id="Layer_1" xmlns="http://www.w3.org/2000/svg" xmlns:xlink="http://www.w3.org/1999/xlink" x="0px" y="0px"
	 viewBox="0 0 1920 553.9" style="enable-background:new 0 0 1920 553.9;" xml:space="preserve">
<style type="text/css">
	.st0{fill:#FFFFFF;}
</style>
<g>
	<g>
		<path class="st0" d="M836.9,429.5c-0.7,0.7-1.5,1.1-2.5,1.5c-1,0.3-2.1,0.4-3.2,0.4c-2.4,0-4.4-0.7-5.7-2.1c-1.4-1.4-2-3.2-2-5.7
			v-18.5h-5.2v-2.3h5.2v-6.2h2.7v6.2h9v2.3h-9v18.4c0,1.8,0.4,3.2,1.3,4.2c1,1,2.2,1.4,3.9,1.4s3.2-0.6,4.4-1.7L836.9,429.5z"/>
		<path class="st0" d="M867.4,417.6h-24.4c0.1,2.2,0.6,4.2,1.7,5.9c1,1.7,2.4,3,4.3,3.9c1.7,1,3.8,1.4,6,1.4c1.8,0,3.6-0.3,5.1-1
			c1.7-0.7,2.9-1.7,3.9-3l1.7,1.7c-1.3,1.5-2.8,2.7-4.6,3.5c-1.8,0.8-3.9,1.1-6,1.1c-2.8,0-5.3-0.6-7.6-1.8
			c-2.2-1.3-3.9-2.9-5.2-5.1c-1.3-2.2-1.8-4.6-1.8-7.4c0-2.8,0.6-5.2,1.7-7.4s2.8-3.9,4.9-5.1c2.1-1.3,4.4-1.8,7-1.8s4.9,0.6,7,1.8
			c2.1,1.1,3.7,2.9,4.9,5.1c1.1,2.2,1.7,4.6,1.7,7.4L867.4,417.6z M848.5,406.3c-1.7,1-2.9,2.1-3.8,3.7c-1,1.7-1.5,3.5-1.7,5.5h21.7
			c-0.1-2-0.7-3.8-1.7-5.5c-1-1.7-2.3-2.9-3.8-3.7c-1.7-1-3.4-1.4-5.3-1.4C851.9,404.9,850.1,405.5,848.5,406.3z"/>
		<path class="st0" d="M882.5,404.2c1.8-1.1,4.1-1.7,6.7-1.7v2.7h-0.7c-3.1,0-5.6,1-7.4,3c-1.7,2-2.7,4.8-2.7,8.3v14.7h-2.7v-28.5
			h2.7v6.2C879.3,406.9,880.7,405.3,882.5,404.2z"/>
		<path class="st0" d="M903.5,404.2c1.8-1.1,4.1-1.7,6.7-1.7v2.7h-0.7c-3.1,0-5.6,1-7.4,3c-1.7,2-2.7,4.8-2.7,8.3v14.7h-2.7v-28.5
			h2.5v6.2C900.2,406.9,901.6,405.3,903.5,404.2z"/>
		<path class="st0" d="M935.4,405.3c1.8,1.7,2.8,4.4,2.8,7.9v18h-2.5v-5.1c-1,1.7-2.2,3-3.9,3.9c-1.7,1-3.8,1.4-6.3,1.4
			c-3.1,0-5.7-0.7-7.4-2.2c-1.8-1.5-2.8-3.5-2.8-5.9c0-2.3,0.8-4.3,2.5-5.7c1.7-1.5,4.4-2.2,8.1-2.2h9.7v-2.3c0-2.7-0.7-4.6-2.2-6
			c-1.4-1.4-3.5-2.1-6.3-2.1c-1.8,0-3.7,0.3-5.5,1c-1.7,0.7-3.1,1.5-4.4,2.5l-1.4-2c1.4-1.3,3.1-2.2,5.1-3c2-0.7,4.1-1,6.3-1
			C930.9,402.5,933.6,403.5,935.4,405.3z M931.8,427.6c1.7-1,2.9-2.7,3.7-4.8v-5.3h-9.7c-2.8,0-4.8,0.4-6,1.5
			c-1.3,1-1.8,2.4-1.8,4.2c0,1.8,0.7,3.4,2.1,4.4c1.4,1,3.4,1.7,5.8,1.7C928.1,429.2,930.2,428.6,931.8,427.6z"/>
		<path class="st0" d="M950.2,430.4c-2.1-0.7-3.7-1.5-4.9-2.5l1.3-2.2c1.1,1,2.7,1.7,4.5,2.4c1.8,0.7,3.7,1,5.7,1
			c2.9,0,5-0.4,6.4-1.4c1.4-1,2.1-2.2,2.1-3.9c0-1.1-0.3-2.1-1.1-2.8c-0.7-0.7-1.7-1.1-2.8-1.5c-1-0.3-2.5-0.7-4.5-1
			c-2.2-0.3-4.1-0.8-5.5-1.3c-1.4-0.4-2.5-1.3-3.5-2.3c-1-1-1.5-2.5-1.5-4.3c0-2.2,1-4.1,2.8-5.6c1.8-1.5,4.5-2.2,8-2.2
			c1.8,0,3.6,0.3,5.3,0.8c1.7,0.4,3.2,1.1,4.3,2l-1.3,2.2c-1.1-0.8-2.4-1.5-3.9-1.8c-1.5-0.4-3-0.7-4.5-0.7c-2.7,0-4.6,0.4-6,1.5
			c-1.4,1-2,2.3-2,3.8c0,1.3,0.3,2.2,1.1,3c0.8,0.7,1.7,1.3,2.8,1.7c1.1,0.3,2.7,0.7,4.6,1.1c2.2,0.3,3.9,0.8,5.3,1.3
			c1.4,0.4,2.5,1.1,3.5,2.2c1,1,1.4,2.4,1.4,4.2c0,2.3-1,4.3-2.9,5.7c-2,1.4-4.8,2.1-8.3,2.1C954.3,431.5,952.1,431.1,950.2,430.4z"
			/>
		<path class="st0" d="M976.2,430.4c-2.1-0.7-3.7-1.5-4.9-2.5l1.3-2.2c1.1,1,2.7,1.7,4.5,2.4c1.8,0.7,3.7,1,5.7,1
			c2.9,0,5-0.4,6.4-1.4c1.4-1,2.1-2.2,2.1-3.9c0-1.1-0.3-2.1-1.1-2.8c-0.7-0.7-1.7-1.1-2.8-1.5c-1-0.3-2.5-0.7-4.5-1
			c-2.2-0.3-4.1-0.8-5.5-1.3s-2.5-1.3-3.5-2.3c-1-1-1.5-2.5-1.5-4.3c0-2.2,1-4.1,2.8-5.6c1.8-1.5,4.5-2.2,8-2.2
			c1.8,0,3.6,0.3,5.3,0.8c1.7,0.4,3.2,1.1,4.3,2l-1.3,2.2c-1.1-0.8-2.4-1.5-3.9-1.8c-1.5-0.4-3-0.7-4.5-0.7c-2.7,0-4.6,0.4-6,1.5
			c-1.4,1-2,2.3-2,3.8c0,1.3,0.3,2.2,1.1,3c0.8,0.7,1.7,1.3,2.8,1.7c1.1,0.3,2.7,0.7,4.6,1.1c2.2,0.3,3.9,0.8,5.3,1.3
			c1.4,0.4,2.5,1.1,3.5,2.2c1,1,1.4,2.4,1.4,4.2c0,2.3-1,4.3-2.9,5.7c-2,1.4-4.8,2.1-8.3,2.1C980.4,431.5,978.3,431.1,976.2,430.4z"
			/>
		<path class="st0" d="M1025.5,417.6h-24.4c0.1,2.2,0.6,4.2,1.7,5.9c1,1.7,2.4,3,4.3,3.9c1.7,1,3.8,1.4,6,1.4c1.8,0,3.6-0.3,5.1-1
			c1.7-0.7,2.9-1.7,3.9-3l1.7,1.7c-1.3,1.5-2.8,2.7-4.6,3.5c-1.8,0.8-3.9,1.1-6,1.1c-2.8,0-5.3-0.6-7.6-1.8
			c-2.2-1.3-3.9-2.9-5.2-5.1c-1.3-2.2-1.8-4.6-1.8-7.4c0-2.8,0.6-5.2,1.7-7.4c1.1-2.2,2.8-3.9,4.9-5.1c2.1-1.3,4.4-1.8,7-1.8
			c2.5,0,4.9,0.6,7,1.8c2.1,1.1,3.7,2.9,4.9,5.1c1.1,2.2,1.7,4.6,1.7,7.4L1025.5,417.6z M1006.5,406.3c-1.7,1-2.9,2.1-3.8,3.7
			c-1,1.7-1.5,3.5-1.7,5.5h21.7c-0.1-2-0.7-3.8-1.7-5.5s-2.3-2.9-3.8-3.7c-1.7-1-3.4-1.4-5.3-1.4
			C1009.9,404.9,1008.2,405.5,1006.5,406.3z"/>
		<path class="st0" d="M1056.2,402.8l-12.9,28.5h-2.8l-12.8-28.5h2.9l11.4,25.4l11.4-25.4H1056.2z"/>
		<path class="st0" d="M1061.9,395.2c-0.4-0.4-0.7-1-0.7-1.5c0-0.6,0.3-1.1,0.7-1.7c0.4-0.4,1-0.7,1.7-0.7c0.6,0,1.1,0.3,1.7,0.6
			c0.4,0.4,0.7,1,0.7,1.5c0,0.6-0.3,1.1-0.7,1.7c-0.4,0.4-1,0.7-1.7,0.7C1062.8,395.9,1062.4,395.7,1061.9,395.2z M1062.1,402.8h2.7
			v28.5h-2.7V402.8z"/>
		<path class="st0" d="M1098.6,405.6c2.1,2.1,3.1,5,3.1,9v16.6h-2.7v-16.4c0-3.1-0.8-5.6-2.4-7.3c-1.7-1.7-3.8-2.5-6.7-2.5
			c-3.4,0-5.9,1-7.9,3c-2,2-2.9,4.6-2.9,8v15.1h-2.7v-28.5h2.5v6.2c1-2,2.4-3.6,4.4-4.6c2-1.1,4.2-1.7,6.9-1.7
			C1093.7,402.5,1096.5,403.5,1098.6,405.6z"/>
	</g>
	<g>
		<g>
			<path class="st0" d="M984.5,343c-1.1,1-2.3,1.7-2.3,1.7s0,0,0.1,0C983.1,344.1,983.8,343.6,984.5,343z"/>
			<path class="st0" d="M986.4,340.8c-0.3,0.3-0.4,0.3-0.7,0.6c0.1,0,0.1,0,0.1-0.1C986,341,986.3,340.9,986.4,340.8z"/>
			<path class="st0" d="M982.2,344.7c0.3,0,1.4-0.4,0.3,0.6c-1.3,1-3.9,2.9-5.2,3.8c-1.3,1,0.1,0.3,0.3,0.3c-0.7,0.4-1.3,1-1.7,1.3
				c-0.4,0.3-0.8,0.6-0.8,0.6c-0.8,0.7,0.7-0.3,3.2-2C983.5,344.7,997.8,334,982.2,344.7z"/>
			<path class="st0" d="M992.4,336.7c-2.3,1.7-4.6,3.4-6.9,5c-0.6,0.6-1.5,1.4-0.7,1C988.2,340.2,990.5,338.5,992.4,336.7z"/>
			<path class="st0" d="M951,353.5c0,0,0,0,0.3,0c0.3,0.1,0.6,0.3,1.4,0.4C952,353.8,951.6,353.7,951,353.5c0,0,0,0.1-0.7-0.1
				c1.4,0.4,2.9,0.8,4.4,1c0.3,0.1,0.8,0.1,1.1,0.1c0.3,0,0.3,0,0.6,0.1c0.3,0,0.3,0,0.6,0c0.3,0,0.8,0,1.1,0c0.3,0,0.4,0,0.6,0h0.6
				c0.4,0,0.8,0,1.3,0c0.4,0,0.8-0.1,1.3-0.1c0.8-0.1,1.7-0.3,2.4-0.4c0.3,0,0.4-0.1,0.6-0.1l0.6-0.1c0.3-0.1,0.8-0.3,1.1-0.3
				l1.1-0.4c0.3-0.1,0.3-0.1,0.6-0.3l0.6-0.3c0.3-0.3,0.7-0.4,1.1-0.6c0.3-0.3,0.7-0.4,1-0.7l-0.7,0.3l-0.3,0.3l-0.3,0.1l-1.4,0.6
				c-1,0.3-1.8,0.7-2.9,1c-1,0.3-2,0.4-3,0.7c-0.4,0.1-1,0.1-1.5,0.3h-0.3h-0.3h-0.8h-0.8c-0.3,0-0.4,0-0.7,0c-0.4,0-1,0-1.5-0.1
				c-0.4,0-1-0.1-1.5-0.1c-0.3,0-0.4-0.1-0.7-0.1l-0.7-0.1l-0.7-0.1l-0.7-0.3l-0.7-0.3C951.5,353.6,951.3,353.6,951,353.5
				c-0.3-0.2-0.9-0.4-1.3-0.5c-0.3-0.1-0.4-0.3-0.7-0.3l-0.7-0.3l-0.7-0.3c-0.3-0.1-0.4-0.3-0.7-0.3c-0.4-0.3-0.8-0.4-1.3-0.7
				c-0.8-0.6-1.7-1-2.3-1.7c-1.5-1-3-2.1-4.4-3.1c-2.9-2.1-5.7-4.1-8.4-5.8c3.7,2.7,6.9,5,10,7.2c0.8,0.6,1.5,1.1,2.3,1.7
				c0.3,0.3,0.8,0.6,1.1,0.8c0.4,0.3,0.8,0.6,1.3,0.8C946.9,351.9,948.8,352.8,951,353.5z"/>
			<path class="st0" d="M972.2,350.3c0.4-0.3,1-0.6,1.4-1C972.4,350.2,972.2,350.3,972.2,350.3z"/>
			<path class="st0" d="M883.6,139.1c0.7-2.5,1.3-5,1.8-7.4c0.7-2.9,1.4-5.7,2.1-8.4c1.5,0,3,0,4.5-0.1c1,0,2.1,0,3-0.1
				c2,0,4.1-0.1,6-0.1c-2,0-4.1,0-6.2,0c-2.5,0-5.1,0-7.7,0c-2,7.4-3.8,14.9-5.6,21.7c-1.7,6.4-3.1,12.4-4.5,17.7
				C879.4,154.9,881.5,147.1,883.6,139.1z"/>
			<path class="st0" d="M944.4,122.3c-12.1-0.1-22,0-31.7,0.3c9.7,0,19.4-0.1,28.9-0.1C942.7,122.3,943.6,122.3,944.4,122.3z"/>
			<path class="st0" d="M931.1,122.7c-11.1,0-20.4,0.3-29.8,0.4C911.7,122.9,922,122.8,931.1,122.7z"/>
			<path class="st0" d="M874.2,292.9c2.3,2.5,4.5,4.4,6.2,5.8c0.4,0.3,0.8,0.7,1.1,1c0.3,0.3,0.7,0.6,1,0.8c0.3,0.3,0.7,0.4,1,0.7
				c0.3,0.3,0.6,0.4,0.8,0.6c1,0.6,2.2,1.4,3.9,2.4c-0.3-0.3-0.7-0.4-1-0.8c-0.8-0.6-1.5-1-2.3-1.7l-1.1-0.8l-1-0.8
				c-0.3-0.3-0.7-0.4-1-0.8l-1-0.8l-0.6-0.4l-0.4-0.4l-1-1c-2.7-2.4-5.1-5.1-7.3-8c-1.8-2.3-3.4-4.8-4.6-6.9c1,2,2.2,3.8,3.5,5.7
				C871.3,289.5,872.7,291.2,874.2,292.9z"/>
			<path class="st0" d="M884.6,301.7c-1-0.6-1.7-1-2-1.1c-0.3-0.3-0.3-0.3-0.3-0.1c0.3,0.3,1.1,1,2.2,1.5
				C886.4,303.3,888.5,304.5,884.6,301.7z"/>
			<path class="st0" d="M857.2,265.7c-0.1-0.3-0.1-0.7-0.3-1.1c-0.1-0.6-0.1-1-0.3-1.7c-0.1-0.6-0.3-1-0.3-1.7c0,0.3,0,0.3,0.1,0.6
				c0,0.3,0,0.3,0.1,0.6c0,0.3,0.1,0.7,0.1,1C857,264.3,857.1,265,857.2,265.7z"/>
			<path class="st0" d="M876.2,178c-1.7,6.2-3.2,12.4-4.8,18.4c3.2-12.5,6.6-25.3,9.1-35.8c-0.4,1.5-1,3.1-1.3,4.6
				C878.6,168.6,877.5,173.4,876.2,178z"/>
			<path class="st0" d="M885.3,306.3c-1.7-1.3-3.6-2.5-5.3-3.8c-1.7-1.4-3.4-2.8-5-4.3c-3.1-3-5.9-6.4-8.4-10
				c-4.9-7.2-8.1-15.3-9.7-23.6c-1.4-8.4-1-17.1,1-25.3c0.1-0.4,0.3-1,0.3-1.5l0.4-1.5l0.3-0.7l0.3-0.7l0.3-1.5c0.6-2,1-3.9,1.5-5.9
				c1-3.9,2.1-7.9,3.1-11.8c4.1-15.7,7.9-30.6,11.5-45.1c1.5-6.2,3.4-13.3,5.3-21.2c2.1-8.3,4.4-17.1,6.7-25.8c2.7,0,5.5,0,8.1-0.1
				c2.3,0,4.5,0,6.9-0.1c4.5-0.1,9-0.1,13.2-0.1c8.6-0.1,16.4-0.3,23.1-0.6c-2.8,0-5.5,0-8,0c3.8-0.1,7.4-0.3,10.7-0.3
				c14.5-0.1,28.9-0.1,43.3-0.3c15.2,0,30.5-0.1,45.9-0.1c3.7,14,7.6,28.3,11.4,42.7c1.7,6.3,3.1,10.9,4.8,17.1
				c1.7,6.4,3.4,12.5,5,18.8c0,0,0-0.1,0-0.3c1.7,6.4,3.5,12.9,5.2,19.2c0.8,3.2,1.7,6.4,2.5,9.7c0.4,1.7,0.8,3.2,1.3,4.9l0.1,0.6
				l0.3,0.6l0.3,1.3l0.3,0.6l0.1,0.7l0.3,1.3c1.7,6.9,2.3,14,1.7,21.2c-0.6,7.2-2.4,14.3-5.5,21c-2.8,6.3-6.7,12.1-11.4,17.1
				c-2.3,2.5-4.9,4.9-7.7,7l-1,0.8c-0.3,0.3-0.7,0.6-1,0.8l-2,1.4l-3.9,2.9c-3.9,2.9-4.1,2.7-6.7,4.5c-10.7,7.4-18.7,12.9-30.5,21.3
				l-0.1-0.1c-1.7,1.3-3.4,2.5-4.8,3.5c5.2-4.6,19.5-15.3,3.9-4.6l0,0c0.8-0.6,1.7-1.1,2.3-1.7c0.1-0.1,0.1-0.1,0.3-0.3l0,0
				c3.5-2.7,5.6-4.3,7.7-6c-2.3,1.7-4.6,3.4-6.9,5c0.3-0.3,0.6-0.7,0.3-0.6c0.3-0.1,0.3-0.3,0.6-0.4c1-0.7,1.8-1.4,1.8-1.4
				c0.3-0.3,0.6-0.4,0.7-0.7c5.9-4.5,15.3-11.6,13.3-10.4c-1.5,1-5.8,4.2-10.8,7.9c-0.3,0.3-0.7,0.4-1,0.7c6.5-4.8-0.3-0.3,3.6-3.2
				c5.2-3.8,10.4-7.7,15.7-11.5c2.7-2,5.3-3.8,7.9-5.7c1.3-1,2.5-1.8,3.8-2.8c1.3-1,2.5-1.8,3.7-2.8c4.9-3.7,9-8.1,12.4-13
				c3.4-4.9,6-10.4,7.9-16c1.8-5.8,2.8-11.9,2.8-18.4c0-1.1,0-2.2-0.1-3.4c-0.3-3.1-0.6-6.2-1.3-9c-0.1-0.7-0.3-1.5-0.4-2.2
				c-0.3-0.7-0.3-1.5-0.6-2.2s-0.4-1.4-0.7-2.2c-0.3-0.7-0.3-1.5-0.6-2.2c-1.5-5.9-3.1-11.7-4.6-17.7c0.3,0.7,0.4,1.5,0.7,2.3
				c-2.5-9.7-5.1-19.1-7.7-28.7c-2.9-10.4-5.8-20.9-8.7-31.5c-2.8-10.2-5.6-20.5-8.4-31.2c-2.3,0-4.8,0-7.2,0
				c-27.1,0-53.2,0.3-80.9,0.3c11.2-0.1,22.5-0.3,34.1-0.3c5.2,0,10.4,0,15.4,0c-5.2,0-10.4,0-15.4,0c-19.9,0-40.5-0.1-55.9,0.4
				c-1.7,0-1.7-0.1-3.2-0.1c-4.3,0-8.6,0-12.8,0c-2.1,0-4.2,0-6.3,0c-1,0-2.1,0-3,0c-0.4,0-1,0-1.4,0c-0.4,2-1,3.8-1.4,5.7
				c0,0,0,0.3-0.1,0.7c-0.1,0.4-0.3,1-0.3,1.5c-0.3,1-0.4,1.7-0.1,1c-2.4,9.4-5.3,20.4-7.7,29.8c-1,4.1-2,8.1-3,12.3
				c-4.3,16.8-8.6,33.7-13,50.7c-0.6,2.1-1,4.3-1.7,6.4c-0.1,0.6-0.3,1-0.4,1.7l-0.4,1.7c-0.1,0.6-0.3,1-0.4,1.5
				c-0.1,0.4-0.3,1-0.3,1.5c-0.3,1-0.4,2.1-0.6,3.1c-0.3,1-0.3,2.1-0.4,3.1c-0.1,0.6-0.1,1-0.1,1.7l-0.1,0.8c0,0.3,0,0.6,0,0.8
				l-0.1,1.7v1.7c0,8.4,2,17.1,5.8,25.1c0.4,1,1,2,1.5,2.9c0.6,1,1.1,2,1.7,2.9c1.3,2,2.7,3.8,4.2,5.7c1.5,1.8,3.1,3.6,4.8,5.1
				c0.4,0.4,0.8,0.8,1.3,1.1c0.3,0.3,0.4,0.3,0.7,0.6c0.3,0.3,0.4,0.3,0.7,0.6c0.4,0.3,1,0.7,1.3,1c0.4,0.3,1,0.7,1.3,1
				c-5.3-3.8-10-8.6-13.8-14c-3.7-5.6-6.6-11.8-8.3-18.4c-1.5-6.5-1.8-13.1-1.1-19.1c0.3-3,0.8-6,1.5-8.8c0.1-0.7,0.3-1.4,0.6-2.1
				c0.3-0.7,0.3-1.4,0.6-2.1c0.3-1.4,0.7-2.8,1-4.2c0.6-2.5,1.3-5,1.8-7.6c-1,3.8-2,7.6-2.9,11.4l-0.3,1.4c-0.1,0.4-0.3,1-0.3,1.4
				c-0.1,0.4-0.3,1-0.3,1.4l-0.3,1.4l-0.1,0.7l-0.1,0.7l-0.3,1.4c-0.1,0.4-0.1,1-0.3,1.4c-0.1,0.4-0.1,1-0.3,1.4
				c-0.4,3.6-0.7,7.3-0.4,10.9c0.3,3.6,0.7,7.2,1.7,10.7c0.4,1.8,1,3.8,1.7,5.7c0.3,1,0.7,1.8,1,2.8c0.1,0.4,0.3,1,0.6,1.4
				c0.3,0.4,0.3,1,0.6,1.4l0.7,1.4c0.3,0.4,0.4,1,0.7,1.3c0.4,1,1,1.7,1.5,2.5c1,1.7,2.1,3.4,3.4,4.9c-0.1-0.1-0.3-0.3-0.3-0.3
				c-3.7-5-6.7-10.5-8.7-16.4c-1.8-5.7-2.7-11.5-2.8-17.1c-0.1-5.6,0.6-10.9,1.8-15.7c0.1-0.6,0.3-1.1,0.4-1.8
				c0.1-0.6,0.3-1.1,0.4-1.7c0.6-2.5,1.3-5,1.8-7.6c-0.6,2.3-1.1,4.6-1.8,7c-0.3,1.1-0.6,2.3-1,3.5l-0.4,1.7
				c-0.1,0.6-0.3,1.1-0.3,1.7c-0.1,0.6-0.3,1.1-0.3,1.7l-0.3,1.7c-0.1,0.6-0.1,1.1-0.3,1.7c0,0.3-0.1,0.6-0.1,0.8l-0.1,0.8
				c0,0.6-0.1,1.1-0.1,1.7l-0.1,1.7c0,0.6,0,1.1,0,1.7c0,0.3,0,0.6,0,0.8v0.8c0.1,5.6,1.1,11.2,2.9,16.4c1,3.4,2.4,6.6,4.1,9.7
				c-0.3-0.3-0.3-0.7-0.6-1c-0.7-1.4-2.2-3.9-3-5.7c-0.3-0.4-0.4-0.8-0.6-1.1c-0.1-0.3-0.3-0.4-0.3-0.6c-0.1-0.1-0.1,0.1,0.3,1.3
				c1,2.8,2.3,5.7,3.9,8.6c1.7,2.8,3.5,5.6,5.6,8.1c2.1,2.5,4.3,4.9,6.7,7c0.3,0.3,0.6,0.6,1,0.8c0.3,0.3,0.6,0.4,1,0.7
				c0.3,0.3,0.6,0.4,1,0.7c0.3,0.3,0.6,0.4,1,0.7c0.3,0.3,0.6,0.4,1,0.7c0.3,0.3,0.6,0.4,1,0.7c0.6,0.4,1.3,1,1.8,1.3
				c4.9,3.5,9,6.5,11.9,8.6c1.5,1,2.7,2,3.5,2.5c0.4,0.3,0.7,0.6,1,0.7c0.1,0.1,0.3,0.1,0.3,0.3l0.1,0.1c0.6,0.6-7.7-5.3-16.3-11.2
				c-1-0.7-2.1-1.5-3.1-2.2c-0.6-0.3-1-0.7-1.5-1c-0.4-0.3-1-0.7-1.4-1c-0.4-0.3-1-0.7-1.3-1c-0.4-0.3-0.8-0.7-1.3-1
				c-0.3-0.3-0.8-0.7-1.1-1c-0.3-0.3-0.7-0.7-1-1c-0.6-0.7-1.1-1.3-1.7-1.7c-0.4-0.6-1-1-1.3-1.4c-0.7-0.7-1-1.1-0.8-1
				c1.5,1.8,3,3.6,4.8,5.2c-1.7-1.5-3.1-3-4.5-4.5c-1.5-1.7-3.2-4.1-4.6-6.2c-0.7-1-1.3-2.2-1.8-3.1c-0.3-0.4-0.6-1-0.8-1.4
				c-0.1-0.3-0.3-0.4-0.3-0.6c-0.1-0.3-0.3-0.3-0.3-0.6c-1.3-2.4-2.4-5.1-3.5-7.9c-1-2.8-1.7-5.8-2.2-8.8c-1-6-1.1-12.5-0.3-18.9
				c0.1-0.4,0.1-1,0.3-1.5c0-0.3,0.1-0.4,0.1-0.8c0-0.3,0.1-0.4,0.1-0.8c0.1-0.4,0.3-1,0.3-1.5s0.3-1,0.3-1.7
				c0.1-0.3,0.1-0.6,0.3-0.8c0.1-0.3,0.1-0.6,0.3-0.8c0.1-0.6,0.3-1,0.4-1.7c0.3-1.1,0.6-2.2,0.8-3.4c1-4.5,2.2-9.3,3.4-14
				c-0.1,0,1.1-4.8,0.7-3.1c2.3-8.8,5.1-19.1,5.8-23c0-0.3,0.1-0.4,0.1-0.7c0.1-0.6,0.3-1.5,0.6-2.4c3.9-14.7,6.4-25.1,9.7-38.5
				c1.1-4.6,2.4-9.3,3.7-14c-0.8,3.1-2.1,7.7-2.9,10.9c-0.3,1-0.4,2.1-0.8,3.1c-3.7,11.9-6.5,23.2-9.4,34.5c-0.3,1-0.6,2.4-1,3.8
				c-0.3,0.8-0.4,1.7-0.7,2.4c0,0.3-0.1,0.4-0.1,0.7c-2.7,10.9-5.9,23.1-8.3,32.4c-0.6,2.2-1.1,4.4-1.7,6.6
				c-0.6,2.2-1.1,4.4-1.8,6.6c-1.3,4.4-2,9-2.2,13.7c-0.1,2.3-0.1,4.6,0.1,7c0.1,2.3,0.4,4.6,0.8,7l0.1,0.8l0.3,0.8
				c0.1,0.6,0.3,1.1,0.3,1.7l0.4,1.7c0.1,0.6,0.3,1.1,0.4,1.7l0.3,0.8c0.1,0.3,0.3,0.6,0.3,0.8c0.3,0.6,0.3,1,0.6,1.7
				c0.4,1,0.8,2.2,1.3,3.2c-3.7-8.4-5.6-17.4-5.3-26.2c-0.1,5.6,0.6,10.9,1.7,16c1.3,5.1,3.1,10,5.6,14.4c0.3,0.3,0.3,0.7,0.6,1
				c0.3,0.3,0.3,0.7,0.6,1l0.6,1l0.6,1c1.7,2.8,3.7,5.3,5.8,7.7c-2-2.3-3.8-4.6-5.5-7.2c3.4,5,7.4,9.4,11.9,13.1l1.1,1
				c0.3,0.3,0.8,0.6,1.1,1c0.8,0.6,1.7,1.1,2.4,1.7c1.7,1.1,3.4,2.3,5,3.6c3.4,2.4,6.6,4.8,10,7.2c6.7,4.8,13.3,9.7,20.1,14.5
				c6.7,4.9,13.5,9.7,20.1,14.5c1.7,1.1,3.4,2.4,5,3.6c0.4,0.3,0.8,0.6,1.3,1l1.3,0.8c0.4,0.3,1,0.4,1.3,0.7c0.4,0.3,1,0.4,1.4,0.7
				c1.8,0.8,3.7,1.5,5.7,1.7c2,0.3,3.9,0.4,5.9,0.3c-0.3,0-0.7,0.1-1,0.1c-0.3,0-0.7,0.1-1.1,0.1h-1.5l-1.4-0.1
				c-0.4,0-1-0.1-1.4-0.3l-0.7-0.1c-0.3,0-0.4-0.1-0.7-0.3c-1.8-0.4-3.7-1.1-5.3-2.1c-0.4-0.3-0.8-0.4-1.3-0.7
				c-0.3-0.3-0.8-0.6-1.1-0.8c-0.8-0.6-1.7-1.1-2.3-1.7c-1.7-1.1-3.1-2.2-4.6-3.4c-6.2-4.4-12.1-8.6-17.4-12.3
				c7.4,5.3,12.5,9,19.8,14.2c0,0,0,0.1-0.6-0.3c1.1,0.8,2.3,1.7,3.6,2.5c0.6,0.4,1.3,1,1.8,1.3c0.3,0.3,0.7,0.4,1,0.6
				c0.3,0.3,0.7,0.3,1,0.6c0.7,0.3,1.4,0.7,2.1,1c0.3,0.3,0.7,0.3,1.1,0.4c0.3,0.1,0.7,0.3,1.1,0.3l1.1,0.3l0.6,0.1
				c0.3,0,0.3,0.1,0.6,0.1l1.1,0.3c0.3,0.1,0.8,0.1,1.1,0.1c-2-0.1-4.3-0.4-6.5-1.1c-1.5-0.6-3.4-1.4-5.2-2.8
				c-1.8-1.3-3.8-2.7-5.8-4.1c-17.1-12.3-33.1-23.9-49.9-36c-1.8-1.4-3.7-2.7-5.6-4.1s-3.7-2.8-5.5-4.3s-3.5-3.1-5-4.9
				c-0.3-0.4-0.8-0.8-1.1-1.3l-0.6-0.7c-0.3-0.3-0.3-0.4-0.6-0.7l-1-1.4l-1-1.4c-5.5-7.4-9.1-16.1-10.9-25.1l0.1,0.8l0.3,0.8
				c0.1,0.6,0.3,1,0.3,1.7c0.3,1,0.6,2.2,1,3.2c0.7,2.1,1.4,4.2,2.3,6.2c0.3,0.4,0.4,1,0.7,1.5c0.3,0.4,0.4,1,0.7,1.5l0.3,0.7
				l0.3,0.7c0.3,0.4,0.4,1,0.8,1.4c0.3,0.4,0.6,1,0.8,1.4l0.4,0.7l0.4,0.7c0.3,0.4,0.6,1,0.8,1.3c0.3,0.4,0.6,0.8,1,1.3l0.4,0.7
				l0.4,0.6c0.3,0.4,0.7,0.8,1,1.3c0.3,0.3,0.7,0.8,1,1.1l0.4,0.6l0.4,0.6c0.3,0.3,0.7,0.8,1,1.1c0.3,0.3,0.7,0.7,1,1.1
				c0.7,0.7,1.5,1.4,2.2,2.1c0.3,0.3,0.8,0.7,1.1,1c0.3,0.3,0.8,0.7,1.1,1c0.8,0.6,1.7,1.3,2.4,1.8l1.3,1l1.3,1
				C883.8,305.1,884.6,305.7,885.3,306.3z M1021.9,315.8c1.3-1,2.7-2.1,4.1-3c-0.3,0.1-0.4,0.3-0.7,0.4
				C1024.1,314.1,1022.8,315,1021.9,315.8z M1050.9,290.9c-1.7,2.3-3.7,4.6-5.9,7s-4.8,4.6-7.7,6.7c-5.5,4.1-11.2,8.4-17,12.5
				c0,0.1-0.1,0.1-0.1,0.1c4.9-3.5,10.2-7.4,15.7-11.4c0.3-0.3,0.7-0.4,1-0.8c0.3-0.3,0.7-0.6,1-0.8c0.3-0.2,0.7-0.6,1-0.8l1-0.8
				c0.7-0.6,1.4-1.1,2-1.7c0.7-0.6,1.3-1.3,2-1.8C1046.6,296.4,1048.9,293.7,1050.9,290.9z M1063.4,247.5c0,0.1,0,0.3,0,0.3l0,0
				C1063.4,247.8,1063.4,247.7,1063.4,247.5z M957.9,124.3c13-0.3,29.1-0.3,45.4-0.4c4.9,0,9.7-0.3,16.3-0.3c4.1,0,7.4-0.1,10.4-0.1
				c1,3.9,2.1,7.3,3.1,11.2l-1.1-4.8c2.9,11,4.9,17.1,7.7,28.1c0,0,0.3,0.3,0.3,1c0.3,0.6,0.4,1.4,0.6,2.1
				c2.1,7.7,4.1,15.7,5.9,21.9c2.1,7.7,4.2,15.7,6,21.8c0.4,1.7,1.4,4.6,2.3,7.7c1,3.8,2.1,7.7,3.1,11.5c0-0.3,0-0.3-0.1-0.4
				c-0.8-3.1-1.7-6.3-2.5-9.4c-2.7-9.4-5.7-20.3-8.3-29.6c-2.9-10.4-5.7-20.5-8.4-30.5c-2.9-10.4-5.7-20.8-8.6-31c-3,0-6,0-9,0.1
				c-4.9,0.1-9.7,0.1-14.6,0.3c-14.6,0.3-32.4,0.3-42.1,0.6C962.8,124.2,959.6,124.2,957.9,124.3z M939.8,126.9
				c17.1-0.3,36-0.3,52.1-0.3c4.1,0,10.7,0,17.5-0.1c3.4,0,6.9-0.1,10.2-0.1c1.7,0,3.2-0.1,4.8-0.1c0.7,0,1.3,0,2,0c0.6,0,1,0,1.7,0
				c0.3,1.1,0.7,2.3,1,3.1c0.3,1,0.6,2,0.8,2.5c0.4,1.3,0.6,1.5,0.4,0.3c-0.3-0.8-0.6-1.7-1-2.9c-0.3-1-0.7-2.2-1-3.5
				c-0.7,0-1.5,0-2.2,0.1c-1,0-1.8,0-2.8,0c-2,0-4.1,0-6.4,0.1c-4.5,0-9.4,0.1-14.6,0.1c-10.4,0-21.6,0-31.7,0
				C950.3,126.2,934.7,126.3,939.8,126.9z M870,207.7c1.7-6.6,3.2-13,5.2-20.4C873.5,194,871.8,200.9,870,207.7z M885.5,140.4
				c-5,20.4-10.8,42.4-16,62.8c-2,7.9-4.2,16.1-6.4,24.1c-0.6,2-1,3.9-1.7,5.9c-0.3,1-0.4,2-0.8,2.9c-0.1,0.4-0.3,1-0.4,1.4
				c-0.1,0.4-0.3,1-0.3,1.4c-1,3.8-1.5,7.6-1.7,11.1h0.3l0.1-1.7c0.3-2.8,0.8-5.2,1.4-7.6c0.1-0.6,0.3-1.1,0.4-1.7
				c0.1-0.6,0.3-1.1,0.4-1.7c0.1-0.6,0.3-1.1,0.6-1.7c0.1-0.6,0.3-1.1,0.4-1.7c-0.1,0.3-0.1,0.6-0.3,0.8c0.1-0.4,0.3-1,0.3-1.4
				c0.8-3,1.7-6.3,2.7-10c0.4-1.7,0.8-3.4,1.3-5.1c5.1-19.6,10.4-39.8,14.7-57.7c2.8-11,5-20.4,7.7-31.5
				C887.6,132.4,886.2,137,885.5,140.4z"/>
			<path class="st0" d="M865,284.9c3.6,6,8.1,11.5,13.6,15.9c0.6,0.4,1,0.8,1.7,1.3l1.7,1.1c1.1,0.8,2.2,1.7,3.4,2.3
				c2.2,1.7,4.4,3.1,6.7,4.8c10.5,7.6,22,15.7,33.7,24.1c5.8,4.2,11.7,8.4,17.5,12.6l1,0.8c0.3,0.3,0.7,0.6,1,0.8l1,0.7
				c0.3,0.3,0.7,0.4,1.1,0.6l0.6,0.3c0.3,0.1,0.3,0.3,0.6,0.3l1.1,0.6l1.1,0.4c0.3,0.1,0.3,0.1,0.6,0.3l0.6,0.1
				c0.4,0.1,0.8,0.3,1.3,0.3l1.3,0.3c0.4,0.1,0.8,0.1,1.3,0.3l0.6,0.1c0.3,0,0.4,0,0.6,0h1.3h0.3h0.3h0.6c0.8,0,1.7-0.1,2.5-0.3
				c0.3-0.1,0.6-0.3,0.6-0.3c0,0-0.1-0.1-0.3-0.1c-0.1,0-0.3,0-0.6,0l-1.3,0.1c-0.4,0-1,0-1.3,0h-0.7h-0.7c-0.4,0-1,0-1.3-0.1
				c-1.7-0.1-3.5-0.6-5.2-1c-1.7-0.6-3.2-1.4-4.9-2.2l-1.1-0.7c-0.3-0.1-0.3-0.3-0.6-0.3l-0.6-0.4l-2.3-1.7l-18.4-13.3
				c-12.3-9-24.6-17.7-36.8-26.7c-0.3-0.1-0.3-0.3-0.6-0.3c-1.3-1-2.8-1.8-4.3-3c-0.7-0.6-1.5-1-2.2-1.7c-0.3-0.3-0.7-0.6-1.1-1
				c-0.3-0.3-0.7-0.7-1.1-1c-3-2.5-5.9-5.8-8.4-9.3c-1.3-1.7-2.5-3.6-3.6-5.6s-2.1-3.9-3-5.9c-0.1-0.3-0.3-0.4-0.3-0.7l-0.3-0.8
				c-0.3-0.4-0.4-1-0.6-1.5c-0.3-1-0.7-2-1-3c-0.3-1-0.6-2-1-3c-0.1-0.4-0.3-1-0.3-1.5c-0.1-0.4-0.3-1-0.3-1.5
				c-1.7-7.7-1.7-16-0.3-23.9l0.3-1.5l0.3-1.5c0.3-1,0.6-2,0.8-2.9c0.4-2,1-3.9,1.5-5.9l2.9-11.8c-1.5,5.7-3,11.2-4.4,16.8
				c-0.3,1.4-0.8,2.8-1.1,4.2l-0.3,1l-0.3,1c-0.1,0.7-0.3,1.4-0.4,2.1c-0.4,2.8-0.8,5.6-1,8.4c-0.3,5.7,0.3,11.4,1.7,16.8
				C859.9,274.5,862.2,279.8,865,284.9z"/>
			<path class="st0" d="M912.9,122.6c-6.4,0-12.8,0.1-19.1,0.1c-2.3,0-4.5,0-6.5,0c-0.7,2.5-1.4,5.1-2,7.7c-0.4,1.8-1,3.8-1.5,5.7
				c-1,3.7-1.8,7.4-2.8,11c-1.8,7.3-3.6,14.4-5.5,21.5c3-11.5,6.2-23.1,9.1-34.8c1-3.7,1.8-7.3,2.8-10.8c1.7,0,3.1,0,4.8,0
				c1,0,2,0,3,0c2,0,3.9-0.1,5.9-0.1C905,122.7,908.9,122.6,912.9,122.6z"/>
			<path class="st0" d="M872.3,181.4c1-4.3,2.2-8.6,3.2-12.8c-4.5,17.1-9,34-13.3,51l-2.7,10.4l-1.4,5.2l-0.8,2.7
				c-0.3,1-0.4,1.7-0.7,2.7c-1.7,7.2-2,14.7-1,22c2,14.6,9.4,28.5,20.4,37.9l1,0.8c0.3,0.3,0.7,0.6,1,0.8l1,0.8
				c0.3,0.3,0.7,0.4,1,0.7l1,0.7l1,0.7c0.7,0.4,1.3,1,2,1.4c-1.4-1-2.7-2-4.1-3c-0.7-0.4-1.4-1-2-1.7c-0.7-0.6-1.3-1.1-2-1.7
				c-2.5-2.3-4.9-4.8-7-7.4c-4.2-5.3-7.6-11.4-9.7-17.7c-2.2-6.4-3.5-13-3.6-19.6c0-3.4,0.1-6.6,0.6-9.8c0.3-1.7,0.6-3.2,1-4.9
				c0.1-0.3,0.3-0.8,0.3-1.1l0.3-1.1c0.1-0.3,0.3-0.8,0.3-1.1l0.3-1.1c0.1-0.3,0.3-0.8,0.3-1.1l0.3-1.1c0.3-0.8,0.4-1.5,0.6-2.3
				c0.3-1.5,0.8-3.1,1.1-4.6c0.8-3.1,1.7-6.2,2.4-9.1c1.7-6,3.1-12.1,4.6-18c3-11.8,5.9-23.3,8.7-34.4c0.3-0.8,0.4-1.7,0.6-2.5
				c-5.5,20.9-10.9,41.6-16.4,62.2C864.8,210.3,868.6,195.8,872.3,181.4z"/>
			<path class="st0" d="M861.9,278.8c0.1,0.3,0.3,0.7,0.4,1c0.1,0.3,0.3,0.7,0.4,1l0.4,1l0.6,1c0.3,0.3,0.4,0.8,0.7,1.1
				s0.4,0.8,0.7,1.1c0.4,0.8,1,1.5,1.4,2.2c-0.3-0.4-0.6-1-0.8-1.4c-0.3-0.4-0.6-1-0.8-1.4l-0.4-0.7c-0.1-0.3-0.3-0.4-0.4-0.7
				c-0.3-0.4-0.6-1-0.8-1.5C862.9,280.9,862.3,279.8,861.9,278.8z"/>
			<path class="st0" d="M861.9,234.2c0-0.3,0.1-0.3,0.1-0.6c1.3-5,2.5-10,3.9-15.1c1.7-7,3.6-14.4,5.6-21.9
				C867.9,210.2,864.4,223.7,861.9,234.2z"/>
			<path class="st0" d="M874.8,191.2c0.4-1.7,1.3-4.6,1.7-6.3c0.3-1,0.4-2,0.7-2.9c-0.3,1.5-0.8,2.9-1.1,4.4L874.8,191.2z"/>
			<path class="st0" d="M917.5,127.3c-5,0-9.8,0.1-14.5,0.1c-2.3,0-4.8,0-7,0.1c-1.1,0-2.3,0-3.4,0c-0.3,0-0.3,0-0.6,0h-0.3
				c-0.3,0-0.4,0-0.7,0c-4.5,17.7-8.8,34.3-13,50.6c-0.3,1.3-0.6,2.5-0.8,3.8c4.6-17.3,9.1-34.6,13.1-50.5c0.3-0.8,0.4-1.7,0.7-2.7
				c0.1-0.3,0.1-0.8,0.3-1.1c0.3,0,0.7,0,1-0.1c1,0,1.8,0,2.7,0c15.3,0,29.9-0.3,44.5-0.4c-7,0-14,0.1-21.2,0.1
				C917.9,127.3,917.6,127.3,917.5,127.3z"/>
		</g>
		<g>
			<path class="st0" d="M1047.9,286c0.3,0.3,0.7,0.4,0.7,0.4l0,0C1048.3,286.3,1048.1,286.1,1047.9,286z"/>
			<path class="st0" d="M1046.8,286.3c0.1,0,0.1,0.1,0.3,0.1c0,0,0,0,0-0.1C1046.9,286.3,1046.9,286.3,1046.8,286.3z"/>
			<path class="st0" d="M1048.6,286.4c0.1-0.3-0.1-0.6,0.3-0.6c0.3,0.3,1.1,0.7,1.5,1c0.4,0.1,0.1-0.3,0.3-0.3
				c0.3,0.3,0.7,0.4,0.8,0.4c0.3,0,0-0.3-0.7-0.8C1048.8,285.7,1044.5,283.2,1048.6,286.4z"/>
			<path class="st0" d="M1045.4,284.9c0.7,0.4,1.3,0.8,2,1.3c0.3,0,0.6,0.1,0.4-0.1C1046.8,285.4,1046.1,285,1045.4,284.9z"/>
			<path class="st0" d="M1055.1,253.5c0,0,0.1,0,0.3,0.3C1055.3,253.6,1055.2,253.6,1055.1,253.5c0,0,0,0.1-0.3,0
				c1.4,0.8,2.9,1.7,4.4,2.7c0.3,0.1,0.4,0.1,0.7,0.3c-3.7-2.3-7.4-4.8-10.5-6.5C1051.4,251.3,1053,252.2,1055.1,253.5z"/>
			<path class="st0" d="M1060.4,256.2c0.1,0.1,0.3,0.1,0.3,0.3C1060.4,256.2,1060.4,256.2,1060.4,256.2z"/>
			<path class="st0" d="M996.7,224.5c-2.1,1.7-3.8,3.4-5.5,5.1c2-1.7,3.8-3.4,5.7-5c1-0.8,1.8-1.7,2.7-2.3c0.4-0.3,0.8-0.7,1.1-1
				c0.1-0.1,0.3-0.1,0.3-0.3l0.1-0.1c0.1-0.1,0.3-0.3,0.3-0.3c-0.7,0.6-1.5,1.1-2.2,1.8C998.5,223,997.5,223.7,996.7,224.5z"/>
			<path class="st0" d="M982.4,237.7c2.7-2.1,4.8-3.9,6.6-5.7c-2.1,1.7-4.1,3.5-6.2,5.2C982.8,237.4,982.5,237.4,982.4,237.7z"/>
			<path class="st0" d="M985,235c2.3-2,4.3-3.7,6.2-5.6C988.9,231.4,986.8,233.3,985,235z"/>
			<path class="st0" d="M1034.4,235.4c1.7,1,2.9,1.5,3.5,2c0.3,0.1,0.7,0.3,1.3,0.4c-0.1-0.1-0.3-0.1-0.3-0.3
				c-1.8-1-3.6-2.1-5.5-3.2c-0.8-0.4-1.5-0.8-2.2-1C1032.2,233.9,1033.3,234.7,1034.4,235.4z"/>
			<path class="st0" d="M1037.8,237.3C1035.3,236.4,1040.1,238.8,1037.8,237.3L1037.8,237.3z"/>
			<path class="st0" d="M1024.8,233.3c-0.1,0-0.1-0.1-0.3-0.1c-0.3-0.1-0.4-0.3-0.8-0.4C1024.2,232.9,1024.5,233.1,1024.8,233.3z"/>
			<path class="st0" d="M1004.8,218.2c0.8,0.4,1.5,1,2.3,1.4c0.7,0.4,1.5,1,2.2,1.4c-1.1-0.7-2.3-1.4-3.4-2.1
				c-1.4-0.8-2.7-1.7-3.9-2.4c-0.8,0.7-1.7,1.4-2.3,2c0.4-0.3,1-0.7,1.3-1c0.3-0.3,0.6-0.6,1-1
				C1002.7,216.9,1003.8,217.6,1004.8,218.2z"/>
			<path class="st0" d="M1036.8,240.5c-4.2-2.5-8.3-5-12.3-7.3c-3.9-2.5-7.9-5.1-11.6-7.4c-1.8-1.1-3.7-2.3-5.6-3.4
				c-1-0.6-1.8-1-2.8-1.7c-0.3-0.1-0.4-0.3-0.7-0.3c-0.1-0.1-0.3-0.3-0.4-0.3c-0.3-0.1-0.6-0.3-1-0.4c-0.1,0-0.3-0.1-0.3-0.3
				c-0.3,0.3-0.4,0.4-0.7,0.7c-0.1,0.1-0.3,0.3-0.3,0.3l-0.3,0.1l-0.1,0.1l-0.1,0.1c-0.8,0.7-1.7,1.4-2.4,2.2
				c-1.7,1.5-3.5,3-5.3,4.6c-3.6,3.1-7.2,6.4-9.7,9c0.6-0.4,1.1-1,1.7-1.4c-0.8,0.7-1.5,1.4-2.1,2.1c-0.6,0.4-1,1-1.7,1.4l-0.7,0.6
				l-0.3,0.1l-0.7,0.6l0.7,0.3l0.3,0.3l1.3,0.8c1.8,1.1,3.8,2.4,5.7,3.6c3.8,2.4,7.7,4.9,11.5,7.4c1.5,1,2.8,1.5,4.2,2.5
				c1.5,1,3,2,4.5,2.9c0,0,0,0,0-0.1c6.3,3.9,12.4,7.9,18.9,11.8c3,1.8,6,3.9,9,5.9c1.1,0.7,1,1,1.7,1.5c2.8,2.2,5,3.8,8.3,6.2
				l-0.1,0.1c0.6,0.3,1,0.6,1.4,1c-2-0.4-6.3-3-2.1,0.3l0,0c-0.3-0.1-0.4-0.3-0.7-0.3c0,0,0,0-0.1,0l0,0c-1-0.6-1.7-1-2.4-1.1
				c0.7,0.4,1.3,0.8,2,1.3c-0.1,0-0.3,0-0.3,0.1c-0.1,0-0.1,0-0.3-0.1c-0.3-0.3-0.6-0.3-0.6-0.3c-0.1,0-0.3,0-0.3,0
				c-1.8-1-4.6-2.5-4.3-2c0.3,0.3,1.7,1,3.1,2c0.1,0.1,0.1,0.1,0.3,0.3c-1.8-1.1-0.3,0.3-1.4-0.3c-1.5-1-3-1.8-4.5-2.9
				c-6.2-3.9-11.2-7.3-17.4-11c-0.3-0.1-0.6-0.3-0.8-0.4c-2.9-1.8-5.7-3.6-8.6-5.6c0.3,0.1,0.4,0.3,0.6,0.3c-2.3-1.5-4.5-3-7-4.4
				c-5.8-3.5-11.5-7-17.5-10.8c-1.8-1.1-3.8-2.4-5.7-3.6c-2.5-1.7-5.1-3.2-7.7-4.9c1.7-1.4,3.2-2.8,5-4.2c0.7-0.6,1.4-1.1,2-1.7
				c0.6-0.4,1.1-1,1.7-1.5l-1.7,1.5l-0.8,0.7l-1.1,1c-1.7,1.4-3.2,2.8-4.9,4.2c0.1,0.1,0.3,0.3,0.4,0.3c1.7,1.1,3.4,2.2,5.1,3.4
				c-1.7-1.1-3.4-2.2-5.1-3.4c-0.1-0.1-0.3-0.3-0.4-0.3c1.5-1.1,3-2.4,4.5-3.6c0.7-0.6,1.3-1,2-1.7c0.4-0.4,1-0.8,1.5-1.3
				c2-1.7,3.7-3.2,5.2-4.9c0.3-0.3,0.4-0.3,0.8-0.4c2.4-2,4.9-3.9,6.9-5.8c0,0,1-1,0.6-0.7c1-0.8,2.1-1.8,3.2-2.8
				c1.4-1.1,2.8-2.4,4.2-3.5c0.4-0.3,0.8-0.7,1.3-1.1c1.1,0.7,2.3,1.4,3.6,2.1c8.4,5,16.4,10,25.4,15.4c2.2,1.4,4.6,3,6.9,4.4
				c-3.4-2-6.7-3.9-10.2-6c-3.2-2.2-6.4-4.2-9.1-5.6c-0.6-0.3-1.3-0.7-1.8-1c3.7,2.2,7.4,4.5,11,6.6c1.8,1.3,3.8,2.5,5.8,3.8
				c0,0-0.1,0-0.1-0.1c-1.5-1-3.1-1.8-4.8-2.8c-2.9-2-5.7-3.7-8.3-5.1c-0.3-0.1-0.6-0.3-1-0.4c-0.6-0.3-1.3-0.7-1.8-1
				c2.3,1.4,4.5,2.8,6.9,4.2c1.4,0.8,2.8,1.7,4.2,2.5c0.8,0.6,1.7,1.1,2.5,1.7c-0.1,0-0.3-0.1-0.3-0.1c-0.8-0.4-3.2-1.3-2.2-0.3
				c2.9,1.8,6.4,4.1,9.1,5.8c1.4,0.8,2.5,1.7,3.5,2.2c0.4,0.3,0.8,0.4,1,0.6c0.1,0.1,0.3,0.1,0.3,0.3c0.1,0,0.1,0.1,0.1,0.1
				c0.3,0.4-9.8-5.8-9.5-5.5c0.6,0.3,1,0.8,1.7,1.1c-0.6-0.3-1-0.6-1.7-0.8c-1.1-0.7-2.7-1.7-3.5-2.1c-2.8-1.4-5.8-3.5-9-5.2
				c-2-1-4.4-2.3-6.7-3.6c-0.1,0.1-1.1-0.7-0.8-0.3c-2.1-1.4-4.5-3-5.7-3.2l-0.1-0.1c-0.1-0.1-0.3-0.3-0.6-0.3
				c-1-0.6-1.7-1.1-2.7-1.7c-0.7-0.4-1.4-0.8-2.1-1.1c-0.6,0.4-1,1-1.5,1.5l-0.3,0.3l-0.3,0.3c-0.1,0.1-0.3,0.3-0.4,0.4
				c-0.3,0.3-0.6,0.6-1,1c-1,0.8-2,1.7-3.1,2.5c0.7-0.6,1.7-1.4,2.4-2c0.3-0.3,0.4-0.3,0.7-0.6c0.3-0.3,0.7-0.6,1-0.8
				c0.3-0.3,0.6-0.6,1-0.8c0.4-0.4,1-1,1.5-1.4c0.6,0.3,1.1,0.7,1.7,1c0.7,0.3,1.4,0.8,2,1.1c0.3,0.1,0.6,0.3,1,0.4
				c0.3,0.1,0.3,0.3,0.6,0.3c0.1,0,0.1,0,0.3,0c2.7,1.5,5.7,3.4,8,4.6c4.3,2.5,8.7,5.6,12.9,8.4c-2.2-1.3-4.3-2.5-6.4-3.8
				c2.7,1.7,5.1,3,7.6,4.5c0.3,0.3,0.7,0.4,1,0.7l2.2,1.5c-0.7-0.4-1.4-1-2.1-1.4c1.4,0.8,2.9,1.7,4.3,2.5
				c7.7,4.6,15.6,9.7,23.1,14.6c-0.3,0-0.3-0.1-0.6-0.1c-3.7-2.3-7.4-4.8-10.5-6.5c2.1,1.4,3.6,2.2,5.7,3.6c0,0,0,0.1-0.3,0
				c1.4,0.8,2.9,1.7,4.4,2.7c-0.6-0.3-1.1-0.3-1.7-0.6c-0.8-0.3-2-1.1-3.1-1.8c-5-3.1-9.5-6.2-14.4-9.1c-4.3-2.8-8.4-5.6-12.8-8.4
				C1029.1,235.9,1033,238.3,1036.8,240.5z M1037.2,279c-0.3-0.3-0.8-0.4-1.3-0.7l0.1,0.1C1036.5,278.8,1036.8,279,1037.2,279z
				 M1028.4,273.4c2.5,1.7,6,3.8,9.3,5.9l0,0C1035.1,277.4,1031.6,275.3,1028.4,273.4z M1018.7,265.6
				C1018.9,265.6,1018.9,265.6,1018.7,265.6C1018.9,265.6,1018.9,265.6,1018.7,265.6C1018.9,265.6,1018.9,265.6,1018.7,265.6z
				 M978.4,238.3c-0.6,0.6-1.3,1.1-1.8,1.8c1,0.4,1.7,1,2.5,1.5c1.1,0.7,2.3,1.4,3.5,2.2c1.1,0.7,2.4,1.3,3.9,2.2
				c1.8,1.1,3.1,1.8,4.6,2.8l-1-0.8c2.5,1.7,4.3,2.4,6.9,4.3c0,0,0.4,0.1,0.8,0.3c1.8,1.1,3.7,2.5,5.3,3.4c1.8,1.1,3.8,2.4,5.3,3.2
				c0.3,0.3,1.3,0.6,2,1c1,0.6,1.8,1.1,2.8,1.7l-0.1-0.1c-0.7-0.4-1.5-1-2.3-1.4c-2.3-1.4-5-3-7.3-4.4c-5.7-3.6-11.1-6.9-16.4-10
				c-1.1-0.7-2.3-1.3-3.5-2c-0.7-0.3-1.4-0.8-2.1-1.3c-0.3-0.3-0.7-0.4-1-0.7l-0.6-0.3l-0.3-0.3c-1-0.4-1.7-1-2.7-1.5
				c0.3-0.3,0.6-0.6,0.8-1C977.9,239,978.4,238.5,978.4,238.3z M980.4,233.3c-0.6,0.4-1,1-1.7,1.5c-0.3,0.3-0.6,0.4-0.8,0.7
				l-0.4,0.4l-0.6,0.4c-1.5,1.3-3.1,2.7-4.5,3.8c1,0.7,2.2,1.4,3.2,2.1c1,0.7,2,1.3,3,2c3,2,11.8,7.3,10.8,5.7
				c-1.1-0.3-3.6-1.7-6.4-3.5c-1.4-0.8-2.9-1.8-4.4-2.8c-1.8-1.1-3.7-2.4-5.5-3.6c1.4-1.1,2.7-2.2,3.8-3.1c0.3-0.3,0.6-0.4,0.8-0.7
				c0.3-0.3,0.4-0.3,0.7-0.6c0.3-0.3,0.7-0.7,1-1C980.8,233.8,981.2,233.1,980.4,233.3z M1012.7,221.4c-1.7-1-3.2-1.8-5-3
				C1009.3,219.5,1011.1,220.4,1012.7,221.4z M995.5,222.7c1-1,2-1.8,3-2.8c1-0.8,2.2-2,3.5-3c1.5,1,3.1,1.8,4.6,2.9
				c1.4,0.8,2.8,1.7,4.2,2.5c3.8,2.3,7.7,5.2,11.5,7l0.1-0.1l-0.4-0.3c-1.3-1-2.3-1.7-3.4-2.4c0.1,0,0.1,0.1,0.3,0.1
				c-0.1-0.1-0.3-0.1-0.3-0.3c-0.7-0.4-1.5-1-2.4-1.5c-0.4-0.3-0.8-0.4-1.3-0.7c-2-1.3-4.1-2.5-6.2-3.8c-1-0.6-2-1.3-3-1.8
				c-0.6-0.3-1.1-0.7-1.7-1c-0.6-0.3-1.3-0.7-1.8-1.1c-0.8,0.7-1.5,1.4-2.3,2.1c-0.3,0.1-0.3,0.3-0.4,0.4c-0.1,0.1-0.3,0.3-0.4,0.3
				c-0.3,0.3-0.6,0.4-0.8,0.8c-0.6,0.4-1,1-1.7,1.5c-1,1-2.1,2.1-3.2,3.1C993.8,224.1,994.8,223.4,995.5,222.7z"/>
			<path class="st0" d="M1030,235.9c1.7,1,3.4,2,5,3c1.3,0.8,2.7,1.5,3.9,2.3c6.3,3.7,13.2,8.4,19.8,12.4c0.3,0,0.4-0.1,0.3-0.4
				c-7-4.8-14.2-9-21.1-13.7c0,0-0.1-0.1-0.3-0.1c-3.2-1.7-8-5-11.9-7.2c-3.9-2.1-7.7-4.5-11.7-6.7
				C1019.4,229,1024.6,232.2,1030,235.9z"/>
			<path class="st0" d="M989.1,232.1c1.4-1.1,2.7-2.3,4.1-3.5c1.8-1.7,3.6-3.1,5.3-4.6c0.8-0.7,1.7-1.5,2.5-2.2l0.3-0.3l0.1-0.1l0,0
				l0.1-0.1l0.3-0.3l0.6-0.6l0,0l0,0l-1,0.7c-0.6,0.4-1.1,1-1.7,1.4c-1.3,1-2.5,2.1-3.8,3.1C993.2,227.9,991.2,230,989.1,232.1z"/>
			<path class="st0" d="M1004.1,221.4c-0.3-0.1-0.6-0.3-0.8-0.4l-0.3-0.3c-0.3-0.1-0.4-0.3-0.7-0.3c3.7,2.3,7.4,4.6,11.1,7
				c6.9,4.2,13.6,8.4,20.4,12.4c0.8,0.4,1.5,1,2.3,1.4c-6-3.9-12.1-8-18-11.7c-2.9-1.8-5.8-3.7-8.7-5.5c-1.4-0.8-2.8-1.7-4.2-2.5
				c-0.3-0.3-0.7-0.4-1-0.6l-0.4-0.3l-0.1-0.1h-0.1l-0.1-0.1c-0.4-0.3-0.8-0.4-1.1-0.7c-0.1,0.1-0.3,0.3-0.3,0.3
				c-0.1,0.1-0.3,0.3-0.3,0.3c0.3-0.3,0.4-0.3,0.7-0.6c4.3,2.7,8.4,5.3,12.6,8C1011.3,225.8,1007.7,223.5,1004.1,221.4z"/>
			<path class="st0" d="M1028.4,234.9c0.3,0.3,0.7,0.4,1,0.7c0.4,0.3,0.8,0.4,1.3,0.8c-0.3-0.1-0.4-0.3-0.7-0.4
				C1029.4,235.5,1029,235.3,1028.4,234.9z"/>
			<path class="st0" d="M1018.6,226.6L1018.6,226.6c-1.2-0.8-2.5-1.6-3.8-2.4c-1.7-1-3.6-2.1-5.3-3.1
				C1012.6,223.1,1015.9,225.2,1018.6,226.6z"/>
			<path class="st0" d="M1008.9,218.6c-0.3-0.3-1.1-0.7-1.5-1c-0.3-0.1-0.4-0.3-0.7-0.3c0.3,0.3,0.7,0.4,1,0.7L1008.9,218.6z"/>
			<path class="st0" d="M985,229c2.7-2.3,5.2-4.6,7.7-6.9c1.3-1.1,2.5-2.2,3.8-3.2c0.3-0.3,0.6-0.6,1-0.8l0.4-0.4l0.7-0.6
				c1-1,2.1-1.8,3.2-2.8c1.3,0.8,2.4,1.5,3.6,2.2l0.4,0.3h0.1h0.1l0.1,0.1l0.4,0.3c-1.7-1-3.2-2.1-4.8-3.1c-1.3,1-2.5,2.1-3.8,3.1
				c-0.3,0.3-0.7,0.6-1,1c-0.3,0.3-0.7,0.6-1,1c-1.4,1.1-2.7,2.4-3.9,3.6c-0.7,0.6-1.7,1.7-2.3,2.2c-3.2,2.8-6.3,5.5-9.3,8.1
				C982.1,231.5,983.5,230.3,985,229C984.9,229.1,985,229.1,985,229z"/>
		</g>
		<g>
			<path class="st0" d="M1021.4,309c0.3,0.3,0.7,0.4,0.7,0.4l0,0C1021.9,309.3,1021.7,309.1,1021.4,309z"/>
			<path class="st0" d="M1020.3,309.1c0.1,0,0.1,0.1,0.3,0.1c0,0,0,0,0-0.1C1020.5,309.2,1020.4,309.2,1020.3,309.1z"/>
			<path class="st0" d="M1022.2,309.4c0.1-0.3-0.1-0.6,0.3-0.6c0.4,0.3,1.3,0.8,1.7,1c0.4,0.1,0.1-0.3,0.3-0.3
				c0.4,0.3,0.8,0.6,0.8,0.4c0.3,0,0-0.3-0.8-1C1022.4,308.6,1017.6,305.8,1022.2,309.4z"/>
			<path class="st0" d="M1018.6,307.7c0.7,0.4,1.5,1,2.2,1.4c0.3,0,0.7,0.1,0.6-0.1C1020.1,308.3,1019.4,307.9,1018.6,307.7z"/>
			<path class="st0" d="M1043.4,286.3c0,0,0.1,0,0.4,0.3C1043.8,286.3,1043.7,286.3,1043.4,286.3c0,0,0,0.1-0.3,0c1.5,1,3.2,2,4.9,3
				c0.3,0.1,0.4,0.1,0.7,0.3c-4.1-2.7-8.1-5.2-11.7-7.2C1039.5,283.8,1041.3,284.7,1043.4,286.3z"/>
			<path class="st0" d="M1049.4,289.4c0.1,0.1,0.3,0.3,0.4,0.3C1049.5,289.2,1049.4,289.2,1049.4,289.4z"/>
			<path class="st0" d="M976,243.2c-0.4-0.3-1-0.6-1.3-0.7c-0.3,0.3-0.7,0.7-1,1c-0.7,0.6-1.3,1.3-2,1.8c0.7-0.6,1.4-1.1,2.1-1.7
				c0.3-0.3,0.7-0.6,1-1c0.3,0.3,0.8,0.4,1.1,0.7c0.8,0.4,1.5,1,2.2,1.4c1.5,1,2.9,1.7,4.1,2.4C980.2,245.8,978.1,244.4,976,243.2z"
				/>
			<path class="st0" d="M962,254.4c2.9-2.3,5.2-4.3,7.3-6.3c-2.3,2-4.5,3.8-6.7,5.7C962.3,254,962.3,254.2,962,254.4z"/>
			<path class="st0" d="M964.9,251.5c2.7-2.2,4.8-4.2,6.9-6.2C969.3,247.5,967,249.5,964.9,251.5z"/>
			<path class="st0" d="M1020.4,266.5c2,1,3.1,1.7,3.8,2.2c0.3,0.1,0.8,0.3,1.4,0.4c-0.1-0.1-0.3-0.1-0.3-0.3c-2-1.1-4.1-2.3-6-3.6
				c-0.8-0.4-1.7-1-2.3-1.3C1017.9,264.9,1019.3,265.7,1020.4,266.5z"/>
			<path class="st0" d="M1024.2,268.6C1021.3,267.6,1026.7,270.3,1024.2,268.6L1024.2,268.6z"/>
			<path class="st0" d="M1010,264c-0.1-0.1-0.3-0.1-0.3-0.3c-0.3-0.1-0.6-0.3-0.8-0.4C1009.2,263.5,1009.6,263.7,1010,264z"/>
			<path class="st0" d="M987.8,247.4c1.7,1,3.4,2.1,5,3.1c-3.4-2.1-6.7-4.3-9.7-5.9c0.4,0.3,0.8,0.6,1.1,0.8
				C985.2,245.8,986.4,246.5,987.8,247.4z"/>
			<path class="st0" d="M1023.3,272c-4.6-2.8-9.1-5.6-13.6-8.1c-8.7-5.7-17.3-11-25.1-15.6c-1.5-0.8-3.2-1.8-5.1-3
				c-1-0.6-1.8-1.1-2.9-1.7c-0.3-0.1-0.4-0.3-0.7-0.4c-0.1-0.1-0.3-0.1-0.4-0.3c-0.3-0.1-0.6-0.3-0.8-0.4c-0.3,0.3-0.7,0.6-1,1
				l-0.3,0.3L973,244c-0.3,0.3-0.6,0.4-1,0.8c-1.1,1-2.3,2-3.4,3c-2.2,2-4.2,3.8-5.8,5.5c0.7-0.4,1.3-1,2-1.5
				c-0.8,0.8-1.7,1.7-2.3,2.3c-2.2,1.8-4.4,3.7-6.7,5.6l-1.7,1.4l-0.8,0.7l-0.1,0.1l0,0l-0.1,0.1l-0.6,0.6l0.4,0.3l0.3,0.1l0.1,0.1
				l0,0l0.3,0.1c1.5,1,3,2,4.6,2.9c3,2,6.2,3.9,9.3,6c1.7,1,3,1.7,4.6,2.8c1.7,1,3.4,2.2,5,3.2c0,0,0,0,0-0.1
				c6.9,4.4,13.7,8.7,20.9,13.1c3.4,2.1,6.6,4.3,10,6.5c1.3,0.8,1.1,1,2,1.7c3.1,2.4,5.6,4.3,9.1,6.9l-0.1,0.1c0.6,0.3,1,0.7,1.5,1
				c-2.2-0.6-6.9-3.4-2.3,0.1l0,0c-0.3-0.1-0.6-0.3-0.8-0.4c0,0,0,0-0.1,0l0,0c-1.1-0.7-2-1-2.8-1.3c0.7,0.4,1.5,1,2.2,1.4
				c-0.3,0-0.3,0-0.3,0.1c-0.1,0-0.1,0-0.3-0.1c-0.3-0.3-0.6-0.3-0.6-0.3c-0.1,0-0.3,0-0.3,0c-2.1-1-5.1-2.9-4.6-2.3
				c0.3,0.3,1.8,1.1,3.5,2.2c0.1,0.1,0.3,0.1,0.3,0.3c-2.1-1.3-0.3,0.3-1.5-0.4l-5-3.2c-6.7-4.4-12.5-8.1-19.2-12.3
				c-0.3-0.3-0.6-0.3-1-0.6c-3.2-2.1-6.3-4.1-9.5-6.2c0.3,0.1,0.4,0.3,0.7,0.3c-2.5-1.7-5.1-3.4-7.7-5c-6.4-3.8-12.8-7.7-19.5-12.1
				c-2.4-1.7-5-3.1-7.4-4.8c1.7-1.4,3.2-2.8,4.9-4.1c1.3-1,2.4-2.1,3.7-3.1c2.3-2,4.6-3.9,7-5.9c-2.5,2.3-5.2,4.5-7.9,6.9
				c-0.6,0.4-1.3,1-1.8,1.5c-0.8,0.7-1.7,1.4-2.5,2.1c0.8-0.7,1.7-1.4,2.5-2.1c0.6-0.4,1.1-1,1.8-1.5c4.8-3.8,9.7-7.7,13-11.2
				c0.4-0.3,0.4-0.3,0.8-0.6c1.3-1,2.5-2.1,3.8-3.1c0.7-0.6,1.4-1.1,2.1-1.7c1-0.8,1.7-1.5,2.7-2.3c0.3,0.1,0.4,0.3,0.6,0.3
				c0-0.1,2,1.1,1.4,0.7c1.5,1,3.1,2,4.6,3c1.4,0.8,2.8,1.7,4.1,2.4c1.1,0.7,2.2,1.3,3.4,1.8c9.1,5.6,18.1,11,27.9,17.1
				c2.4,1.5,5.2,3.2,7.7,4.9c-3.7-2.2-7.4-4.4-11.2-6.7c-3.6-2.4-7-4.6-10.1-6.3c-0.7-0.3-1.4-0.8-2.1-1.1c4.1,2.5,8.1,5,12.2,7.4
				c2.1,1.4,4.3,2.9,6.4,4.3c0,0-0.1,0-0.1-0.1c-1.7-1-3.5-2.1-5.2-3.1c-3.2-2.1-6.3-4.2-9-5.7c-0.3-0.3-0.7-0.3-1-0.6
				c-0.7-0.3-1.4-0.8-2.1-1.1c2.5,1.5,5,3.1,7.6,4.6c1.5,1,3.1,1.8,4.6,2.8c1,0.6,1.8,1.3,2.8,1.8c-0.1,0-0.3-0.1-0.3-0.1
				c-0.8-0.4-3.6-1.4-2.4-0.4c3.2,2.1,7,4.5,10.2,6.5c1.5,1,2.9,1.8,3.8,2.4c0.4,0.3,0.8,0.6,1.1,0.7c0.1,0.1,0.3,0.1,0.3,0.3
				c0.1,0,0.1,0.1,0.1,0.1c0.3,0.4-10.9-6.4-10.4-6.2c0.6,0.4,1.1,0.8,1.8,1.3c-0.6-0.3-1.1-0.7-1.7-1c-1.3-0.8-2.9-1.8-3.8-2.3
				c-3.1-1.7-6.4-3.8-9.8-5.8c-2.2-1.1-4.8-2.7-7.4-4.1c-0.1,0.1-1.3-0.8-1-0.3c-2.3-1.5-5.1-3.2-6.3-3.7c-0.1,0-0.1-0.1-0.3-0.1
				c-0.1-0.1-0.4-0.3-0.7-0.3c-3.8-2.5-6.7-4.1-10.4-6.3c-0.6-0.3-1.3-0.8-1.8-1.1s-1.1-0.7-1.7-1c0.3,0.3,0.8,0.6,1.3,0.8
				c0.4,0.3,1,0.7,1.5,1c0.3,0.1,0.6,0.3,0.8,0.4c3.2,2,6.3,3.8,9.4,5.7c0.3,0.1,0.7,0.3,1,0.6c0.3,0.1,0.4,0.3,0.7,0.4
				c0.1,0,0.1,0,0.3,0c3,1.7,6.3,3.8,8.8,5.2c4.8,2.8,9.7,6.2,14.3,9.3c-2.4-1.4-4.8-2.9-7-4.3c2.9,1.7,5.7,3.4,8.4,5
				c0.3,0.3,0.8,0.4,1.1,0.8l2.5,1.7c-0.8-0.6-1.5-1-2.3-1.5c1.7,1,3.1,1.8,4.8,2.8c8.4,5.2,17.1,10.7,25.7,16.3
				c-0.3,0-0.4-0.1-0.7-0.3c-4.1-2.7-8.1-5.2-11.7-7.2c2.3,1.5,4.1,2.5,6.3,3.9c0,0,0,0.1-0.3,0c1.5,1,3.2,2,4.9,3
				c-0.6-0.3-1.3-0.4-2-0.7c-1-0.4-2.2-1.3-3.5-2c-5.5-3.5-10.5-6.7-15.9-10.1c-4.8-3.1-9.4-6.3-14-9.3
				C1014.6,266.8,1019.1,269.4,1023.3,272z M1009.6,301.3c-0.4-0.3-1-0.4-1.4-0.8c0.1,0,0.1,0.1,0.3,0.1
				C1008.7,301,1009.2,301.2,1009.6,301.3z M999.8,295c2.8,2,6.6,4.3,10.4,6.6c0,0,0,0,0.1,0C1007.2,299.5,1003.3,297.1,999.8,295z
				 M989.1,286.4L989.1,286.4L989.1,286.4L989.1,286.4z M957.6,255.5c-1.3,1.3-2.8,2.5-4.4,3.9c-1.1,1-2.3,2.1-3.6,3.1
				c0.3,0.1,0.6,0.3,0.8,0.4c0.3,0.3,1,0.4,1.4,0.7c0.3,0.1,0.4,0.3,0.7,0.3h0.1l0.1,0.1c0.1,0.1,0.3,0.1,0.3,0.3
				c0.3,0.1,0.3,0.3,0.6,0.3c2.1,1.3,3.5,2,5.1,3l-1.1-1c2.9,2,4.8,2.8,7.6,4.8c0,0,0.4,0.1,1,0.3c2.1,1.3,4.2,2.8,5.9,3.7
				c2.1,1.3,4.2,2.7,5.9,3.6c0.4,0.3,1.4,0.7,2.2,1.1c1,0.7,2.1,1.3,3.1,2l-0.1-0.1c-0.8-0.6-1.7-1-2.5-1.7
				c-2.5-1.5-5.6-3.4-8.1-4.9c-6.3-3.9-12.3-7.6-18.2-11.1l-1-0.6l-0.4-0.3l-0.3-0.1c-0.3-0.3-0.7-0.3-1.1-0.6
				c-0.4-0.3-0.8-0.4-1.3-0.7c0.3-0.3,0.8-0.7,1.1-1.1c0.3-0.3,0.4-0.3,0.6-0.6c0.1-0.1,0.3-0.3,0.3-0.3c0.1-0.1,0.3-0.3,0.4-0.4
				c1.4-1.1,2.5-2.3,3.5-3.2C956.4,256.5,957.2,255.8,957.6,255.5z M960.2,249.9c-2,1.7-4.1,3.6-6.2,5.3c-1,1-2.1,1.7-3.1,2.5
				c-0.6,0.4-1.3,1-1.8,1.5c-0.7,0.6-1.3,1-2,1.7c-0.6,0.4-1.3,1-2.1,1.7c1.4,1,3,1.8,4.6,2.9c0.3,0.3,0.8,0.4,1.1,0.7
				c0.3,0.3,0.6,0.3,1,0.6c0.6,0.3,1.1,0.7,1.7,1c2.1,1.1,3.6,1.8,3.1,1.1c-0.8-0.3-2.2-1-3.9-2c-0.4-0.3-1-0.6-1.4-0.8
				c-0.6-0.3-1.1-0.7-1.7-1c-1.1-0.8-2.5-1.7-3.8-2.4c2.1-1.7,4.3-3.6,6.4-5.2c1.7-1.5,3.5-2.9,4.9-4.1
				C959.7,251,961.3,249.5,960.2,249.9z M996.4,251c-1.7-1-3.5-2.1-5.5-3.4C992.7,248.8,994.5,249.9,996.4,251z M977.3,241.5
				c5.7,3.1,11.5,7,17.1,10.2c4.3,2.5,8.7,5.8,12.6,7.9l0.1-0.1l-0.4-0.3c-1.4-1-2.5-1.8-3.7-2.7c0.1,0,0.1,0.1,0.3,0.1
				c-0.1-0.1-0.3-0.1-0.3-0.3c-0.8-0.6-1.7-1.1-2.7-1.7c-0.4-0.3-1-0.6-1.4-0.8c-5.2-3.2-10.7-6.7-15.6-9.5
				c-1.4-0.8-2.8-1.7-4.2-2.3c-0.3-0.3-0.7-0.3-1-0.6s-0.7-0.3-1-0.6c-0.7-0.4-1.5-0.8-2.2-1.3c-0.1,0.1-0.3,0.3-0.4,0.3
				c0.1-0.1,0.3-0.3,0.4-0.3C975.5,240.4,976.5,241.1,977.3,241.5z"/>
			<path class="st0" d="M1015.7,266.8c1.8,1.1,3.7,2.2,5.6,3.4c1.5,0.8,2.9,1.7,4.3,2.5c6.9,4.1,14.6,9.3,21.8,13.8
				c0.3,0,0.4-0.1,0.3-0.4c-7.7-5.2-15.7-10.1-23.4-15.2c-0.1,0-0.1-0.1-0.3-0.1c-3.5-1.8-8.8-5.5-13.2-8c-4.4-2.4-8.6-5-12.9-7.4
				C1004,259.2,1009.8,262.8,1015.7,266.8z"/>
			<path class="st0" d="M969.3,248.1c1.5-1.3,3-2.5,4.5-3.8l0.3-0.3l0.1-0.1c0.1-0.1,0.1-0.1,0.3-0.3c0.1-0.1,0.3-0.3,0.3-0.3
				c0.1,0.1,0.3,0.1,0.4,0.3l0.3,0.1l0.1,0.1l0.3,0.3c1,0.6,1.7,1,2.5,1.7c1.7,1,3.4,2.1,5.1,3c-1.5-1-3.1-2-4.6-3
				c-1.3-0.8-2.5-1.7-3.8-2.5c-0.1-0.1-0.3-0.1-0.4-0.3c-0.3,0.3-0.6,0.4-0.8,0.8l-0.1,0.1l0,0l-0.1,0.1c-0.1,0.1-0.3,0.3-0.4,0.3
				c-0.3,0.3-0.6,0.4-0.8,0.8C971.5,246,970.4,247,969.3,248.1z"/>
			<path class="st0" d="M987.1,250.6c-1.1-0.7-2.3-1.4-3.5-2.1c4.5,2.9,9,5.8,13.7,8.7c7.6,4.6,15.1,9.3,22.6,13.8
				c0.8,0.6,1.7,1,2.5,1.5c-13.7-9-27.4-18-39.5-25c-0.3-0.1-0.4-0.3-0.7-0.3c5.6,3.6,11.1,7,16.6,10.5
				C995.1,255.4,991.1,253,987.1,250.6z"/>
			<path class="st0" d="M1013.9,265.7c0.3,0.3,0.8,0.6,1.1,0.8c0.4,0.3,1,0.6,1.4,0.8c-0.3-0.3-0.6-0.3-0.8-0.6
				C1015.2,266.4,1014.5,266.1,1013.9,265.7z"/>
			<path class="st0" d="M1002.8,256.6L1002.8,256.6c-1.4-0.9-2.8-1.7-4.2-2.6c-2-1.1-3.9-2.3-5.9-3.6
				C996.4,252.8,999.9,255,1002.8,256.6z"/>
			<path class="st0" d="M992.2,247.9c-0.4-0.3-1.3-0.8-1.7-1c-0.3-0.1-0.6-0.3-0.8-0.3c0.3,0.3,0.8,0.4,1.1,0.8L992.2,247.9z"/>
			<path class="st0" d="M965.2,245.3c1.4-1.1,2.8-2.3,4.1-3.5c0.7-0.6,1.4-1.3,2.1-1.8c1-1,2.1-1.7,3.1-2.7c1,0.6,1.7,1.1,2.7,1.7
				c0.4,0.3,0.8,0.6,1.3,0.8c0.3,0.1,0.6,0.3,0.8,0.4c1,0.7,2.1,1.3,3.1,2c2.1,1.3,4.2,2.5,6.2,3.8c0.3,0.3,0.7,0.3,1,0.6
				c-2.3-1.5-4.5-3-6.9-4.4c-1.1-0.7-2.3-1.4-3.4-2.1c-0.3-0.1-0.6-0.3-0.8-0.4c-0.4-0.3-1-0.6-1.4-0.8c-1-0.6-1.8-1-2.7-1.7l0,0
				c-0.7,0.6-1.4,1.3-2.2,2c-0.3,0.3-0.8,0.7-1.1,1c-0.1,0.1-0.3,0.3-0.3,0.3c-0.1,0.1-0.3,0.3-0.3,0.3c-3.6,3-7,6-10.4,9
				c1.7-1.4,3.2-2.8,4.9-4.3C965.1,245.3,965.1,245.3,965.2,245.3z"/>
		</g>
		<g>
			<path class="st0" d="M992.4,330.4c0.3,0.3,0.7,0.4,0.7,0.4l0,0C992.9,330.5,992.6,330.5,992.4,330.4z"/>
			<path class="st0" d="M991.2,330.5c0.1,0,0.1,0.1,0.3,0.1c0,0,0,0,0-0.1C991.3,330.5,991.3,330.5,991.2,330.5z"/>
			<path class="st0" d="M993.1,330.7c0.1-0.3-0.1-0.6,0.3-0.6c0.4,0.3,1.3,0.8,1.7,1c0.4,0.1,0.1-0.3,0.3-0.3
				c0.4,0.3,0.8,0.6,0.8,0.4c0.3,0,0-0.3-0.8-1C993.2,330,988.5,327.2,993.1,330.7z"/>
			<path class="st0" d="M989.6,329c0.7,0.4,1.5,1,2.2,1.4c0.3,0,0.7,0.1,0.6-0.1C991.1,329.7,990.3,329.3,989.6,329z"/>
			<path class="st0" d="M1017.3,309.3c0,0,0.1,0,0.4,0.3C1017.6,309.6,1017.5,309.4,1017.3,309.3c0,0,0,0.1-0.3,0c1.5,1,3.2,2,4.9,3
				c0.3,0.1,0.4,0.1,0.7,0.3c-4.1-2.7-8.1-5.2-11.6-7.2C1013.4,307,1015,307.9,1017.3,309.3z"/>
			<path class="st0" d="M1023.2,312.4c0.1,0.1,0.3,0.3,0.4,0.3C1023.3,312.4,1023.3,312.4,1023.2,312.4z"/>
			<path class="st0" d="M950,266.4c-0.3-0.3-0.7-0.4-1-0.6c-0.1-0.1-0.3-0.3-0.4-0.3s-0.3-0.1-0.3-0.1c-0.3-0.3-0.7-0.3-1-0.4
				c-0.3,0.3-0.4,0.4-0.7,0.7l-0.1,0.1l-0.1,0.1l0,0l0,0l0,0l-0.7,0.7l0.7-0.6l0.3-0.3c0.3-0.3,0.4-0.4,0.7-0.6
				c0.3,0.1,0.4,0.3,0.7,0.3l0.3,0.3l0.1,0.1l0.3,0.3c1,0.6,1.7,1,2.7,1.7c1.7,1,3.4,2,4.8,2.9C954.2,269.2,952.1,267.8,950,266.4z"
				/>
			<path class="st0" d="M936,275.6c2.9-2.2,5.2-4.3,7.3-6.3c-2.3,2-4.5,3.8-6.7,5.7C936.3,275.2,936.1,275.5,936,275.6z"/>
			<path class="st0" d="M938.9,272.8c2.7-2.1,4.8-4.1,6.7-6C943.3,268.9,940.9,270.8,938.9,272.8z"/>
			<path class="st0" d="M994.3,289.7c2,1,3.1,1.7,3.8,2.2c0.3,0.1,0.8,0.3,1.4,0.4c-0.1-0.1-0.3-0.1-0.3-0.3c-2-1.1-3.9-2.3-6-3.6
				c-0.8-0.4-1.7-1-2.3-1.3C991.9,288.1,993.1,288.9,994.3,289.7z"/>
			<path class="st0" d="M998.1,291.8C995.3,290.9,1000.6,293.4,998.1,291.8L998.1,291.8z"/>
			<path class="st0" d="M983.9,287.1c-0.1-0.1-0.3-0.1-0.3-0.3c-0.3-0.1-0.6-0.3-0.8-0.4C983.2,286.7,983.6,287,983.9,287.1z"/>
			<path class="st0" d="M961.7,270.7c1.7,1,3.4,2.1,5,3.1c-3.4-2.1-6.7-4.3-9.7-5.9c0.4,0.3,0.8,0.6,1.1,0.8
				C959.2,269.2,960.5,269.9,961.7,270.7z"/>
			<path class="st0" d="M997.2,295.1c-4.6-2.8-9.1-5.6-13.6-8.1c-8.7-5.7-17.1-11-25.1-15.6c-1.7-1-3.6-2.1-5.7-3.4
				c-1-0.7-2.1-1.3-3.2-2c-0.3-0.1-0.6-0.3-0.8-0.4c-0.3-0.1-0.3-0.3-0.6-0.3c-0.3-0.3-0.6-0.3-1-0.6c-0.3,0.3-0.6,0.6-1,0.8
				l-0.3,0.3c0,0-0.3,0.3-0.3,0.3c-0.3,0.3-0.6,0.4-0.8,0.7c-1,1-2.1,1.8-3,2.7c-2,1.7-3.7,3.5-5.1,5c0.7-0.4,1.3-1,2-1.5
				c-0.8,0.8-1.7,1.5-2.3,2.3c-2.4,2.1-4.9,4.2-7.3,6.2l-3.4,2.8l-0.7,0.6c0.3,0.1,0.6,0.3,0.8,0.4c1.4,0.8,2.7,1.7,4.1,2.5
				c2.8,1.8,5.7,3.7,8.4,5.6c1.7,1,3,1.7,4.6,2.8c1.7,1,3.4,2.2,5,3.2c0,0,0,0,0-0.1c6.9,4.4,13.7,8.7,20.9,13.1
				c3.4,2.1,6.6,4.3,10,6.5c1.3,0.8,1.1,1,1.8,1.7c3.1,2.4,5.6,4.3,9.1,6.7l-0.1,0.1c0.6,0.3,1,0.7,1.5,1c-2.2-0.6-6.9-3.4-2.3,0.1
				l0,0c-0.3-0.1-0.6-0.3-0.8-0.4c0,0,0,0-0.1,0l0,0c-1.1-0.7-2-1-2.7-1.3c0.7,0.4,1.5,1,2.2,1.4c-0.3,0-0.3,0-0.3,0.1
				c-0.1,0-0.1,0-0.3-0.1c-0.3-0.3-0.6-0.3-0.6-0.3c-0.1,0-0.3,0-0.3,0c-2.1-1-5.1-2.9-4.6-2.3c0.3,0.3,1.8,1.1,3.5,2.2
				c0.1,0.1,0.3,0.1,0.3,0.3c-2.1-1.3-0.3,0.3-1.5-0.4l-5-3.2c-6.7-4.4-12.5-8.1-19.2-12.3c-0.3-0.3-0.6-0.3-1-0.6
				c-3.2-2.1-6.3-4.1-9.4-6.2c0.3,0.1,0.4,0.3,0.7,0.3c-2.5-1.7-5-3.4-7.7-4.9c-3.1-2-6.4-3.8-9.7-5.8c-1.7-1-3.2-2-4.9-3
				c-0.8-0.4-1.7-1-2.4-1.5c-1-0.6-1.7-1.1-2.7-1.7c-2-1.3-3.8-2.4-5.7-3.7c1.8-1.5,3.6-3,5.3-4.5c1.3-1,2.5-2.2,3.9-3.2
				c2.5-2.1,5.1-4.3,7.7-6.5c-2.5,2.3-5.2,4.5-7.9,6.9c-0.6,0.4-1.3,1-1.8,1.5c-0.7,0.6-1.3,1-2,1.7c0.7-0.6,1.3-1,2-1.7
				c0.6-0.4,1.1-1,1.7-1.5c4.8-3.8,9.7-7.7,12.9-11.1c0.4-0.3,0.4-0.3,0.8-0.6c1-0.8,2.1-1.7,3-2.5c0.6-0.4,1.3-1,1.8-1.5
				c0.7-0.6,1.5-1.3,2.2-1.8c1,0.6,1.8,1.1,2.8,1.7c0,0,0.4,0.3,1,0.4c0.3,0.1,0.4,0.3,0.3,0.1c2.5,1.7,5.5,3.5,8,5
				c1,0.7,2.2,1.3,3.4,1.8c9,5.6,18.1,11,27.8,17.1c2.4,1.5,5.2,3.2,7.6,4.9c-3.7-2.2-7.4-4.4-11.2-6.7c-3.6-2.4-7-4.6-10.1-6.3
				c-0.7-0.3-1.4-0.8-2.1-1.1c4.1,2.4,8.1,5,12.1,7.4c2.1,1.4,4.3,2.9,6.4,4.3c0,0-0.1,0-0.1-0.1c-1.7-1-3.5-2.1-5.2-3.1
				c-3.1-2.1-6.3-4.2-9-5.7c-0.3-0.3-0.7-0.3-1-0.6c-0.7-0.3-1.4-0.8-2.1-1.1c2.5,1.5,5,3,7.6,4.6c1.5,1,3.1,1.8,4.6,2.8
				c1,0.6,1.8,1.3,2.8,1.8c-0.1,0-0.3-0.1-0.3-0.1c-0.8-0.4-3.6-1.4-2.4-0.4c3.2,2.1,7,4.5,10.2,6.5c1.5,1,2.9,1.8,3.8,2.4
				c0.4,0.3,0.8,0.6,1.1,0.7c0.1,0.1,0.3,0.1,0.3,0.3c0.1,0,0.1,0.1,0.1,0.1c0.3,0.4-10.8-6.4-10.4-6c0.6,0.4,1.1,0.8,1.8,1.3
				c-0.6-0.3-1.1-0.7-1.7-1c-1.3-0.8-2.9-1.8-3.8-2.3c-3.1-1.7-6.4-3.8-9.8-5.8c-2.2-1.1-4.8-2.7-7.4-4.1c-0.1,0.1-1.3-0.8-1-0.3
				c-2.3-1.5-5.1-3.2-6.3-3.6c-0.1,0-0.1-0.1-0.3-0.1c-0.1-0.1-0.4-0.3-0.7-0.3c-3.8-2.5-6.7-4.1-10.4-6.2c-1.3-0.8-2.4-1.5-3.7-2.4
				c0.8,0.6,2.1,1.4,2.9,1.8c0.3,0.1,0.6,0.3,0.8,0.4c3.2,2,6.3,3.8,9.4,5.7c0.3,0.1,0.7,0.3,1,0.6c0.3,0.1,0.4,0.3,0.7,0.4
				c0.1,0,0.1,0,0.3,0c3,1.7,6.3,3.8,8.8,5.2c4.8,2.8,9.7,6.2,14.3,9.1c-2.4-1.4-4.8-2.8-7-4.2c2.9,1.7,5.6,3.4,8.3,5
				c0.3,0.3,0.8,0.4,1.1,0.8l2.4,1.7c-0.8-0.6-1.5-1-2.3-1.5c1.7,1,3.1,1.8,4.8,2.8c8.4,5.2,17.1,10.7,25.5,16.3
				c-0.3,0-0.4-0.1-0.7-0.3c-4.1-2.7-8.1-5.2-11.6-7.2c2.3,1.5,4.1,2.5,6.3,3.9c0,0,0,0.1-0.3,0c1.5,1,3.2,2,4.9,3
				c-0.6-0.3-1.3-0.4-2-0.7c-1-0.4-2.1-1.3-3.4-2c-5.5-3.5-10.5-6.7-15.9-10.1c-4.8-3.1-9.4-6.2-14-9.1
				C988.7,290.1,993,292.6,997.2,295.1z M980.4,322.5c-0.4-0.3-1-0.4-1.4-0.8c0.1,0,0.1,0.1,0.1,0.1
				C979.8,322.2,980.1,322.5,980.4,322.5z M970.8,316.2c2.8,2,6.6,4.3,10.4,6.6c0,0,0,0,0.1,0C978.1,320.7,974.3,318.4,970.8,316.2z
				 M960.2,307.8L960.2,307.8L960.2,307.8L960.2,307.8z M931.5,276.7c-1.4,1.4-3.1,2.8-4.9,4.4c-0.8,0.7-1.7,1.4-2.4,2.1
				c-0.6,0.4-1.1,1-1.7,1.5l-0.3,0.1c0.3,0.3,0.8,0.4,1.3,0.7c0.4,0.3,1,0.4,1.3,0.7c2,1.1,3.2,2,4.9,2.9l-1.1-1
				c2.9,2,4.8,2.7,7.6,4.8c0,0,0.4,0.1,1,0.3c2.1,1.3,4.2,2.8,5.8,3.7c2.1,1.3,4.2,2.7,5.9,3.6c0.4,0.3,1.4,0.7,2.2,1.1
				c1,0.7,2.1,1.3,3,2l-0.1-0.1c-0.8-0.6-1.7-1-2.5-1.7c-2.5-1.5-5.6-3.4-8-4.9c-3.1-2-6.2-3.8-9.1-5.7c-3-1.8-5.9-3.6-8.8-5.3
				c-0.6-0.3-1.4-0.7-2.2-1.1c-0.1-0.1-0.3-0.1-0.3-0.3c0.3-0.3,0.8-0.8,1.3-1.3c0.3-0.3,0.4-0.4,0.7-0.7c0.3-0.3,0.8-0.7,1.1-1
				c1.7-1.4,3.1-2.8,4.1-3.8C930.4,277.7,931.2,277,931.5,276.7z M934.2,271.1c-2,1.7-4.1,3.6-6,5.3c-1,1-2.1,1.7-3.1,2.5
				c-0.4,0.4-1,0.8-1.5,1.3c-0.6,0.4-1.3,1-1.8,1.5c-1,0.8-2.4,2-3.9,3.2c1.4,0.8,2.9,1.7,4.3,2.7c0.3,0.3,0.7,0.4,1,0.6
				c0.1,0.1,0.3,0.3,0.4,0.3c0.1,0.1,0.3,0.1,0.4,0.3c0.4,0.3,1,0.6,1.4,0.8c1.7,1,2.9,1.4,2.3,0.7c-0.7-0.3-2-0.8-3.4-1.7
				c-0.3-0.1-0.3-0.3-0.6-0.3c-0.3-0.1-0.4-0.3-0.7-0.4c-0.4-0.3-1-0.6-1.5-1c-1-0.6-2.1-1.3-3.2-2.1c1.1-1,2.3-1.8,3.5-2.9
				c1-1,2.1-1.7,3.2-2.7c2-1.7,3.8-3.1,5.3-4.4C933.6,272.5,935.4,270.8,934.2,271.1z M970.4,274.4c-1.7-1-3.5-2.1-5.5-3.4
				C966.6,272.1,968.5,273.2,970.4,274.4z M951.3,264.9c5.6,3.1,11.5,6.9,17,10.2c4.3,2.5,8.7,5.8,12.6,7.9l0.1-0.1l-0.4-0.3
				c-1.4-1-2.5-1.8-3.7-2.7c0.1,0,0.1,0.1,0.3,0.1c-0.1-0.1-0.3-0.1-0.3-0.3c-0.8-0.6-1.7-1.1-2.7-1.7c-0.4-0.3-1-0.6-1.4-0.8
				c-5.2-3.2-10.7-6.7-15.6-9.4c-1.5-1-2.9-1.7-4.3-2.4c-1.4-0.8-2.8-1.5-4.4-2.5c0.4,0.3,1,0.7,1.5,1
				C950.3,264.3,950.9,264.7,951.3,264.9z"/>
			<path class="st0" d="M989.6,290.1c1.8,1.1,3.7,2.2,5.6,3.4c1.4,0.8,2.9,1.7,4.3,2.5c6.9,4.1,14.6,9.3,21.8,13.8
				c0.3,0,0.4-0.1,0.3-0.4c-7.7-5.2-15.7-10-23.3-15.2c-0.1,0-0.1-0.1-0.3-0.1c-3.5-1.8-8.8-5.5-13.1-7.9c-4.3-2.4-8.6-5-12.9-7.4
				C978,282.4,983.8,286.1,989.6,290.1z"/>
			<path class="st0" d="M943.3,269.4c0.7-0.6,1.5-1.3,2.2-1.8c0.3-0.3,0.7-0.6,1.1-1l0.1-0.1l0,0l0.1-0.1l0.3-0.1
				c0.1-0.1,0.3-0.3,0.3-0.3c0.3,0.1,0.3,0.3,0.6,0.3l0.3,0.1c0.3,0.1,0.4,0.3,0.7,0.4c1,0.6,2,1.1,3,1.7c2,1.1,3.8,2.3,5.8,3.5
				c-3-2-6.2-3.9-9.3-5.9c-0.3-0.3-0.7-0.4-1-0.6c-0.3,0.3-0.3,0.4-0.6,0.6c-0.1,0.1-0.1,0.3-0.3,0.3c-0.3,0.3-0.4,0.4-0.7,0.6
				C945,267.6,944.1,268.5,943.3,269.4z"/>
			<path class="st0" d="M961.2,273.9c-1.1-0.7-2.3-1.4-3.5-2.1c4.5,2.9,9,5.8,13.6,8.6c7.6,4.6,15,9.1,22.5,13.8
				c0.8,0.6,1.7,1,2.5,1.5c-13.7-9-27.2-18-39.3-25c-0.3-0.1-0.4-0.3-0.7-0.3c5.6,3.6,11.1,7,16.6,10.5
				C969,278.7,965.1,276.3,961.2,273.9z"/>
			<path class="st0" d="M987.8,288.9c0.3,0.3,0.8,0.6,1.1,0.8c0.4,0.3,1,0.6,1.4,0.8c-0.3-0.3-0.6-0.3-0.8-0.6
				C989.1,289.6,988.5,289.2,987.8,288.9z"/>
			<path class="st0" d="M976.9,280L976.9,280c-1.4-0.9-2.8-1.7-4.2-2.6c-2-1.1-3.9-2.3-5.9-3.5C970.4,276,973.9,278.3,976.9,280z"/>
			<path class="st0" d="M966.2,271.3c-0.4-0.3-1.3-0.8-1.7-1c-0.3-0.1-0.6-0.3-0.8-0.3c0.3,0.3,0.8,0.4,1.1,0.8L966.2,271.3z"/>
			<path class="st0" d="M939.1,266.5c1.1-1,2.3-2,3.4-2.9c0.3-0.3,0.6-0.4,0.8-0.7c0.3-0.3,0.8-0.7,1.1-1c1-0.7,1.7-1.5,2.5-2.2
				c4.5,2.9,6.2,3.8,8.6,5.3c2.3,1.4,4.6,2.8,6.9,4.2c0.3,0.3,0.7,0.3,1,0.6c-2.3-1.5-4.5-3-6.9-4.4c-1.1-0.7-2.3-1.4-3.4-2.1
				c-0.6-0.3-1.1-0.7-1.7-1l-0.4-0.3l-0.3-0.1l-0.3-0.3c-0.4-0.3-1-0.6-1.4-0.8c-0.7-0.4-1.5-1-2.3-1.4c-0.8,0.7-1.7,1.4-2.2,2
				c-0.6,0.4-1.1,1-1.8,1.5c-0.4,0.3-1,0.7-1.3,1.1C940.9,264.9,940.1,265.7,939.1,266.5c-1.7,1.4-3.4,2.9-5.1,4.3
				c1.7-1.4,3.2-2.8,4.9-4.2C939,266.6,939.1,266.5,939.1,266.5z"/>
		</g>
		<g>
			<path class="st0" d="M894,308.2C894,308.3,893.9,308.3,894,308.2C893.9,308.3,893.9,308.3,894,308.2
				C894,308.3,894,308.3,894,308.2z"/>
			<path class="st0" d="M893.6,307.6L893.6,307.6L893.6,307.6L893.6,307.6z"/>
			<path class="st0" d="M894,308.4c0.1,0.1,0.3,0.3,0.4,0.4c-0.1,0-0.3,0.1-0.3,0.3c0,0.1,0.1,0.3,0.3,0.3c-0.1,0-0.1,0.1-0.1,0.1
				c0.1,0.1,0.3,0.3,0.3,0.1C894.4,308.9,894.9,308.2,894,308.4z"/>
			<path class="st0" d="M894,307.6c-0.1,0.1-0.3,0.3-0.3,0.3c0,0.1,0.1,0.3,0.3,0.3C894,307.9,894,307.8,894,307.6z"/>
			<path class="st0" d="M919.5,286.4C919.5,286.4,919.5,286.3,919.5,286.4C919.6,286.3,919.6,286.4,919.5,286.4
				C919.6,286.4,919.6,286.4,919.5,286.4c0.3-0.1,0.4-0.3,0.7-0.6c0-0.1,0-0.1,0-0.3c-0.6,0.6-1.1,1-1.5,1.7
				C919,287,919.3,286.7,919.5,286.4z"/>
			<path class="st0" d="M920,285.3C920.1,285.3,920.1,285.3,920,285.3C920,285.2,920,285.3,920,285.3z"/>
			<path class="st0" d="M909.9,295.3c-0.3,0.3-0.6,0.8-0.8,1.1c0.6-0.7,1.3-1.4,1.7-2C910.6,294.8,910.2,295,909.9,295.3z"/>
			<path class="st0" d="M908.1,298.5c0.6-0.3,0.8-0.7,1-1.1C908.8,297.7,908.4,298.1,908.1,298.5
				C908.1,298.4,908.1,298.4,908.1,298.5z"/>
			<path class="st0" d="M908.2,297.7c0.4-0.3,0.7-0.8,1-1.3C908.8,296.9,908.5,297.4,908.2,297.7z"/>
			<path class="st0" d="M913.3,286.6c0.1-0.3,0.3-0.6,0.3-0.7s0-0.3,0-0.3l0,0c-0.3,0.3-0.4,0.7-0.7,1c-0.1,0.1-0.1,0.3-0.1,0.4
				C912.9,286.8,913.1,286.7,913.3,286.6z"/>
			<path class="st0" d="M913.7,285.9C913.7,286.7,914.1,285.6,913.7,285.9L913.7,285.9z"/>
			<path class="st0" d="M914.3,290.3C914.1,290.3,914.1,290.3,914.3,290.3C914.2,290.3,914.2,290.3,914.3,290.3
				C914.1,290.4,914.1,290.4,914.3,290.3z"/>
			<path class="st0" d="M909.6,291.8c0.3-0.3,0.4-0.4,0.7-0.7c-0.4,0.4-1,1-1.3,1.4c0.1,0,0.1,0,0.3-0.1
				C909.4,292.3,909.5,292,909.6,291.8z"/>
			<path class="st0" d="M915.8,288.3c-0.6,0.7-1.1,1.4-1.7,2.1c-1.3,1-2.4,2.2-3.4,3.6c-0.7,1.1-2.5,2.5-2.9,4.1
				c0.1-0.1,0.3-0.1,0.3-0.3c-0.1,0.3-0.3,0.3-0.3,0.6c-1.5,1.5-3,2.9-4.8,4.3c-0.3,0.3-0.3,0.4-0.6,0.7c-0.3,0.3-0.4,0.4-0.7,0.7
				l0,0c-1,1-2,1.8-2.9,2.9c-0.4,0.4-1,0.8-1.5,1.3c-0.3,0.1-0.3,0-0.4,0c-0.7,0.3-1.3,0.3-1.8,0.7l-0.1-0.1
				c-0.1,0.1-0.1,0.1-0.3,0.3c-0.1-0.7,0.3-1.5-0.7-1.3l0,0c0,0,0-0.1,0.1-0.1l0,0l0,0c0.1-0.3,0.1-0.3,0.1-0.6
				c-0.1,0.1-0.3,0.3-0.3,0.3c0-0.1-0.1-0.1-0.1-0.3c0,0,0,0,0-0.1l0.1-0.1v-0.1c0.1-0.4,0.4-1,0.3-1c-0.1,0-0.3,0.3-0.4,0.4h-0.1
				c0.3-0.3-0.3-0.3-0.1-0.6c0.3-0.3,0.4-0.4,0.7-0.7c1-0.8,1.8-1.7,2.8-2.5l0.1-0.1c0.4-0.4,1-0.8,1.4-1.1v0.1
				c0.4-0.3,0.8-0.6,1.1-1c0.8-1,1.7-1.8,2.5-2.8c1-1,2-1.8,2.9-2.9c-0.3,0.4-0.7,1-1.1,1.3c-0.3,0.1-0.4,0.3-0.6,0.4
				c0.3-0.1,0.4-0.3,0.6-0.4c0.8-0.6,1.7-1.1,1.8-2.1c0.1,0,0.1,0,0.3,0c0.4-0.3,1-0.7,1.1-1.1c0,0,0.1-0.3,0-0.3
				c0.3-0.3,0.8-0.7,1-1.1c0.1-0.1,0.3-0.3,0.3-0.6c1.1-1.4,2.3-2.7,3.5-4.1c0.3-0.3,0.7-0.7,1.1-1c-0.4,0.6-0.8,1.1-1.3,1.7
				c-0.6,0.4-1,0.8-1.3,1.4c-0.1,0.1-0.1,0.3-0.3,0.3c0.4-0.6,1-1.1,1.5-1.8c0.3-0.3,0.7-0.4,1-0.7l0,0c-0.3,0.3-0.4,0.6-0.6,0.8
				c-0.4,0.3-1,0.7-1.3,1.3c0,0.1-0.1,0.1-0.1,0.3c-0.1,0.1-0.1,0.3-0.3,0.3c0.3-0.3,0.7-0.7,1-1.1c0.3-0.3,0.3-0.4,0.6-0.7
				c0.1-0.1,0.3-0.3,0.4-0.3c0,0,0,0,0,0.1c-0.1,0.1,0,1,0.3,1c1-0.8,2.1-2.1,2.2-2.1c0.3,0.1-1.3,1.7-1.1,1.7
				c0.1,0,0.3-0.1,0.3-0.1c0,0.1-0.1,0.3-0.1,0.3c-0.1,0.3-0.4,0.3-0.4,0.6c-0.3,0.7-0.8,1-1.1,1.5c-0.3,0.3-0.4,1-0.7,1.4
				c0.1,0.1-0.1,0.3,0,0.3c-0.3,0.3-0.8,0.6-0.7,1l0,0c0,0,0,0.1-0.1,0.1c-0.6,0.4-0.8,1-1.1,1.7c-0.1,0.3-0.3,0.3-0.6,0.4
				c0.1-0.1,0.3-0.3,0.4-0.3l0.1-0.1c0.4-0.4,0.8-1,1.1-1.4c0,0,0-0.1,0.1-0.3c0,0,0.1,0,0.1-0.1c0,0,0,0,0-0.1c0.3-0.4,0.8-1,1-1.4
				c0.6-0.7,1.4-1.3,2.1-1.8c-0.3,0.3-0.6,0.7-0.8,1.1c0.3-0.4,0.7-0.8,1-1.3c0.1,0,0.1-0.1,0.3-0.1l0.3-0.3
				c-0.1,0.1-0.3,0.1-0.3,0.3C915.5,288.8,915.5,288.5,915.8,288.3c1-1.3,2.3-2.4,3.6-3.4c0,0.1,0,0.1,0,0.3c-0.6,0.6-1.1,1-1.5,1.7
				c0.3-0.3,0.6-0.6,0.8-0.8v0.1c0.3-0.3,0.3-0.4,0.6-0.7c0,0.3,0,0.3,0,0.6c0,0.3-0.3,0.3-0.3,0.6c-0.7,0.7-1.5,1.4-2.2,2.1
				c-0.7,0.6-1.5,1.1-2.2,1.7C914.8,289.6,915.4,288.9,915.8,288.3z M895.7,306.6c0-0.1,0.1-0.1,0.1-0.3l0,0
				C895.8,306.5,895.7,306.6,895.7,306.6z M897.2,305.5c-0.4,0.3-1,0.8-1.5,1.4l0,0C896.3,306.6,896.7,306.1,897.2,305.5z
				 M899.8,305.1L899.8,305.1L899.8,305.1L899.8,305.1z M906.1,297.4c-0.3,0.7-1,1.1-1.5,1.7c-0.3,0.1-0.3,0.4-0.4,0.7
				c-0.3,0.3-0.3,0.6-0.6,0.8l0.3-0.1c-0.4,0.3-0.4,0.8-1,1v0.3c-0.3,0.3-0.7,0.4-0.8,0.8c-0.3,0.3-0.6,0.6-0.8,0.8
				c-0.1,0-0.1,0.3-0.1,0.4c-0.1,0.1-0.3,0.3-0.4,0.4l0,0c0.1-0.1,0.3-0.3,0.3-0.3c0.3-0.3,0.7-0.8,1-1.1c0.8-0.8,1.7-1.7,2.3-2.7
				c0.1-0.3,0.3-0.4,0.4-0.7c0.4-0.7,1.1-1.1,1.3-1.8C906.1,297.6,906.3,297.5,906.1,297.4z M905.3,294.8c-0.4,0.7-1.1,1.4-1.8,1.8
				c-0.4,0.4-1.7,1.8-1,2.2C902.2,297.4,906.7,295.5,905.3,294.8z M909.8,289.6c-0.3,0.3-0.3,0.6-0.7,0.8
				C909.3,290.2,909.5,289.9,909.8,289.6z M908.8,293.7c0.6-1,1.4-1.7,2.1-2.7c0.4-0.7,1.4-1,1.7-1.7l-0.1-0.1v0.1
				c-0.3,0.1-0.4,0.3-0.7,0.3l0,0l0,0c-0.1,0.1-0.3,0.3-0.3,0.3c0,0.1-0.1,0.1-0.1,0.3c-0.7,0.7-1.5,1.5-2,2.3
				c-0.3,0.4-0.4,1-0.8,1.5C908.4,294,908.6,293.9,908.8,293.7z"/>
			<path class="st0" d="M914.7,289.1c0.3-0.3,0.4-0.6,0.7-0.8c0.1-0.3,0.3-0.4,0.4-0.7c0.8-1,2.1-2,3-2.9c-0.1-0.1-0.3-0.3-0.3-0.4
				c-1.3,0.8-2.3,2-3.5,2.9l0,0c-0.3,0.7-1.1,1.3-1.7,2c-0.3,0.8-1,1.4-1.4,2.1C912.9,290.5,913.6,289.7,914.7,289.1z"/>
			<path class="st0" d="M909.1,297.2c0.3-0.3,0.4-0.4,0.7-0.7c0.6-0.7,1.1-1.3,1.7-2c-0.4,0.3-1,0.8-1.4,1.1
				C909.5,296.2,909.3,296.8,909.1,297.2z"/>
			<path class="st0" d="M911.7,294c-0.1,0.3-0.3,0.3-0.3,0.6c0.7-0.6,1.3-1.1,2-1.8c1-1,2-2.2,2.9-3.4c0.1-0.1,0.3-0.3,0.3-0.3
				c-2.1,1.7-4.2,3.2-5.5,5.3c0,0,0,0.1-0.1,0.1c0.8-0.7,1.7-1.5,2.3-2.2C912.7,292.9,912.2,293.4,911.7,294z"/>
			<path class="st0" d="M914.4,289.4c0.1,0,0.1-0.1,0.3-0.1c0-0.1,0.1-0.1,0.1-0.3l-0.1,0.1C914.5,289.2,914.4,289.2,914.4,289.4z"
				/>
			<path class="st0" d="M911.6,289.6L911.6,289.6c-0.3,0.3-0.3,0.3-0.6,0.6c-0.3,0.3-0.4,0.6-0.7,1
				C910.8,290.6,911.3,290.2,911.6,289.6z"/>
			<path class="st0" d="M908.9,289.9c-0.1,0-0.3,0.1-0.3,0.3c0,0.2,0,0.1,0,0.3c0.1,0,0.1-0.1,0.3-0.1V289.9z"/>
			<path class="st0" d="M905.8,293.7c1-1,1.8-2.1,2.8-3.1c0-0.1,0-0.1,0.1-0.3c-0.7,0.6-1.4,1.1-1.7,2c-0.1,0.1-0.1,0.4-0.3,0.6
				c-0.6,0.6-1,1.1-1.5,1.7C905.4,294.3,905.6,294,905.8,293.7L905.8,293.7z"/>
		</g>
		<g>
			<g>
				<path class="st0" d="M871.6,288.7c-0.3,0.3-0.6,0.4-0.6,0.4l0,0C871.3,289,871.4,288.9,871.6,288.7z"/>
				<path class="st0" d="M871.7,287.7c-0.1,0-0.1,0.1-0.3,0.1c0,0,0,0,0.1,0C871.7,287.7,871.7,287.7,871.7,287.7z"/>
				<path class="st0" d="M871,289.2c0.3,0.1,0.6,0.1,0.4,0.4c-0.3,0.3-1,0.8-1.4,1.1c-0.3,0.3,0.1,0.3,0.3,0.3
					c-0.3,0.3-0.7,0.6-0.7,0.6c-0.1,0.3,0.3,0.1,1-0.4C871.7,289.6,875.3,286.3,871,289.2z"/>
				<path class="st0" d="M873.4,286.7c-0.6,0.4-1.1,1-1.7,1.5c-0.1,0.3-0.3,0.6,0,0.6C872.5,287.8,873,287.3,873.4,286.7z"/>
				<path class="st0" d="M894,304.8c0,0,0,0.1-0.3,0.3C893.9,304.9,894,304.9,894,304.8c0,0-0.1,0,0.1-0.3c-1.1,1-2.5,2.2-3.8,3.4
					c-0.1,0.3-0.3,0.3-0.3,0.6c3.4-2.8,6.6-5.5,9.1-8C897.2,302.1,896,303.3,894,304.8z"/>
				<path class="st0" d="M889.9,309c-0.1,0.1-0.3,0.3-0.3,0.3C889.9,309.1,889.9,309,889.9,309z"/>
				<path class="st0" d="M948.8,259.2c0.1-0.1,0.3-0.1,0.3-0.3c0.1-0.1,0.3-0.3,0.3-0.3c0.1-0.1,0.3-0.3,0.3-0.3
					c0.3-0.3,0.3-0.3,0.6-0.6c0.3-0.3,0.6-0.7,0.8-1c-0.3-0.1-0.4-0.3-0.7-0.3l0.6,0.3c-0.3,0.3-0.7,0.7-1,1
					c-0.3,0.3-0.3,0.3-0.6,0.6c-0.3,0.3-0.8,0.7-1.1,1c-1.7,1.4-3.1,2.8-4.4,3.9C945.3,262,947,260.6,948.8,259.2z"/>
				<path class="st0" d="M941.6,252c1.4,1,2.7,1.7,3.8,2.5c0.6,0.3,1.1,0.7,1.7,1c0.3,0.1,0.6,0.3,1,0.4l0.3,0.1c0,0,0,0,0.1,0l0,0
					h0.1l-0.1-0.1l0,0h-0.1l-0.3-0.1l-0.8-0.6c-0.6-0.3-1.1-0.7-1.7-1c-1.1-0.7-2.2-1.4-3.4-2.1C942.2,252.2,941.9,252.1,941.6,252z
					"/>
				<path class="st0" d="M944.9,253.6c1.3,0.8,2.4,1.5,3.6,2.2c0.3,0.1,0.4,0.3,0.7,0.3c0.3,0.1,0.6,0.3,0.8,0.3
					c-0.3-0.1-0.6-0.3-0.8-0.4c-0.1-0.1-0.3-0.1-0.3-0.3s-0.3-0.1-0.6-0.3C947.2,254.9,946.1,254.3,944.9,253.6z"/>
				<path class="st0" d="M917.3,290.9c-1.4,1.4-2.3,2.2-2.8,2.7c-0.3,0.3-0.4,0.6-0.8,1c0.1-0.1,0.3-0.1,0.3-0.3
					c1.5-1.4,3-2.8,4.6-4.2c0.6-0.6,1.1-1.1,1.7-1.7C919.3,289.2,918.3,290.1,917.3,290.9z"/>
				<path class="st0" d="M914.5,293.6C916.1,291.3,912.4,295.3,914.5,293.6L914.5,293.6z"/>
				<path class="st0" d="M922.1,282.4c0.1-0.1,0.1-0.1,0.3-0.3c0.3-0.3,0.4-0.3,0.7-0.6C922.7,281.9,922.3,282.2,922.1,282.4z"/>
				<path class="st0" d="M942.2,268.2c-1.4,1.1-2.7,2.2-3.9,3.4c2.7-2.3,5.5-4.6,7.7-6.6c-0.3,0.3-0.7,0.4-1,0.8
					C944.1,266.4,943.2,267.3,942.2,268.2z"/>
				<path class="st0" d="M911.7,291.6c3.6-3.1,7.2-6.3,10.5-9.4c7.2-5.9,14-11.6,19.8-17.1c1.4-1.4,3.2-2.9,5.1-4.5
					c0.4-0.4,1-0.8,1.5-1.3l0.3-0.3l0.3-0.1l0.1-0.1c0.1-0.1,0.3-0.3,0.4-0.3c0.6-0.4,1.1-1,1.7-1.5c-0.6-0.3-1-0.6-1.7-1
					c-0.3-0.1-0.4-0.3-0.7-0.3l-0.1-0.1l0,0H949l-0.1-0.1c-0.3-0.1-0.4-0.3-0.7-0.3c-1.7-1-3.4-1.8-4.9-2.5c0.6,0.4,1.3,0.8,1.8,1.3
					c-1-0.4-1.7-1-2.5-1.4c-2.5-1.7-5.1-3.2-7.7-4.9c-1.3-0.8-2.5-1.7-3.8-2.4l-1-0.6l-0.4-0.3l-0.1-0.1l-0.3-0.3l-0.3,0.3l-0.1,0.1
					l-0.3,0.3l-0.8,0.7c-1,1-2.2,1.7-3.2,2.7c-2.2,1.7-4.3,3.6-6.5,5.3c-1.4,1.1-2.3,2.1-3.6,3.2c-1.4,1.1-2.8,2.3-4.1,3.4
					c0,0,0,0,0.1,0c-5.6,4.6-11,9.3-16.7,14.2c-2.7,2.3-5.5,4.5-8.3,6.7c-1,0.8-1.1,0.7-1.8,1.1c-2.9,2-5.1,3.5-8.3,5.9l-0.1-0.1
					c-0.4,0.3-1,0.7-1.3,1c1-1.7,4.6-5,0.3-2.1l0,0c0.3-0.3,0.3-0.3,0.6-0.6c0,0,0,0,0.1,0l0,0c0.8-0.8,1.4-1.4,1.7-2
					c-0.6,0.4-1.1,1-1.7,1.5c0.1-0.1,0.1-0.3,0-0.3l0.1-0.1c0.3-0.3,0.4-0.3,0.4-0.3c0-0.1,0.1-0.3,0.1-0.3c1.4-1.5,3.8-3.6,3.1-3.4
					c-0.4,0.3-1.5,1.3-2.8,2.3c-0.1,0-0.3,0.1-0.3,0.1c1.7-1.4-0.3-0.3,0.7-1.1c1.4-1.1,2.7-2.3,4.1-3.4c5.6-4.5,10.2-8.4,15.6-13
					c0.3-0.3,0.4-0.3,0.7-0.6c2.5-2.2,5.1-4.3,7.7-6.4c-0.1,0.1-0.3,0.3-0.4,0.4c2.1-1.7,4.2-3.4,6.3-5.1c5-4.4,10-8.7,15.4-13.2
					c1.1-1,2.2-1.8,3.4-2.8c1.7,1,3.2,2.1,5,3.1c1.3,0.8,2.7,1.7,3.9,2.5c2.7,1.7,5.3,3.4,8.1,5c-2.7-1.5-5.3-3.1-7.9-4.9
					c-1.1-0.8-2.3-1.5-3.5-2.3c1.1,0.8,2.3,1.5,3.5,2.3c4.5,3,9.1,6.2,13,7.9c0.3,0.3,0.3,0.3,0.8,0.7c2.1,1.4,4.2,2.8,6.3,4.1
					c-1.7,1.3-3,2.5-4.4,3.8c0.1,0-1.7,1.4-1,1c-1,1-2.2,1.8-3.5,2.9c-1,1-2.2,1.8-3.1,2.8c-0.8,0.8-1.7,1.7-2.4,2.4
					c-7.2,6.3-14.2,12.4-21.9,19.1c-2,1.7-4.2,3.5-6.2,5.1c2.8-2.5,5.7-5.1,8.7-7.7c3-2.4,5.8-4.8,8-6.9c0.4-0.4,1-1,1.5-1.5
					c-3.2,2.8-6.4,5.6-9.5,8.4c-1.7,1.4-3.6,2.9-5.3,4.3l0.1-0.1c1.4-1.1,2.7-2.4,4.1-3.6c2.7-2.1,5.2-4.2,7.2-6.2
					c0.3-0.3,0.4-0.4,0.7-0.7c0.4-0.4,1-1,1.5-1.5c-2,1.7-3.9,3.5-5.9,5.1c-1.1,1-2.4,2.1-3.6,3.1c-0.8,0.6-1.7,1.3-2.3,1.8
					c0.1-0.1,0.1-0.1,0.3-0.3c0.7-0.6,2.1-2.7,1-2c-2.7,2.2-5.7,4.8-8.3,6.9c-1.3,1-2.3,2-3,2.5c-0.3,0.3-0.7,0.6-1,0.8
					c-0.1,0.1-0.3,0.1-0.3,0.3l-0.1,0.1c-0.4,0.1,8.4-7.6,8-7.3c-0.4,0.3-1,0.8-1.5,1.1c0.4-0.4,1-0.8,1.3-1.3c1-1,2.4-2,3-2.5
					c2.2-2.2,5-4.4,7.6-6.9c1.7-1.5,3.5-3.4,5.3-5.2c-0.1-0.1,1-1,0.6-0.7c2-1.7,4.2-3.4,4.8-4.3l0.1-0.1c0.1-0.1,0.3-0.3,0.4-0.4
					c3.2-2.5,5.2-4.6,8-7.2c1-0.8,2-1.7,3-2.5c-0.7,0.6-1.7,1.4-2.4,2c-0.3,0.3-0.4,0.3-0.7,0.6c-2.5,2.2-4.9,4.3-7.3,6.5
					c-0.3,0.3-0.4,0.4-0.7,0.8c-0.3,0.1-0.3,0.3-0.6,0.4l-0.1,0.1c-2.2,2.1-4.9,4.3-6.7,6c-3.7,3.2-7.7,6.5-11.7,9.7
					c1.8-1.7,3.7-3.2,5.5-4.9c-2.3,2-4.4,3.8-6.5,5.7c-0.3,0.3-0.7,0.6-1,0.8l-2.1,1.7c0.7-0.4,1.3-1,2-1.5c-1.3,1-2.4,2.2-3.6,3.2
					c-6.7,5.8-13.7,11.7-20.6,17.3c0.1-0.1,0.3-0.3,0.3-0.6c3.4-2.8,6.6-5.5,9.1-8c-2,1.7-3.2,2.8-5.1,4.3c0,0-0.1,0,0.1-0.3
					c-1.1,1-2.5,2.2-3.8,3.4c0.3-0.4,0.7-1,1.1-1.5c0.6-0.7,1.7-1.5,2.7-2.3c4.4-3.7,8.6-7,12.9-10.8c3.9-3.1,7.7-6.3,11.6-9.4
					C918.3,285.7,915,288.7,911.7,291.6z M881.3,280.7c0.3-0.3,0.7-0.6,1-1c-0.1,0-0.1,0.1-0.3,0.1
					C881.8,280.1,881.5,280.4,881.3,280.7z M889.4,274.2c-2.4,1.8-5.5,4.5-8.4,7c0,0,0,0,0,0.1C883.5,279.3,886.6,276.6,889.4,274.2
					z M899.5,267.6C899.5,267.6,899.4,267.6,899.5,267.6C899.4,267.6,899.4,267.6,899.5,267.6L899.5,267.6z M939.7,248.2
					c-1.5-0.8-3.2-1.8-5.1-3c-1-0.6-1.8-1.1-2.8-1.7c-0.4-0.3-1-0.6-1.4-0.8l-0.6-0.3l-0.4-0.3c-0.3-0.1-0.4-0.3-0.8-0.4
					c-0.3,0.3-0.4,0.4-0.6,0.7c-0.1,0.1-0.3,0.3-0.3,0.3c0,0-0.1,0.1-0.3,0.1c-0.1,0-0.1,0.1-0.3,0.3c-1.7,1.4-2.7,2.3-3.9,3.6
					l1.1-0.7c-2.4,1.8-3.6,3.4-6,5.2c0,0-0.3,0.4-0.6,0.7c-1.7,1.4-3.5,2.8-4.8,3.9c-1.7,1.4-3.4,2.8-4.6,4.1c-0.3,0.3-1,1-1.5,1.7
					c-0.8,0.7-1.7,1.4-2.4,2.1h0.1c0.7-0.6,1.4-1.1,2-1.7c2-1.7,4.3-3.8,6.3-5.6c5.1-4.3,9.7-8.4,14.3-12.5l0.3-0.3l0.1-0.1l0,0l0,0
					l0.1-0.1l0.3-0.3c0.3-0.3,0.4-0.4,0.7-0.7l0.3,0.1c0.3,0.1,0.4,0.3,0.7,0.3c0.1,0.1,0.3,0.1,0.4,0.3c0.3,0.1,0.4,0.3,0.7,0.4
					c1,0.6,1.8,1,2.7,1.7c1.7,1,3.4,2,4.6,2.5C938.5,247.7,939.2,248.2,939.7,248.2z M945.3,248.8c-4.1-2.3-8.4-5-12.1-7.6
					c-0.3-0.1-0.4-0.3-0.8-0.4c-0.3-0.3-0.7-0.4-1-0.6c-1-0.6-1.8-1.1-2.8-1.7c-0.4,0.4-1,1-1.5,1.4c-0.3,0.3-0.4,0.4-0.7,0.7
					c-0.1,0.1-0.3,0.3-0.3,0.3c-0.1,0.1-0.3,0.3-0.3,0.3c-0.7,0.7-1.4,1.3-1.8,1.8c-1,1-1.5,1.7-1,1.5c0.3-0.6,1-1.3,2-2.2
					c0.3-0.3,0.4-0.4,0.7-0.7c0.1-0.1,0.3-0.3,0.3-0.3c0.1-0.1,0.3-0.3,0.4-0.4c0.7-0.6,1.4-1.3,2.2-2c1,0.7,2.2,1.4,3.4,2.2
					c1,0.6,2,1.3,2.9,1.8c2,1.3,3.8,2.5,5.6,3.6C943.7,248.6,946,249.9,945.3,248.8z M936.8,274.6c1.4-1.3,2.7-2.4,4.3-3.8
					C939.7,272.1,938.3,273.4,936.8,274.6z M949.8,260.9c-4.2,3.9-9,7.9-13.2,11.7c-3.2,2.9-7.3,5.8-10.1,8.6l0.1,0.1l0.3-0.3
					c1.3-1,2.2-1.7,3.2-2.4l-0.1,0.1c0.1-0.1,0.3-0.1,0.3-0.3c0.7-0.6,1.4-1,2.2-1.7c0.3-0.3,0.7-0.7,1-1c4.2-3.6,8.6-7.3,12.2-10.7
					c1.1-1,2.2-2.1,3.2-3c0.4-0.4,1-1,1.5-1.5c0.6-0.6,1.1-1,1.7-1.7c-0.3,0.3-0.8,0.7-1.3,1c-0.3,0.3-0.4,0.3-0.7,0.6
					C950.2,260.5,950,260.7,949.8,260.9z"/>
				<path class="st0" d="M918.2,286.6c-1.4,1.3-2.9,2.5-4.3,3.8c-1.1,1-2.2,2-3.2,3c-5.3,4.8-11.7,9.8-17.5,14.9
					c-0.1,0.3,0,0.4,0.3,0.4c6.5-5.1,12.8-10.5,19.1-15.7l0.1-0.1c2.5-2.5,7-6,10.2-9c3.1-3,6.5-5.9,9.7-9
					C927.6,278.7,923.1,282.6,918.2,286.6z"/>
				<path class="st0" d="M948.6,256.2l1.3,0.7l-0.1,0.1c-0.3,0.3-0.6,0.6-0.8,0.8l-0.3,0.3l-0.1,0.1l-0.1,0.1l-0.3,0.3
					c-0.4,0.3-0.8,0.7-1.3,1.1c-1.7,1.5-3.4,2.9-5,4.4c1.3-1,2.5-2.1,3.7-3.1c1.1-1,2.3-1.8,3.5-2.9c0.6-0.4,1-1,1.1-1.3
					C949.6,256.6,949.1,256.4,948.6,256.2z"/>
				<path class="st0" d="M939.4,266.6c1-0.8,1.7-1.7,2.7-2.4c-3.7,3.1-7.3,6.2-11,9.3c-5.9,5.1-11.8,10.4-17.7,15.4
					c-0.7,0.6-1.4,1.1-2,1.7c11.4-9.1,22.6-18.4,31.8-26.8c0.1-0.1,0.3-0.3,0.6-0.4c-4.5,3.7-9,7.6-13.5,11.2
					C933.2,272,936.3,269.3,939.4,266.6z"/>
				<path class="st0" d="M919.5,285.3c-0.3,0.3-0.7,0.6-1,0.8c-0.3,0.3-0.7,0.7-1,1c0.3-0.3,0.4-0.3,0.7-0.6
					C918.6,286.1,919,285.7,919.5,285.3z"/>
				<path class="st0" d="M930.3,278.6L930.3,278.6c1.1-1,2.2-1.9,3.3-2.9c1.5-1.4,3-2.7,4.6-4.1
					C935.3,274.1,932.4,276.5,930.3,278.6z"/>
				<path class="st0" d="M940.6,272c0.3-0.3,1-0.8,1.4-1.1c0.3-0.3,0.3-0.3,0.6-0.6c-0.3,0.3-0.7,0.4-1,0.8L940.6,272z"/>
				<path class="st0" d="M950.6,251.7c2.7,1.7,5.2,3.2,7.7,4.8c-1.7,1.5-3.5,3-5.2,4.4c-0.4,0.3-0.8,0.7-1.3,1
					c-0.3,0.3-0.6,0.4-0.8,0.7c-0.6,0.4-1,1-1.5,1.4c-2.1,1.8-4.1,3.6-6.2,5.3c-0.3,0.3-0.4,0.4-0.7,0.8c1.8-1.5,3.8-3.1,5.6-4.6
					c1-0.8,1.7-1.5,2.7-2.3c0.4-0.4,1-0.8,1.4-1.1c0.7-0.6,1.4-1.3,2.1-1.8c0.6-0.4,1.1-1,1.8-1.7c0.6-0.6,1.3-1.1,1.8-1.7
					c0.1-0.1,0.3-0.3,0.4-0.3c-1.4-1-2.8-1.7-4.2-2.5c-0.7-0.4-1.4-0.8-2-1.3c-0.3-0.3-0.7-0.4-1-0.6l-0.7-0.6c-1.7-1-3.4-2-5-3
					c1.7,1,3.2,2,4.9,3C950.5,251.7,950.6,251.7,950.6,251.7z"/>
			</g>
			<g>
				<path class="st0" d="M860.5,260.2c-0.3,0.3-0.6,0.4-0.6,0.4l0,0C860.1,260.5,860.2,260.2,860.5,260.2z"/>
				<path class="st0" d="M860.5,259.1L860.5,259.1C860.4,259.2,860.4,259.2,860.5,259.1C860.5,259.2,860.5,259.2,860.5,259.1z"/>
				<path class="st0" d="M859.9,260.6c0.3,0.1,0.6,0.1,0.4,0.4c-0.3,0.3-1,0.7-1.1,1c-0.3,0.3,0.1,0.3,0.3,0.3
					c-0.3,0.3-0.6,0.4-0.6,0.6c-0.1,0.3,0.3,0.1,1-0.3C860.6,260.9,863.7,258.2,859.9,260.6z"/>
				<path class="st0" d="M861.9,258.2c-0.6,0.4-1,0.8-1.7,1.3c-0.1,0.3-0.3,0.6,0,0.4C861.2,259.3,861.6,258.9,861.9,258.2z"/>
				<path class="st0" d="M871.6,285.4c0,0,0,0.1-0.3,0.3C871.3,285.6,871.4,285.6,871.6,285.4c0,0-0.1,0,0-0.3c-1,1-2.2,2-3.4,2.9
					c-0.1,0.3-0.3,0.3-0.3,0.4c2.9-2.4,5.8-4.8,8-7C874.4,283.1,873.2,284,871.6,285.4z"/>
				<path class="st0" d="M867.9,289.1c-0.1,0.1-0.3,0.1-0.3,0.3C867.9,289.2,867.9,289.1,867.9,289.1z"/>
				<path class="st0" d="M919.3,245.5c1-0.8,1.7-1.5,2.4-2.2c0.3-0.3,0.8-0.7,1.1-1l0.3-0.3l0.1-0.1l0,0v-0.1l0.3-0.3l-0.3,0.3
					l-0.1,0.1L923,242l-0.3,0.3c-0.4,0.3-0.8,0.7-1.3,1c-0.8,0.7-1.7,1.4-2.4,2.1c-1.7,1.4-3,2.7-4.3,3.8
					C916.2,247.9,917.8,246.7,919.3,245.5z"/>
				<path class="st0" d="M922.1,239.1c0.3,0.1,0.4,0.3,0.6,0.4l0.1,0.1c0.1,0.1,0.3,0.1,0.3,0.3c0.3,0.1,0.4,0.3,0.8,0.3
					c0,0.1-0.1,0.3-0.1,0.3c0.1-0.1,0.3-0.3,0.3-0.3c-0.3-0.1-0.4-0.3-0.7-0.3l-0.3-0.3l-0.1-0.1h-0.1c0,0,0,0-0.1-0.1
					C922.4,239.4,922.2,239.2,922.1,239.1z"/>
				<path class="st0" d="M923.5,239.7c0.3,0.3,0.6,0.3,1,0.4c-0.3,0.3-0.4,0.7-1,1.1c0.4-0.4,0.8-0.8,1.1-1.1
					C924.2,240.1,923.9,239.8,923.5,239.7z"/>
				<path class="st0" d="M892.2,273.6c-1.3,1.3-2,2-2.4,2.3c-0.1,0.3-0.3,0.6-0.7,1c0.1-0.1,0.1-0.1,0.3-0.3
					c1.3-1.3,2.7-2.4,4.1-3.7c0.6-0.6,1-1,1.4-1.5C894,272.2,893,272.9,892.2,273.6z"/>
				<path class="st0" d="M889.8,275.9C891.1,273.9,888,277.6,889.8,275.9L889.8,275.9z"/>
				<path class="st0" d="M896.1,265.9c0.1,0,0.1-0.1,0.3-0.1c0.3-0.1,0.3-0.3,0.6-0.4C896.5,265.5,896.3,265.7,896.1,265.9z"/>
				<path class="st0" d="M913.8,253.6c-1.1,1-2.3,2-3.5,3c2.3-2,4.8-4.1,6.6-5.8c-0.3,0.3-0.6,0.4-1,0.7
					C915.5,252.1,914.8,252.9,913.8,253.6z"/>
				<path class="st0" d="M887.1,273.9c3.1-2.8,6.3-5.6,9.1-8.3c6.3-5.1,12.2-10.2,17.4-15.1c1.7-1.7,4.1-3.7,6.5-5.8
					c0.6-0.6,1.3-1,1.8-1.7l1-0.8l0.4-0.4c0.1-0.1,0.1-0.1,0.1-0.1l0.1-0.1c0.6-0.6,1.1-1.1,1.5-1.7c-1-0.4-1.7-0.7-2.2-0.8
					c0.1,0.1,0.3,0.3,0.4,0.3c-0.1-0.1-0.3-0.1-0.4-0.1s-0.1,0-0.3,0h-0.1l0,0l0,0l0,0h0c-3.6-2.2-7-4.4-10.7-6.7
					c-1.7-1.1-3.6-2.2-5.3-3.4c-1-0.6-1.7-1.1-2.7-1.7l-0.3-0.3h-0.1l-0.1-0.1l-0.3-0.1c-0.1,0.1-0.3,0.3-0.3,0.3
					c-0.7,0.6-1.3,1-2,1.7c-1.1,1-2,1.8-3.1,2.8c-1.1,1-2.4,2-3.6,3c0,0,0,0,0.1,0c-4.9,4.1-9.7,8.1-14.6,12.4
					c-2.3,2-4.8,3.9-7.2,5.9c-1,0.7-1,0.6-1.7,1c-2.5,1.7-4.5,3-7.3,5.1l-0.1-0.1c-0.3,0.3-0.8,0.7-1,1c0.8-1.7,3.9-4.4,0.3-2l0,0
					c0.3-0.1,0.3-0.3,0.4-0.4c0,0,0,0,0.1,0l0,0c0.7-0.7,1.1-1.3,1.5-1.7c-0.6,0.4-1,0.8-1.7,1.3c0-0.1,0-0.3,0-0.3l0.1-0.1
					c0.3-0.3,0.4-0.3,0.4-0.3c0-0.1,0.1-0.3,0.1-0.3c1.1-1.3,3.2-3.2,2.7-3c-0.3,0.1-1.3,1-2.4,2.1c-0.1,0-0.3,0.1-0.3,0.1
					c1.5-1.3-0.3-0.3,0.6-1.1c1.1-1,2.3-2,3.6-3c4.9-3.9,9-7.4,13.6-11.5c0.3-0.3,0.4-0.3,0.6-0.6c2.3-2,4.4-3.7,6.7-5.6
					c-0.1,0.1-0.3,0.3-0.3,0.4c1.8-1.5,3.7-2.9,5.5-4.5c1.4-1.3,2.8-2.4,4.2-3.7c0.7-0.6,1.4-1.3,2.1-1.8c1-0.8,2-1.7,2.9-2.5
					c1.1,0.8,2.4,1.5,3.7,2.3c1,0.6,1.8,1.1,2.8,1.7c2.7,1.7,5.5,3.5,8.1,5.1c1.4,0.8,2.7,1.7,4.1,2.5c1.4,1,2.9,1.7,4.4,2.7
					c-1.3-0.7-2.4-1.5-3.7-2.2c-1.1-0.7-2.3-1.4-3.5-2.1c-1-0.7-2.1-1.4-3-2c1,0.7,2.1,1.4,3,2c1.8,1.3,3.8,2.5,5.7,3.7
					c0.6,0.3,1.1,0.7,1.7,1c0.7,0.3,1.3,0.8,2,1.1c1.3,0.8,2.7,1.5,3.9,2.3c-0.1,0.1-0.3,0.3-0.4,0.4c-0.6,0.3-0.7,0.3-1,0.7
					c-1.7,1.3-3.1,2.5-4.8,3.8c-0.3,0.3-0.4,0.4-0.8,0.7c-0.3,0.3-0.4,0.4-0.7,0.6c-0.4,0.4-1,0.8-1.3,1.3c0,0-0.8,0.8-0.4,0.6
					c-1.7,1.5-3.8,3.2-5.6,4.8c-0.7,0.7-1.5,1.4-2.1,2.1c-6.3,5.5-12.4,10.9-19.1,16.8c-1.7,1.4-3.7,3-5.5,4.5
					c2.4-2.2,5-4.5,7.6-6.9c2.7-2.1,5.1-4.2,7-6c0.4-0.4,1-0.8,1.3-1.3c-2.8,2.4-5.6,4.9-8.3,7.3c-1.5,1.3-3.1,2.4-4.6,3.7
					c0,0,0,0,0.1-0.1c1.1-1,2.3-2.1,3.5-3.1c2.3-1.8,4.5-3.7,6.4-5.5c0.3-0.3,0.4-0.4,0.7-0.7c0.4-0.4,1-0.8,1.3-1.3
					c-1.7,1.5-3.5,3-5.1,4.5c-1,1-2.1,1.8-3.1,2.8c-0.7,0.6-1.4,1-2.1,1.7c0.1-0.1,0.1-0.1,0.3-0.3c0.6-0.6,1.7-2.4,0.8-1.8
					c-2.3,1.8-5,4.2-7.2,6c-1,1-2,1.7-2.7,2.3c-0.3,0.3-0.6,0.4-0.8,0.7c-0.3,0.1-0.3,0.3-0.3,0.3c-0.4,0,7.2-6.6,7-6.5
					c-0.4,0.3-1,0.7-1.4,1c0.3-0.3,0.8-0.8,1.1-1.1c0.8-0.8,2.1-1.7,2.7-2.3c1.8-2,4.3-3.8,6.6-6c1.4-1.4,3-3,4.6-4.6
					c-0.1-0.1,0.8-0.8,0.4-0.6c1.7-1.4,3.6-3,4.2-3.8l0.1-0.1c0.1-0.1,0.3-0.3,0.4-0.4c2.9-2.2,4.6-4.1,7-6.4
					c0.8-0.7,1.7-1.5,2.7-2.2c-0.6,0.4-1.5,1.1-2.1,1.7c-0.3,0.3-0.3,0.3-0.6,0.4c-2.2,2-4.3,3.8-6.4,5.7c-0.1,0.1-0.3,0.4-0.7,0.7
					c-0.1,0.1-0.3,0.3-0.4,0.3c0,0,0,0.1-0.1,0.1c-2,1.8-4.3,3.8-5.9,5.3c-3.1,2.9-6.9,5.7-10.2,8.4c1.7-1.5,3.2-2.9,4.8-4.3
					c-2,1.7-3.8,3.4-5.7,5c-0.3,0.3-0.6,0.4-0.8,0.7l-1.7,1.5c0.6-0.4,1.1-1,1.7-1.3c-1,1-2.1,2-3.1,2.9
					c-5.8,5.1-11.9,10.4-18.1,15.2c0.1-0.1,0.1-0.3,0.3-0.4c2.9-2.4,5.8-4.8,8-7c-1.7,1.4-2.8,2.4-4.4,3.7c0,0-0.1,0,0-0.3
					c-1,1-2.2,2-3.4,2.9c0.3-0.4,0.6-1,1-1.4c0.6-0.6,1.4-1.3,2.3-2.1c3.8-3.2,7.6-6.3,11.2-9.5c3.4-2.8,6.9-5.6,10.2-8.3
					C892.8,268.7,889.9,271.4,887.1,273.9z M868.9,253c0.3-0.3,0.6-0.6,1-0.8c-0.1,0-0.1,0-0.1,0.1
					C869.3,252.6,869.2,252.8,868.9,253z M876,247.5c-2.1,1.7-4.8,3.9-7.3,6.2l0,0C870.9,251.9,873.4,249.5,876,247.5z M884.9,241.6
					L884.9,241.6L884.9,241.6L884.9,241.6z M920.4,235.7c-2.8-1.4-6-3.6-9.3-5.6c-1-0.6-2.1-1-3.4-1.8c-0.8-0.4-1.5-1-2.1-1.3
					c-0.3-0.3-0.6-0.3-1-0.6l-0.3-0.1l-0.1-0.1h-0.1c-0.1,0-0.1-0.1-0.3-0.1l0.3,0.3c0,0,0,0,0.1,0.1l0.1,0.1l0.3,0.3
					c-0.1-0.1-0.3-0.3-0.3-0.3s-0.1-0.1-0.3-0.1c-0.1-0.1-0.3-0.1-0.3-0.3c-0.3-0.1-0.4-0.3-0.6-0.3c-0.3,0.3-0.3,0.3-0.6,0.6
					c-0.1,0.1-0.3,0.3-0.3,0.3c-0.1,0.1-0.3,0.1-0.3,0.3s-0.3,0.3-0.4,0.3c0,0-0.3,0.3-0.4,0.6c-1.5,1.3-3,2.4-4.2,3.5
					c-1.5,1.3-2.9,2.4-4.1,3.6c-0.3,0.3-0.8,1-1.4,1.4c-0.7,0.6-1.4,1.3-2.2,1.8h0.1c0.6-0.4,1.1-1,1.7-1.5c1.7-1.5,3.7-3.4,5.5-4.9
					c1.4-1.1,2.7-2.3,3.9-3.4c0.3-0.3,0.7-0.6,1-0.8l0.4-0.4l0.3-0.3l0.1-0.1c0.3-0.3,0.4-0.4,0.7-0.7c0.3,0.1,0.3,0.3,0.6,0.3
					l0.3,0.1l0.1,0.1l0.3,0.3c1,0.6,1.8,1,2.8,1.7c1,0.6,2.1,1.1,3,1.7c3,1.7,6.6,4.1,8.7,5C919.4,235.2,920.1,235.6,920.4,235.7z
					 M925.6,236c-1-0.6-1.8-1-2.8-1.7c-1-0.6-1.8-1-2.7-1.7c-1.8-1.1-3.6-2.2-5.1-3.4c-2.5-1.7-10.2-6.3-9.3-4.8
					c2,0.4,7.3,3.9,11.9,7c2.3,1.5,4.5,2.9,6,3.8c0.3,0.3,0.7,0.3,1,0.6c0.1,0.1,0.3,0.1,0.3,0.3s0.3,0.1,0.3,0.1
					C925.8,236.4,925.9,236.4,925.6,236z M909.3,259.5c1.1-1,2.3-2.2,3.8-3.4C911.7,257.2,910.6,258.2,909.3,259.5z M920.4,247.1
					c-3.6,3.5-7.7,7-11.5,10.4c-2.9,2.5-6.4,5-8.8,7.6l0.1,0.1l0.3-0.3c1-0.8,2-1.4,2.9-2.1l-0.1,0.1c0.1-0.1,0.1-0.1,0.3-0.3
					c0.6-0.4,1.3-1,1.8-1.5c0.3-0.3,0.6-0.6,1-0.8c3.7-3.1,7.4-6.4,10.7-9.4c2-1.8,3.6-3.6,5.6-5.5C922,245.8,921,246.5,920.4,247.1
					z"/>
				<path class="st0" d="M892.7,269.6c-1.3,1.1-2.5,2.2-3.8,3.4c-1,1-2,1.7-2.9,2.7c-4.6,4.2-10.4,8.7-15.3,13c0,0.3,0,0.4,0.3,0.4
					c5.7-4.4,11.1-9.3,16.8-13.8l0.1-0.1c2.2-2.2,6.2-5.3,9-8c2.8-2.7,5.7-5.2,8.4-7.9C901,262.7,897,266.2,892.7,269.6z"/>
				<path class="st0" d="M923.8,240.5l-0.4,0.4l-0.3,0.3l-0.1,0.1l-0.3,0.1l-0.4,0.3c-3.2,2.8-6,5.3-9,8c2.2-1.8,4.4-3.6,6.6-5.5
					c1-1,2.1-1.8,3-2.8c0.1-0.1,0.1-0.1,0.1-0.1v-0.1l0.1-0.1c0.1-0.1,0.1-0.3,0.3-0.3C923.5,240.8,923.7,240.6,923.8,240.5z"/>
				<path class="st0" d="M911.2,251.9c0.8-0.7,1.5-1.4,2.3-2.1c-3.2,2.7-6.4,5.5-9.7,8.1c-5.1,4.5-10.4,9-15.4,13.6
					c-0.6,0.4-1.1,1-1.7,1.5c10-8,19.8-16,27.8-23.4c0.1-0.1,0.3-0.3,0.4-0.4c-3.9,3.2-7.9,6.6-11.7,9.8
					C905.8,256.6,908.5,254.3,911.2,251.9z"/>
				<path class="st0" d="M893.9,268.5c-0.3,0.3-0.6,0.4-0.8,0.7c-0.3,0.3-0.6,0.6-1,0.8c0.3-0.1,0.4-0.3,0.6-0.4
					C893,269.2,893.5,268.9,893.9,268.5z"/>
				<path class="st0" d="M903.4,262.7C903.5,262.7,903.5,262.7,903.4,262.7c1-1,2-1.7,2.9-2.5c1.3-1.1,2.5-2.4,3.9-3.6
					C907.8,258.7,905.3,260.9,903.4,262.7z"/>
				<path class="st0" d="M912.7,257.1c0.3-0.3,1-0.7,1.1-1c0.1-0.3,0.3-0.3,0.4-0.6c-0.3,0.3-0.6,0.4-0.8,0.7L912.7,257.1z"/>
				<path class="st0" d="M931.7,240.1c-2,1.7-3.9,3.4-5.8,5c-1.3,1-2.4,2.2-3.7,3.2c-2.4,2.2-4.9,4.3-7.2,6.4l-0.6,0.7
					c3.4-2.7,6.6-5.5,9.4-8.1c0.6-0.6,1.4-1.4,2-1.8c1.1-1,2.2-1.8,3.4-2.8c1.1-1,2.2-2,3.4-2.9c-2.2-1.3-4.3-2.5-6.4-3.9
					c2.1,1.3,4.2,2.5,6.3,3.9c-0.1,0.1-0.3,0.3-0.3,0.3C931.8,240.1,931.8,240.1,931.7,240.1z"/>
			</g>
		</g>
	</g>
</g>
</svg>
